%TF.GenerationSoftware,KiCad,Pcbnew,8.0.5*%
%TF.CreationDate,2025-01-19T00:54:15+09:00*%
%TF.ProjectId,NERD-HPC_CASE_F,4e455244-2d48-4504-935f-434153455f46,rev?*%
%TF.SameCoordinates,Original*%
%TF.FileFunction,Drillmap*%
%TF.FilePolarity,Positive*%
%FSLAX45Y45*%
G04 Gerber Fmt 4.5, Leading zero omitted, Abs format (unit mm)*
G04 Created by KiCad (PCBNEW 8.0.5) date 2025-01-19 00:54:15*
%MOMM*%
%LPD*%
G01*
G04 APERTURE LIST*
%ADD10C,0.050000*%
%ADD11C,0.200000*%
G04 APERTURE END LIST*
D10*
X16800000Y-6030000D02*
X16800000Y-6325000D01*
X11510000Y-8170000D02*
G75*
G02*
X11540000Y-8140000I30000J0D01*
G01*
X11510000Y-8170000D02*
X11510000Y-8220000D01*
X7296400Y-7430800D02*
X7496400Y-7430800D01*
X7496400Y-7850800D01*
X7296400Y-7850800D01*
X7296400Y-7430800D01*
X16800000Y-6325000D02*
X19950000Y-6325000D01*
X7000000Y-6400000D02*
X7000000Y-12800000D01*
X7400000Y-13200000D02*
X20300000Y-13200000D01*
X12605000Y-7430800D02*
X12805000Y-7430800D01*
X12805000Y-7850800D01*
X12605000Y-7850800D01*
X12605000Y-7430800D01*
X16780000Y-7140000D02*
X17777800Y-7140000D01*
X11510000Y-6030000D02*
G75*
G02*
X11540000Y-6000000I30000J0D01*
G01*
X20300000Y-6000000D02*
G75*
G02*
X20700000Y-6400000I0J-400000D01*
G01*
X19950000Y-6030000D02*
G75*
G02*
X19980000Y-6000000I30000J0D01*
G01*
X20700000Y-12800000D02*
X20700000Y-6400000D01*
X16770000Y-6000000D02*
G75*
G02*
X16800000Y-6030000I0J-30000D01*
G01*
X12520000Y-8140000D02*
X11540000Y-8140000D01*
X11540000Y-7140000D02*
X12520000Y-7140000D01*
X17777800Y-8140000D02*
X16780000Y-8140000D01*
X16770000Y-6000000D02*
X11540000Y-6000000D01*
X17862800Y-7430800D02*
X18062800Y-7430800D01*
X18062800Y-7850800D01*
X17862800Y-7850800D01*
X17862800Y-7430800D01*
X7400000Y-13200000D02*
G75*
G02*
X7000000Y-12800000I0J400000D01*
G01*
X7830000Y-6000000D02*
X7400000Y-6000000D01*
X11510000Y-6030000D02*
X11510000Y-7110000D01*
X20700000Y-12800000D02*
G75*
G02*
X20300000Y-13200000I-400000J0D01*
G01*
X16780000Y-7140000D02*
X16780000Y-8140000D01*
X7860000Y-8220000D02*
X7860000Y-6030000D01*
X19980000Y-6000000D02*
X20300000Y-6000000D01*
X11540000Y-7140000D02*
G75*
G02*
X11510000Y-7110000I0J30000D01*
G01*
X19950000Y-6325000D02*
X19950000Y-6030000D01*
X12520000Y-7140000D02*
X12520000Y-8140000D01*
X7000000Y-6400000D02*
G75*
G02*
X7400000Y-6000000I400000J0D01*
G01*
X11510000Y-8220000D02*
X7860000Y-8220000D01*
X17777800Y-7140000D02*
X17777800Y-8140000D01*
X7830000Y-6000000D02*
G75*
G02*
X7860000Y-6030000I0J-30000D01*
G01*
D11*
X7258277Y-13513984D02*
X7258277Y-13313984D01*
X7258277Y-13313984D02*
X7305896Y-13313984D01*
X7305896Y-13313984D02*
X7334467Y-13323508D01*
X7334467Y-13323508D02*
X7353515Y-13342555D01*
X7353515Y-13342555D02*
X7363039Y-13361603D01*
X7363039Y-13361603D02*
X7372562Y-13399698D01*
X7372562Y-13399698D02*
X7372562Y-13428269D01*
X7372562Y-13428269D02*
X7363039Y-13466365D01*
X7363039Y-13466365D02*
X7353515Y-13485412D01*
X7353515Y-13485412D02*
X7334467Y-13504460D01*
X7334467Y-13504460D02*
X7305896Y-13513984D01*
X7305896Y-13513984D02*
X7258277Y-13513984D01*
X7458277Y-13513984D02*
X7458277Y-13380650D01*
X7458277Y-13418746D02*
X7467801Y-13399698D01*
X7467801Y-13399698D02*
X7477324Y-13390174D01*
X7477324Y-13390174D02*
X7496372Y-13380650D01*
X7496372Y-13380650D02*
X7515420Y-13380650D01*
X7582086Y-13513984D02*
X7582086Y-13380650D01*
X7582086Y-13313984D02*
X7572562Y-13323508D01*
X7572562Y-13323508D02*
X7582086Y-13333031D01*
X7582086Y-13333031D02*
X7591610Y-13323508D01*
X7591610Y-13323508D02*
X7582086Y-13313984D01*
X7582086Y-13313984D02*
X7582086Y-13333031D01*
X7705896Y-13513984D02*
X7686848Y-13504460D01*
X7686848Y-13504460D02*
X7677324Y-13485412D01*
X7677324Y-13485412D02*
X7677324Y-13313984D01*
X7810658Y-13513984D02*
X7791610Y-13504460D01*
X7791610Y-13504460D02*
X7782086Y-13485412D01*
X7782086Y-13485412D02*
X7782086Y-13313984D01*
X8039229Y-13513984D02*
X8039229Y-13313984D01*
X8039229Y-13313984D02*
X8105896Y-13456841D01*
X8105896Y-13456841D02*
X8172562Y-13313984D01*
X8172562Y-13313984D02*
X8172562Y-13513984D01*
X8353515Y-13513984D02*
X8353515Y-13409222D01*
X8353515Y-13409222D02*
X8343991Y-13390174D01*
X8343991Y-13390174D02*
X8324943Y-13380650D01*
X8324943Y-13380650D02*
X8286848Y-13380650D01*
X8286848Y-13380650D02*
X8267801Y-13390174D01*
X8353515Y-13504460D02*
X8334467Y-13513984D01*
X8334467Y-13513984D02*
X8286848Y-13513984D01*
X8286848Y-13513984D02*
X8267801Y-13504460D01*
X8267801Y-13504460D02*
X8258277Y-13485412D01*
X8258277Y-13485412D02*
X8258277Y-13466365D01*
X8258277Y-13466365D02*
X8267801Y-13447317D01*
X8267801Y-13447317D02*
X8286848Y-13437793D01*
X8286848Y-13437793D02*
X8334467Y-13437793D01*
X8334467Y-13437793D02*
X8353515Y-13428269D01*
X8448753Y-13380650D02*
X8448753Y-13580650D01*
X8448753Y-13390174D02*
X8467801Y-13380650D01*
X8467801Y-13380650D02*
X8505896Y-13380650D01*
X8505896Y-13380650D02*
X8524944Y-13390174D01*
X8524944Y-13390174D02*
X8534467Y-13399698D01*
X8534467Y-13399698D02*
X8543991Y-13418746D01*
X8543991Y-13418746D02*
X8543991Y-13475888D01*
X8543991Y-13475888D02*
X8534467Y-13494936D01*
X8534467Y-13494936D02*
X8524944Y-13504460D01*
X8524944Y-13504460D02*
X8505896Y-13513984D01*
X8505896Y-13513984D02*
X8467801Y-13513984D01*
X8467801Y-13513984D02*
X8448753Y-13504460D01*
X8629705Y-13494936D02*
X8639229Y-13504460D01*
X8639229Y-13504460D02*
X8629705Y-13513984D01*
X8629705Y-13513984D02*
X8620182Y-13504460D01*
X8620182Y-13504460D02*
X8629705Y-13494936D01*
X8629705Y-13494936D02*
X8629705Y-13513984D01*
X8629705Y-13390174D02*
X8639229Y-13399698D01*
X8639229Y-13399698D02*
X8629705Y-13409222D01*
X8629705Y-13409222D02*
X8620182Y-13399698D01*
X8620182Y-13399698D02*
X8629705Y-13390174D01*
X8629705Y-13390174D02*
X8629705Y-13409222D01*
M02*
