G04 #@! TF.GenerationSoftware,KiCad,Pcbnew,8.0.5*
G04 #@! TF.CreationDate,2025-01-19T00:54:09+09:00*
G04 #@! TF.ProjectId,NERD-HPC_CASE_F,4e455244-2d48-4504-935f-434153455f46,rev?*
G04 #@! TF.SameCoordinates,Original*
G04 #@! TF.FileFunction,Soldermask,Bot*
G04 #@! TF.FilePolarity,Negative*
%FSLAX46Y46*%
G04 Gerber Fmt 4.6, Leading zero omitted, Abs format (unit mm)*
G04 Created by KiCad (PCBNEW 8.0.5) date 2025-01-19 00:54:09*
%MOMM*%
%LPD*%
G01*
G04 APERTURE LIST*
%ADD10C,4.000000*%
%ADD11C,3.200000*%
G04 APERTURE END LIST*
D10*
X191566000Y-95204000D03*
X75742000Y-118064000D03*
X143306000Y-110444000D03*
X95046000Y-87584000D03*
X143306000Y-87584000D03*
X172262000Y-110444000D03*
X172262000Y-95204000D03*
X201218000Y-102824000D03*
D11*
X203000000Y-128000000D03*
D10*
X181914000Y-118064000D03*
X85394000Y-118064000D03*
X114350000Y-102824000D03*
X201218000Y-95204000D03*
X201218000Y-87584000D03*
X162610000Y-110444000D03*
X124002000Y-95204000D03*
X162610000Y-118064000D03*
X152958000Y-118064000D03*
X191566000Y-87584000D03*
X104698000Y-87584000D03*
D11*
X203000000Y-64000000D03*
D10*
X172262000Y-87584000D03*
X162610000Y-95204000D03*
X114350000Y-110444000D03*
X85394000Y-95204000D03*
X104698000Y-118064000D03*
X75742000Y-110444000D03*
X85394000Y-110444000D03*
X133654000Y-95204000D03*
D11*
X74000000Y-128000000D03*
D10*
X133654000Y-110444000D03*
X95046000Y-95204000D03*
X201218000Y-118064000D03*
D11*
X74000000Y-64000000D03*
D10*
X104698000Y-95204000D03*
X133654000Y-87584000D03*
X172262000Y-102824000D03*
X124002000Y-118064000D03*
X85394000Y-102824000D03*
X162610000Y-87584000D03*
X191566000Y-118064000D03*
X75742000Y-87584000D03*
X114350000Y-87584000D03*
X75742000Y-95204000D03*
X191566000Y-110444000D03*
X124002000Y-102824000D03*
X75742000Y-102824000D03*
X201218000Y-79964000D03*
X162610000Y-102824000D03*
X162610000Y-75392000D03*
X181914000Y-102824000D03*
X152958000Y-110444000D03*
X143306000Y-102824000D03*
X152958000Y-87584000D03*
X152958000Y-102824000D03*
X143306000Y-118064000D03*
X124002000Y-110444000D03*
X85394000Y-87584000D03*
X104698000Y-110444000D03*
X181914000Y-87584000D03*
X95046000Y-110444000D03*
X143306000Y-95204000D03*
X133654000Y-102824000D03*
X95046000Y-102824000D03*
X181914000Y-95204000D03*
X152958000Y-95204000D03*
X133654000Y-75392000D03*
X162610000Y-67772000D03*
X104698000Y-102824000D03*
X114350000Y-95204000D03*
X124002000Y-87584000D03*
M02*
