M48
; DRILL file {KiCad 8.0.5} date 2025-01-01T12:19:48+0900
; FORMAT={-:-/ absolute / metric / decimal}
; #@! TF.CreationDate,2025-01-01T12:19:48+09:00
; #@! TF.GenerationSoftware,Kicad,Pcbnew,8.0.5
; #@! TF.FileFunction,NonPlated,1,2,NPTH
FMAT,2
METRIC
; #@! TA.AperFunction,NonPlated,NPTH,ComponentDrill
T1C3.200
; #@! TA.AperFunction,NonPlated,NPTH,ComponentDrill
T2C4.000
%
G90
G05
T1
X74.0Y-64.0
X74.0Y-128.0
X203.0Y-64.0
X203.0Y-128.0
T2
X75.742Y-87.584
X75.742Y-95.204
X75.742Y-102.824
X75.742Y-110.444
X75.742Y-118.064
X85.394Y-87.584
X85.394Y-95.204
X85.394Y-102.824
X85.394Y-110.444
X85.394Y-118.064
X95.046Y-87.584
X95.046Y-95.204
X95.046Y-102.824
X95.046Y-110.444
X104.698Y-87.584
X104.698Y-95.204
X104.698Y-102.824
X104.698Y-110.444
X104.698Y-118.064
X114.35Y-87.584
X114.35Y-95.204
X114.35Y-102.824
X114.35Y-110.444
X124.002Y-87.584
X124.002Y-95.204
X124.002Y-102.824
X124.002Y-110.444
X124.002Y-118.064
X133.654Y-75.392
X133.654Y-87.584
X133.654Y-95.204
X133.654Y-102.824
X133.654Y-110.444
X143.306Y-87.584
X143.306Y-95.204
X143.306Y-102.824
X143.306Y-110.444
X143.306Y-118.064
X152.958Y-87.584
X152.958Y-95.204
X152.958Y-102.824
X152.958Y-110.444
X152.958Y-118.064
X162.61Y-67.772
X162.61Y-75.392
X162.61Y-87.584
X162.61Y-95.204
X162.61Y-102.824
X162.61Y-110.444
X162.61Y-118.064
X172.262Y-87.584
X172.262Y-95.204
X172.262Y-102.824
X172.262Y-110.444
X181.914Y-87.584
X181.914Y-95.204
X181.914Y-102.824
X181.914Y-118.064
X191.566Y-87.584
X191.566Y-95.204
X191.566Y-110.444
X191.566Y-118.064
X201.218Y-79.964
X201.218Y-87.584
X201.218Y-95.204
X201.218Y-102.824
X201.218Y-118.064
M30
