G04 #@! TF.GenerationSoftware,KiCad,Pcbnew,8.0.5*
G04 #@! TF.CreationDate,2025-01-19T00:54:09+09:00*
G04 #@! TF.ProjectId,NERD-HPC_CASE_F,4e455244-2d48-4504-935f-434153455f46,rev?*
G04 #@! TF.SameCoordinates,Original*
G04 #@! TF.FileFunction,Legend,Bot*
G04 #@! TF.FilePolarity,Positive*
%FSLAX46Y46*%
G04 Gerber Fmt 4.6, Leading zero omitted, Abs format (unit mm)*
G04 Created by KiCad (PCBNEW 8.0.5) date 2025-01-19 00:54:09*
%MOMM*%
%LPD*%
G01*
G04 APERTURE LIST*
%ADD10C,0.100000*%
%ADD11C,4.000000*%
%ADD12C,3.200000*%
G04 APERTURE END LIST*
D10*
X101142857Y-83672419D02*
X101142857Y-82672419D01*
X100714286Y-83672419D02*
X100714286Y-83148609D01*
X100714286Y-83148609D02*
X100761905Y-83053371D01*
X100761905Y-83053371D02*
X100857143Y-83005752D01*
X100857143Y-83005752D02*
X101000000Y-83005752D01*
X101000000Y-83005752D02*
X101095238Y-83053371D01*
X101095238Y-83053371D02*
X101142857Y-83100990D01*
X99857143Y-83624800D02*
X99952381Y-83672419D01*
X99952381Y-83672419D02*
X100142857Y-83672419D01*
X100142857Y-83672419D02*
X100238095Y-83624800D01*
X100238095Y-83624800D02*
X100285714Y-83529561D01*
X100285714Y-83529561D02*
X100285714Y-83148609D01*
X100285714Y-83148609D02*
X100238095Y-83053371D01*
X100238095Y-83053371D02*
X100142857Y-83005752D01*
X100142857Y-83005752D02*
X99952381Y-83005752D01*
X99952381Y-83005752D02*
X99857143Y-83053371D01*
X99857143Y-83053371D02*
X99809524Y-83148609D01*
X99809524Y-83148609D02*
X99809524Y-83243847D01*
X99809524Y-83243847D02*
X100285714Y-83339085D01*
X99238095Y-83672419D02*
X99333333Y-83624800D01*
X99333333Y-83624800D02*
X99380952Y-83529561D01*
X99380952Y-83529561D02*
X99380952Y-82672419D01*
X98714285Y-83672419D02*
X98809523Y-83624800D01*
X98809523Y-83624800D02*
X98857142Y-83529561D01*
X98857142Y-83529561D02*
X98857142Y-82672419D01*
X98190475Y-83672419D02*
X98285713Y-83624800D01*
X98285713Y-83624800D02*
X98333332Y-83577180D01*
X98333332Y-83577180D02*
X98380951Y-83481942D01*
X98380951Y-83481942D02*
X98380951Y-83196228D01*
X98380951Y-83196228D02*
X98333332Y-83100990D01*
X98333332Y-83100990D02*
X98285713Y-83053371D01*
X98285713Y-83053371D02*
X98190475Y-83005752D01*
X98190475Y-83005752D02*
X98047618Y-83005752D01*
X98047618Y-83005752D02*
X97952380Y-83053371D01*
X97952380Y-83053371D02*
X97904761Y-83100990D01*
X97904761Y-83100990D02*
X97857142Y-83196228D01*
X97857142Y-83196228D02*
X97857142Y-83481942D01*
X97857142Y-83481942D02*
X97904761Y-83577180D01*
X97904761Y-83577180D02*
X97952380Y-83624800D01*
X97952380Y-83624800D02*
X98047618Y-83672419D01*
X98047618Y-83672419D02*
X98190475Y-83672419D01*
X97380951Y-83624800D02*
X97380951Y-83672419D01*
X97380951Y-83672419D02*
X97428570Y-83767657D01*
X97428570Y-83767657D02*
X97476189Y-83815276D01*
X96190475Y-83005752D02*
X96190475Y-83672419D01*
X96190475Y-83100990D02*
X96142856Y-83053371D01*
X96142856Y-83053371D02*
X96047618Y-83005752D01*
X96047618Y-83005752D02*
X95904761Y-83005752D01*
X95904761Y-83005752D02*
X95809523Y-83053371D01*
X95809523Y-83053371D02*
X95761904Y-83148609D01*
X95761904Y-83148609D02*
X95761904Y-83672419D01*
X94904761Y-83624800D02*
X94999999Y-83672419D01*
X94999999Y-83672419D02*
X95190475Y-83672419D01*
X95190475Y-83672419D02*
X95285713Y-83624800D01*
X95285713Y-83624800D02*
X95333332Y-83529561D01*
X95333332Y-83529561D02*
X95333332Y-83148609D01*
X95333332Y-83148609D02*
X95285713Y-83053371D01*
X95285713Y-83053371D02*
X95190475Y-83005752D01*
X95190475Y-83005752D02*
X94999999Y-83005752D01*
X94999999Y-83005752D02*
X94904761Y-83053371D01*
X94904761Y-83053371D02*
X94857142Y-83148609D01*
X94857142Y-83148609D02*
X94857142Y-83243847D01*
X94857142Y-83243847D02*
X95333332Y-83339085D01*
X94428570Y-83672419D02*
X94428570Y-83005752D01*
X94428570Y-83196228D02*
X94380951Y-83100990D01*
X94380951Y-83100990D02*
X94333332Y-83053371D01*
X94333332Y-83053371D02*
X94238094Y-83005752D01*
X94238094Y-83005752D02*
X94142856Y-83005752D01*
X93666665Y-83672419D02*
X93761903Y-83624800D01*
X93761903Y-83624800D02*
X93809522Y-83529561D01*
X93809522Y-83529561D02*
X93809522Y-82672419D01*
X92857141Y-83672419D02*
X92857141Y-82672419D01*
X92857141Y-83624800D02*
X92952379Y-83672419D01*
X92952379Y-83672419D02*
X93142855Y-83672419D01*
X93142855Y-83672419D02*
X93238093Y-83624800D01*
X93238093Y-83624800D02*
X93285712Y-83577180D01*
X93285712Y-83577180D02*
X93333331Y-83481942D01*
X93333331Y-83481942D02*
X93333331Y-83196228D01*
X93333331Y-83196228D02*
X93285712Y-83100990D01*
X93285712Y-83100990D02*
X93238093Y-83053371D01*
X93238093Y-83053371D02*
X93142855Y-83005752D01*
X93142855Y-83005752D02*
X92952379Y-83005752D01*
X92952379Y-83005752D02*
X92857141Y-83053371D01*
X194624687Y-129872419D02*
X194958020Y-129396228D01*
X195196115Y-129872419D02*
X195196115Y-128872419D01*
X195196115Y-128872419D02*
X194815163Y-128872419D01*
X194815163Y-128872419D02*
X194719925Y-128920038D01*
X194719925Y-128920038D02*
X194672306Y-128967657D01*
X194672306Y-128967657D02*
X194624687Y-129062895D01*
X194624687Y-129062895D02*
X194624687Y-129205752D01*
X194624687Y-129205752D02*
X194672306Y-129300990D01*
X194672306Y-129300990D02*
X194719925Y-129348609D01*
X194719925Y-129348609D02*
X194815163Y-129396228D01*
X194815163Y-129396228D02*
X195196115Y-129396228D01*
X193815163Y-129824800D02*
X193910401Y-129872419D01*
X193910401Y-129872419D02*
X194100877Y-129872419D01*
X194100877Y-129872419D02*
X194196115Y-129824800D01*
X194196115Y-129824800D02*
X194243734Y-129729561D01*
X194243734Y-129729561D02*
X194243734Y-129348609D01*
X194243734Y-129348609D02*
X194196115Y-129253371D01*
X194196115Y-129253371D02*
X194100877Y-129205752D01*
X194100877Y-129205752D02*
X193910401Y-129205752D01*
X193910401Y-129205752D02*
X193815163Y-129253371D01*
X193815163Y-129253371D02*
X193767544Y-129348609D01*
X193767544Y-129348609D02*
X193767544Y-129443847D01*
X193767544Y-129443847D02*
X194243734Y-129539085D01*
X193434210Y-129205752D02*
X193196115Y-129872419D01*
X193196115Y-129872419D02*
X192958020Y-129205752D01*
X192577067Y-129777180D02*
X192529448Y-129824800D01*
X192529448Y-129824800D02*
X192577067Y-129872419D01*
X192577067Y-129872419D02*
X192624686Y-129824800D01*
X192624686Y-129824800D02*
X192577067Y-129777180D01*
X192577067Y-129777180D02*
X192577067Y-129872419D01*
X191672306Y-129205752D02*
X191672306Y-129872419D01*
X191910401Y-128824800D02*
X192148496Y-129539085D01*
X192148496Y-129539085D02*
X191529449Y-129539085D01*
%LPC*%
D11*
X191566000Y-95204000D03*
X75742000Y-118064000D03*
X143306000Y-110444000D03*
X95046000Y-87584000D03*
X143306000Y-87584000D03*
X172262000Y-110444000D03*
X172262000Y-95204000D03*
X201218000Y-102824000D03*
D12*
X203000000Y-128000000D03*
D11*
X181914000Y-118064000D03*
X85394000Y-118064000D03*
X114350000Y-102824000D03*
X201218000Y-95204000D03*
X201218000Y-87584000D03*
X162610000Y-110444000D03*
X124002000Y-95204000D03*
X162610000Y-118064000D03*
X152958000Y-118064000D03*
X191566000Y-87584000D03*
X104698000Y-87584000D03*
D12*
X203000000Y-64000000D03*
D11*
X172262000Y-87584000D03*
X162610000Y-95204000D03*
X114350000Y-110444000D03*
X85394000Y-95204000D03*
X104698000Y-118064000D03*
X75742000Y-110444000D03*
X85394000Y-110444000D03*
X133654000Y-95204000D03*
D12*
X74000000Y-128000000D03*
D11*
X133654000Y-110444000D03*
X95046000Y-95204000D03*
X201218000Y-118064000D03*
D12*
X74000000Y-64000000D03*
D11*
X104698000Y-95204000D03*
X133654000Y-87584000D03*
X172262000Y-102824000D03*
X124002000Y-118064000D03*
X85394000Y-102824000D03*
X162610000Y-87584000D03*
X191566000Y-118064000D03*
X75742000Y-87584000D03*
X114350000Y-87584000D03*
X75742000Y-95204000D03*
X191566000Y-110444000D03*
X124002000Y-102824000D03*
X75742000Y-102824000D03*
X201218000Y-79964000D03*
X162610000Y-102824000D03*
X162610000Y-75392000D03*
X181914000Y-102824000D03*
X152958000Y-110444000D03*
X143306000Y-102824000D03*
X152958000Y-87584000D03*
X152958000Y-102824000D03*
X143306000Y-118064000D03*
X124002000Y-110444000D03*
X85394000Y-87584000D03*
X104698000Y-110444000D03*
X181914000Y-87584000D03*
X95046000Y-110444000D03*
X143306000Y-95204000D03*
X133654000Y-102824000D03*
X95046000Y-102824000D03*
X181914000Y-95204000D03*
X152958000Y-95204000D03*
X133654000Y-75392000D03*
X162610000Y-67772000D03*
X104698000Y-102824000D03*
X114350000Y-95204000D03*
X124002000Y-87584000D03*
%LPD*%
M02*
