%TF.GenerationSoftware,KiCad,Pcbnew,8.0.5*%
%TF.CreationDate,2025-01-01T12:19:49+09:00*%
%TF.ProjectId,NERD-HPC_CASE_F,4e455244-2d48-4504-935f-434153455f46,rev?*%
%TF.SameCoordinates,Original*%
%TF.FileFunction,Drillmap*%
%TF.FilePolarity,Positive*%
%FSLAX45Y45*%
G04 Gerber Fmt 4.5, Leading zero omitted, Abs format (unit mm)*
G04 Created by KiCad (PCBNEW 8.0.5) date 2025-01-01 12:19:49*
%MOMM*%
%LPD*%
G01*
G04 APERTURE LIST*
%ADD10C,0.050000*%
%ADD11C,0.200000*%
%ADD12C,0.320000*%
%ADD13C,0.400000*%
G04 APERTURE END LIST*
D10*
X16800000Y-6030000D02*
X16800000Y-6325000D01*
X11510000Y-8170000D02*
G75*
G02*
X11540000Y-8140000I30000J0D01*
G01*
X11510000Y-8170000D02*
X11510000Y-8220000D01*
X7296400Y-7430800D02*
X7496400Y-7430800D01*
X7496400Y-7850800D01*
X7296400Y-7850800D01*
X7296400Y-7430800D01*
X16800000Y-6325000D02*
X19950000Y-6325000D01*
X7000000Y-6400000D02*
X7000000Y-12800000D01*
X7400000Y-13200000D02*
X20300000Y-13200000D01*
X12605000Y-7430800D02*
X12805000Y-7430800D01*
X12805000Y-7850800D01*
X12605000Y-7850800D01*
X12605000Y-7430800D01*
X16780000Y-7140000D02*
X17777800Y-7140000D01*
X11510000Y-6030000D02*
G75*
G02*
X11540000Y-6000000I30000J0D01*
G01*
X20300000Y-6000000D02*
G75*
G02*
X20700000Y-6400000I0J-400000D01*
G01*
X19950000Y-6030000D02*
G75*
G02*
X19980000Y-6000000I30000J0D01*
G01*
X20700000Y-12800000D02*
X20700000Y-6400000D01*
X16770000Y-6000000D02*
G75*
G02*
X16800000Y-6030000I0J-30000D01*
G01*
X12520000Y-8140000D02*
X11540000Y-8140000D01*
X11540000Y-7140000D02*
X12520000Y-7140000D01*
X17777800Y-8140000D02*
X16780000Y-8140000D01*
X16770000Y-6000000D02*
X11540000Y-6000000D01*
X17862800Y-7430800D02*
X18062800Y-7430800D01*
X18062800Y-7850800D01*
X17862800Y-7850800D01*
X17862800Y-7430800D01*
X7400000Y-13200000D02*
G75*
G02*
X7000000Y-12800000I0J400000D01*
G01*
X7830000Y-6000000D02*
X7400000Y-6000000D01*
X11510000Y-6030000D02*
X11510000Y-7110000D01*
X20700000Y-12800000D02*
G75*
G02*
X20300000Y-13200000I-400000J0D01*
G01*
X16780000Y-7140000D02*
X16780000Y-8140000D01*
X7860000Y-8220000D02*
X7860000Y-6030000D01*
X19980000Y-6000000D02*
X20300000Y-6000000D01*
X11540000Y-7140000D02*
G75*
G02*
X11510000Y-7110000I0J30000D01*
G01*
X19950000Y-6325000D02*
X19950000Y-6030000D01*
X12520000Y-7140000D02*
X12520000Y-8140000D01*
X7000000Y-6400000D02*
G75*
G02*
X7400000Y-6000000I400000J0D01*
G01*
X11510000Y-8220000D02*
X7860000Y-8220000D01*
X17777800Y-7140000D02*
X17777800Y-8140000D01*
X7830000Y-6000000D02*
G75*
G02*
X7860000Y-6030000I0J-30000D01*
G01*
D11*
D12*
X7240000Y-6240000D02*
X7560000Y-6560000D01*
X7560000Y-6240000D02*
X7240000Y-6560000D01*
X7240000Y-12640000D02*
X7560000Y-12960000D01*
X7560000Y-12640000D02*
X7240000Y-12960000D01*
X20140000Y-6240000D02*
X20460000Y-6560000D01*
X20460000Y-6240000D02*
X20140000Y-6560000D01*
X20140000Y-12640000D02*
X20460000Y-12960000D01*
X20460000Y-12640000D02*
X20140000Y-12960000D01*
D13*
X7774200Y-8758400D02*
G75*
G02*
X7374200Y-8758400I-200000J0D01*
G01*
X7374200Y-8758400D02*
G75*
G02*
X7774200Y-8758400I200000J0D01*
G01*
X7774200Y-9520400D02*
G75*
G02*
X7374200Y-9520400I-200000J0D01*
G01*
X7374200Y-9520400D02*
G75*
G02*
X7774200Y-9520400I200000J0D01*
G01*
X7774200Y-10282400D02*
G75*
G02*
X7374200Y-10282400I-200000J0D01*
G01*
X7374200Y-10282400D02*
G75*
G02*
X7774200Y-10282400I200000J0D01*
G01*
X7774200Y-11044400D02*
G75*
G02*
X7374200Y-11044400I-200000J0D01*
G01*
X7374200Y-11044400D02*
G75*
G02*
X7774200Y-11044400I200000J0D01*
G01*
X7774200Y-11806400D02*
G75*
G02*
X7374200Y-11806400I-200000J0D01*
G01*
X7374200Y-11806400D02*
G75*
G02*
X7774200Y-11806400I200000J0D01*
G01*
X8739400Y-8758400D02*
G75*
G02*
X8339400Y-8758400I-200000J0D01*
G01*
X8339400Y-8758400D02*
G75*
G02*
X8739400Y-8758400I200000J0D01*
G01*
X8739400Y-9520400D02*
G75*
G02*
X8339400Y-9520400I-200000J0D01*
G01*
X8339400Y-9520400D02*
G75*
G02*
X8739400Y-9520400I200000J0D01*
G01*
X8739400Y-10282400D02*
G75*
G02*
X8339400Y-10282400I-200000J0D01*
G01*
X8339400Y-10282400D02*
G75*
G02*
X8739400Y-10282400I200000J0D01*
G01*
X8739400Y-11044400D02*
G75*
G02*
X8339400Y-11044400I-200000J0D01*
G01*
X8339400Y-11044400D02*
G75*
G02*
X8739400Y-11044400I200000J0D01*
G01*
X8739400Y-11806400D02*
G75*
G02*
X8339400Y-11806400I-200000J0D01*
G01*
X8339400Y-11806400D02*
G75*
G02*
X8739400Y-11806400I200000J0D01*
G01*
X9704600Y-8758400D02*
G75*
G02*
X9304600Y-8758400I-200000J0D01*
G01*
X9304600Y-8758400D02*
G75*
G02*
X9704600Y-8758400I200000J0D01*
G01*
X9704600Y-9520400D02*
G75*
G02*
X9304600Y-9520400I-200000J0D01*
G01*
X9304600Y-9520400D02*
G75*
G02*
X9704600Y-9520400I200000J0D01*
G01*
X9704600Y-10282400D02*
G75*
G02*
X9304600Y-10282400I-200000J0D01*
G01*
X9304600Y-10282400D02*
G75*
G02*
X9704600Y-10282400I200000J0D01*
G01*
X9704600Y-11044400D02*
G75*
G02*
X9304600Y-11044400I-200000J0D01*
G01*
X9304600Y-11044400D02*
G75*
G02*
X9704600Y-11044400I200000J0D01*
G01*
X10669800Y-8758400D02*
G75*
G02*
X10269800Y-8758400I-200000J0D01*
G01*
X10269800Y-8758400D02*
G75*
G02*
X10669800Y-8758400I200000J0D01*
G01*
X10669800Y-9520400D02*
G75*
G02*
X10269800Y-9520400I-200000J0D01*
G01*
X10269800Y-9520400D02*
G75*
G02*
X10669800Y-9520400I200000J0D01*
G01*
X10669800Y-10282400D02*
G75*
G02*
X10269800Y-10282400I-200000J0D01*
G01*
X10269800Y-10282400D02*
G75*
G02*
X10669800Y-10282400I200000J0D01*
G01*
X10669800Y-11044400D02*
G75*
G02*
X10269800Y-11044400I-200000J0D01*
G01*
X10269800Y-11044400D02*
G75*
G02*
X10669800Y-11044400I200000J0D01*
G01*
X10669800Y-11806400D02*
G75*
G02*
X10269800Y-11806400I-200000J0D01*
G01*
X10269800Y-11806400D02*
G75*
G02*
X10669800Y-11806400I200000J0D01*
G01*
X11635000Y-8758400D02*
G75*
G02*
X11235000Y-8758400I-200000J0D01*
G01*
X11235000Y-8758400D02*
G75*
G02*
X11635000Y-8758400I200000J0D01*
G01*
X11635000Y-9520400D02*
G75*
G02*
X11235000Y-9520400I-200000J0D01*
G01*
X11235000Y-9520400D02*
G75*
G02*
X11635000Y-9520400I200000J0D01*
G01*
X11635000Y-10282400D02*
G75*
G02*
X11235000Y-10282400I-200000J0D01*
G01*
X11235000Y-10282400D02*
G75*
G02*
X11635000Y-10282400I200000J0D01*
G01*
X11635000Y-11044400D02*
G75*
G02*
X11235000Y-11044400I-200000J0D01*
G01*
X11235000Y-11044400D02*
G75*
G02*
X11635000Y-11044400I200000J0D01*
G01*
X12600200Y-8758400D02*
G75*
G02*
X12200200Y-8758400I-200000J0D01*
G01*
X12200200Y-8758400D02*
G75*
G02*
X12600200Y-8758400I200000J0D01*
G01*
X12600200Y-9520400D02*
G75*
G02*
X12200200Y-9520400I-200000J0D01*
G01*
X12200200Y-9520400D02*
G75*
G02*
X12600200Y-9520400I200000J0D01*
G01*
X12600200Y-10282400D02*
G75*
G02*
X12200200Y-10282400I-200000J0D01*
G01*
X12200200Y-10282400D02*
G75*
G02*
X12600200Y-10282400I200000J0D01*
G01*
X12600200Y-11044400D02*
G75*
G02*
X12200200Y-11044400I-200000J0D01*
G01*
X12200200Y-11044400D02*
G75*
G02*
X12600200Y-11044400I200000J0D01*
G01*
X12600200Y-11806400D02*
G75*
G02*
X12200200Y-11806400I-200000J0D01*
G01*
X12200200Y-11806400D02*
G75*
G02*
X12600200Y-11806400I200000J0D01*
G01*
X13565400Y-7539200D02*
G75*
G02*
X13165400Y-7539200I-200000J0D01*
G01*
X13165400Y-7539200D02*
G75*
G02*
X13565400Y-7539200I200000J0D01*
G01*
X13565400Y-8758400D02*
G75*
G02*
X13165400Y-8758400I-200000J0D01*
G01*
X13165400Y-8758400D02*
G75*
G02*
X13565400Y-8758400I200000J0D01*
G01*
X13565400Y-9520400D02*
G75*
G02*
X13165400Y-9520400I-200000J0D01*
G01*
X13165400Y-9520400D02*
G75*
G02*
X13565400Y-9520400I200000J0D01*
G01*
X13565400Y-10282400D02*
G75*
G02*
X13165400Y-10282400I-200000J0D01*
G01*
X13165400Y-10282400D02*
G75*
G02*
X13565400Y-10282400I200000J0D01*
G01*
X13565400Y-11044400D02*
G75*
G02*
X13165400Y-11044400I-200000J0D01*
G01*
X13165400Y-11044400D02*
G75*
G02*
X13565400Y-11044400I200000J0D01*
G01*
X14530600Y-8758400D02*
G75*
G02*
X14130600Y-8758400I-200000J0D01*
G01*
X14130600Y-8758400D02*
G75*
G02*
X14530600Y-8758400I200000J0D01*
G01*
X14530600Y-9520400D02*
G75*
G02*
X14130600Y-9520400I-200000J0D01*
G01*
X14130600Y-9520400D02*
G75*
G02*
X14530600Y-9520400I200000J0D01*
G01*
X14530600Y-10282400D02*
G75*
G02*
X14130600Y-10282400I-200000J0D01*
G01*
X14130600Y-10282400D02*
G75*
G02*
X14530600Y-10282400I200000J0D01*
G01*
X14530600Y-11044400D02*
G75*
G02*
X14130600Y-11044400I-200000J0D01*
G01*
X14130600Y-11044400D02*
G75*
G02*
X14530600Y-11044400I200000J0D01*
G01*
X14530600Y-11806400D02*
G75*
G02*
X14130600Y-11806400I-200000J0D01*
G01*
X14130600Y-11806400D02*
G75*
G02*
X14530600Y-11806400I200000J0D01*
G01*
X15495800Y-8758400D02*
G75*
G02*
X15095800Y-8758400I-200000J0D01*
G01*
X15095800Y-8758400D02*
G75*
G02*
X15495800Y-8758400I200000J0D01*
G01*
X15495800Y-9520400D02*
G75*
G02*
X15095800Y-9520400I-200000J0D01*
G01*
X15095800Y-9520400D02*
G75*
G02*
X15495800Y-9520400I200000J0D01*
G01*
X15495800Y-10282400D02*
G75*
G02*
X15095800Y-10282400I-200000J0D01*
G01*
X15095800Y-10282400D02*
G75*
G02*
X15495800Y-10282400I200000J0D01*
G01*
X15495800Y-11044400D02*
G75*
G02*
X15095800Y-11044400I-200000J0D01*
G01*
X15095800Y-11044400D02*
G75*
G02*
X15495800Y-11044400I200000J0D01*
G01*
X15495800Y-11806400D02*
G75*
G02*
X15095800Y-11806400I-200000J0D01*
G01*
X15095800Y-11806400D02*
G75*
G02*
X15495800Y-11806400I200000J0D01*
G01*
X16461000Y-6777200D02*
G75*
G02*
X16061000Y-6777200I-200000J0D01*
G01*
X16061000Y-6777200D02*
G75*
G02*
X16461000Y-6777200I200000J0D01*
G01*
X16461000Y-7539200D02*
G75*
G02*
X16061000Y-7539200I-200000J0D01*
G01*
X16061000Y-7539200D02*
G75*
G02*
X16461000Y-7539200I200000J0D01*
G01*
X16461000Y-8758400D02*
G75*
G02*
X16061000Y-8758400I-200000J0D01*
G01*
X16061000Y-8758400D02*
G75*
G02*
X16461000Y-8758400I200000J0D01*
G01*
X16461000Y-9520400D02*
G75*
G02*
X16061000Y-9520400I-200000J0D01*
G01*
X16061000Y-9520400D02*
G75*
G02*
X16461000Y-9520400I200000J0D01*
G01*
X16461000Y-10282400D02*
G75*
G02*
X16061000Y-10282400I-200000J0D01*
G01*
X16061000Y-10282400D02*
G75*
G02*
X16461000Y-10282400I200000J0D01*
G01*
X16461000Y-11044400D02*
G75*
G02*
X16061000Y-11044400I-200000J0D01*
G01*
X16061000Y-11044400D02*
G75*
G02*
X16461000Y-11044400I200000J0D01*
G01*
X16461000Y-11806400D02*
G75*
G02*
X16061000Y-11806400I-200000J0D01*
G01*
X16061000Y-11806400D02*
G75*
G02*
X16461000Y-11806400I200000J0D01*
G01*
X17426200Y-8758400D02*
G75*
G02*
X17026200Y-8758400I-200000J0D01*
G01*
X17026200Y-8758400D02*
G75*
G02*
X17426200Y-8758400I200000J0D01*
G01*
X17426200Y-9520400D02*
G75*
G02*
X17026200Y-9520400I-200000J0D01*
G01*
X17026200Y-9520400D02*
G75*
G02*
X17426200Y-9520400I200000J0D01*
G01*
X17426200Y-10282400D02*
G75*
G02*
X17026200Y-10282400I-200000J0D01*
G01*
X17026200Y-10282400D02*
G75*
G02*
X17426200Y-10282400I200000J0D01*
G01*
X17426200Y-11044400D02*
G75*
G02*
X17026200Y-11044400I-200000J0D01*
G01*
X17026200Y-11044400D02*
G75*
G02*
X17426200Y-11044400I200000J0D01*
G01*
X18391400Y-8758400D02*
G75*
G02*
X17991400Y-8758400I-200000J0D01*
G01*
X17991400Y-8758400D02*
G75*
G02*
X18391400Y-8758400I200000J0D01*
G01*
X18391400Y-9520400D02*
G75*
G02*
X17991400Y-9520400I-200000J0D01*
G01*
X17991400Y-9520400D02*
G75*
G02*
X18391400Y-9520400I200000J0D01*
G01*
X18391400Y-10282400D02*
G75*
G02*
X17991400Y-10282400I-200000J0D01*
G01*
X17991400Y-10282400D02*
G75*
G02*
X18391400Y-10282400I200000J0D01*
G01*
X18391400Y-11806400D02*
G75*
G02*
X17991400Y-11806400I-200000J0D01*
G01*
X17991400Y-11806400D02*
G75*
G02*
X18391400Y-11806400I200000J0D01*
G01*
X19356600Y-8758400D02*
G75*
G02*
X18956600Y-8758400I-200000J0D01*
G01*
X18956600Y-8758400D02*
G75*
G02*
X19356600Y-8758400I200000J0D01*
G01*
X19356600Y-9520400D02*
G75*
G02*
X18956600Y-9520400I-200000J0D01*
G01*
X18956600Y-9520400D02*
G75*
G02*
X19356600Y-9520400I200000J0D01*
G01*
X19356600Y-11044400D02*
G75*
G02*
X18956600Y-11044400I-200000J0D01*
G01*
X18956600Y-11044400D02*
G75*
G02*
X19356600Y-11044400I200000J0D01*
G01*
X19356600Y-11806400D02*
G75*
G02*
X18956600Y-11806400I-200000J0D01*
G01*
X18956600Y-11806400D02*
G75*
G02*
X19356600Y-11806400I200000J0D01*
G01*
X20321800Y-7996400D02*
G75*
G02*
X19921800Y-7996400I-200000J0D01*
G01*
X19921800Y-7996400D02*
G75*
G02*
X20321800Y-7996400I200000J0D01*
G01*
X20321800Y-8758400D02*
G75*
G02*
X19921800Y-8758400I-200000J0D01*
G01*
X19921800Y-8758400D02*
G75*
G02*
X20321800Y-8758400I200000J0D01*
G01*
X20321800Y-9520400D02*
G75*
G02*
X19921800Y-9520400I-200000J0D01*
G01*
X19921800Y-9520400D02*
G75*
G02*
X20321800Y-9520400I200000J0D01*
G01*
X20321800Y-10282400D02*
G75*
G02*
X19921800Y-10282400I-200000J0D01*
G01*
X19921800Y-10282400D02*
G75*
G02*
X20321800Y-10282400I200000J0D01*
G01*
X20321800Y-11806400D02*
G75*
G02*
X19921800Y-11806400I-200000J0D01*
G01*
X19921800Y-11806400D02*
G75*
G02*
X20321800Y-11806400I200000J0D01*
G01*
D11*
X7258277Y-13513984D02*
X7258277Y-13313984D01*
X7258277Y-13313984D02*
X7305896Y-13313984D01*
X7305896Y-13313984D02*
X7334467Y-13323508D01*
X7334467Y-13323508D02*
X7353515Y-13342555D01*
X7353515Y-13342555D02*
X7363039Y-13361603D01*
X7363039Y-13361603D02*
X7372562Y-13399698D01*
X7372562Y-13399698D02*
X7372562Y-13428269D01*
X7372562Y-13428269D02*
X7363039Y-13466365D01*
X7363039Y-13466365D02*
X7353515Y-13485412D01*
X7353515Y-13485412D02*
X7334467Y-13504460D01*
X7334467Y-13504460D02*
X7305896Y-13513984D01*
X7305896Y-13513984D02*
X7258277Y-13513984D01*
X7458277Y-13513984D02*
X7458277Y-13380650D01*
X7458277Y-13418746D02*
X7467801Y-13399698D01*
X7467801Y-13399698D02*
X7477324Y-13390174D01*
X7477324Y-13390174D02*
X7496372Y-13380650D01*
X7496372Y-13380650D02*
X7515420Y-13380650D01*
X7582086Y-13513984D02*
X7582086Y-13380650D01*
X7582086Y-13313984D02*
X7572562Y-13323508D01*
X7572562Y-13323508D02*
X7582086Y-13333031D01*
X7582086Y-13333031D02*
X7591610Y-13323508D01*
X7591610Y-13323508D02*
X7582086Y-13313984D01*
X7582086Y-13313984D02*
X7582086Y-13333031D01*
X7705896Y-13513984D02*
X7686848Y-13504460D01*
X7686848Y-13504460D02*
X7677324Y-13485412D01*
X7677324Y-13485412D02*
X7677324Y-13313984D01*
X7810658Y-13513984D02*
X7791610Y-13504460D01*
X7791610Y-13504460D02*
X7782086Y-13485412D01*
X7782086Y-13485412D02*
X7782086Y-13313984D01*
X8039229Y-13513984D02*
X8039229Y-13313984D01*
X8039229Y-13313984D02*
X8105896Y-13456841D01*
X8105896Y-13456841D02*
X8172562Y-13313984D01*
X8172562Y-13313984D02*
X8172562Y-13513984D01*
X8353515Y-13513984D02*
X8353515Y-13409222D01*
X8353515Y-13409222D02*
X8343991Y-13390174D01*
X8343991Y-13390174D02*
X8324943Y-13380650D01*
X8324943Y-13380650D02*
X8286848Y-13380650D01*
X8286848Y-13380650D02*
X8267801Y-13390174D01*
X8353515Y-13504460D02*
X8334467Y-13513984D01*
X8334467Y-13513984D02*
X8286848Y-13513984D01*
X8286848Y-13513984D02*
X8267801Y-13504460D01*
X8267801Y-13504460D02*
X8258277Y-13485412D01*
X8258277Y-13485412D02*
X8258277Y-13466365D01*
X8258277Y-13466365D02*
X8267801Y-13447317D01*
X8267801Y-13447317D02*
X8286848Y-13437793D01*
X8286848Y-13437793D02*
X8334467Y-13437793D01*
X8334467Y-13437793D02*
X8353515Y-13428269D01*
X8448753Y-13380650D02*
X8448753Y-13580650D01*
X8448753Y-13390174D02*
X8467801Y-13380650D01*
X8467801Y-13380650D02*
X8505896Y-13380650D01*
X8505896Y-13380650D02*
X8524944Y-13390174D01*
X8524944Y-13390174D02*
X8534467Y-13399698D01*
X8534467Y-13399698D02*
X8543991Y-13418746D01*
X8543991Y-13418746D02*
X8543991Y-13475888D01*
X8543991Y-13475888D02*
X8534467Y-13494936D01*
X8534467Y-13494936D02*
X8524944Y-13504460D01*
X8524944Y-13504460D02*
X8505896Y-13513984D01*
X8505896Y-13513984D02*
X8467801Y-13513984D01*
X8467801Y-13513984D02*
X8448753Y-13504460D01*
X8629705Y-13494936D02*
X8639229Y-13504460D01*
X8639229Y-13504460D02*
X8629705Y-13513984D01*
X8629705Y-13513984D02*
X8620182Y-13504460D01*
X8620182Y-13504460D02*
X8629705Y-13494936D01*
X8629705Y-13494936D02*
X8629705Y-13513984D01*
X8629705Y-13390174D02*
X8639229Y-13399698D01*
X8639229Y-13399698D02*
X8629705Y-13409222D01*
X8629705Y-13409222D02*
X8620182Y-13399698D01*
X8620182Y-13399698D02*
X8629705Y-13390174D01*
X8629705Y-13390174D02*
X8629705Y-13409222D01*
X6797500Y-13742500D02*
X6997500Y-13942500D01*
X6997500Y-13742500D02*
X6797500Y-13942500D01*
X7239229Y-13733984D02*
X7363039Y-13733984D01*
X7363039Y-13733984D02*
X7296372Y-13810174D01*
X7296372Y-13810174D02*
X7324943Y-13810174D01*
X7324943Y-13810174D02*
X7343991Y-13819698D01*
X7343991Y-13819698D02*
X7353515Y-13829222D01*
X7353515Y-13829222D02*
X7363039Y-13848269D01*
X7363039Y-13848269D02*
X7363039Y-13895888D01*
X7363039Y-13895888D02*
X7353515Y-13914936D01*
X7353515Y-13914936D02*
X7343991Y-13924460D01*
X7343991Y-13924460D02*
X7324943Y-13933984D01*
X7324943Y-13933984D02*
X7267801Y-13933984D01*
X7267801Y-13933984D02*
X7248753Y-13924460D01*
X7248753Y-13924460D02*
X7239229Y-13914936D01*
X7448753Y-13914936D02*
X7458277Y-13924460D01*
X7458277Y-13924460D02*
X7448753Y-13933984D01*
X7448753Y-13933984D02*
X7439229Y-13924460D01*
X7439229Y-13924460D02*
X7448753Y-13914936D01*
X7448753Y-13914936D02*
X7448753Y-13933984D01*
X7534467Y-13753031D02*
X7543991Y-13743508D01*
X7543991Y-13743508D02*
X7563039Y-13733984D01*
X7563039Y-13733984D02*
X7610658Y-13733984D01*
X7610658Y-13733984D02*
X7629705Y-13743508D01*
X7629705Y-13743508D02*
X7639229Y-13753031D01*
X7639229Y-13753031D02*
X7648753Y-13772079D01*
X7648753Y-13772079D02*
X7648753Y-13791127D01*
X7648753Y-13791127D02*
X7639229Y-13819698D01*
X7639229Y-13819698D02*
X7524943Y-13933984D01*
X7524943Y-13933984D02*
X7648753Y-13933984D01*
X7772562Y-13733984D02*
X7791610Y-13733984D01*
X7791610Y-13733984D02*
X7810658Y-13743508D01*
X7810658Y-13743508D02*
X7820182Y-13753031D01*
X7820182Y-13753031D02*
X7829705Y-13772079D01*
X7829705Y-13772079D02*
X7839229Y-13810174D01*
X7839229Y-13810174D02*
X7839229Y-13857793D01*
X7839229Y-13857793D02*
X7829705Y-13895888D01*
X7829705Y-13895888D02*
X7820182Y-13914936D01*
X7820182Y-13914936D02*
X7810658Y-13924460D01*
X7810658Y-13924460D02*
X7791610Y-13933984D01*
X7791610Y-13933984D02*
X7772562Y-13933984D01*
X7772562Y-13933984D02*
X7753515Y-13924460D01*
X7753515Y-13924460D02*
X7743991Y-13914936D01*
X7743991Y-13914936D02*
X7734467Y-13895888D01*
X7734467Y-13895888D02*
X7724943Y-13857793D01*
X7724943Y-13857793D02*
X7724943Y-13810174D01*
X7724943Y-13810174D02*
X7734467Y-13772079D01*
X7734467Y-13772079D02*
X7743991Y-13753031D01*
X7743991Y-13753031D02*
X7753515Y-13743508D01*
X7753515Y-13743508D02*
X7772562Y-13733984D01*
X7963039Y-13733984D02*
X7982086Y-13733984D01*
X7982086Y-13733984D02*
X8001134Y-13743508D01*
X8001134Y-13743508D02*
X8010658Y-13753031D01*
X8010658Y-13753031D02*
X8020182Y-13772079D01*
X8020182Y-13772079D02*
X8029705Y-13810174D01*
X8029705Y-13810174D02*
X8029705Y-13857793D01*
X8029705Y-13857793D02*
X8020182Y-13895888D01*
X8020182Y-13895888D02*
X8010658Y-13914936D01*
X8010658Y-13914936D02*
X8001134Y-13924460D01*
X8001134Y-13924460D02*
X7982086Y-13933984D01*
X7982086Y-13933984D02*
X7963039Y-13933984D01*
X7963039Y-13933984D02*
X7943991Y-13924460D01*
X7943991Y-13924460D02*
X7934467Y-13914936D01*
X7934467Y-13914936D02*
X7924943Y-13895888D01*
X7924943Y-13895888D02*
X7915420Y-13857793D01*
X7915420Y-13857793D02*
X7915420Y-13810174D01*
X7915420Y-13810174D02*
X7924943Y-13772079D01*
X7924943Y-13772079D02*
X7934467Y-13753031D01*
X7934467Y-13753031D02*
X7943991Y-13743508D01*
X7943991Y-13743508D02*
X7963039Y-13733984D01*
X8115420Y-13933984D02*
X8115420Y-13800650D01*
X8115420Y-13819698D02*
X8124943Y-13810174D01*
X8124943Y-13810174D02*
X8143991Y-13800650D01*
X8143991Y-13800650D02*
X8172563Y-13800650D01*
X8172563Y-13800650D02*
X8191610Y-13810174D01*
X8191610Y-13810174D02*
X8201134Y-13829222D01*
X8201134Y-13829222D02*
X8201134Y-13933984D01*
X8201134Y-13829222D02*
X8210658Y-13810174D01*
X8210658Y-13810174D02*
X8229705Y-13800650D01*
X8229705Y-13800650D02*
X8258277Y-13800650D01*
X8258277Y-13800650D02*
X8277324Y-13810174D01*
X8277324Y-13810174D02*
X8286848Y-13829222D01*
X8286848Y-13829222D02*
X8286848Y-13933984D01*
X8382086Y-13933984D02*
X8382086Y-13800650D01*
X8382086Y-13819698D02*
X8391610Y-13810174D01*
X8391610Y-13810174D02*
X8410658Y-13800650D01*
X8410658Y-13800650D02*
X8439229Y-13800650D01*
X8439229Y-13800650D02*
X8458277Y-13810174D01*
X8458277Y-13810174D02*
X8467801Y-13829222D01*
X8467801Y-13829222D02*
X8467801Y-13933984D01*
X8467801Y-13829222D02*
X8477325Y-13810174D01*
X8477325Y-13810174D02*
X8496372Y-13800650D01*
X8496372Y-13800650D02*
X8524944Y-13800650D01*
X8524944Y-13800650D02*
X8543991Y-13810174D01*
X8543991Y-13810174D02*
X8553515Y-13829222D01*
X8553515Y-13829222D02*
X8553515Y-13933984D01*
X8943991Y-13724460D02*
X8772563Y-13981603D01*
X9201134Y-13733984D02*
X9220182Y-13733984D01*
X9220182Y-13733984D02*
X9239229Y-13743508D01*
X9239229Y-13743508D02*
X9248753Y-13753031D01*
X9248753Y-13753031D02*
X9258277Y-13772079D01*
X9258277Y-13772079D02*
X9267801Y-13810174D01*
X9267801Y-13810174D02*
X9267801Y-13857793D01*
X9267801Y-13857793D02*
X9258277Y-13895888D01*
X9258277Y-13895888D02*
X9248753Y-13914936D01*
X9248753Y-13914936D02*
X9239229Y-13924460D01*
X9239229Y-13924460D02*
X9220182Y-13933984D01*
X9220182Y-13933984D02*
X9201134Y-13933984D01*
X9201134Y-13933984D02*
X9182087Y-13924460D01*
X9182087Y-13924460D02*
X9172563Y-13914936D01*
X9172563Y-13914936D02*
X9163039Y-13895888D01*
X9163039Y-13895888D02*
X9153515Y-13857793D01*
X9153515Y-13857793D02*
X9153515Y-13810174D01*
X9153515Y-13810174D02*
X9163039Y-13772079D01*
X9163039Y-13772079D02*
X9172563Y-13753031D01*
X9172563Y-13753031D02*
X9182087Y-13743508D01*
X9182087Y-13743508D02*
X9201134Y-13733984D01*
X9353515Y-13914936D02*
X9363039Y-13924460D01*
X9363039Y-13924460D02*
X9353515Y-13933984D01*
X9353515Y-13933984D02*
X9343991Y-13924460D01*
X9343991Y-13924460D02*
X9353515Y-13914936D01*
X9353515Y-13914936D02*
X9353515Y-13933984D01*
X9553515Y-13933984D02*
X9439229Y-13933984D01*
X9496372Y-13933984D02*
X9496372Y-13733984D01*
X9496372Y-13733984D02*
X9477325Y-13762555D01*
X9477325Y-13762555D02*
X9458277Y-13781603D01*
X9458277Y-13781603D02*
X9439229Y-13791127D01*
X9629706Y-13753031D02*
X9639229Y-13743508D01*
X9639229Y-13743508D02*
X9658277Y-13733984D01*
X9658277Y-13733984D02*
X9705896Y-13733984D01*
X9705896Y-13733984D02*
X9724944Y-13743508D01*
X9724944Y-13743508D02*
X9734468Y-13753031D01*
X9734468Y-13753031D02*
X9743991Y-13772079D01*
X9743991Y-13772079D02*
X9743991Y-13791127D01*
X9743991Y-13791127D02*
X9734468Y-13819698D01*
X9734468Y-13819698D02*
X9620182Y-13933984D01*
X9620182Y-13933984D02*
X9743991Y-13933984D01*
X9915420Y-13733984D02*
X9877325Y-13733984D01*
X9877325Y-13733984D02*
X9858277Y-13743508D01*
X9858277Y-13743508D02*
X9848753Y-13753031D01*
X9848753Y-13753031D02*
X9829706Y-13781603D01*
X9829706Y-13781603D02*
X9820182Y-13819698D01*
X9820182Y-13819698D02*
X9820182Y-13895888D01*
X9820182Y-13895888D02*
X9829706Y-13914936D01*
X9829706Y-13914936D02*
X9839229Y-13924460D01*
X9839229Y-13924460D02*
X9858277Y-13933984D01*
X9858277Y-13933984D02*
X9896372Y-13933984D01*
X9896372Y-13933984D02*
X9915420Y-13924460D01*
X9915420Y-13924460D02*
X9924944Y-13914936D01*
X9924944Y-13914936D02*
X9934468Y-13895888D01*
X9934468Y-13895888D02*
X9934468Y-13848269D01*
X9934468Y-13848269D02*
X9924944Y-13829222D01*
X9924944Y-13829222D02*
X9915420Y-13819698D01*
X9915420Y-13819698D02*
X9896372Y-13810174D01*
X9896372Y-13810174D02*
X9858277Y-13810174D01*
X9858277Y-13810174D02*
X9839229Y-13819698D01*
X9839229Y-13819698D02*
X9829706Y-13829222D01*
X9829706Y-13829222D02*
X9820182Y-13848269D01*
X10058277Y-13733984D02*
X10077325Y-13733984D01*
X10077325Y-13733984D02*
X10096372Y-13743508D01*
X10096372Y-13743508D02*
X10105896Y-13753031D01*
X10105896Y-13753031D02*
X10115420Y-13772079D01*
X10115420Y-13772079D02*
X10124944Y-13810174D01*
X10124944Y-13810174D02*
X10124944Y-13857793D01*
X10124944Y-13857793D02*
X10115420Y-13895888D01*
X10115420Y-13895888D02*
X10105896Y-13914936D01*
X10105896Y-13914936D02*
X10096372Y-13924460D01*
X10096372Y-13924460D02*
X10077325Y-13933984D01*
X10077325Y-13933984D02*
X10058277Y-13933984D01*
X10058277Y-13933984D02*
X10039229Y-13924460D01*
X10039229Y-13924460D02*
X10029706Y-13914936D01*
X10029706Y-13914936D02*
X10020182Y-13895888D01*
X10020182Y-13895888D02*
X10010658Y-13857793D01*
X10010658Y-13857793D02*
X10010658Y-13810174D01*
X10010658Y-13810174D02*
X10020182Y-13772079D01*
X10020182Y-13772079D02*
X10029706Y-13753031D01*
X10029706Y-13753031D02*
X10039229Y-13743508D01*
X10039229Y-13743508D02*
X10058277Y-13733984D01*
X10201134Y-13733984D02*
X10201134Y-13772079D01*
X10277325Y-13733984D02*
X10277325Y-13772079D01*
X10572563Y-14010174D02*
X10563039Y-14000650D01*
X10563039Y-14000650D02*
X10543991Y-13972079D01*
X10543991Y-13972079D02*
X10534468Y-13953031D01*
X10534468Y-13953031D02*
X10524944Y-13924460D01*
X10524944Y-13924460D02*
X10515420Y-13876841D01*
X10515420Y-13876841D02*
X10515420Y-13838746D01*
X10515420Y-13838746D02*
X10524944Y-13791127D01*
X10524944Y-13791127D02*
X10534468Y-13762555D01*
X10534468Y-13762555D02*
X10543991Y-13743508D01*
X10543991Y-13743508D02*
X10563039Y-13714936D01*
X10563039Y-13714936D02*
X10572563Y-13705412D01*
X10734468Y-13800650D02*
X10734468Y-13933984D01*
X10686849Y-13724460D02*
X10639230Y-13867317D01*
X10639230Y-13867317D02*
X10763039Y-13867317D01*
X10991611Y-13933984D02*
X10991611Y-13733984D01*
X11077325Y-13933984D02*
X11077325Y-13829222D01*
X11077325Y-13829222D02*
X11067801Y-13810174D01*
X11067801Y-13810174D02*
X11048753Y-13800650D01*
X11048753Y-13800650D02*
X11020182Y-13800650D01*
X11020182Y-13800650D02*
X11001134Y-13810174D01*
X11001134Y-13810174D02*
X10991611Y-13819698D01*
X11201134Y-13933984D02*
X11182087Y-13924460D01*
X11182087Y-13924460D02*
X11172563Y-13914936D01*
X11172563Y-13914936D02*
X11163039Y-13895888D01*
X11163039Y-13895888D02*
X11163039Y-13838746D01*
X11163039Y-13838746D02*
X11172563Y-13819698D01*
X11172563Y-13819698D02*
X11182087Y-13810174D01*
X11182087Y-13810174D02*
X11201134Y-13800650D01*
X11201134Y-13800650D02*
X11229706Y-13800650D01*
X11229706Y-13800650D02*
X11248753Y-13810174D01*
X11248753Y-13810174D02*
X11258277Y-13819698D01*
X11258277Y-13819698D02*
X11267801Y-13838746D01*
X11267801Y-13838746D02*
X11267801Y-13895888D01*
X11267801Y-13895888D02*
X11258277Y-13914936D01*
X11258277Y-13914936D02*
X11248753Y-13924460D01*
X11248753Y-13924460D02*
X11229706Y-13933984D01*
X11229706Y-13933984D02*
X11201134Y-13933984D01*
X11382087Y-13933984D02*
X11363039Y-13924460D01*
X11363039Y-13924460D02*
X11353515Y-13905412D01*
X11353515Y-13905412D02*
X11353515Y-13733984D01*
X11534468Y-13924460D02*
X11515420Y-13933984D01*
X11515420Y-13933984D02*
X11477325Y-13933984D01*
X11477325Y-13933984D02*
X11458277Y-13924460D01*
X11458277Y-13924460D02*
X11448753Y-13905412D01*
X11448753Y-13905412D02*
X11448753Y-13829222D01*
X11448753Y-13829222D02*
X11458277Y-13810174D01*
X11458277Y-13810174D02*
X11477325Y-13800650D01*
X11477325Y-13800650D02*
X11515420Y-13800650D01*
X11515420Y-13800650D02*
X11534468Y-13810174D01*
X11534468Y-13810174D02*
X11543991Y-13829222D01*
X11543991Y-13829222D02*
X11543991Y-13848269D01*
X11543991Y-13848269D02*
X11448753Y-13867317D01*
X11620182Y-13924460D02*
X11639230Y-13933984D01*
X11639230Y-13933984D02*
X11677325Y-13933984D01*
X11677325Y-13933984D02*
X11696372Y-13924460D01*
X11696372Y-13924460D02*
X11705896Y-13905412D01*
X11705896Y-13905412D02*
X11705896Y-13895888D01*
X11705896Y-13895888D02*
X11696372Y-13876841D01*
X11696372Y-13876841D02*
X11677325Y-13867317D01*
X11677325Y-13867317D02*
X11648753Y-13867317D01*
X11648753Y-13867317D02*
X11629706Y-13857793D01*
X11629706Y-13857793D02*
X11620182Y-13838746D01*
X11620182Y-13838746D02*
X11620182Y-13829222D01*
X11620182Y-13829222D02*
X11629706Y-13810174D01*
X11629706Y-13810174D02*
X11648753Y-13800650D01*
X11648753Y-13800650D02*
X11677325Y-13800650D01*
X11677325Y-13800650D02*
X11696372Y-13810174D01*
X11772563Y-14010174D02*
X11782087Y-14000650D01*
X11782087Y-14000650D02*
X11801134Y-13972079D01*
X11801134Y-13972079D02*
X11810658Y-13953031D01*
X11810658Y-13953031D02*
X11820182Y-13924460D01*
X11820182Y-13924460D02*
X11829706Y-13876841D01*
X11829706Y-13876841D02*
X11829706Y-13838746D01*
X11829706Y-13838746D02*
X11820182Y-13791127D01*
X11820182Y-13791127D02*
X11810658Y-13762555D01*
X11810658Y-13762555D02*
X11801134Y-13743508D01*
X11801134Y-13743508D02*
X11782087Y-13714936D01*
X11782087Y-13714936D02*
X11772563Y-13705412D01*
X12134468Y-14010174D02*
X12124944Y-14000650D01*
X12124944Y-14000650D02*
X12105896Y-13972079D01*
X12105896Y-13972079D02*
X12096372Y-13953031D01*
X12096372Y-13953031D02*
X12086849Y-13924460D01*
X12086849Y-13924460D02*
X12077325Y-13876841D01*
X12077325Y-13876841D02*
X12077325Y-13838746D01*
X12077325Y-13838746D02*
X12086849Y-13791127D01*
X12086849Y-13791127D02*
X12096372Y-13762555D01*
X12096372Y-13762555D02*
X12105896Y-13743508D01*
X12105896Y-13743508D02*
X12124944Y-13714936D01*
X12124944Y-13714936D02*
X12134468Y-13705412D01*
X12210658Y-13800650D02*
X12210658Y-13933984D01*
X12210658Y-13819698D02*
X12220182Y-13810174D01*
X12220182Y-13810174D02*
X12239230Y-13800650D01*
X12239230Y-13800650D02*
X12267801Y-13800650D01*
X12267801Y-13800650D02*
X12286849Y-13810174D01*
X12286849Y-13810174D02*
X12296372Y-13829222D01*
X12296372Y-13829222D02*
X12296372Y-13933984D01*
X12420182Y-13933984D02*
X12401134Y-13924460D01*
X12401134Y-13924460D02*
X12391611Y-13914936D01*
X12391611Y-13914936D02*
X12382087Y-13895888D01*
X12382087Y-13895888D02*
X12382087Y-13838746D01*
X12382087Y-13838746D02*
X12391611Y-13819698D01*
X12391611Y-13819698D02*
X12401134Y-13810174D01*
X12401134Y-13810174D02*
X12420182Y-13800650D01*
X12420182Y-13800650D02*
X12448753Y-13800650D01*
X12448753Y-13800650D02*
X12467801Y-13810174D01*
X12467801Y-13810174D02*
X12477325Y-13819698D01*
X12477325Y-13819698D02*
X12486849Y-13838746D01*
X12486849Y-13838746D02*
X12486849Y-13895888D01*
X12486849Y-13895888D02*
X12477325Y-13914936D01*
X12477325Y-13914936D02*
X12467801Y-13924460D01*
X12467801Y-13924460D02*
X12448753Y-13933984D01*
X12448753Y-13933984D02*
X12420182Y-13933984D01*
X12543992Y-13800650D02*
X12620182Y-13800650D01*
X12572563Y-13733984D02*
X12572563Y-13905412D01*
X12572563Y-13905412D02*
X12582087Y-13924460D01*
X12582087Y-13924460D02*
X12601134Y-13933984D01*
X12601134Y-13933984D02*
X12620182Y-13933984D01*
X12839230Y-13800650D02*
X12839230Y-14000650D01*
X12839230Y-13810174D02*
X12858277Y-13800650D01*
X12858277Y-13800650D02*
X12896373Y-13800650D01*
X12896373Y-13800650D02*
X12915420Y-13810174D01*
X12915420Y-13810174D02*
X12924944Y-13819698D01*
X12924944Y-13819698D02*
X12934468Y-13838746D01*
X12934468Y-13838746D02*
X12934468Y-13895888D01*
X12934468Y-13895888D02*
X12924944Y-13914936D01*
X12924944Y-13914936D02*
X12915420Y-13924460D01*
X12915420Y-13924460D02*
X12896373Y-13933984D01*
X12896373Y-13933984D02*
X12858277Y-13933984D01*
X12858277Y-13933984D02*
X12839230Y-13924460D01*
X13048753Y-13933984D02*
X13029706Y-13924460D01*
X13029706Y-13924460D02*
X13020182Y-13905412D01*
X13020182Y-13905412D02*
X13020182Y-13733984D01*
X13210658Y-13933984D02*
X13210658Y-13829222D01*
X13210658Y-13829222D02*
X13201134Y-13810174D01*
X13201134Y-13810174D02*
X13182087Y-13800650D01*
X13182087Y-13800650D02*
X13143992Y-13800650D01*
X13143992Y-13800650D02*
X13124944Y-13810174D01*
X13210658Y-13924460D02*
X13191611Y-13933984D01*
X13191611Y-13933984D02*
X13143992Y-13933984D01*
X13143992Y-13933984D02*
X13124944Y-13924460D01*
X13124944Y-13924460D02*
X13115420Y-13905412D01*
X13115420Y-13905412D02*
X13115420Y-13886365D01*
X13115420Y-13886365D02*
X13124944Y-13867317D01*
X13124944Y-13867317D02*
X13143992Y-13857793D01*
X13143992Y-13857793D02*
X13191611Y-13857793D01*
X13191611Y-13857793D02*
X13210658Y-13848269D01*
X13277325Y-13800650D02*
X13353515Y-13800650D01*
X13305896Y-13733984D02*
X13305896Y-13905412D01*
X13305896Y-13905412D02*
X13315420Y-13924460D01*
X13315420Y-13924460D02*
X13334468Y-13933984D01*
X13334468Y-13933984D02*
X13353515Y-13933984D01*
X13496373Y-13924460D02*
X13477325Y-13933984D01*
X13477325Y-13933984D02*
X13439230Y-13933984D01*
X13439230Y-13933984D02*
X13420182Y-13924460D01*
X13420182Y-13924460D02*
X13410658Y-13905412D01*
X13410658Y-13905412D02*
X13410658Y-13829222D01*
X13410658Y-13829222D02*
X13420182Y-13810174D01*
X13420182Y-13810174D02*
X13439230Y-13800650D01*
X13439230Y-13800650D02*
X13477325Y-13800650D01*
X13477325Y-13800650D02*
X13496373Y-13810174D01*
X13496373Y-13810174D02*
X13505896Y-13829222D01*
X13505896Y-13829222D02*
X13505896Y-13848269D01*
X13505896Y-13848269D02*
X13410658Y-13867317D01*
X13677325Y-13933984D02*
X13677325Y-13733984D01*
X13677325Y-13924460D02*
X13658277Y-13933984D01*
X13658277Y-13933984D02*
X13620182Y-13933984D01*
X13620182Y-13933984D02*
X13601134Y-13924460D01*
X13601134Y-13924460D02*
X13591611Y-13914936D01*
X13591611Y-13914936D02*
X13582087Y-13895888D01*
X13582087Y-13895888D02*
X13582087Y-13838746D01*
X13582087Y-13838746D02*
X13591611Y-13819698D01*
X13591611Y-13819698D02*
X13601134Y-13810174D01*
X13601134Y-13810174D02*
X13620182Y-13800650D01*
X13620182Y-13800650D02*
X13658277Y-13800650D01*
X13658277Y-13800650D02*
X13677325Y-13810174D01*
X13753515Y-14010174D02*
X13763039Y-14000650D01*
X13763039Y-14000650D02*
X13782087Y-13972079D01*
X13782087Y-13972079D02*
X13791611Y-13953031D01*
X13791611Y-13953031D02*
X13801134Y-13924460D01*
X13801134Y-13924460D02*
X13810658Y-13876841D01*
X13810658Y-13876841D02*
X13810658Y-13838746D01*
X13810658Y-13838746D02*
X13801134Y-13791127D01*
X13801134Y-13791127D02*
X13791611Y-13762555D01*
X13791611Y-13762555D02*
X13782087Y-13743508D01*
X13782087Y-13743508D02*
X13763039Y-13714936D01*
X13763039Y-13714936D02*
X13753515Y-13705412D01*
X6997500Y-14162500D02*
G75*
G02*
X6797500Y-14162500I-100000J0D01*
G01*
X6797500Y-14162500D02*
G75*
G02*
X6997500Y-14162500I100000J0D01*
G01*
X7343991Y-14120650D02*
X7343991Y-14253984D01*
X7296372Y-14044460D02*
X7248753Y-14187317D01*
X7248753Y-14187317D02*
X7372562Y-14187317D01*
X7448753Y-14234936D02*
X7458277Y-14244460D01*
X7458277Y-14244460D02*
X7448753Y-14253984D01*
X7448753Y-14253984D02*
X7439229Y-14244460D01*
X7439229Y-14244460D02*
X7448753Y-14234936D01*
X7448753Y-14234936D02*
X7448753Y-14253984D01*
X7582086Y-14053984D02*
X7601134Y-14053984D01*
X7601134Y-14053984D02*
X7620182Y-14063508D01*
X7620182Y-14063508D02*
X7629705Y-14073031D01*
X7629705Y-14073031D02*
X7639229Y-14092079D01*
X7639229Y-14092079D02*
X7648753Y-14130174D01*
X7648753Y-14130174D02*
X7648753Y-14177793D01*
X7648753Y-14177793D02*
X7639229Y-14215888D01*
X7639229Y-14215888D02*
X7629705Y-14234936D01*
X7629705Y-14234936D02*
X7620182Y-14244460D01*
X7620182Y-14244460D02*
X7601134Y-14253984D01*
X7601134Y-14253984D02*
X7582086Y-14253984D01*
X7582086Y-14253984D02*
X7563039Y-14244460D01*
X7563039Y-14244460D02*
X7553515Y-14234936D01*
X7553515Y-14234936D02*
X7543991Y-14215888D01*
X7543991Y-14215888D02*
X7534467Y-14177793D01*
X7534467Y-14177793D02*
X7534467Y-14130174D01*
X7534467Y-14130174D02*
X7543991Y-14092079D01*
X7543991Y-14092079D02*
X7553515Y-14073031D01*
X7553515Y-14073031D02*
X7563039Y-14063508D01*
X7563039Y-14063508D02*
X7582086Y-14053984D01*
X7772562Y-14053984D02*
X7791610Y-14053984D01*
X7791610Y-14053984D02*
X7810658Y-14063508D01*
X7810658Y-14063508D02*
X7820182Y-14073031D01*
X7820182Y-14073031D02*
X7829705Y-14092079D01*
X7829705Y-14092079D02*
X7839229Y-14130174D01*
X7839229Y-14130174D02*
X7839229Y-14177793D01*
X7839229Y-14177793D02*
X7829705Y-14215888D01*
X7829705Y-14215888D02*
X7820182Y-14234936D01*
X7820182Y-14234936D02*
X7810658Y-14244460D01*
X7810658Y-14244460D02*
X7791610Y-14253984D01*
X7791610Y-14253984D02*
X7772562Y-14253984D01*
X7772562Y-14253984D02*
X7753515Y-14244460D01*
X7753515Y-14244460D02*
X7743991Y-14234936D01*
X7743991Y-14234936D02*
X7734467Y-14215888D01*
X7734467Y-14215888D02*
X7724943Y-14177793D01*
X7724943Y-14177793D02*
X7724943Y-14130174D01*
X7724943Y-14130174D02*
X7734467Y-14092079D01*
X7734467Y-14092079D02*
X7743991Y-14073031D01*
X7743991Y-14073031D02*
X7753515Y-14063508D01*
X7753515Y-14063508D02*
X7772562Y-14053984D01*
X7963039Y-14053984D02*
X7982086Y-14053984D01*
X7982086Y-14053984D02*
X8001134Y-14063508D01*
X8001134Y-14063508D02*
X8010658Y-14073031D01*
X8010658Y-14073031D02*
X8020182Y-14092079D01*
X8020182Y-14092079D02*
X8029705Y-14130174D01*
X8029705Y-14130174D02*
X8029705Y-14177793D01*
X8029705Y-14177793D02*
X8020182Y-14215888D01*
X8020182Y-14215888D02*
X8010658Y-14234936D01*
X8010658Y-14234936D02*
X8001134Y-14244460D01*
X8001134Y-14244460D02*
X7982086Y-14253984D01*
X7982086Y-14253984D02*
X7963039Y-14253984D01*
X7963039Y-14253984D02*
X7943991Y-14244460D01*
X7943991Y-14244460D02*
X7934467Y-14234936D01*
X7934467Y-14234936D02*
X7924943Y-14215888D01*
X7924943Y-14215888D02*
X7915420Y-14177793D01*
X7915420Y-14177793D02*
X7915420Y-14130174D01*
X7915420Y-14130174D02*
X7924943Y-14092079D01*
X7924943Y-14092079D02*
X7934467Y-14073031D01*
X7934467Y-14073031D02*
X7943991Y-14063508D01*
X7943991Y-14063508D02*
X7963039Y-14053984D01*
X8115420Y-14253984D02*
X8115420Y-14120650D01*
X8115420Y-14139698D02*
X8124943Y-14130174D01*
X8124943Y-14130174D02*
X8143991Y-14120650D01*
X8143991Y-14120650D02*
X8172563Y-14120650D01*
X8172563Y-14120650D02*
X8191610Y-14130174D01*
X8191610Y-14130174D02*
X8201134Y-14149222D01*
X8201134Y-14149222D02*
X8201134Y-14253984D01*
X8201134Y-14149222D02*
X8210658Y-14130174D01*
X8210658Y-14130174D02*
X8229705Y-14120650D01*
X8229705Y-14120650D02*
X8258277Y-14120650D01*
X8258277Y-14120650D02*
X8277324Y-14130174D01*
X8277324Y-14130174D02*
X8286848Y-14149222D01*
X8286848Y-14149222D02*
X8286848Y-14253984D01*
X8382086Y-14253984D02*
X8382086Y-14120650D01*
X8382086Y-14139698D02*
X8391610Y-14130174D01*
X8391610Y-14130174D02*
X8410658Y-14120650D01*
X8410658Y-14120650D02*
X8439229Y-14120650D01*
X8439229Y-14120650D02*
X8458277Y-14130174D01*
X8458277Y-14130174D02*
X8467801Y-14149222D01*
X8467801Y-14149222D02*
X8467801Y-14253984D01*
X8467801Y-14149222D02*
X8477325Y-14130174D01*
X8477325Y-14130174D02*
X8496372Y-14120650D01*
X8496372Y-14120650D02*
X8524944Y-14120650D01*
X8524944Y-14120650D02*
X8543991Y-14130174D01*
X8543991Y-14130174D02*
X8553515Y-14149222D01*
X8553515Y-14149222D02*
X8553515Y-14253984D01*
X8943991Y-14044460D02*
X8772563Y-14301603D01*
X9201134Y-14053984D02*
X9220182Y-14053984D01*
X9220182Y-14053984D02*
X9239229Y-14063508D01*
X9239229Y-14063508D02*
X9248753Y-14073031D01*
X9248753Y-14073031D02*
X9258277Y-14092079D01*
X9258277Y-14092079D02*
X9267801Y-14130174D01*
X9267801Y-14130174D02*
X9267801Y-14177793D01*
X9267801Y-14177793D02*
X9258277Y-14215888D01*
X9258277Y-14215888D02*
X9248753Y-14234936D01*
X9248753Y-14234936D02*
X9239229Y-14244460D01*
X9239229Y-14244460D02*
X9220182Y-14253984D01*
X9220182Y-14253984D02*
X9201134Y-14253984D01*
X9201134Y-14253984D02*
X9182087Y-14244460D01*
X9182087Y-14244460D02*
X9172563Y-14234936D01*
X9172563Y-14234936D02*
X9163039Y-14215888D01*
X9163039Y-14215888D02*
X9153515Y-14177793D01*
X9153515Y-14177793D02*
X9153515Y-14130174D01*
X9153515Y-14130174D02*
X9163039Y-14092079D01*
X9163039Y-14092079D02*
X9172563Y-14073031D01*
X9172563Y-14073031D02*
X9182087Y-14063508D01*
X9182087Y-14063508D02*
X9201134Y-14053984D01*
X9353515Y-14234936D02*
X9363039Y-14244460D01*
X9363039Y-14244460D02*
X9353515Y-14253984D01*
X9353515Y-14253984D02*
X9343991Y-14244460D01*
X9343991Y-14244460D02*
X9353515Y-14234936D01*
X9353515Y-14234936D02*
X9353515Y-14253984D01*
X9553515Y-14253984D02*
X9439229Y-14253984D01*
X9496372Y-14253984D02*
X9496372Y-14053984D01*
X9496372Y-14053984D02*
X9477325Y-14082555D01*
X9477325Y-14082555D02*
X9458277Y-14101603D01*
X9458277Y-14101603D02*
X9439229Y-14111127D01*
X9734468Y-14053984D02*
X9639229Y-14053984D01*
X9639229Y-14053984D02*
X9629706Y-14149222D01*
X9629706Y-14149222D02*
X9639229Y-14139698D01*
X9639229Y-14139698D02*
X9658277Y-14130174D01*
X9658277Y-14130174D02*
X9705896Y-14130174D01*
X9705896Y-14130174D02*
X9724944Y-14139698D01*
X9724944Y-14139698D02*
X9734468Y-14149222D01*
X9734468Y-14149222D02*
X9743991Y-14168269D01*
X9743991Y-14168269D02*
X9743991Y-14215888D01*
X9743991Y-14215888D02*
X9734468Y-14234936D01*
X9734468Y-14234936D02*
X9724944Y-14244460D01*
X9724944Y-14244460D02*
X9705896Y-14253984D01*
X9705896Y-14253984D02*
X9658277Y-14253984D01*
X9658277Y-14253984D02*
X9639229Y-14244460D01*
X9639229Y-14244460D02*
X9629706Y-14234936D01*
X9810658Y-14053984D02*
X9943991Y-14053984D01*
X9943991Y-14053984D02*
X9858277Y-14253984D01*
X10115420Y-14053984D02*
X10020182Y-14053984D01*
X10020182Y-14053984D02*
X10010658Y-14149222D01*
X10010658Y-14149222D02*
X10020182Y-14139698D01*
X10020182Y-14139698D02*
X10039229Y-14130174D01*
X10039229Y-14130174D02*
X10086849Y-14130174D01*
X10086849Y-14130174D02*
X10105896Y-14139698D01*
X10105896Y-14139698D02*
X10115420Y-14149222D01*
X10115420Y-14149222D02*
X10124944Y-14168269D01*
X10124944Y-14168269D02*
X10124944Y-14215888D01*
X10124944Y-14215888D02*
X10115420Y-14234936D01*
X10115420Y-14234936D02*
X10105896Y-14244460D01*
X10105896Y-14244460D02*
X10086849Y-14253984D01*
X10086849Y-14253984D02*
X10039229Y-14253984D01*
X10039229Y-14253984D02*
X10020182Y-14244460D01*
X10020182Y-14244460D02*
X10010658Y-14234936D01*
X10201134Y-14053984D02*
X10201134Y-14092079D01*
X10277325Y-14053984D02*
X10277325Y-14092079D01*
X10572563Y-14330174D02*
X10563039Y-14320650D01*
X10563039Y-14320650D02*
X10543991Y-14292079D01*
X10543991Y-14292079D02*
X10534468Y-14273031D01*
X10534468Y-14273031D02*
X10524944Y-14244460D01*
X10524944Y-14244460D02*
X10515420Y-14196841D01*
X10515420Y-14196841D02*
X10515420Y-14158746D01*
X10515420Y-14158746D02*
X10524944Y-14111127D01*
X10524944Y-14111127D02*
X10534468Y-14082555D01*
X10534468Y-14082555D02*
X10543991Y-14063508D01*
X10543991Y-14063508D02*
X10563039Y-14034936D01*
X10563039Y-14034936D02*
X10572563Y-14025412D01*
X10734468Y-14053984D02*
X10696372Y-14053984D01*
X10696372Y-14053984D02*
X10677325Y-14063508D01*
X10677325Y-14063508D02*
X10667801Y-14073031D01*
X10667801Y-14073031D02*
X10648753Y-14101603D01*
X10648753Y-14101603D02*
X10639230Y-14139698D01*
X10639230Y-14139698D02*
X10639230Y-14215888D01*
X10639230Y-14215888D02*
X10648753Y-14234936D01*
X10648753Y-14234936D02*
X10658277Y-14244460D01*
X10658277Y-14244460D02*
X10677325Y-14253984D01*
X10677325Y-14253984D02*
X10715420Y-14253984D01*
X10715420Y-14253984D02*
X10734468Y-14244460D01*
X10734468Y-14244460D02*
X10743991Y-14234936D01*
X10743991Y-14234936D02*
X10753515Y-14215888D01*
X10753515Y-14215888D02*
X10753515Y-14168269D01*
X10753515Y-14168269D02*
X10743991Y-14149222D01*
X10743991Y-14149222D02*
X10734468Y-14139698D01*
X10734468Y-14139698D02*
X10715420Y-14130174D01*
X10715420Y-14130174D02*
X10677325Y-14130174D01*
X10677325Y-14130174D02*
X10658277Y-14139698D01*
X10658277Y-14139698D02*
X10648753Y-14149222D01*
X10648753Y-14149222D02*
X10639230Y-14168269D01*
X10820182Y-14053984D02*
X10953515Y-14053984D01*
X10953515Y-14053984D02*
X10867801Y-14253984D01*
X11182087Y-14253984D02*
X11182087Y-14053984D01*
X11267801Y-14253984D02*
X11267801Y-14149222D01*
X11267801Y-14149222D02*
X11258277Y-14130174D01*
X11258277Y-14130174D02*
X11239230Y-14120650D01*
X11239230Y-14120650D02*
X11210658Y-14120650D01*
X11210658Y-14120650D02*
X11191610Y-14130174D01*
X11191610Y-14130174D02*
X11182087Y-14139698D01*
X11391610Y-14253984D02*
X11372563Y-14244460D01*
X11372563Y-14244460D02*
X11363039Y-14234936D01*
X11363039Y-14234936D02*
X11353515Y-14215888D01*
X11353515Y-14215888D02*
X11353515Y-14158746D01*
X11353515Y-14158746D02*
X11363039Y-14139698D01*
X11363039Y-14139698D02*
X11372563Y-14130174D01*
X11372563Y-14130174D02*
X11391610Y-14120650D01*
X11391610Y-14120650D02*
X11420182Y-14120650D01*
X11420182Y-14120650D02*
X11439230Y-14130174D01*
X11439230Y-14130174D02*
X11448753Y-14139698D01*
X11448753Y-14139698D02*
X11458277Y-14158746D01*
X11458277Y-14158746D02*
X11458277Y-14215888D01*
X11458277Y-14215888D02*
X11448753Y-14234936D01*
X11448753Y-14234936D02*
X11439230Y-14244460D01*
X11439230Y-14244460D02*
X11420182Y-14253984D01*
X11420182Y-14253984D02*
X11391610Y-14253984D01*
X11572563Y-14253984D02*
X11553515Y-14244460D01*
X11553515Y-14244460D02*
X11543991Y-14225412D01*
X11543991Y-14225412D02*
X11543991Y-14053984D01*
X11724944Y-14244460D02*
X11705896Y-14253984D01*
X11705896Y-14253984D02*
X11667801Y-14253984D01*
X11667801Y-14253984D02*
X11648753Y-14244460D01*
X11648753Y-14244460D02*
X11639230Y-14225412D01*
X11639230Y-14225412D02*
X11639230Y-14149222D01*
X11639230Y-14149222D02*
X11648753Y-14130174D01*
X11648753Y-14130174D02*
X11667801Y-14120650D01*
X11667801Y-14120650D02*
X11705896Y-14120650D01*
X11705896Y-14120650D02*
X11724944Y-14130174D01*
X11724944Y-14130174D02*
X11734468Y-14149222D01*
X11734468Y-14149222D02*
X11734468Y-14168269D01*
X11734468Y-14168269D02*
X11639230Y-14187317D01*
X11810658Y-14244460D02*
X11829706Y-14253984D01*
X11829706Y-14253984D02*
X11867801Y-14253984D01*
X11867801Y-14253984D02*
X11886849Y-14244460D01*
X11886849Y-14244460D02*
X11896372Y-14225412D01*
X11896372Y-14225412D02*
X11896372Y-14215888D01*
X11896372Y-14215888D02*
X11886849Y-14196841D01*
X11886849Y-14196841D02*
X11867801Y-14187317D01*
X11867801Y-14187317D02*
X11839230Y-14187317D01*
X11839230Y-14187317D02*
X11820182Y-14177793D01*
X11820182Y-14177793D02*
X11810658Y-14158746D01*
X11810658Y-14158746D02*
X11810658Y-14149222D01*
X11810658Y-14149222D02*
X11820182Y-14130174D01*
X11820182Y-14130174D02*
X11839230Y-14120650D01*
X11839230Y-14120650D02*
X11867801Y-14120650D01*
X11867801Y-14120650D02*
X11886849Y-14130174D01*
X11963039Y-14330174D02*
X11972563Y-14320650D01*
X11972563Y-14320650D02*
X11991611Y-14292079D01*
X11991611Y-14292079D02*
X12001134Y-14273031D01*
X12001134Y-14273031D02*
X12010658Y-14244460D01*
X12010658Y-14244460D02*
X12020182Y-14196841D01*
X12020182Y-14196841D02*
X12020182Y-14158746D01*
X12020182Y-14158746D02*
X12010658Y-14111127D01*
X12010658Y-14111127D02*
X12001134Y-14082555D01*
X12001134Y-14082555D02*
X11991611Y-14063508D01*
X11991611Y-14063508D02*
X11972563Y-14034936D01*
X11972563Y-14034936D02*
X11963039Y-14025412D01*
X12324944Y-14330174D02*
X12315420Y-14320650D01*
X12315420Y-14320650D02*
X12296372Y-14292079D01*
X12296372Y-14292079D02*
X12286849Y-14273031D01*
X12286849Y-14273031D02*
X12277325Y-14244460D01*
X12277325Y-14244460D02*
X12267801Y-14196841D01*
X12267801Y-14196841D02*
X12267801Y-14158746D01*
X12267801Y-14158746D02*
X12277325Y-14111127D01*
X12277325Y-14111127D02*
X12286849Y-14082555D01*
X12286849Y-14082555D02*
X12296372Y-14063508D01*
X12296372Y-14063508D02*
X12315420Y-14034936D01*
X12315420Y-14034936D02*
X12324944Y-14025412D01*
X12401134Y-14120650D02*
X12401134Y-14253984D01*
X12401134Y-14139698D02*
X12410658Y-14130174D01*
X12410658Y-14130174D02*
X12429706Y-14120650D01*
X12429706Y-14120650D02*
X12458277Y-14120650D01*
X12458277Y-14120650D02*
X12477325Y-14130174D01*
X12477325Y-14130174D02*
X12486849Y-14149222D01*
X12486849Y-14149222D02*
X12486849Y-14253984D01*
X12610658Y-14253984D02*
X12591611Y-14244460D01*
X12591611Y-14244460D02*
X12582087Y-14234936D01*
X12582087Y-14234936D02*
X12572563Y-14215888D01*
X12572563Y-14215888D02*
X12572563Y-14158746D01*
X12572563Y-14158746D02*
X12582087Y-14139698D01*
X12582087Y-14139698D02*
X12591611Y-14130174D01*
X12591611Y-14130174D02*
X12610658Y-14120650D01*
X12610658Y-14120650D02*
X12639230Y-14120650D01*
X12639230Y-14120650D02*
X12658277Y-14130174D01*
X12658277Y-14130174D02*
X12667801Y-14139698D01*
X12667801Y-14139698D02*
X12677325Y-14158746D01*
X12677325Y-14158746D02*
X12677325Y-14215888D01*
X12677325Y-14215888D02*
X12667801Y-14234936D01*
X12667801Y-14234936D02*
X12658277Y-14244460D01*
X12658277Y-14244460D02*
X12639230Y-14253984D01*
X12639230Y-14253984D02*
X12610658Y-14253984D01*
X12734468Y-14120650D02*
X12810658Y-14120650D01*
X12763039Y-14053984D02*
X12763039Y-14225412D01*
X12763039Y-14225412D02*
X12772563Y-14244460D01*
X12772563Y-14244460D02*
X12791611Y-14253984D01*
X12791611Y-14253984D02*
X12810658Y-14253984D01*
X13029706Y-14120650D02*
X13029706Y-14320650D01*
X13029706Y-14130174D02*
X13048753Y-14120650D01*
X13048753Y-14120650D02*
X13086849Y-14120650D01*
X13086849Y-14120650D02*
X13105896Y-14130174D01*
X13105896Y-14130174D02*
X13115420Y-14139698D01*
X13115420Y-14139698D02*
X13124944Y-14158746D01*
X13124944Y-14158746D02*
X13124944Y-14215888D01*
X13124944Y-14215888D02*
X13115420Y-14234936D01*
X13115420Y-14234936D02*
X13105896Y-14244460D01*
X13105896Y-14244460D02*
X13086849Y-14253984D01*
X13086849Y-14253984D02*
X13048753Y-14253984D01*
X13048753Y-14253984D02*
X13029706Y-14244460D01*
X13239230Y-14253984D02*
X13220182Y-14244460D01*
X13220182Y-14244460D02*
X13210658Y-14225412D01*
X13210658Y-14225412D02*
X13210658Y-14053984D01*
X13401134Y-14253984D02*
X13401134Y-14149222D01*
X13401134Y-14149222D02*
X13391611Y-14130174D01*
X13391611Y-14130174D02*
X13372563Y-14120650D01*
X13372563Y-14120650D02*
X13334468Y-14120650D01*
X13334468Y-14120650D02*
X13315420Y-14130174D01*
X13401134Y-14244460D02*
X13382087Y-14253984D01*
X13382087Y-14253984D02*
X13334468Y-14253984D01*
X13334468Y-14253984D02*
X13315420Y-14244460D01*
X13315420Y-14244460D02*
X13305896Y-14225412D01*
X13305896Y-14225412D02*
X13305896Y-14206365D01*
X13305896Y-14206365D02*
X13315420Y-14187317D01*
X13315420Y-14187317D02*
X13334468Y-14177793D01*
X13334468Y-14177793D02*
X13382087Y-14177793D01*
X13382087Y-14177793D02*
X13401134Y-14168269D01*
X13467801Y-14120650D02*
X13543992Y-14120650D01*
X13496373Y-14053984D02*
X13496373Y-14225412D01*
X13496373Y-14225412D02*
X13505896Y-14244460D01*
X13505896Y-14244460D02*
X13524944Y-14253984D01*
X13524944Y-14253984D02*
X13543992Y-14253984D01*
X13686849Y-14244460D02*
X13667801Y-14253984D01*
X13667801Y-14253984D02*
X13629706Y-14253984D01*
X13629706Y-14253984D02*
X13610658Y-14244460D01*
X13610658Y-14244460D02*
X13601134Y-14225412D01*
X13601134Y-14225412D02*
X13601134Y-14149222D01*
X13601134Y-14149222D02*
X13610658Y-14130174D01*
X13610658Y-14130174D02*
X13629706Y-14120650D01*
X13629706Y-14120650D02*
X13667801Y-14120650D01*
X13667801Y-14120650D02*
X13686849Y-14130174D01*
X13686849Y-14130174D02*
X13696373Y-14149222D01*
X13696373Y-14149222D02*
X13696373Y-14168269D01*
X13696373Y-14168269D02*
X13601134Y-14187317D01*
X13867801Y-14253984D02*
X13867801Y-14053984D01*
X13867801Y-14244460D02*
X13848754Y-14253984D01*
X13848754Y-14253984D02*
X13810658Y-14253984D01*
X13810658Y-14253984D02*
X13791611Y-14244460D01*
X13791611Y-14244460D02*
X13782087Y-14234936D01*
X13782087Y-14234936D02*
X13772563Y-14215888D01*
X13772563Y-14215888D02*
X13772563Y-14158746D01*
X13772563Y-14158746D02*
X13782087Y-14139698D01*
X13782087Y-14139698D02*
X13791611Y-14130174D01*
X13791611Y-14130174D02*
X13810658Y-14120650D01*
X13810658Y-14120650D02*
X13848754Y-14120650D01*
X13848754Y-14120650D02*
X13867801Y-14130174D01*
X13943992Y-14330174D02*
X13953515Y-14320650D01*
X13953515Y-14320650D02*
X13972563Y-14292079D01*
X13972563Y-14292079D02*
X13982087Y-14273031D01*
X13982087Y-14273031D02*
X13991611Y-14244460D01*
X13991611Y-14244460D02*
X14001134Y-14196841D01*
X14001134Y-14196841D02*
X14001134Y-14158746D01*
X14001134Y-14158746D02*
X13991611Y-14111127D01*
X13991611Y-14111127D02*
X13982087Y-14082555D01*
X13982087Y-14082555D02*
X13972563Y-14063508D01*
X13972563Y-14063508D02*
X13953515Y-14034936D01*
X13953515Y-14034936D02*
X13943992Y-14025412D01*
M02*
