G04 #@! TF.GenerationSoftware,KiCad,Pcbnew,8.0.5*
G04 #@! TF.CreationDate,2025-01-01T12:05:04+09:00*
G04 #@! TF.ProjectId,NERD-HPC_CASE_B,4e455244-2d48-4504-935f-434153455f42,rev?*
G04 #@! TF.SameCoordinates,Original*
G04 #@! TF.FileFunction,Copper,L1,Top*
G04 #@! TF.FilePolarity,Positive*
%FSLAX46Y46*%
G04 Gerber Fmt 4.6, Leading zero omitted, Abs format (unit mm)*
G04 Created by KiCad (PCBNEW 8.0.5) date 2025-01-01 12:05:04*
%MOMM*%
%LPD*%
G01*
G04 APERTURE LIST*
G04 APERTURE END LIST*
G04 #@! TA.AperFunction,NonConductor*
G36*
X203003032Y-60500648D02*
G01*
X203336929Y-60517052D01*
X203349037Y-60518245D01*
X203452146Y-60533539D01*
X203676699Y-60566849D01*
X203688617Y-60569219D01*
X204009951Y-60649709D01*
X204021588Y-60653240D01*
X204092806Y-60678722D01*
X204333467Y-60764832D01*
X204344688Y-60769479D01*
X204644163Y-60911120D01*
X204654871Y-60916844D01*
X204938988Y-61087137D01*
X204949106Y-61093897D01*
X205215170Y-61291224D01*
X205224576Y-61298944D01*
X205470013Y-61521395D01*
X205478604Y-61529986D01*
X205665755Y-61736475D01*
X205701055Y-61775423D01*
X205708775Y-61784829D01*
X205906102Y-62050893D01*
X205912862Y-62061011D01*
X206078149Y-62336777D01*
X206083148Y-62345116D01*
X206088883Y-62355844D01*
X206137229Y-62458064D01*
X206230514Y-62655297D01*
X206235170Y-62666540D01*
X206346759Y-62978411D01*
X206350292Y-62990055D01*
X206430777Y-63311369D01*
X206433151Y-63323305D01*
X206481754Y-63650962D01*
X206482947Y-63663071D01*
X206499351Y-63996966D01*
X206499500Y-64003051D01*
X206499500Y-127996948D01*
X206499351Y-128003033D01*
X206482947Y-128336928D01*
X206481754Y-128349037D01*
X206433151Y-128676694D01*
X206430777Y-128688630D01*
X206350292Y-129009944D01*
X206346759Y-129021588D01*
X206235170Y-129333459D01*
X206230514Y-129344702D01*
X206088885Y-129644151D01*
X206083148Y-129654883D01*
X205912862Y-129938988D01*
X205906102Y-129949106D01*
X205708775Y-130215170D01*
X205701055Y-130224576D01*
X205478611Y-130470006D01*
X205470006Y-130478611D01*
X205224576Y-130701055D01*
X205215170Y-130708775D01*
X204949106Y-130906102D01*
X204938988Y-130912862D01*
X204654883Y-131083148D01*
X204644151Y-131088885D01*
X204344702Y-131230514D01*
X204333459Y-131235170D01*
X204021588Y-131346759D01*
X204009944Y-131350292D01*
X203688630Y-131430777D01*
X203676694Y-131433151D01*
X203349037Y-131481754D01*
X203336928Y-131482947D01*
X203021989Y-131498419D01*
X203003031Y-131499351D01*
X202996949Y-131499500D01*
X172006962Y-131499500D01*
X171993078Y-131498720D01*
X171980553Y-131497308D01*
X171902735Y-131488540D01*
X171875666Y-131482362D01*
X171796462Y-131454648D01*
X171771444Y-131442600D01*
X171700395Y-131397957D01*
X171678686Y-131380644D01*
X171619355Y-131321313D01*
X171602042Y-131299604D01*
X171561555Y-131235170D01*
X171557398Y-131228553D01*
X171545351Y-131203537D01*
X171517637Y-131124333D01*
X171511459Y-131097263D01*
X171501280Y-131006922D01*
X171500500Y-130993038D01*
X171500500Y-127878711D01*
X201149500Y-127878711D01*
X201149500Y-128121288D01*
X201181161Y-128361785D01*
X201243947Y-128596104D01*
X201282273Y-128688630D01*
X201336776Y-128820212D01*
X201458064Y-129030289D01*
X201458066Y-129030292D01*
X201458067Y-129030293D01*
X201605733Y-129222736D01*
X201605739Y-129222743D01*
X201777256Y-129394260D01*
X201777262Y-129394265D01*
X201969711Y-129541936D01*
X202179788Y-129663224D01*
X202403900Y-129756054D01*
X202638211Y-129818838D01*
X202818586Y-129842584D01*
X202878711Y-129850500D01*
X202878712Y-129850500D01*
X203121289Y-129850500D01*
X203169388Y-129844167D01*
X203361789Y-129818838D01*
X203596100Y-129756054D01*
X203820212Y-129663224D01*
X204030289Y-129541936D01*
X204222738Y-129394265D01*
X204394265Y-129222738D01*
X204541936Y-129030289D01*
X204663224Y-128820212D01*
X204756054Y-128596100D01*
X204818838Y-128361789D01*
X204850500Y-128121288D01*
X204850500Y-127878712D01*
X204818838Y-127638211D01*
X204756054Y-127403900D01*
X204663224Y-127179788D01*
X204541936Y-126969711D01*
X204394265Y-126777262D01*
X204394260Y-126777256D01*
X204222743Y-126605739D01*
X204222736Y-126605733D01*
X204030293Y-126458067D01*
X204030292Y-126458066D01*
X204030289Y-126458064D01*
X203820212Y-126336776D01*
X203820205Y-126336773D01*
X203596104Y-126243947D01*
X203361785Y-126181161D01*
X203121289Y-126149500D01*
X203121288Y-126149500D01*
X202878712Y-126149500D01*
X202878711Y-126149500D01*
X202638214Y-126181161D01*
X202403895Y-126243947D01*
X202179794Y-126336773D01*
X202179785Y-126336777D01*
X201969706Y-126458067D01*
X201777263Y-126605733D01*
X201777256Y-126605739D01*
X201605739Y-126777256D01*
X201605733Y-126777263D01*
X201458067Y-126969706D01*
X201336777Y-127179785D01*
X201336773Y-127179794D01*
X201243947Y-127403895D01*
X201181161Y-127638214D01*
X201149500Y-127878711D01*
X171500500Y-127878711D01*
X171500500Y-79892683D01*
X171500500Y-79892682D01*
X171469954Y-79680231D01*
X171409484Y-79474290D01*
X171409483Y-79474288D01*
X171409482Y-79474284D01*
X171320327Y-79279061D01*
X171320320Y-79279048D01*
X171287211Y-79227531D01*
X171204281Y-79098487D01*
X171171172Y-79060277D01*
X171063724Y-78936275D01*
X170901514Y-78795720D01*
X170901513Y-78795719D01*
X170836991Y-78754253D01*
X170720951Y-78679679D01*
X170720938Y-78679672D01*
X170525715Y-78590517D01*
X170319774Y-78530047D01*
X170319764Y-78530044D01*
X170128754Y-78502582D01*
X170107318Y-78499500D01*
X170065892Y-78499500D01*
X116065892Y-78499500D01*
X116000000Y-78499500D01*
X115892682Y-78499500D01*
X115680235Y-78530044D01*
X115680225Y-78530047D01*
X115474284Y-78590517D01*
X115279061Y-78679672D01*
X115279048Y-78679679D01*
X115098485Y-78795720D01*
X114936275Y-78936275D01*
X114795720Y-79098485D01*
X114679679Y-79279048D01*
X114679672Y-79279061D01*
X114590517Y-79474284D01*
X114530047Y-79680225D01*
X114530044Y-79680235D01*
X114499500Y-79892682D01*
X114499500Y-130993038D01*
X114498720Y-131006923D01*
X114488540Y-131097264D01*
X114482362Y-131124333D01*
X114454648Y-131203537D01*
X114442600Y-131228555D01*
X114397957Y-131299604D01*
X114380644Y-131321313D01*
X114321313Y-131380644D01*
X114299604Y-131397957D01*
X114228555Y-131442600D01*
X114203537Y-131454648D01*
X114124333Y-131482362D01*
X114097264Y-131488540D01*
X114017075Y-131497576D01*
X114006921Y-131498720D01*
X113993038Y-131499500D01*
X74003051Y-131499500D01*
X73996968Y-131499351D01*
X73976900Y-131498365D01*
X73663071Y-131482947D01*
X73650962Y-131481754D01*
X73323305Y-131433151D01*
X73311369Y-131430777D01*
X72990055Y-131350292D01*
X72978411Y-131346759D01*
X72666540Y-131235170D01*
X72655301Y-131230515D01*
X72355844Y-131088883D01*
X72345121Y-131083150D01*
X72061011Y-130912862D01*
X72050893Y-130906102D01*
X71784829Y-130708775D01*
X71775423Y-130701055D01*
X71736475Y-130665755D01*
X71529986Y-130478604D01*
X71521395Y-130470013D01*
X71298944Y-130224576D01*
X71291224Y-130215170D01*
X71093897Y-129949106D01*
X71087137Y-129938988D01*
X70916844Y-129654871D01*
X70911120Y-129644163D01*
X70769479Y-129344688D01*
X70764829Y-129333459D01*
X70725212Y-129222738D01*
X70692902Y-129132438D01*
X70653240Y-129021588D01*
X70649707Y-129009944D01*
X70640958Y-128975015D01*
X70569219Y-128688617D01*
X70566848Y-128676694D01*
X70518245Y-128349037D01*
X70517052Y-128336927D01*
X70500649Y-128003032D01*
X70500500Y-127996948D01*
X70500500Y-127878711D01*
X72149500Y-127878711D01*
X72149500Y-128121288D01*
X72181161Y-128361785D01*
X72243947Y-128596104D01*
X72282273Y-128688630D01*
X72336776Y-128820212D01*
X72458064Y-129030289D01*
X72458066Y-129030292D01*
X72458067Y-129030293D01*
X72605733Y-129222736D01*
X72605739Y-129222743D01*
X72777256Y-129394260D01*
X72777262Y-129394265D01*
X72969711Y-129541936D01*
X73179788Y-129663224D01*
X73403900Y-129756054D01*
X73638211Y-129818838D01*
X73818586Y-129842584D01*
X73878711Y-129850500D01*
X73878712Y-129850500D01*
X74121289Y-129850500D01*
X74169388Y-129844167D01*
X74361789Y-129818838D01*
X74596100Y-129756054D01*
X74820212Y-129663224D01*
X75030289Y-129541936D01*
X75222738Y-129394265D01*
X75394265Y-129222738D01*
X75541936Y-129030289D01*
X75663224Y-128820212D01*
X75756054Y-128596100D01*
X75818838Y-128361789D01*
X75850500Y-128121288D01*
X75850500Y-127878712D01*
X75818838Y-127638211D01*
X75756054Y-127403900D01*
X75663224Y-127179788D01*
X75541936Y-126969711D01*
X75394265Y-126777262D01*
X75394260Y-126777256D01*
X75222743Y-126605739D01*
X75222736Y-126605733D01*
X75030293Y-126458067D01*
X75030292Y-126458066D01*
X75030289Y-126458064D01*
X74820212Y-126336776D01*
X74820205Y-126336773D01*
X74596104Y-126243947D01*
X74361785Y-126181161D01*
X74121289Y-126149500D01*
X74121288Y-126149500D01*
X73878712Y-126149500D01*
X73878711Y-126149500D01*
X73638214Y-126181161D01*
X73403895Y-126243947D01*
X73179794Y-126336773D01*
X73179785Y-126336777D01*
X72969706Y-126458067D01*
X72777263Y-126605733D01*
X72777256Y-126605739D01*
X72605739Y-126777256D01*
X72605733Y-126777263D01*
X72458067Y-126969706D01*
X72336777Y-127179785D01*
X72336773Y-127179794D01*
X72243947Y-127403895D01*
X72181161Y-127638214D01*
X72149500Y-127878711D01*
X70500500Y-127878711D01*
X70500500Y-64003051D01*
X70500649Y-63996967D01*
X70506458Y-63878712D01*
X70506458Y-63878711D01*
X72149500Y-63878711D01*
X72149500Y-64121288D01*
X72181161Y-64361785D01*
X72243947Y-64596104D01*
X72336773Y-64820205D01*
X72336776Y-64820212D01*
X72458064Y-65030289D01*
X72458066Y-65030292D01*
X72458067Y-65030293D01*
X72605733Y-65222736D01*
X72605739Y-65222743D01*
X72777256Y-65394260D01*
X72777262Y-65394265D01*
X72969711Y-65541936D01*
X73179788Y-65663224D01*
X73403900Y-65756054D01*
X73638211Y-65818838D01*
X73818586Y-65842584D01*
X73878711Y-65850500D01*
X73878712Y-65850500D01*
X74121289Y-65850500D01*
X74169388Y-65844167D01*
X74361789Y-65818838D01*
X74596100Y-65756054D01*
X74820212Y-65663224D01*
X75030289Y-65541936D01*
X75222738Y-65394265D01*
X75394265Y-65222738D01*
X75541936Y-65030289D01*
X75663224Y-64820212D01*
X75756054Y-64596100D01*
X75818838Y-64361789D01*
X75850500Y-64121288D01*
X75850500Y-63878712D01*
X75850500Y-63878711D01*
X201149500Y-63878711D01*
X201149500Y-64121288D01*
X201181161Y-64361785D01*
X201243947Y-64596104D01*
X201336773Y-64820205D01*
X201336776Y-64820212D01*
X201458064Y-65030289D01*
X201458066Y-65030292D01*
X201458067Y-65030293D01*
X201605733Y-65222736D01*
X201605739Y-65222743D01*
X201777256Y-65394260D01*
X201777262Y-65394265D01*
X201969711Y-65541936D01*
X202179788Y-65663224D01*
X202403900Y-65756054D01*
X202638211Y-65818838D01*
X202818586Y-65842584D01*
X202878711Y-65850500D01*
X202878712Y-65850500D01*
X203121289Y-65850500D01*
X203169388Y-65844167D01*
X203361789Y-65818838D01*
X203596100Y-65756054D01*
X203820212Y-65663224D01*
X204030289Y-65541936D01*
X204222738Y-65394265D01*
X204394265Y-65222738D01*
X204541936Y-65030289D01*
X204663224Y-64820212D01*
X204756054Y-64596100D01*
X204818838Y-64361789D01*
X204850500Y-64121288D01*
X204850500Y-63878712D01*
X204818838Y-63638211D01*
X204756054Y-63403900D01*
X204663224Y-63179788D01*
X204541936Y-62969711D01*
X204394265Y-62777262D01*
X204394260Y-62777256D01*
X204222743Y-62605739D01*
X204222736Y-62605733D01*
X204030293Y-62458067D01*
X204030292Y-62458066D01*
X204030289Y-62458064D01*
X203820212Y-62336776D01*
X203820205Y-62336773D01*
X203596104Y-62243947D01*
X203361785Y-62181161D01*
X203121289Y-62149500D01*
X203121288Y-62149500D01*
X202878712Y-62149500D01*
X202878711Y-62149500D01*
X202638214Y-62181161D01*
X202403895Y-62243947D01*
X202179794Y-62336773D01*
X202179785Y-62336777D01*
X201969706Y-62458067D01*
X201777263Y-62605733D01*
X201777256Y-62605739D01*
X201605739Y-62777256D01*
X201605733Y-62777263D01*
X201458067Y-62969706D01*
X201336777Y-63179785D01*
X201336773Y-63179794D01*
X201243947Y-63403895D01*
X201181161Y-63638214D01*
X201149500Y-63878711D01*
X75850500Y-63878711D01*
X75818838Y-63638211D01*
X75756054Y-63403900D01*
X75663224Y-63179788D01*
X75541936Y-62969711D01*
X75394265Y-62777262D01*
X75394260Y-62777256D01*
X75222743Y-62605739D01*
X75222736Y-62605733D01*
X75030293Y-62458067D01*
X75030292Y-62458066D01*
X75030289Y-62458064D01*
X74820212Y-62336776D01*
X74820205Y-62336773D01*
X74596104Y-62243947D01*
X74361785Y-62181161D01*
X74121289Y-62149500D01*
X74121288Y-62149500D01*
X73878712Y-62149500D01*
X73878711Y-62149500D01*
X73638214Y-62181161D01*
X73403895Y-62243947D01*
X73179794Y-62336773D01*
X73179785Y-62336777D01*
X72969706Y-62458067D01*
X72777263Y-62605733D01*
X72777256Y-62605739D01*
X72605739Y-62777256D01*
X72605733Y-62777263D01*
X72458067Y-62969706D01*
X72336777Y-63179785D01*
X72336773Y-63179794D01*
X72243947Y-63403895D01*
X72181161Y-63638214D01*
X72149500Y-63878711D01*
X70506458Y-63878711D01*
X70517052Y-63663068D01*
X70518245Y-63650962D01*
X70520136Y-63638211D01*
X70566849Y-63323296D01*
X70569218Y-63311385D01*
X70649710Y-62990043D01*
X70653240Y-62978411D01*
X70725212Y-62777263D01*
X70764835Y-62666525D01*
X70769476Y-62655318D01*
X70911124Y-62355828D01*
X70916840Y-62345136D01*
X71087145Y-62060998D01*
X71093888Y-62050905D01*
X71291232Y-61784818D01*
X71298935Y-61775433D01*
X71521405Y-61529975D01*
X71529975Y-61521405D01*
X71775433Y-61298935D01*
X71784818Y-61291232D01*
X72050905Y-61093888D01*
X72060998Y-61087145D01*
X72345136Y-60916840D01*
X72355828Y-60911124D01*
X72655318Y-60769476D01*
X72666525Y-60764835D01*
X72978412Y-60653239D01*
X72990043Y-60649710D01*
X73311385Y-60569218D01*
X73323296Y-60566849D01*
X73650962Y-60518244D01*
X73663068Y-60517052D01*
X73996967Y-60500648D01*
X74003051Y-60500500D01*
X74065892Y-60500500D01*
X202934108Y-60500500D01*
X202996949Y-60500500D01*
X203003032Y-60500648D01*
G37*
G04 #@! TD.AperFunction*
M02*
