G04 #@! TF.GenerationSoftware,KiCad,Pcbnew,8.0.5*
G04 #@! TF.CreationDate,2025-01-19T00:45:48+09:00*
G04 #@! TF.ProjectId,NERD-HPC,4e455244-2d48-4504-932e-6b696361645f,rev?*
G04 #@! TF.SameCoordinates,Original*
G04 #@! TF.FileFunction,Paste,Bot*
G04 #@! TF.FilePolarity,Positive*
%FSLAX46Y46*%
G04 Gerber Fmt 4.6, Leading zero omitted, Abs format (unit mm)*
G04 Created by KiCad (PCBNEW 8.0.5) date 2025-01-19 00:45:48*
%MOMM*%
%LPD*%
G01*
G04 APERTURE LIST*
G04 Aperture macros list*
%AMRoundRect*
0 Rectangle with rounded corners*
0 $1 Rounding radius*
0 $2 $3 $4 $5 $6 $7 $8 $9 X,Y pos of 4 corners*
0 Add a 4 corners polygon primitive as box body*
4,1,4,$2,$3,$4,$5,$6,$7,$8,$9,$2,$3,0*
0 Add four circle primitives for the rounded corners*
1,1,$1+$1,$2,$3*
1,1,$1+$1,$4,$5*
1,1,$1+$1,$6,$7*
1,1,$1+$1,$8,$9*
0 Add four rect primitives between the rounded corners*
20,1,$1+$1,$2,$3,$4,$5,0*
20,1,$1+$1,$4,$5,$6,$7,0*
20,1,$1+$1,$6,$7,$8,$9,0*
20,1,$1+$1,$8,$9,$2,$3,0*%
G04 Aperture macros list end*
%ADD10RoundRect,0.225000X0.250000X-0.225000X0.250000X0.225000X-0.250000X0.225000X-0.250000X-0.225000X0*%
%ADD11RoundRect,0.200000X-0.275000X0.200000X-0.275000X-0.200000X0.275000X-0.200000X0.275000X0.200000X0*%
%ADD12RoundRect,0.200000X-0.200000X-0.275000X0.200000X-0.275000X0.200000X0.275000X-0.200000X0.275000X0*%
%ADD13RoundRect,0.200000X0.200000X0.275000X-0.200000X0.275000X-0.200000X-0.275000X0.200000X-0.275000X0*%
%ADD14R,0.300000X1.150000*%
%ADD15RoundRect,0.249999X-0.395001X0.395001X-0.395001X-0.395001X0.395001X-0.395001X0.395001X0.395001X0*%
%ADD16RoundRect,0.050000X-0.050000X0.387500X-0.050000X-0.387500X0.050000X-0.387500X0.050000X0.387500X0*%
%ADD17RoundRect,0.050000X-0.387500X0.050000X-0.387500X-0.050000X0.387500X-0.050000X0.387500X0.050000X0*%
%ADD18R,1.100000X2.000000*%
%ADD19R,0.800000X0.800000*%
%ADD20RoundRect,0.225000X-0.250000X0.225000X-0.250000X-0.225000X0.250000X-0.225000X0.250000X0.225000X0*%
%ADD21RoundRect,0.225000X-0.225000X-0.250000X0.225000X-0.250000X0.225000X0.250000X-0.225000X0.250000X0*%
%ADD22RoundRect,0.225000X0.225000X0.250000X-0.225000X0.250000X-0.225000X-0.250000X0.225000X-0.250000X0*%
%ADD23R,3.500000X1.800000*%
%ADD24R,2.000000X1.100000*%
%ADD25RoundRect,0.250000X0.650000X-0.325000X0.650000X0.325000X-0.650000X0.325000X-0.650000X-0.325000X0*%
%ADD26RoundRect,0.250000X0.850000X0.350000X-0.850000X0.350000X-0.850000X-0.350000X0.850000X-0.350000X0*%
%ADD27RoundRect,0.250000X1.275000X1.125000X-1.275000X1.125000X-1.275000X-1.125000X1.275000X-1.125000X0*%
%ADD28R,0.700000X1.200000*%
%ADD29R,1.000000X0.800000*%
%ADD30R,1.000000X2.800000*%
%ADD31R,1.000000X1.200000*%
%ADD32R,1.300000X1.900000*%
%ADD33RoundRect,0.200000X0.275000X-0.200000X0.275000X0.200000X-0.275000X0.200000X-0.275000X-0.200000X0*%
%ADD34RoundRect,0.150000X0.587500X0.150000X-0.587500X0.150000X-0.587500X-0.150000X0.587500X-0.150000X0*%
%ADD35RoundRect,0.150000X-0.150000X0.587500X-0.150000X-0.587500X0.150000X-0.587500X0.150000X0.587500X0*%
%ADD36RoundRect,0.150000X0.512500X0.150000X-0.512500X0.150000X-0.512500X-0.150000X0.512500X-0.150000X0*%
%ADD37RoundRect,0.040000X-0.605000X0.040000X-0.605000X-0.040000X0.605000X-0.040000X0.605000X0.040000X0*%
%ADD38RoundRect,0.062500X-0.062500X0.387500X-0.062500X-0.387500X0.062500X-0.387500X0.062500X0.387500X0*%
G04 APERTURE END LIST*
D10*
X100624000Y-80531000D03*
X100624000Y-78981000D03*
D11*
X181610000Y-84519000D03*
X181610000Y-86169000D03*
D12*
X157862000Y-91515000D03*
X159512000Y-91515000D03*
D13*
X219265000Y-81612500D03*
X217615000Y-81612500D03*
D12*
X99033000Y-77470000D03*
X100683000Y-77470000D03*
D14*
X143462000Y-80632000D03*
X144262000Y-80632000D03*
X145562000Y-80632000D03*
X146562000Y-80632000D03*
X147062000Y-80632000D03*
X148062000Y-80632000D03*
X149362000Y-80632000D03*
X150162000Y-80632000D03*
X149862000Y-80632000D03*
X149062000Y-80632000D03*
X148562000Y-80632000D03*
X147562000Y-80632000D03*
X146062000Y-80632000D03*
X145062000Y-80632000D03*
X144562000Y-80632000D03*
X143762000Y-80632000D03*
D15*
X109766000Y-82602000D03*
X108166000Y-82602000D03*
X109766000Y-84202000D03*
X108166000Y-84202000D03*
D16*
X106366000Y-79964500D03*
X106766000Y-79964500D03*
X107166000Y-79964500D03*
X107566000Y-79964500D03*
X107966000Y-79964500D03*
X108366000Y-79964500D03*
X108766000Y-79964500D03*
X109166000Y-79964500D03*
X109566000Y-79964500D03*
X109966000Y-79964500D03*
X110366000Y-79964500D03*
X110766000Y-79964500D03*
X111166000Y-79964500D03*
X111566000Y-79964500D03*
D17*
X112403500Y-80802000D03*
X112403500Y-81202000D03*
X112403500Y-81602000D03*
X112403500Y-82002000D03*
X112403500Y-82402000D03*
X112403500Y-82802000D03*
X112403500Y-83202000D03*
X112403500Y-83602000D03*
X112403500Y-84002000D03*
X112403500Y-84402000D03*
X112403500Y-84802000D03*
X112403500Y-85202000D03*
X112403500Y-85602000D03*
X112403500Y-86002000D03*
D16*
X111566000Y-86839500D03*
X111166000Y-86839500D03*
X110766000Y-86839500D03*
X110366000Y-86839500D03*
X109966000Y-86839500D03*
X109566000Y-86839500D03*
X109166000Y-86839500D03*
X108766000Y-86839500D03*
X108366000Y-86839500D03*
X107966000Y-86839500D03*
X107566000Y-86839500D03*
X107166000Y-86839500D03*
X106766000Y-86839500D03*
X106366000Y-86839500D03*
D17*
X105528500Y-86002000D03*
X105528500Y-85602000D03*
X105528500Y-85202000D03*
X105528500Y-84802000D03*
X105528500Y-84402000D03*
X105528500Y-84002000D03*
X105528500Y-83602000D03*
X105528500Y-83202000D03*
X105528500Y-82802000D03*
X105528500Y-82402000D03*
X105528500Y-82002000D03*
X105528500Y-81602000D03*
X105528500Y-81202000D03*
X105528500Y-80802000D03*
D18*
X113538000Y-141158000D03*
D19*
X113538000Y-139258000D03*
D20*
X110018000Y-88633000D03*
X110018000Y-90183000D03*
D12*
X163958000Y-91515000D03*
X165608000Y-91515000D03*
D18*
X133858000Y-87950000D03*
D19*
X133858000Y-89850000D03*
D11*
X148590000Y-82487000D03*
X148590000Y-84137000D03*
D21*
X114033000Y-83058000D03*
X115583000Y-83058000D03*
D20*
X99100000Y-78981000D03*
X99100000Y-80531000D03*
X144018000Y-82537000D03*
X144018000Y-84087000D03*
D22*
X102629000Y-82804000D03*
X101079000Y-82804000D03*
X119901000Y-96012000D03*
X118351000Y-96012000D03*
D10*
X134620000Y-81039000D03*
X134620000Y-79489000D03*
D18*
X123698000Y-141158000D03*
D19*
X123698000Y-139258000D03*
D20*
X104648000Y-95999000D03*
X104648000Y-97549000D03*
D13*
X130189500Y-87056000D03*
X128539500Y-87056000D03*
D11*
X145542000Y-82487000D03*
X145542000Y-84137000D03*
D18*
X187706000Y-76774000D03*
D19*
X187706000Y-78674000D03*
D23*
X213026000Y-94226000D03*
X213026000Y-80526000D03*
X203026000Y-94226000D03*
X203026000Y-80526000D03*
D18*
X128778000Y-141158000D03*
D19*
X128778000Y-139258000D03*
D24*
X219390000Y-87200500D03*
D19*
X217490000Y-87200500D03*
D18*
X131318000Y-141158000D03*
D19*
X131318000Y-139258000D03*
D25*
X173482000Y-91137000D03*
X173482000Y-88187000D03*
D26*
X132470000Y-76472500D03*
X132470000Y-78752500D03*
D27*
X127845000Y-80277500D03*
X127845000Y-77227500D03*
X124495000Y-80277500D03*
X124495000Y-77227500D03*
D26*
X132470000Y-81032500D03*
D18*
X121158000Y-141158000D03*
D19*
X121158000Y-139258000D03*
D12*
X173165000Y-80518000D03*
X174815000Y-80518000D03*
D18*
X116078000Y-141158000D03*
D19*
X116078000Y-139258000D03*
D18*
X118618000Y-141158000D03*
D19*
X118618000Y-139258000D03*
D28*
X167113000Y-89565000D03*
X166013000Y-89565000D03*
X164913000Y-89565000D03*
X163813000Y-89565000D03*
X162713000Y-89565000D03*
X161613000Y-89565000D03*
X160513000Y-89565000D03*
X159413000Y-89565000D03*
X158463000Y-89565000D03*
D29*
X157513000Y-79065000D03*
D30*
X157513000Y-74915000D03*
D31*
X157513000Y-85265000D03*
X168663000Y-89565000D03*
D32*
X171013000Y-74465000D03*
D20*
X142494000Y-82537000D03*
X142494000Y-84087000D03*
D10*
X105918000Y-78499000D03*
X105918000Y-76949000D03*
D22*
X102629000Y-84328000D03*
X101079000Y-84328000D03*
X183655000Y-74168000D03*
X182105000Y-74168000D03*
D33*
X105918000Y-139509000D03*
X105918000Y-137859000D03*
X124460000Y-97599000D03*
X124460000Y-95949000D03*
D13*
X151701000Y-82804000D03*
X150051000Y-82804000D03*
D22*
X102629000Y-86614000D03*
X101079000Y-86614000D03*
D21*
X112255000Y-96012000D03*
X113805000Y-96012000D03*
X121399000Y-96012000D03*
X122949000Y-96012000D03*
D13*
X127571000Y-96012000D03*
X125921000Y-96012000D03*
D21*
X109207000Y-96012000D03*
X110757000Y-96012000D03*
D20*
X105410000Y-88887000D03*
X105410000Y-90437000D03*
D22*
X113424000Y-92710000D03*
X111874000Y-92710000D03*
D34*
X129794000Y-88646000D03*
X129794000Y-90546000D03*
X127919000Y-89596000D03*
D12*
X160910000Y-91515000D03*
X162560000Y-91515000D03*
D35*
X217490000Y-83469000D03*
X219390000Y-83469000D03*
X218440000Y-85344000D03*
D22*
X107709000Y-96012000D03*
X106159000Y-96012000D03*
D36*
X119501500Y-81116000D03*
X119501500Y-82066000D03*
X119501500Y-83016000D03*
X117226500Y-83016000D03*
X117226500Y-81116000D03*
D37*
X102652000Y-79093000D03*
D38*
X101902000Y-77668000D03*
X102402000Y-77668000D03*
X102902000Y-77668000D03*
X103402000Y-77668000D03*
X103402000Y-80518000D03*
X102902000Y-80518000D03*
X102402000Y-80518000D03*
X101902000Y-80518000D03*
D24*
X132146000Y-91186000D03*
D19*
X134046000Y-91186000D03*
D22*
X110503000Y-141732000D03*
X108953000Y-141732000D03*
X102629000Y-88138000D03*
X101079000Y-88138000D03*
D20*
X103124000Y-95999000D03*
X103124000Y-97549000D03*
D33*
X147066000Y-84137000D03*
X147066000Y-82487000D03*
D20*
X134620000Y-76441000D03*
X134620000Y-77991000D03*
D33*
X119634000Y-86169000D03*
X119634000Y-84519000D03*
D22*
X102629000Y-89662000D03*
X101079000Y-89662000D03*
D18*
X203962000Y-76774000D03*
D19*
X203962000Y-78674000D03*
D22*
X116853000Y-96012000D03*
X115303000Y-96012000D03*
D21*
X114033000Y-86106000D03*
X115583000Y-86106000D03*
D18*
X126238000Y-141158000D03*
D19*
X126238000Y-139258000D03*
D13*
X115633000Y-81534000D03*
X113983000Y-81534000D03*
D21*
X114033000Y-84582000D03*
X115583000Y-84582000D03*
D10*
X118110000Y-86119000D03*
X118110000Y-84569000D03*
D21*
X110985000Y-77216000D03*
X112535000Y-77216000D03*
D13*
X168656000Y-91515000D03*
X167006000Y-91515000D03*
M02*
