G04 #@! TF.GenerationSoftware,KiCad,Pcbnew,8.0.5*
G04 #@! TF.CreationDate,2025-01-19T00:45:48+09:00*
G04 #@! TF.ProjectId,NERD-HPC,4e455244-2d48-4504-932e-6b696361645f,rev?*
G04 #@! TF.SameCoordinates,Original*
G04 #@! TF.FileFunction,Legend,Bot*
G04 #@! TF.FilePolarity,Positive*
%FSLAX46Y46*%
G04 Gerber Fmt 4.6, Leading zero omitted, Abs format (unit mm)*
G04 Created by KiCad (PCBNEW 8.0.5) date 2025-01-19 00:45:48*
%MOMM*%
%LPD*%
G01*
G04 APERTURE LIST*
G04 Aperture macros list*
%AMRoundRect*
0 Rectangle with rounded corners*
0 $1 Rounding radius*
0 $2 $3 $4 $5 $6 $7 $8 $9 X,Y pos of 4 corners*
0 Add a 4 corners polygon primitive as box body*
4,1,4,$2,$3,$4,$5,$6,$7,$8,$9,$2,$3,0*
0 Add four circle primitives for the rounded corners*
1,1,$1+$1,$2,$3*
1,1,$1+$1,$4,$5*
1,1,$1+$1,$6,$7*
1,1,$1+$1,$8,$9*
0 Add four rect primitives between the rounded corners*
20,1,$1+$1,$2,$3,$4,$5,0*
20,1,$1+$1,$4,$5,$6,$7,0*
20,1,$1+$1,$6,$7,$8,$9,0*
20,1,$1+$1,$8,$9,$2,$3,0*%
G04 Aperture macros list end*
%ADD10C,0.100000*%
%ADD11C,0.150000*%
%ADD12C,0.120000*%
%ADD13C,2.000000*%
%ADD14R,1.700000X1.700000*%
%ADD15O,1.700000X1.700000*%
%ADD16C,3.200000*%
%ADD17C,1.000000*%
%ADD18RoundRect,0.350000X-1.150000X-0.350000X1.150000X-0.350000X1.150000X0.350000X-1.150000X0.350000X0*%
%ADD19R,1.500000X1.500000*%
%ADD20C,1.600000*%
%ADD21C,1.524000*%
%ADD22RoundRect,0.225000X0.250000X-0.225000X0.250000X0.225000X-0.250000X0.225000X-0.250000X-0.225000X0*%
%ADD23RoundRect,0.200000X-0.275000X0.200000X-0.275000X-0.200000X0.275000X-0.200000X0.275000X0.200000X0*%
%ADD24RoundRect,0.200000X-0.200000X-0.275000X0.200000X-0.275000X0.200000X0.275000X-0.200000X0.275000X0*%
%ADD25RoundRect,0.200000X0.200000X0.275000X-0.200000X0.275000X-0.200000X-0.275000X0.200000X-0.275000X0*%
%ADD26C,0.650000*%
%ADD27R,0.300000X1.150000*%
%ADD28O,1.000000X1.600000*%
%ADD29O,1.000000X2.100000*%
%ADD30RoundRect,0.050000X-0.050000X0.387500X-0.050000X-0.387500X0.050000X-0.387500X0.050000X0.387500X0*%
%ADD31RoundRect,0.050000X-0.387500X0.050000X-0.387500X-0.050000X0.387500X-0.050000X0.387500X0.050000X0*%
%ADD32R,3.200000X3.200000*%
%ADD33R,1.100000X2.000000*%
%ADD34R,0.800000X0.800000*%
%ADD35RoundRect,0.225000X-0.250000X0.225000X-0.250000X-0.225000X0.250000X-0.225000X0.250000X0.225000X0*%
%ADD36R,1.800000X1.800000*%
%ADD37C,1.800000*%
%ADD38RoundRect,0.225000X-0.225000X-0.250000X0.225000X-0.250000X0.225000X0.250000X-0.225000X0.250000X0*%
%ADD39RoundRect,0.225000X0.225000X0.250000X-0.225000X0.250000X-0.225000X-0.250000X0.225000X-0.250000X0*%
%ADD40R,3.500000X1.800000*%
%ADD41R,2.000000X1.100000*%
%ADD42RoundRect,0.250000X0.650000X-0.325000X0.650000X0.325000X-0.650000X0.325000X-0.650000X-0.325000X0*%
%ADD43R,2.000000X2.000000*%
%ADD44RoundRect,0.250000X0.850000X0.350000X-0.850000X0.350000X-0.850000X-0.350000X0.850000X-0.350000X0*%
%ADD45RoundRect,0.249997X2.950003X2.650003X-2.950003X2.650003X-2.950003X-2.650003X2.950003X-2.650003X0*%
%ADD46R,1.600000X1.600000*%
%ADD47O,1.600000X1.600000*%
%ADD48R,0.700000X1.200000*%
%ADD49R,1.000000X0.800000*%
%ADD50R,1.000000X2.800000*%
%ADD51R,1.000000X1.200000*%
%ADD52R,1.300000X1.900000*%
%ADD53RoundRect,0.200000X0.275000X-0.200000X0.275000X0.200000X-0.275000X0.200000X-0.275000X-0.200000X0*%
%ADD54RoundRect,0.150000X0.587500X0.150000X-0.587500X0.150000X-0.587500X-0.150000X0.587500X-0.150000X0*%
%ADD55RoundRect,0.150000X-0.150000X0.587500X-0.150000X-0.587500X0.150000X-0.587500X0.150000X0.587500X0*%
%ADD56RoundRect,0.150000X0.512500X0.150000X-0.512500X0.150000X-0.512500X-0.150000X0.512500X-0.150000X0*%
%ADD57RoundRect,0.062500X-0.062500X0.387500X-0.062500X-0.387500X0.062500X-0.387500X0.062500X0.387500X0*%
%ADD58R,1.600000X0.200000*%
G04 APERTURE END LIST*
D10*
X214124687Y-141872419D02*
X214458020Y-141396228D01*
X214696115Y-141872419D02*
X214696115Y-140872419D01*
X214696115Y-140872419D02*
X214315163Y-140872419D01*
X214315163Y-140872419D02*
X214219925Y-140920038D01*
X214219925Y-140920038D02*
X214172306Y-140967657D01*
X214172306Y-140967657D02*
X214124687Y-141062895D01*
X214124687Y-141062895D02*
X214124687Y-141205752D01*
X214124687Y-141205752D02*
X214172306Y-141300990D01*
X214172306Y-141300990D02*
X214219925Y-141348609D01*
X214219925Y-141348609D02*
X214315163Y-141396228D01*
X214315163Y-141396228D02*
X214696115Y-141396228D01*
X213315163Y-141824800D02*
X213410401Y-141872419D01*
X213410401Y-141872419D02*
X213600877Y-141872419D01*
X213600877Y-141872419D02*
X213696115Y-141824800D01*
X213696115Y-141824800D02*
X213743734Y-141729561D01*
X213743734Y-141729561D02*
X213743734Y-141348609D01*
X213743734Y-141348609D02*
X213696115Y-141253371D01*
X213696115Y-141253371D02*
X213600877Y-141205752D01*
X213600877Y-141205752D02*
X213410401Y-141205752D01*
X213410401Y-141205752D02*
X213315163Y-141253371D01*
X213315163Y-141253371D02*
X213267544Y-141348609D01*
X213267544Y-141348609D02*
X213267544Y-141443847D01*
X213267544Y-141443847D02*
X213743734Y-141539085D01*
X212934210Y-141205752D02*
X212696115Y-141872419D01*
X212696115Y-141872419D02*
X212458020Y-141205752D01*
X212077067Y-141777180D02*
X212029448Y-141824800D01*
X212029448Y-141824800D02*
X212077067Y-141872419D01*
X212077067Y-141872419D02*
X212124686Y-141824800D01*
X212124686Y-141824800D02*
X212077067Y-141777180D01*
X212077067Y-141777180D02*
X212077067Y-141872419D01*
X211172306Y-141205752D02*
X211172306Y-141872419D01*
X211410401Y-140824800D02*
X211648496Y-141539085D01*
X211648496Y-141539085D02*
X211029449Y-141539085D01*
D11*
X101353857Y-82020580D02*
X101401476Y-82068200D01*
X101401476Y-82068200D02*
X101544333Y-82115819D01*
X101544333Y-82115819D02*
X101639571Y-82115819D01*
X101639571Y-82115819D02*
X101782428Y-82068200D01*
X101782428Y-82068200D02*
X101877666Y-81972961D01*
X101877666Y-81972961D02*
X101925285Y-81877723D01*
X101925285Y-81877723D02*
X101972904Y-81687247D01*
X101972904Y-81687247D02*
X101972904Y-81544390D01*
X101972904Y-81544390D02*
X101925285Y-81353914D01*
X101925285Y-81353914D02*
X101877666Y-81258676D01*
X101877666Y-81258676D02*
X101782428Y-81163438D01*
X101782428Y-81163438D02*
X101639571Y-81115819D01*
X101639571Y-81115819D02*
X101544333Y-81115819D01*
X101544333Y-81115819D02*
X101401476Y-81163438D01*
X101401476Y-81163438D02*
X101353857Y-81211057D01*
X100401476Y-82115819D02*
X100972904Y-82115819D01*
X100687190Y-82115819D02*
X100687190Y-81115819D01*
X100687190Y-81115819D02*
X100782428Y-81258676D01*
X100782428Y-81258676D02*
X100877666Y-81353914D01*
X100877666Y-81353914D02*
X100972904Y-81401533D01*
X100068142Y-81115819D02*
X99401476Y-81115819D01*
X99401476Y-81115819D02*
X99830047Y-82115819D01*
X180634819Y-85177333D02*
X180158628Y-84844000D01*
X180634819Y-84605905D02*
X179634819Y-84605905D01*
X179634819Y-84605905D02*
X179634819Y-84986857D01*
X179634819Y-84986857D02*
X179682438Y-85082095D01*
X179682438Y-85082095D02*
X179730057Y-85129714D01*
X179730057Y-85129714D02*
X179825295Y-85177333D01*
X179825295Y-85177333D02*
X179968152Y-85177333D01*
X179968152Y-85177333D02*
X180063390Y-85129714D01*
X180063390Y-85129714D02*
X180111009Y-85082095D01*
X180111009Y-85082095D02*
X180158628Y-84986857D01*
X180158628Y-84986857D02*
X180158628Y-84605905D01*
X180634819Y-86129714D02*
X180634819Y-85558286D01*
X180634819Y-85844000D02*
X179634819Y-85844000D01*
X179634819Y-85844000D02*
X179777676Y-85748762D01*
X179777676Y-85748762D02*
X179872914Y-85653524D01*
X179872914Y-85653524D02*
X179920533Y-85558286D01*
X159265857Y-93164819D02*
X159599190Y-92688628D01*
X159837285Y-93164819D02*
X159837285Y-92164819D01*
X159837285Y-92164819D02*
X159456333Y-92164819D01*
X159456333Y-92164819D02*
X159361095Y-92212438D01*
X159361095Y-92212438D02*
X159313476Y-92260057D01*
X159313476Y-92260057D02*
X159265857Y-92355295D01*
X159265857Y-92355295D02*
X159265857Y-92498152D01*
X159265857Y-92498152D02*
X159313476Y-92593390D01*
X159313476Y-92593390D02*
X159361095Y-92641009D01*
X159361095Y-92641009D02*
X159456333Y-92688628D01*
X159456333Y-92688628D02*
X159837285Y-92688628D01*
X158313476Y-93164819D02*
X158884904Y-93164819D01*
X158599190Y-93164819D02*
X158599190Y-92164819D01*
X158599190Y-92164819D02*
X158694428Y-92307676D01*
X158694428Y-92307676D02*
X158789666Y-92402914D01*
X158789666Y-92402914D02*
X158884904Y-92450533D01*
X157980142Y-92164819D02*
X157313476Y-92164819D01*
X157313476Y-92164819D02*
X157742047Y-93164819D01*
X222130857Y-81988819D02*
X222464190Y-81512628D01*
X222702285Y-81988819D02*
X222702285Y-80988819D01*
X222702285Y-80988819D02*
X222321333Y-80988819D01*
X222321333Y-80988819D02*
X222226095Y-81036438D01*
X222226095Y-81036438D02*
X222178476Y-81084057D01*
X222178476Y-81084057D02*
X222130857Y-81179295D01*
X222130857Y-81179295D02*
X222130857Y-81322152D01*
X222130857Y-81322152D02*
X222178476Y-81417390D01*
X222178476Y-81417390D02*
X222226095Y-81465009D01*
X222226095Y-81465009D02*
X222321333Y-81512628D01*
X222321333Y-81512628D02*
X222702285Y-81512628D01*
X221178476Y-81988819D02*
X221749904Y-81988819D01*
X221464190Y-81988819D02*
X221464190Y-80988819D01*
X221464190Y-80988819D02*
X221559428Y-81131676D01*
X221559428Y-81131676D02*
X221654666Y-81226914D01*
X221654666Y-81226914D02*
X221749904Y-81274533D01*
X220845142Y-80988819D02*
X220226095Y-80988819D01*
X220226095Y-80988819D02*
X220559428Y-81369771D01*
X220559428Y-81369771D02*
X220416571Y-81369771D01*
X220416571Y-81369771D02*
X220321333Y-81417390D01*
X220321333Y-81417390D02*
X220273714Y-81465009D01*
X220273714Y-81465009D02*
X220226095Y-81560247D01*
X220226095Y-81560247D02*
X220226095Y-81798342D01*
X220226095Y-81798342D02*
X220273714Y-81893580D01*
X220273714Y-81893580D02*
X220321333Y-81941200D01*
X220321333Y-81941200D02*
X220416571Y-81988819D01*
X220416571Y-81988819D02*
X220702285Y-81988819D01*
X220702285Y-81988819D02*
X220797523Y-81941200D01*
X220797523Y-81941200D02*
X220845142Y-81893580D01*
X97484666Y-77924819D02*
X97817999Y-77448628D01*
X98056094Y-77924819D02*
X98056094Y-76924819D01*
X98056094Y-76924819D02*
X97675142Y-76924819D01*
X97675142Y-76924819D02*
X97579904Y-76972438D01*
X97579904Y-76972438D02*
X97532285Y-77020057D01*
X97532285Y-77020057D02*
X97484666Y-77115295D01*
X97484666Y-77115295D02*
X97484666Y-77258152D01*
X97484666Y-77258152D02*
X97532285Y-77353390D01*
X97532285Y-77353390D02*
X97579904Y-77401009D01*
X97579904Y-77401009D02*
X97675142Y-77448628D01*
X97675142Y-77448628D02*
X98056094Y-77448628D01*
X96913237Y-77353390D02*
X97008475Y-77305771D01*
X97008475Y-77305771D02*
X97056094Y-77258152D01*
X97056094Y-77258152D02*
X97103713Y-77162914D01*
X97103713Y-77162914D02*
X97103713Y-77115295D01*
X97103713Y-77115295D02*
X97056094Y-77020057D01*
X97056094Y-77020057D02*
X97008475Y-76972438D01*
X97008475Y-76972438D02*
X96913237Y-76924819D01*
X96913237Y-76924819D02*
X96722761Y-76924819D01*
X96722761Y-76924819D02*
X96627523Y-76972438D01*
X96627523Y-76972438D02*
X96579904Y-77020057D01*
X96579904Y-77020057D02*
X96532285Y-77115295D01*
X96532285Y-77115295D02*
X96532285Y-77162914D01*
X96532285Y-77162914D02*
X96579904Y-77258152D01*
X96579904Y-77258152D02*
X96627523Y-77305771D01*
X96627523Y-77305771D02*
X96722761Y-77353390D01*
X96722761Y-77353390D02*
X96913237Y-77353390D01*
X96913237Y-77353390D02*
X97008475Y-77401009D01*
X97008475Y-77401009D02*
X97056094Y-77448628D01*
X97056094Y-77448628D02*
X97103713Y-77543866D01*
X97103713Y-77543866D02*
X97103713Y-77734342D01*
X97103713Y-77734342D02*
X97056094Y-77829580D01*
X97056094Y-77829580D02*
X97008475Y-77877200D01*
X97008475Y-77877200D02*
X96913237Y-77924819D01*
X96913237Y-77924819D02*
X96722761Y-77924819D01*
X96722761Y-77924819D02*
X96627523Y-77877200D01*
X96627523Y-77877200D02*
X96579904Y-77829580D01*
X96579904Y-77829580D02*
X96532285Y-77734342D01*
X96532285Y-77734342D02*
X96532285Y-77543866D01*
X96532285Y-77543866D02*
X96579904Y-77448628D01*
X96579904Y-77448628D02*
X96627523Y-77401009D01*
X96627523Y-77401009D02*
X96722761Y-77353390D01*
X147145333Y-76416819D02*
X147145333Y-77131104D01*
X147145333Y-77131104D02*
X147192952Y-77273961D01*
X147192952Y-77273961D02*
X147288190Y-77369200D01*
X147288190Y-77369200D02*
X147431047Y-77416819D01*
X147431047Y-77416819D02*
X147526285Y-77416819D01*
X146145333Y-77416819D02*
X146716761Y-77416819D01*
X146431047Y-77416819D02*
X146431047Y-76416819D01*
X146431047Y-76416819D02*
X146526285Y-76559676D01*
X146526285Y-76559676D02*
X146621523Y-76654914D01*
X146621523Y-76654914D02*
X146716761Y-76702533D01*
X106170819Y-82640095D02*
X106980342Y-82640095D01*
X106980342Y-82640095D02*
X107075580Y-82687714D01*
X107075580Y-82687714D02*
X107123200Y-82735333D01*
X107123200Y-82735333D02*
X107170819Y-82830571D01*
X107170819Y-82830571D02*
X107170819Y-83021047D01*
X107170819Y-83021047D02*
X107123200Y-83116285D01*
X107123200Y-83116285D02*
X107075580Y-83163904D01*
X107075580Y-83163904D02*
X106980342Y-83211523D01*
X106980342Y-83211523D02*
X106170819Y-83211523D01*
X107170819Y-84211523D02*
X107170819Y-83640095D01*
X107170819Y-83925809D02*
X106170819Y-83925809D01*
X106170819Y-83925809D02*
X106313676Y-83830571D01*
X106313676Y-83830571D02*
X106408914Y-83735333D01*
X106408914Y-83735333D02*
X106456533Y-83640095D01*
X114244285Y-138630819D02*
X114244285Y-137630819D01*
X114244285Y-137630819D02*
X114006190Y-137630819D01*
X114006190Y-137630819D02*
X113863333Y-137678438D01*
X113863333Y-137678438D02*
X113768095Y-137773676D01*
X113768095Y-137773676D02*
X113720476Y-137868914D01*
X113720476Y-137868914D02*
X113672857Y-138059390D01*
X113672857Y-138059390D02*
X113672857Y-138202247D01*
X113672857Y-138202247D02*
X113720476Y-138392723D01*
X113720476Y-138392723D02*
X113768095Y-138487961D01*
X113768095Y-138487961D02*
X113863333Y-138583200D01*
X113863333Y-138583200D02*
X114006190Y-138630819D01*
X114006190Y-138630819D02*
X114244285Y-138630819D01*
X112720476Y-138630819D02*
X113291904Y-138630819D01*
X113006190Y-138630819D02*
X113006190Y-137630819D01*
X113006190Y-137630819D02*
X113101428Y-137773676D01*
X113101428Y-137773676D02*
X113196666Y-137868914D01*
X113196666Y-137868914D02*
X113291904Y-137916533D01*
X111863333Y-137964152D02*
X111863333Y-138630819D01*
X112101428Y-137583200D02*
X112339523Y-138297485D01*
X112339523Y-138297485D02*
X111720476Y-138297485D01*
X111901580Y-88765142D02*
X111949200Y-88717523D01*
X111949200Y-88717523D02*
X111996819Y-88574666D01*
X111996819Y-88574666D02*
X111996819Y-88479428D01*
X111996819Y-88479428D02*
X111949200Y-88336571D01*
X111949200Y-88336571D02*
X111853961Y-88241333D01*
X111853961Y-88241333D02*
X111758723Y-88193714D01*
X111758723Y-88193714D02*
X111568247Y-88146095D01*
X111568247Y-88146095D02*
X111425390Y-88146095D01*
X111425390Y-88146095D02*
X111234914Y-88193714D01*
X111234914Y-88193714D02*
X111139676Y-88241333D01*
X111139676Y-88241333D02*
X111044438Y-88336571D01*
X111044438Y-88336571D02*
X110996819Y-88479428D01*
X110996819Y-88479428D02*
X110996819Y-88574666D01*
X110996819Y-88574666D02*
X111044438Y-88717523D01*
X111044438Y-88717523D02*
X111092057Y-88765142D01*
X111996819Y-89717523D02*
X111996819Y-89146095D01*
X111996819Y-89431809D02*
X110996819Y-89431809D01*
X110996819Y-89431809D02*
X111139676Y-89336571D01*
X111139676Y-89336571D02*
X111234914Y-89241333D01*
X111234914Y-89241333D02*
X111282533Y-89146095D01*
X110996819Y-90336571D02*
X110996819Y-90431809D01*
X110996819Y-90431809D02*
X111044438Y-90527047D01*
X111044438Y-90527047D02*
X111092057Y-90574666D01*
X111092057Y-90574666D02*
X111187295Y-90622285D01*
X111187295Y-90622285D02*
X111377771Y-90669904D01*
X111377771Y-90669904D02*
X111615866Y-90669904D01*
X111615866Y-90669904D02*
X111806342Y-90622285D01*
X111806342Y-90622285D02*
X111901580Y-90574666D01*
X111901580Y-90574666D02*
X111949200Y-90527047D01*
X111949200Y-90527047D02*
X111996819Y-90431809D01*
X111996819Y-90431809D02*
X111996819Y-90336571D01*
X111996819Y-90336571D02*
X111949200Y-90241333D01*
X111949200Y-90241333D02*
X111901580Y-90193714D01*
X111901580Y-90193714D02*
X111806342Y-90146095D01*
X111806342Y-90146095D02*
X111615866Y-90098476D01*
X111615866Y-90098476D02*
X111377771Y-90098476D01*
X111377771Y-90098476D02*
X111187295Y-90146095D01*
X111187295Y-90146095D02*
X111092057Y-90193714D01*
X111092057Y-90193714D02*
X111044438Y-90241333D01*
X111044438Y-90241333D02*
X110996819Y-90336571D01*
X165425857Y-93164819D02*
X165759190Y-92688628D01*
X165997285Y-93164819D02*
X165997285Y-92164819D01*
X165997285Y-92164819D02*
X165616333Y-92164819D01*
X165616333Y-92164819D02*
X165521095Y-92212438D01*
X165521095Y-92212438D02*
X165473476Y-92260057D01*
X165473476Y-92260057D02*
X165425857Y-92355295D01*
X165425857Y-92355295D02*
X165425857Y-92498152D01*
X165425857Y-92498152D02*
X165473476Y-92593390D01*
X165473476Y-92593390D02*
X165521095Y-92641009D01*
X165521095Y-92641009D02*
X165616333Y-92688628D01*
X165616333Y-92688628D02*
X165997285Y-92688628D01*
X164473476Y-93164819D02*
X165044904Y-93164819D01*
X164759190Y-93164819D02*
X164759190Y-92164819D01*
X164759190Y-92164819D02*
X164854428Y-92307676D01*
X164854428Y-92307676D02*
X164949666Y-92402914D01*
X164949666Y-92402914D02*
X165044904Y-92450533D01*
X163568714Y-92164819D02*
X164044904Y-92164819D01*
X164044904Y-92164819D02*
X164092523Y-92641009D01*
X164092523Y-92641009D02*
X164044904Y-92593390D01*
X164044904Y-92593390D02*
X163949666Y-92545771D01*
X163949666Y-92545771D02*
X163711571Y-92545771D01*
X163711571Y-92545771D02*
X163616333Y-92593390D01*
X163616333Y-92593390D02*
X163568714Y-92641009D01*
X163568714Y-92641009D02*
X163521095Y-92736247D01*
X163521095Y-92736247D02*
X163521095Y-92974342D01*
X163521095Y-92974342D02*
X163568714Y-93069580D01*
X163568714Y-93069580D02*
X163616333Y-93117200D01*
X163616333Y-93117200D02*
X163711571Y-93164819D01*
X163711571Y-93164819D02*
X163949666Y-93164819D01*
X163949666Y-93164819D02*
X164044904Y-93117200D01*
X164044904Y-93117200D02*
X164092523Y-93069580D01*
X135836819Y-88923905D02*
X134836819Y-88923905D01*
X134836819Y-88923905D02*
X134836819Y-89162000D01*
X134836819Y-89162000D02*
X134884438Y-89304857D01*
X134884438Y-89304857D02*
X134979676Y-89400095D01*
X134979676Y-89400095D02*
X135074914Y-89447714D01*
X135074914Y-89447714D02*
X135265390Y-89495333D01*
X135265390Y-89495333D02*
X135408247Y-89495333D01*
X135408247Y-89495333D02*
X135598723Y-89447714D01*
X135598723Y-89447714D02*
X135693961Y-89400095D01*
X135693961Y-89400095D02*
X135789200Y-89304857D01*
X135789200Y-89304857D02*
X135836819Y-89162000D01*
X135836819Y-89162000D02*
X135836819Y-88923905D01*
X135836819Y-90447714D02*
X135836819Y-89876286D01*
X135836819Y-90162000D02*
X134836819Y-90162000D01*
X134836819Y-90162000D02*
X134979676Y-90066762D01*
X134979676Y-90066762D02*
X135074914Y-89971524D01*
X135074914Y-89971524D02*
X135122533Y-89876286D01*
X177522094Y-80884819D02*
X177522094Y-79884819D01*
X177522094Y-79884819D02*
X177283999Y-79884819D01*
X177283999Y-79884819D02*
X177141142Y-79932438D01*
X177141142Y-79932438D02*
X177045904Y-80027676D01*
X177045904Y-80027676D02*
X176998285Y-80122914D01*
X176998285Y-80122914D02*
X176950666Y-80313390D01*
X176950666Y-80313390D02*
X176950666Y-80456247D01*
X176950666Y-80456247D02*
X176998285Y-80646723D01*
X176998285Y-80646723D02*
X177045904Y-80741961D01*
X177045904Y-80741961D02*
X177141142Y-80837200D01*
X177141142Y-80837200D02*
X177283999Y-80884819D01*
X177283999Y-80884819D02*
X177522094Y-80884819D01*
X176093523Y-80218152D02*
X176093523Y-80884819D01*
X176331618Y-79837200D02*
X176569713Y-80551485D01*
X176569713Y-80551485D02*
X175950666Y-80551485D01*
X149044819Y-85304333D02*
X148568628Y-84971000D01*
X149044819Y-84732905D02*
X148044819Y-84732905D01*
X148044819Y-84732905D02*
X148044819Y-85113857D01*
X148044819Y-85113857D02*
X148092438Y-85209095D01*
X148092438Y-85209095D02*
X148140057Y-85256714D01*
X148140057Y-85256714D02*
X148235295Y-85304333D01*
X148235295Y-85304333D02*
X148378152Y-85304333D01*
X148378152Y-85304333D02*
X148473390Y-85256714D01*
X148473390Y-85256714D02*
X148521009Y-85209095D01*
X148521009Y-85209095D02*
X148568628Y-85113857D01*
X148568628Y-85113857D02*
X148568628Y-84732905D01*
X148140057Y-85685286D02*
X148092438Y-85732905D01*
X148092438Y-85732905D02*
X148044819Y-85828143D01*
X148044819Y-85828143D02*
X148044819Y-86066238D01*
X148044819Y-86066238D02*
X148092438Y-86161476D01*
X148092438Y-86161476D02*
X148140057Y-86209095D01*
X148140057Y-86209095D02*
X148235295Y-86256714D01*
X148235295Y-86256714D02*
X148330533Y-86256714D01*
X148330533Y-86256714D02*
X148473390Y-86209095D01*
X148473390Y-86209095D02*
X149044819Y-85637667D01*
X149044819Y-85637667D02*
X149044819Y-86256714D01*
X116945580Y-82891333D02*
X116993200Y-82843714D01*
X116993200Y-82843714D02*
X117040819Y-82700857D01*
X117040819Y-82700857D02*
X117040819Y-82605619D01*
X117040819Y-82605619D02*
X116993200Y-82462762D01*
X116993200Y-82462762D02*
X116897961Y-82367524D01*
X116897961Y-82367524D02*
X116802723Y-82319905D01*
X116802723Y-82319905D02*
X116612247Y-82272286D01*
X116612247Y-82272286D02*
X116469390Y-82272286D01*
X116469390Y-82272286D02*
X116278914Y-82319905D01*
X116278914Y-82319905D02*
X116183676Y-82367524D01*
X116183676Y-82367524D02*
X116088438Y-82462762D01*
X116088438Y-82462762D02*
X116040819Y-82605619D01*
X116040819Y-82605619D02*
X116040819Y-82700857D01*
X116040819Y-82700857D02*
X116088438Y-82843714D01*
X116088438Y-82843714D02*
X116136057Y-82891333D01*
X117040819Y-83367524D02*
X117040819Y-83558000D01*
X117040819Y-83558000D02*
X116993200Y-83653238D01*
X116993200Y-83653238D02*
X116945580Y-83700857D01*
X116945580Y-83700857D02*
X116802723Y-83796095D01*
X116802723Y-83796095D02*
X116612247Y-83843714D01*
X116612247Y-83843714D02*
X116231295Y-83843714D01*
X116231295Y-83843714D02*
X116136057Y-83796095D01*
X116136057Y-83796095D02*
X116088438Y-83748476D01*
X116088438Y-83748476D02*
X116040819Y-83653238D01*
X116040819Y-83653238D02*
X116040819Y-83462762D01*
X116040819Y-83462762D02*
X116088438Y-83367524D01*
X116088438Y-83367524D02*
X116136057Y-83319905D01*
X116136057Y-83319905D02*
X116231295Y-83272286D01*
X116231295Y-83272286D02*
X116469390Y-83272286D01*
X116469390Y-83272286D02*
X116564628Y-83319905D01*
X116564628Y-83319905D02*
X116612247Y-83367524D01*
X116612247Y-83367524D02*
X116659866Y-83462762D01*
X116659866Y-83462762D02*
X116659866Y-83653238D01*
X116659866Y-83653238D02*
X116612247Y-83748476D01*
X116612247Y-83748476D02*
X116564628Y-83796095D01*
X116564628Y-83796095D02*
X116469390Y-83843714D01*
X98149580Y-78986142D02*
X98197200Y-78938523D01*
X98197200Y-78938523D02*
X98244819Y-78795666D01*
X98244819Y-78795666D02*
X98244819Y-78700428D01*
X98244819Y-78700428D02*
X98197200Y-78557571D01*
X98197200Y-78557571D02*
X98101961Y-78462333D01*
X98101961Y-78462333D02*
X98006723Y-78414714D01*
X98006723Y-78414714D02*
X97816247Y-78367095D01*
X97816247Y-78367095D02*
X97673390Y-78367095D01*
X97673390Y-78367095D02*
X97482914Y-78414714D01*
X97482914Y-78414714D02*
X97387676Y-78462333D01*
X97387676Y-78462333D02*
X97292438Y-78557571D01*
X97292438Y-78557571D02*
X97244819Y-78700428D01*
X97244819Y-78700428D02*
X97244819Y-78795666D01*
X97244819Y-78795666D02*
X97292438Y-78938523D01*
X97292438Y-78938523D02*
X97340057Y-78986142D01*
X98244819Y-79938523D02*
X98244819Y-79367095D01*
X98244819Y-79652809D02*
X97244819Y-79652809D01*
X97244819Y-79652809D02*
X97387676Y-79557571D01*
X97387676Y-79557571D02*
X97482914Y-79462333D01*
X97482914Y-79462333D02*
X97530533Y-79367095D01*
X97244819Y-80795666D02*
X97244819Y-80605190D01*
X97244819Y-80605190D02*
X97292438Y-80509952D01*
X97292438Y-80509952D02*
X97340057Y-80462333D01*
X97340057Y-80462333D02*
X97482914Y-80367095D01*
X97482914Y-80367095D02*
X97673390Y-80319476D01*
X97673390Y-80319476D02*
X98054342Y-80319476D01*
X98054342Y-80319476D02*
X98149580Y-80367095D01*
X98149580Y-80367095D02*
X98197200Y-80414714D01*
X98197200Y-80414714D02*
X98244819Y-80509952D01*
X98244819Y-80509952D02*
X98244819Y-80700428D01*
X98244819Y-80700428D02*
X98197200Y-80795666D01*
X98197200Y-80795666D02*
X98149580Y-80843285D01*
X98149580Y-80843285D02*
X98054342Y-80890904D01*
X98054342Y-80890904D02*
X97816247Y-80890904D01*
X97816247Y-80890904D02*
X97721009Y-80843285D01*
X97721009Y-80843285D02*
X97673390Y-80795666D01*
X97673390Y-80795666D02*
X97625771Y-80700428D01*
X97625771Y-80700428D02*
X97625771Y-80509952D01*
X97625771Y-80509952D02*
X97673390Y-80414714D01*
X97673390Y-80414714D02*
X97721009Y-80367095D01*
X97721009Y-80367095D02*
X97816247Y-80319476D01*
X144377580Y-85685333D02*
X144425200Y-85637714D01*
X144425200Y-85637714D02*
X144472819Y-85494857D01*
X144472819Y-85494857D02*
X144472819Y-85399619D01*
X144472819Y-85399619D02*
X144425200Y-85256762D01*
X144425200Y-85256762D02*
X144329961Y-85161524D01*
X144329961Y-85161524D02*
X144234723Y-85113905D01*
X144234723Y-85113905D02*
X144044247Y-85066286D01*
X144044247Y-85066286D02*
X143901390Y-85066286D01*
X143901390Y-85066286D02*
X143710914Y-85113905D01*
X143710914Y-85113905D02*
X143615676Y-85161524D01*
X143615676Y-85161524D02*
X143520438Y-85256762D01*
X143520438Y-85256762D02*
X143472819Y-85399619D01*
X143472819Y-85399619D02*
X143472819Y-85494857D01*
X143472819Y-85494857D02*
X143520438Y-85637714D01*
X143520438Y-85637714D02*
X143568057Y-85685333D01*
X143472819Y-86542476D02*
X143472819Y-86352000D01*
X143472819Y-86352000D02*
X143520438Y-86256762D01*
X143520438Y-86256762D02*
X143568057Y-86209143D01*
X143568057Y-86209143D02*
X143710914Y-86113905D01*
X143710914Y-86113905D02*
X143901390Y-86066286D01*
X143901390Y-86066286D02*
X144282342Y-86066286D01*
X144282342Y-86066286D02*
X144377580Y-86113905D01*
X144377580Y-86113905D02*
X144425200Y-86161524D01*
X144425200Y-86161524D02*
X144472819Y-86256762D01*
X144472819Y-86256762D02*
X144472819Y-86447238D01*
X144472819Y-86447238D02*
X144425200Y-86542476D01*
X144425200Y-86542476D02*
X144377580Y-86590095D01*
X144377580Y-86590095D02*
X144282342Y-86637714D01*
X144282342Y-86637714D02*
X144044247Y-86637714D01*
X144044247Y-86637714D02*
X143949009Y-86590095D01*
X143949009Y-86590095D02*
X143901390Y-86542476D01*
X143901390Y-86542476D02*
X143853771Y-86447238D01*
X143853771Y-86447238D02*
X143853771Y-86256762D01*
X143853771Y-86256762D02*
X143901390Y-86161524D01*
X143901390Y-86161524D02*
X143949009Y-86113905D01*
X143949009Y-86113905D02*
X144044247Y-86066286D01*
X99734666Y-83163580D02*
X99782285Y-83211200D01*
X99782285Y-83211200D02*
X99925142Y-83258819D01*
X99925142Y-83258819D02*
X100020380Y-83258819D01*
X100020380Y-83258819D02*
X100163237Y-83211200D01*
X100163237Y-83211200D02*
X100258475Y-83115961D01*
X100258475Y-83115961D02*
X100306094Y-83020723D01*
X100306094Y-83020723D02*
X100353713Y-82830247D01*
X100353713Y-82830247D02*
X100353713Y-82687390D01*
X100353713Y-82687390D02*
X100306094Y-82496914D01*
X100306094Y-82496914D02*
X100258475Y-82401676D01*
X100258475Y-82401676D02*
X100163237Y-82306438D01*
X100163237Y-82306438D02*
X100020380Y-82258819D01*
X100020380Y-82258819D02*
X99925142Y-82258819D01*
X99925142Y-82258819D02*
X99782285Y-82306438D01*
X99782285Y-82306438D02*
X99734666Y-82354057D01*
X99401332Y-82258819D02*
X98782285Y-82258819D01*
X98782285Y-82258819D02*
X99115618Y-82639771D01*
X99115618Y-82639771D02*
X98972761Y-82639771D01*
X98972761Y-82639771D02*
X98877523Y-82687390D01*
X98877523Y-82687390D02*
X98829904Y-82735009D01*
X98829904Y-82735009D02*
X98782285Y-82830247D01*
X98782285Y-82830247D02*
X98782285Y-83068342D01*
X98782285Y-83068342D02*
X98829904Y-83163580D01*
X98829904Y-83163580D02*
X98877523Y-83211200D01*
X98877523Y-83211200D02*
X98972761Y-83258819D01*
X98972761Y-83258819D02*
X99258475Y-83258819D01*
X99258475Y-83258819D02*
X99353713Y-83211200D01*
X99353713Y-83211200D02*
X99401332Y-83163580D01*
X119256980Y-97274142D02*
X119304600Y-97226523D01*
X119304600Y-97226523D02*
X119352219Y-97083666D01*
X119352219Y-97083666D02*
X119352219Y-96988428D01*
X119352219Y-96988428D02*
X119304600Y-96845571D01*
X119304600Y-96845571D02*
X119209361Y-96750333D01*
X119209361Y-96750333D02*
X119114123Y-96702714D01*
X119114123Y-96702714D02*
X118923647Y-96655095D01*
X118923647Y-96655095D02*
X118780790Y-96655095D01*
X118780790Y-96655095D02*
X118590314Y-96702714D01*
X118590314Y-96702714D02*
X118495076Y-96750333D01*
X118495076Y-96750333D02*
X118399838Y-96845571D01*
X118399838Y-96845571D02*
X118352219Y-96988428D01*
X118352219Y-96988428D02*
X118352219Y-97083666D01*
X118352219Y-97083666D02*
X118399838Y-97226523D01*
X118399838Y-97226523D02*
X118447457Y-97274142D01*
X118447457Y-97655095D02*
X118399838Y-97702714D01*
X118399838Y-97702714D02*
X118352219Y-97797952D01*
X118352219Y-97797952D02*
X118352219Y-98036047D01*
X118352219Y-98036047D02*
X118399838Y-98131285D01*
X118399838Y-98131285D02*
X118447457Y-98178904D01*
X118447457Y-98178904D02*
X118542695Y-98226523D01*
X118542695Y-98226523D02*
X118637933Y-98226523D01*
X118637933Y-98226523D02*
X118780790Y-98178904D01*
X118780790Y-98178904D02*
X119352219Y-97607476D01*
X119352219Y-97607476D02*
X119352219Y-98226523D01*
X119352219Y-99178904D02*
X119352219Y-98607476D01*
X119352219Y-98893190D02*
X118352219Y-98893190D01*
X118352219Y-98893190D02*
X118495076Y-98797952D01*
X118495076Y-98797952D02*
X118590314Y-98702714D01*
X118590314Y-98702714D02*
X118637933Y-98607476D01*
X136409580Y-79621142D02*
X136457200Y-79573523D01*
X136457200Y-79573523D02*
X136504819Y-79430666D01*
X136504819Y-79430666D02*
X136504819Y-79335428D01*
X136504819Y-79335428D02*
X136457200Y-79192571D01*
X136457200Y-79192571D02*
X136361961Y-79097333D01*
X136361961Y-79097333D02*
X136266723Y-79049714D01*
X136266723Y-79049714D02*
X136076247Y-79002095D01*
X136076247Y-79002095D02*
X135933390Y-79002095D01*
X135933390Y-79002095D02*
X135742914Y-79049714D01*
X135742914Y-79049714D02*
X135647676Y-79097333D01*
X135647676Y-79097333D02*
X135552438Y-79192571D01*
X135552438Y-79192571D02*
X135504819Y-79335428D01*
X135504819Y-79335428D02*
X135504819Y-79430666D01*
X135504819Y-79430666D02*
X135552438Y-79573523D01*
X135552438Y-79573523D02*
X135600057Y-79621142D01*
X136504819Y-80573523D02*
X136504819Y-80002095D01*
X136504819Y-80287809D02*
X135504819Y-80287809D01*
X135504819Y-80287809D02*
X135647676Y-80192571D01*
X135647676Y-80192571D02*
X135742914Y-80097333D01*
X135742914Y-80097333D02*
X135790533Y-80002095D01*
X135933390Y-81144952D02*
X135885771Y-81049714D01*
X135885771Y-81049714D02*
X135838152Y-81002095D01*
X135838152Y-81002095D02*
X135742914Y-80954476D01*
X135742914Y-80954476D02*
X135695295Y-80954476D01*
X135695295Y-80954476D02*
X135600057Y-81002095D01*
X135600057Y-81002095D02*
X135552438Y-81049714D01*
X135552438Y-81049714D02*
X135504819Y-81144952D01*
X135504819Y-81144952D02*
X135504819Y-81335428D01*
X135504819Y-81335428D02*
X135552438Y-81430666D01*
X135552438Y-81430666D02*
X135600057Y-81478285D01*
X135600057Y-81478285D02*
X135695295Y-81525904D01*
X135695295Y-81525904D02*
X135742914Y-81525904D01*
X135742914Y-81525904D02*
X135838152Y-81478285D01*
X135838152Y-81478285D02*
X135885771Y-81430666D01*
X135885771Y-81430666D02*
X135933390Y-81335428D01*
X135933390Y-81335428D02*
X135933390Y-81144952D01*
X135933390Y-81144952D02*
X135981009Y-81049714D01*
X135981009Y-81049714D02*
X136028628Y-81002095D01*
X136028628Y-81002095D02*
X136123866Y-80954476D01*
X136123866Y-80954476D02*
X136314342Y-80954476D01*
X136314342Y-80954476D02*
X136409580Y-81002095D01*
X136409580Y-81002095D02*
X136457200Y-81049714D01*
X136457200Y-81049714D02*
X136504819Y-81144952D01*
X136504819Y-81144952D02*
X136504819Y-81335428D01*
X136504819Y-81335428D02*
X136457200Y-81430666D01*
X136457200Y-81430666D02*
X136409580Y-81478285D01*
X136409580Y-81478285D02*
X136314342Y-81525904D01*
X136314342Y-81525904D02*
X136123866Y-81525904D01*
X136123866Y-81525904D02*
X136028628Y-81478285D01*
X136028628Y-81478285D02*
X135981009Y-81430666D01*
X135981009Y-81430666D02*
X135933390Y-81335428D01*
X124436094Y-138630819D02*
X124436094Y-137630819D01*
X124436094Y-137630819D02*
X124197999Y-137630819D01*
X124197999Y-137630819D02*
X124055142Y-137678438D01*
X124055142Y-137678438D02*
X123959904Y-137773676D01*
X123959904Y-137773676D02*
X123912285Y-137868914D01*
X123912285Y-137868914D02*
X123864666Y-138059390D01*
X123864666Y-138059390D02*
X123864666Y-138202247D01*
X123864666Y-138202247D02*
X123912285Y-138392723D01*
X123912285Y-138392723D02*
X123959904Y-138487961D01*
X123959904Y-138487961D02*
X124055142Y-138583200D01*
X124055142Y-138583200D02*
X124197999Y-138630819D01*
X124197999Y-138630819D02*
X124436094Y-138630819D01*
X123293237Y-138059390D02*
X123388475Y-138011771D01*
X123388475Y-138011771D02*
X123436094Y-137964152D01*
X123436094Y-137964152D02*
X123483713Y-137868914D01*
X123483713Y-137868914D02*
X123483713Y-137821295D01*
X123483713Y-137821295D02*
X123436094Y-137726057D01*
X123436094Y-137726057D02*
X123388475Y-137678438D01*
X123388475Y-137678438D02*
X123293237Y-137630819D01*
X123293237Y-137630819D02*
X123102761Y-137630819D01*
X123102761Y-137630819D02*
X123007523Y-137678438D01*
X123007523Y-137678438D02*
X122959904Y-137726057D01*
X122959904Y-137726057D02*
X122912285Y-137821295D01*
X122912285Y-137821295D02*
X122912285Y-137868914D01*
X122912285Y-137868914D02*
X122959904Y-137964152D01*
X122959904Y-137964152D02*
X123007523Y-138011771D01*
X123007523Y-138011771D02*
X123102761Y-138059390D01*
X123102761Y-138059390D02*
X123293237Y-138059390D01*
X123293237Y-138059390D02*
X123388475Y-138107009D01*
X123388475Y-138107009D02*
X123436094Y-138154628D01*
X123436094Y-138154628D02*
X123483713Y-138249866D01*
X123483713Y-138249866D02*
X123483713Y-138440342D01*
X123483713Y-138440342D02*
X123436094Y-138535580D01*
X123436094Y-138535580D02*
X123388475Y-138583200D01*
X123388475Y-138583200D02*
X123293237Y-138630819D01*
X123293237Y-138630819D02*
X123102761Y-138630819D01*
X123102761Y-138630819D02*
X123007523Y-138583200D01*
X123007523Y-138583200D02*
X122959904Y-138535580D01*
X122959904Y-138535580D02*
X122912285Y-138440342D01*
X122912285Y-138440342D02*
X122912285Y-138249866D01*
X122912285Y-138249866D02*
X122959904Y-138154628D01*
X122959904Y-138154628D02*
X123007523Y-138107009D01*
X123007523Y-138107009D02*
X123102761Y-138059390D01*
X105007580Y-98925142D02*
X105055200Y-98877523D01*
X105055200Y-98877523D02*
X105102819Y-98734666D01*
X105102819Y-98734666D02*
X105102819Y-98639428D01*
X105102819Y-98639428D02*
X105055200Y-98496571D01*
X105055200Y-98496571D02*
X104959961Y-98401333D01*
X104959961Y-98401333D02*
X104864723Y-98353714D01*
X104864723Y-98353714D02*
X104674247Y-98306095D01*
X104674247Y-98306095D02*
X104531390Y-98306095D01*
X104531390Y-98306095D02*
X104340914Y-98353714D01*
X104340914Y-98353714D02*
X104245676Y-98401333D01*
X104245676Y-98401333D02*
X104150438Y-98496571D01*
X104150438Y-98496571D02*
X104102819Y-98639428D01*
X104102819Y-98639428D02*
X104102819Y-98734666D01*
X104102819Y-98734666D02*
X104150438Y-98877523D01*
X104150438Y-98877523D02*
X104198057Y-98925142D01*
X104198057Y-99306095D02*
X104150438Y-99353714D01*
X104150438Y-99353714D02*
X104102819Y-99448952D01*
X104102819Y-99448952D02*
X104102819Y-99687047D01*
X104102819Y-99687047D02*
X104150438Y-99782285D01*
X104150438Y-99782285D02*
X104198057Y-99829904D01*
X104198057Y-99829904D02*
X104293295Y-99877523D01*
X104293295Y-99877523D02*
X104388533Y-99877523D01*
X104388533Y-99877523D02*
X104531390Y-99829904D01*
X104531390Y-99829904D02*
X105102819Y-99258476D01*
X105102819Y-99258476D02*
X105102819Y-99877523D01*
X104102819Y-100210857D02*
X104102819Y-100829904D01*
X104102819Y-100829904D02*
X104483771Y-100496571D01*
X104483771Y-100496571D02*
X104483771Y-100639428D01*
X104483771Y-100639428D02*
X104531390Y-100734666D01*
X104531390Y-100734666D02*
X104579009Y-100782285D01*
X104579009Y-100782285D02*
X104674247Y-100829904D01*
X104674247Y-100829904D02*
X104912342Y-100829904D01*
X104912342Y-100829904D02*
X105007580Y-100782285D01*
X105007580Y-100782285D02*
X105055200Y-100734666D01*
X105055200Y-100734666D02*
X105102819Y-100639428D01*
X105102819Y-100639428D02*
X105102819Y-100353714D01*
X105102819Y-100353714D02*
X105055200Y-100258476D01*
X105055200Y-100258476D02*
X105007580Y-100210857D01*
X129531166Y-86080819D02*
X129864499Y-85604628D01*
X130102594Y-86080819D02*
X130102594Y-85080819D01*
X130102594Y-85080819D02*
X129721642Y-85080819D01*
X129721642Y-85080819D02*
X129626404Y-85128438D01*
X129626404Y-85128438D02*
X129578785Y-85176057D01*
X129578785Y-85176057D02*
X129531166Y-85271295D01*
X129531166Y-85271295D02*
X129531166Y-85414152D01*
X129531166Y-85414152D02*
X129578785Y-85509390D01*
X129578785Y-85509390D02*
X129626404Y-85557009D01*
X129626404Y-85557009D02*
X129721642Y-85604628D01*
X129721642Y-85604628D02*
X130102594Y-85604628D01*
X128674023Y-85080819D02*
X128864499Y-85080819D01*
X128864499Y-85080819D02*
X128959737Y-85128438D01*
X128959737Y-85128438D02*
X129007356Y-85176057D01*
X129007356Y-85176057D02*
X129102594Y-85318914D01*
X129102594Y-85318914D02*
X129150213Y-85509390D01*
X129150213Y-85509390D02*
X129150213Y-85890342D01*
X129150213Y-85890342D02*
X129102594Y-85985580D01*
X129102594Y-85985580D02*
X129054975Y-86033200D01*
X129054975Y-86033200D02*
X128959737Y-86080819D01*
X128959737Y-86080819D02*
X128769261Y-86080819D01*
X128769261Y-86080819D02*
X128674023Y-86033200D01*
X128674023Y-86033200D02*
X128626404Y-85985580D01*
X128626404Y-85985580D02*
X128578785Y-85890342D01*
X128578785Y-85890342D02*
X128578785Y-85652247D01*
X128578785Y-85652247D02*
X128626404Y-85557009D01*
X128626404Y-85557009D02*
X128674023Y-85509390D01*
X128674023Y-85509390D02*
X128769261Y-85461771D01*
X128769261Y-85461771D02*
X128959737Y-85461771D01*
X128959737Y-85461771D02*
X129054975Y-85509390D01*
X129054975Y-85509390D02*
X129102594Y-85557009D01*
X129102594Y-85557009D02*
X129150213Y-85652247D01*
X145708666Y-85671819D02*
X146041999Y-85195628D01*
X146280094Y-85671819D02*
X146280094Y-84671819D01*
X146280094Y-84671819D02*
X145899142Y-84671819D01*
X145899142Y-84671819D02*
X145803904Y-84719438D01*
X145803904Y-84719438D02*
X145756285Y-84767057D01*
X145756285Y-84767057D02*
X145708666Y-84862295D01*
X145708666Y-84862295D02*
X145708666Y-85005152D01*
X145708666Y-85005152D02*
X145756285Y-85100390D01*
X145756285Y-85100390D02*
X145803904Y-85148009D01*
X145803904Y-85148009D02*
X145899142Y-85195628D01*
X145899142Y-85195628D02*
X146280094Y-85195628D01*
X144851523Y-85005152D02*
X144851523Y-85671819D01*
X145089618Y-84624200D02*
X145327713Y-85338485D01*
X145327713Y-85338485D02*
X144708666Y-85338485D01*
X186763819Y-75366714D02*
X185763819Y-75366714D01*
X185763819Y-75366714D02*
X185763819Y-75604809D01*
X185763819Y-75604809D02*
X185811438Y-75747666D01*
X185811438Y-75747666D02*
X185906676Y-75842904D01*
X185906676Y-75842904D02*
X186001914Y-75890523D01*
X186001914Y-75890523D02*
X186192390Y-75938142D01*
X186192390Y-75938142D02*
X186335247Y-75938142D01*
X186335247Y-75938142D02*
X186525723Y-75890523D01*
X186525723Y-75890523D02*
X186620961Y-75842904D01*
X186620961Y-75842904D02*
X186716200Y-75747666D01*
X186716200Y-75747666D02*
X186763819Y-75604809D01*
X186763819Y-75604809D02*
X186763819Y-75366714D01*
X186763819Y-76890523D02*
X186763819Y-76319095D01*
X186763819Y-76604809D02*
X185763819Y-76604809D01*
X185763819Y-76604809D02*
X185906676Y-76509571D01*
X185906676Y-76509571D02*
X186001914Y-76414333D01*
X186001914Y-76414333D02*
X186049533Y-76319095D01*
X185859057Y-77271476D02*
X185811438Y-77319095D01*
X185811438Y-77319095D02*
X185763819Y-77414333D01*
X185763819Y-77414333D02*
X185763819Y-77652428D01*
X185763819Y-77652428D02*
X185811438Y-77747666D01*
X185811438Y-77747666D02*
X185859057Y-77795285D01*
X185859057Y-77795285D02*
X185954295Y-77842904D01*
X185954295Y-77842904D02*
X186049533Y-77842904D01*
X186049533Y-77842904D02*
X186192390Y-77795285D01*
X186192390Y-77795285D02*
X186763819Y-77223857D01*
X186763819Y-77223857D02*
X186763819Y-77842904D01*
X208980819Y-86733142D02*
X208980819Y-86256952D01*
X208980819Y-86256952D02*
X207980819Y-86256952D01*
X208933200Y-87018857D02*
X208980819Y-87161714D01*
X208980819Y-87161714D02*
X208980819Y-87399809D01*
X208980819Y-87399809D02*
X208933200Y-87495047D01*
X208933200Y-87495047D02*
X208885580Y-87542666D01*
X208885580Y-87542666D02*
X208790342Y-87590285D01*
X208790342Y-87590285D02*
X208695104Y-87590285D01*
X208695104Y-87590285D02*
X208599866Y-87542666D01*
X208599866Y-87542666D02*
X208552247Y-87495047D01*
X208552247Y-87495047D02*
X208504628Y-87399809D01*
X208504628Y-87399809D02*
X208457009Y-87209333D01*
X208457009Y-87209333D02*
X208409390Y-87114095D01*
X208409390Y-87114095D02*
X208361771Y-87066476D01*
X208361771Y-87066476D02*
X208266533Y-87018857D01*
X208266533Y-87018857D02*
X208171295Y-87018857D01*
X208171295Y-87018857D02*
X208076057Y-87066476D01*
X208076057Y-87066476D02*
X208028438Y-87114095D01*
X208028438Y-87114095D02*
X207980819Y-87209333D01*
X207980819Y-87209333D02*
X207980819Y-87447428D01*
X207980819Y-87447428D02*
X208028438Y-87590285D01*
X208980819Y-88542666D02*
X208980819Y-87971238D01*
X208980819Y-88256952D02*
X207980819Y-88256952D01*
X207980819Y-88256952D02*
X208123676Y-88161714D01*
X208123676Y-88161714D02*
X208218914Y-88066476D01*
X208218914Y-88066476D02*
X208266533Y-87971238D01*
X129516094Y-138630819D02*
X129516094Y-137630819D01*
X129516094Y-137630819D02*
X129277999Y-137630819D01*
X129277999Y-137630819D02*
X129135142Y-137678438D01*
X129135142Y-137678438D02*
X129039904Y-137773676D01*
X129039904Y-137773676D02*
X128992285Y-137868914D01*
X128992285Y-137868914D02*
X128944666Y-138059390D01*
X128944666Y-138059390D02*
X128944666Y-138202247D01*
X128944666Y-138202247D02*
X128992285Y-138392723D01*
X128992285Y-138392723D02*
X129039904Y-138487961D01*
X129039904Y-138487961D02*
X129135142Y-138583200D01*
X129135142Y-138583200D02*
X129277999Y-138630819D01*
X129277999Y-138630819D02*
X129516094Y-138630819D01*
X128087523Y-137630819D02*
X128277999Y-137630819D01*
X128277999Y-137630819D02*
X128373237Y-137678438D01*
X128373237Y-137678438D02*
X128420856Y-137726057D01*
X128420856Y-137726057D02*
X128516094Y-137868914D01*
X128516094Y-137868914D02*
X128563713Y-138059390D01*
X128563713Y-138059390D02*
X128563713Y-138440342D01*
X128563713Y-138440342D02*
X128516094Y-138535580D01*
X128516094Y-138535580D02*
X128468475Y-138583200D01*
X128468475Y-138583200D02*
X128373237Y-138630819D01*
X128373237Y-138630819D02*
X128182761Y-138630819D01*
X128182761Y-138630819D02*
X128087523Y-138583200D01*
X128087523Y-138583200D02*
X128039904Y-138535580D01*
X128039904Y-138535580D02*
X127992285Y-138440342D01*
X127992285Y-138440342D02*
X127992285Y-138202247D01*
X127992285Y-138202247D02*
X128039904Y-138107009D01*
X128039904Y-138107009D02*
X128087523Y-138059390D01*
X128087523Y-138059390D02*
X128182761Y-138011771D01*
X128182761Y-138011771D02*
X128373237Y-138011771D01*
X128373237Y-138011771D02*
X128468475Y-138059390D01*
X128468475Y-138059390D02*
X128516094Y-138107009D01*
X128516094Y-138107009D02*
X128563713Y-138202247D01*
X222226094Y-87678419D02*
X222226094Y-86678419D01*
X222226094Y-86678419D02*
X221987999Y-86678419D01*
X221987999Y-86678419D02*
X221845142Y-86726038D01*
X221845142Y-86726038D02*
X221749904Y-86821276D01*
X221749904Y-86821276D02*
X221702285Y-86916514D01*
X221702285Y-86916514D02*
X221654666Y-87106990D01*
X221654666Y-87106990D02*
X221654666Y-87249847D01*
X221654666Y-87249847D02*
X221702285Y-87440323D01*
X221702285Y-87440323D02*
X221749904Y-87535561D01*
X221749904Y-87535561D02*
X221845142Y-87630800D01*
X221845142Y-87630800D02*
X221987999Y-87678419D01*
X221987999Y-87678419D02*
X222226094Y-87678419D01*
X221321332Y-86678419D02*
X220702285Y-86678419D01*
X220702285Y-86678419D02*
X221035618Y-87059371D01*
X221035618Y-87059371D02*
X220892761Y-87059371D01*
X220892761Y-87059371D02*
X220797523Y-87106990D01*
X220797523Y-87106990D02*
X220749904Y-87154609D01*
X220749904Y-87154609D02*
X220702285Y-87249847D01*
X220702285Y-87249847D02*
X220702285Y-87487942D01*
X220702285Y-87487942D02*
X220749904Y-87583180D01*
X220749904Y-87583180D02*
X220797523Y-87630800D01*
X220797523Y-87630800D02*
X220892761Y-87678419D01*
X220892761Y-87678419D02*
X221178475Y-87678419D01*
X221178475Y-87678419D02*
X221273713Y-87630800D01*
X221273713Y-87630800D02*
X221321332Y-87583180D01*
X132056094Y-138630819D02*
X132056094Y-137630819D01*
X132056094Y-137630819D02*
X131817999Y-137630819D01*
X131817999Y-137630819D02*
X131675142Y-137678438D01*
X131675142Y-137678438D02*
X131579904Y-137773676D01*
X131579904Y-137773676D02*
X131532285Y-137868914D01*
X131532285Y-137868914D02*
X131484666Y-138059390D01*
X131484666Y-138059390D02*
X131484666Y-138202247D01*
X131484666Y-138202247D02*
X131532285Y-138392723D01*
X131532285Y-138392723D02*
X131579904Y-138487961D01*
X131579904Y-138487961D02*
X131675142Y-138583200D01*
X131675142Y-138583200D02*
X131817999Y-138630819D01*
X131817999Y-138630819D02*
X132056094Y-138630819D01*
X130579904Y-137630819D02*
X131056094Y-137630819D01*
X131056094Y-137630819D02*
X131103713Y-138107009D01*
X131103713Y-138107009D02*
X131056094Y-138059390D01*
X131056094Y-138059390D02*
X130960856Y-138011771D01*
X130960856Y-138011771D02*
X130722761Y-138011771D01*
X130722761Y-138011771D02*
X130627523Y-138059390D01*
X130627523Y-138059390D02*
X130579904Y-138107009D01*
X130579904Y-138107009D02*
X130532285Y-138202247D01*
X130532285Y-138202247D02*
X130532285Y-138440342D01*
X130532285Y-138440342D02*
X130579904Y-138535580D01*
X130579904Y-138535580D02*
X130627523Y-138583200D01*
X130627523Y-138583200D02*
X130722761Y-138630819D01*
X130722761Y-138630819D02*
X130960856Y-138630819D01*
X130960856Y-138630819D02*
X131056094Y-138583200D01*
X131056094Y-138583200D02*
X131103713Y-138535580D01*
X173841580Y-85209142D02*
X173889200Y-85161523D01*
X173889200Y-85161523D02*
X173936819Y-85018666D01*
X173936819Y-85018666D02*
X173936819Y-84923428D01*
X173936819Y-84923428D02*
X173889200Y-84780571D01*
X173889200Y-84780571D02*
X173793961Y-84685333D01*
X173793961Y-84685333D02*
X173698723Y-84637714D01*
X173698723Y-84637714D02*
X173508247Y-84590095D01*
X173508247Y-84590095D02*
X173365390Y-84590095D01*
X173365390Y-84590095D02*
X173174914Y-84637714D01*
X173174914Y-84637714D02*
X173079676Y-84685333D01*
X173079676Y-84685333D02*
X172984438Y-84780571D01*
X172984438Y-84780571D02*
X172936819Y-84923428D01*
X172936819Y-84923428D02*
X172936819Y-85018666D01*
X172936819Y-85018666D02*
X172984438Y-85161523D01*
X172984438Y-85161523D02*
X173032057Y-85209142D01*
X172936819Y-85542476D02*
X172936819Y-86161523D01*
X172936819Y-86161523D02*
X173317771Y-85828190D01*
X173317771Y-85828190D02*
X173317771Y-85971047D01*
X173317771Y-85971047D02*
X173365390Y-86066285D01*
X173365390Y-86066285D02*
X173413009Y-86113904D01*
X173413009Y-86113904D02*
X173508247Y-86161523D01*
X173508247Y-86161523D02*
X173746342Y-86161523D01*
X173746342Y-86161523D02*
X173841580Y-86113904D01*
X173841580Y-86113904D02*
X173889200Y-86066285D01*
X173889200Y-86066285D02*
X173936819Y-85971047D01*
X173936819Y-85971047D02*
X173936819Y-85685333D01*
X173936819Y-85685333D02*
X173889200Y-85590095D01*
X173889200Y-85590095D02*
X173841580Y-85542476D01*
X172936819Y-86780571D02*
X172936819Y-86875809D01*
X172936819Y-86875809D02*
X172984438Y-86971047D01*
X172984438Y-86971047D02*
X173032057Y-87018666D01*
X173032057Y-87018666D02*
X173127295Y-87066285D01*
X173127295Y-87066285D02*
X173317771Y-87113904D01*
X173317771Y-87113904D02*
X173555866Y-87113904D01*
X173555866Y-87113904D02*
X173746342Y-87066285D01*
X173746342Y-87066285D02*
X173841580Y-87018666D01*
X173841580Y-87018666D02*
X173889200Y-86971047D01*
X173889200Y-86971047D02*
X173936819Y-86875809D01*
X173936819Y-86875809D02*
X173936819Y-86780571D01*
X173936819Y-86780571D02*
X173889200Y-86685333D01*
X173889200Y-86685333D02*
X173841580Y-86637714D01*
X173841580Y-86637714D02*
X173746342Y-86590095D01*
X173746342Y-86590095D02*
X173555866Y-86542476D01*
X173555866Y-86542476D02*
X173317771Y-86542476D01*
X173317771Y-86542476D02*
X173127295Y-86590095D01*
X173127295Y-86590095D02*
X173032057Y-86637714D01*
X173032057Y-86637714D02*
X172984438Y-86685333D01*
X172984438Y-86685333D02*
X172936819Y-86780571D01*
X190811009Y-139370285D02*
X190858628Y-139513142D01*
X190858628Y-139513142D02*
X190906247Y-139560761D01*
X190906247Y-139560761D02*
X191001485Y-139608380D01*
X191001485Y-139608380D02*
X191144342Y-139608380D01*
X191144342Y-139608380D02*
X191239580Y-139560761D01*
X191239580Y-139560761D02*
X191287200Y-139513142D01*
X191287200Y-139513142D02*
X191334819Y-139417904D01*
X191334819Y-139417904D02*
X191334819Y-139036952D01*
X191334819Y-139036952D02*
X190334819Y-139036952D01*
X190334819Y-139036952D02*
X190334819Y-139370285D01*
X190334819Y-139370285D02*
X190382438Y-139465523D01*
X190382438Y-139465523D02*
X190430057Y-139513142D01*
X190430057Y-139513142D02*
X190525295Y-139560761D01*
X190525295Y-139560761D02*
X190620533Y-139560761D01*
X190620533Y-139560761D02*
X190715771Y-139513142D01*
X190715771Y-139513142D02*
X190763390Y-139465523D01*
X190763390Y-139465523D02*
X190811009Y-139370285D01*
X190811009Y-139370285D02*
X190811009Y-139036952D01*
X190334819Y-139894095D02*
X190334819Y-140465523D01*
X191334819Y-140179809D02*
X190334819Y-140179809D01*
X190668152Y-141227428D02*
X191334819Y-141227428D01*
X190287200Y-140989333D02*
X191001485Y-140751238D01*
X191001485Y-140751238D02*
X191001485Y-141370285D01*
X182953866Y-143585048D02*
X182953866Y-144346953D01*
X183334819Y-143966000D02*
X182572914Y-143966000D01*
X182953866Y-91515048D02*
X182953866Y-92276953D01*
X128142904Y-82512819D02*
X128142904Y-83322342D01*
X128142904Y-83322342D02*
X128095285Y-83417580D01*
X128095285Y-83417580D02*
X128047666Y-83465200D01*
X128047666Y-83465200D02*
X127952428Y-83512819D01*
X127952428Y-83512819D02*
X127761952Y-83512819D01*
X127761952Y-83512819D02*
X127666714Y-83465200D01*
X127666714Y-83465200D02*
X127619095Y-83417580D01*
X127619095Y-83417580D02*
X127571476Y-83322342D01*
X127571476Y-83322342D02*
X127571476Y-82512819D01*
X127142904Y-82608057D02*
X127095285Y-82560438D01*
X127095285Y-82560438D02*
X127000047Y-82512819D01*
X127000047Y-82512819D02*
X126761952Y-82512819D01*
X126761952Y-82512819D02*
X126666714Y-82560438D01*
X126666714Y-82560438D02*
X126619095Y-82608057D01*
X126619095Y-82608057D02*
X126571476Y-82703295D01*
X126571476Y-82703295D02*
X126571476Y-82798533D01*
X126571476Y-82798533D02*
X126619095Y-82941390D01*
X126619095Y-82941390D02*
X127190523Y-83512819D01*
X127190523Y-83512819D02*
X126571476Y-83512819D01*
X121896094Y-138630819D02*
X121896094Y-137630819D01*
X121896094Y-137630819D02*
X121657999Y-137630819D01*
X121657999Y-137630819D02*
X121515142Y-137678438D01*
X121515142Y-137678438D02*
X121419904Y-137773676D01*
X121419904Y-137773676D02*
X121372285Y-137868914D01*
X121372285Y-137868914D02*
X121324666Y-138059390D01*
X121324666Y-138059390D02*
X121324666Y-138202247D01*
X121324666Y-138202247D02*
X121372285Y-138392723D01*
X121372285Y-138392723D02*
X121419904Y-138487961D01*
X121419904Y-138487961D02*
X121515142Y-138583200D01*
X121515142Y-138583200D02*
X121657999Y-138630819D01*
X121657999Y-138630819D02*
X121896094Y-138630819D01*
X120848475Y-138630819D02*
X120657999Y-138630819D01*
X120657999Y-138630819D02*
X120562761Y-138583200D01*
X120562761Y-138583200D02*
X120515142Y-138535580D01*
X120515142Y-138535580D02*
X120419904Y-138392723D01*
X120419904Y-138392723D02*
X120372285Y-138202247D01*
X120372285Y-138202247D02*
X120372285Y-137821295D01*
X120372285Y-137821295D02*
X120419904Y-137726057D01*
X120419904Y-137726057D02*
X120467523Y-137678438D01*
X120467523Y-137678438D02*
X120562761Y-137630819D01*
X120562761Y-137630819D02*
X120753237Y-137630819D01*
X120753237Y-137630819D02*
X120848475Y-137678438D01*
X120848475Y-137678438D02*
X120896094Y-137726057D01*
X120896094Y-137726057D02*
X120943713Y-137821295D01*
X120943713Y-137821295D02*
X120943713Y-138059390D01*
X120943713Y-138059390D02*
X120896094Y-138154628D01*
X120896094Y-138154628D02*
X120848475Y-138202247D01*
X120848475Y-138202247D02*
X120753237Y-138249866D01*
X120753237Y-138249866D02*
X120562761Y-138249866D01*
X120562761Y-138249866D02*
X120467523Y-138202247D01*
X120467523Y-138202247D02*
X120419904Y-138154628D01*
X120419904Y-138154628D02*
X120372285Y-138059390D01*
X174632857Y-82402819D02*
X174966190Y-81926628D01*
X175204285Y-82402819D02*
X175204285Y-81402819D01*
X175204285Y-81402819D02*
X174823333Y-81402819D01*
X174823333Y-81402819D02*
X174728095Y-81450438D01*
X174728095Y-81450438D02*
X174680476Y-81498057D01*
X174680476Y-81498057D02*
X174632857Y-81593295D01*
X174632857Y-81593295D02*
X174632857Y-81736152D01*
X174632857Y-81736152D02*
X174680476Y-81831390D01*
X174680476Y-81831390D02*
X174728095Y-81879009D01*
X174728095Y-81879009D02*
X174823333Y-81926628D01*
X174823333Y-81926628D02*
X175204285Y-81926628D01*
X173680476Y-82402819D02*
X174251904Y-82402819D01*
X173966190Y-82402819D02*
X173966190Y-81402819D01*
X173966190Y-81402819D02*
X174061428Y-81545676D01*
X174061428Y-81545676D02*
X174156666Y-81640914D01*
X174156666Y-81640914D02*
X174251904Y-81688533D01*
X173109047Y-81831390D02*
X173204285Y-81783771D01*
X173204285Y-81783771D02*
X173251904Y-81736152D01*
X173251904Y-81736152D02*
X173299523Y-81640914D01*
X173299523Y-81640914D02*
X173299523Y-81593295D01*
X173299523Y-81593295D02*
X173251904Y-81498057D01*
X173251904Y-81498057D02*
X173204285Y-81450438D01*
X173204285Y-81450438D02*
X173109047Y-81402819D01*
X173109047Y-81402819D02*
X172918571Y-81402819D01*
X172918571Y-81402819D02*
X172823333Y-81450438D01*
X172823333Y-81450438D02*
X172775714Y-81498057D01*
X172775714Y-81498057D02*
X172728095Y-81593295D01*
X172728095Y-81593295D02*
X172728095Y-81640914D01*
X172728095Y-81640914D02*
X172775714Y-81736152D01*
X172775714Y-81736152D02*
X172823333Y-81783771D01*
X172823333Y-81783771D02*
X172918571Y-81831390D01*
X172918571Y-81831390D02*
X173109047Y-81831390D01*
X173109047Y-81831390D02*
X173204285Y-81879009D01*
X173204285Y-81879009D02*
X173251904Y-81926628D01*
X173251904Y-81926628D02*
X173299523Y-82021866D01*
X173299523Y-82021866D02*
X173299523Y-82212342D01*
X173299523Y-82212342D02*
X173251904Y-82307580D01*
X173251904Y-82307580D02*
X173204285Y-82355200D01*
X173204285Y-82355200D02*
X173109047Y-82402819D01*
X173109047Y-82402819D02*
X172918571Y-82402819D01*
X172918571Y-82402819D02*
X172823333Y-82355200D01*
X172823333Y-82355200D02*
X172775714Y-82307580D01*
X172775714Y-82307580D02*
X172728095Y-82212342D01*
X172728095Y-82212342D02*
X172728095Y-82021866D01*
X172728095Y-82021866D02*
X172775714Y-81926628D01*
X172775714Y-81926628D02*
X172823333Y-81879009D01*
X172823333Y-81879009D02*
X172918571Y-81831390D01*
X117038285Y-138630819D02*
X117038285Y-137630819D01*
X117038285Y-137630819D02*
X116800190Y-137630819D01*
X116800190Y-137630819D02*
X116657333Y-137678438D01*
X116657333Y-137678438D02*
X116562095Y-137773676D01*
X116562095Y-137773676D02*
X116514476Y-137868914D01*
X116514476Y-137868914D02*
X116466857Y-138059390D01*
X116466857Y-138059390D02*
X116466857Y-138202247D01*
X116466857Y-138202247D02*
X116514476Y-138392723D01*
X116514476Y-138392723D02*
X116562095Y-138487961D01*
X116562095Y-138487961D02*
X116657333Y-138583200D01*
X116657333Y-138583200D02*
X116800190Y-138630819D01*
X116800190Y-138630819D02*
X117038285Y-138630819D01*
X115514476Y-138630819D02*
X116085904Y-138630819D01*
X115800190Y-138630819D02*
X115800190Y-137630819D01*
X115800190Y-137630819D02*
X115895428Y-137773676D01*
X115895428Y-137773676D02*
X115990666Y-137868914D01*
X115990666Y-137868914D02*
X116085904Y-137916533D01*
X114562095Y-138630819D02*
X115133523Y-138630819D01*
X114847809Y-138630819D02*
X114847809Y-137630819D01*
X114847809Y-137630819D02*
X114943047Y-137773676D01*
X114943047Y-137773676D02*
X115038285Y-137868914D01*
X115038285Y-137868914D02*
X115133523Y-137916533D01*
X119832285Y-138630819D02*
X119832285Y-137630819D01*
X119832285Y-137630819D02*
X119594190Y-137630819D01*
X119594190Y-137630819D02*
X119451333Y-137678438D01*
X119451333Y-137678438D02*
X119356095Y-137773676D01*
X119356095Y-137773676D02*
X119308476Y-137868914D01*
X119308476Y-137868914D02*
X119260857Y-138059390D01*
X119260857Y-138059390D02*
X119260857Y-138202247D01*
X119260857Y-138202247D02*
X119308476Y-138392723D01*
X119308476Y-138392723D02*
X119356095Y-138487961D01*
X119356095Y-138487961D02*
X119451333Y-138583200D01*
X119451333Y-138583200D02*
X119594190Y-138630819D01*
X119594190Y-138630819D02*
X119832285Y-138630819D01*
X118308476Y-138630819D02*
X118879904Y-138630819D01*
X118594190Y-138630819D02*
X118594190Y-137630819D01*
X118594190Y-137630819D02*
X118689428Y-137773676D01*
X118689428Y-137773676D02*
X118784666Y-137868914D01*
X118784666Y-137868914D02*
X118879904Y-137916533D01*
X117689428Y-137630819D02*
X117594190Y-137630819D01*
X117594190Y-137630819D02*
X117498952Y-137678438D01*
X117498952Y-137678438D02*
X117451333Y-137726057D01*
X117451333Y-137726057D02*
X117403714Y-137821295D01*
X117403714Y-137821295D02*
X117356095Y-138011771D01*
X117356095Y-138011771D02*
X117356095Y-138249866D01*
X117356095Y-138249866D02*
X117403714Y-138440342D01*
X117403714Y-138440342D02*
X117451333Y-138535580D01*
X117451333Y-138535580D02*
X117498952Y-138583200D01*
X117498952Y-138583200D02*
X117594190Y-138630819D01*
X117594190Y-138630819D02*
X117689428Y-138630819D01*
X117689428Y-138630819D02*
X117784666Y-138583200D01*
X117784666Y-138583200D02*
X117832285Y-138535580D01*
X117832285Y-138535580D02*
X117879904Y-138440342D01*
X117879904Y-138440342D02*
X117927523Y-138249866D01*
X117927523Y-138249866D02*
X117927523Y-138011771D01*
X117927523Y-138011771D02*
X117879904Y-137821295D01*
X117879904Y-137821295D02*
X117832285Y-137726057D01*
X117832285Y-137726057D02*
X117784666Y-137678438D01*
X117784666Y-137678438D02*
X117689428Y-137630819D01*
D10*
X180848095Y-79042580D02*
X180848095Y-78233057D01*
X180848095Y-78233057D02*
X180895714Y-78137819D01*
X180895714Y-78137819D02*
X180943333Y-78090200D01*
X180943333Y-78090200D02*
X181038571Y-78042580D01*
X181038571Y-78042580D02*
X181229047Y-78042580D01*
X181229047Y-78042580D02*
X181324285Y-78090200D01*
X181324285Y-78090200D02*
X181371904Y-78137819D01*
X181371904Y-78137819D02*
X181419523Y-78233057D01*
X181419523Y-78233057D02*
X181419523Y-79042580D01*
X182324285Y-79042580D02*
X182133809Y-79042580D01*
X182133809Y-79042580D02*
X182038571Y-78994961D01*
X182038571Y-78994961D02*
X181990952Y-78947342D01*
X181990952Y-78947342D02*
X181895714Y-78804485D01*
X181895714Y-78804485D02*
X181848095Y-78614009D01*
X181848095Y-78614009D02*
X181848095Y-78233057D01*
X181848095Y-78233057D02*
X181895714Y-78137819D01*
X181895714Y-78137819D02*
X181943333Y-78090200D01*
X181943333Y-78090200D02*
X182038571Y-78042580D01*
X182038571Y-78042580D02*
X182229047Y-78042580D01*
X182229047Y-78042580D02*
X182324285Y-78090200D01*
X182324285Y-78090200D02*
X182371904Y-78137819D01*
X182371904Y-78137819D02*
X182419523Y-78233057D01*
X182419523Y-78233057D02*
X182419523Y-78471152D01*
X182419523Y-78471152D02*
X182371904Y-78566390D01*
X182371904Y-78566390D02*
X182324285Y-78614009D01*
X182324285Y-78614009D02*
X182229047Y-78661628D01*
X182229047Y-78661628D02*
X182038571Y-78661628D01*
X182038571Y-78661628D02*
X181943333Y-78614009D01*
X181943333Y-78614009D02*
X181895714Y-78566390D01*
X181895714Y-78566390D02*
X181848095Y-78471152D01*
D11*
X133102819Y-139065095D02*
X133912342Y-139065095D01*
X133912342Y-139065095D02*
X134007580Y-139112714D01*
X134007580Y-139112714D02*
X134055200Y-139160333D01*
X134055200Y-139160333D02*
X134102819Y-139255571D01*
X134102819Y-139255571D02*
X134102819Y-139446047D01*
X134102819Y-139446047D02*
X134055200Y-139541285D01*
X134055200Y-139541285D02*
X134007580Y-139588904D01*
X134007580Y-139588904D02*
X133912342Y-139636523D01*
X133912342Y-139636523D02*
X133102819Y-139636523D01*
X133436152Y-140541285D02*
X134102819Y-140541285D01*
X133055200Y-140303190D02*
X133769485Y-140065095D01*
X133769485Y-140065095D02*
X133769485Y-140684142D01*
X164671333Y-80786819D02*
X164671333Y-81501104D01*
X164671333Y-81501104D02*
X164718952Y-81643961D01*
X164718952Y-81643961D02*
X164814190Y-81739200D01*
X164814190Y-81739200D02*
X164957047Y-81786819D01*
X164957047Y-81786819D02*
X165052285Y-81786819D01*
X164242761Y-80882057D02*
X164195142Y-80834438D01*
X164195142Y-80834438D02*
X164099904Y-80786819D01*
X164099904Y-80786819D02*
X163861809Y-80786819D01*
X163861809Y-80786819D02*
X163766571Y-80834438D01*
X163766571Y-80834438D02*
X163718952Y-80882057D01*
X163718952Y-80882057D02*
X163671333Y-80977295D01*
X163671333Y-80977295D02*
X163671333Y-81072533D01*
X163671333Y-81072533D02*
X163718952Y-81215390D01*
X163718952Y-81215390D02*
X164290380Y-81786819D01*
X164290380Y-81786819D02*
X163671333Y-81786819D01*
X142853580Y-85685333D02*
X142901200Y-85637714D01*
X142901200Y-85637714D02*
X142948819Y-85494857D01*
X142948819Y-85494857D02*
X142948819Y-85399619D01*
X142948819Y-85399619D02*
X142901200Y-85256762D01*
X142901200Y-85256762D02*
X142805961Y-85161524D01*
X142805961Y-85161524D02*
X142710723Y-85113905D01*
X142710723Y-85113905D02*
X142520247Y-85066286D01*
X142520247Y-85066286D02*
X142377390Y-85066286D01*
X142377390Y-85066286D02*
X142186914Y-85113905D01*
X142186914Y-85113905D02*
X142091676Y-85161524D01*
X142091676Y-85161524D02*
X141996438Y-85256762D01*
X141996438Y-85256762D02*
X141948819Y-85399619D01*
X141948819Y-85399619D02*
X141948819Y-85494857D01*
X141948819Y-85494857D02*
X141996438Y-85637714D01*
X141996438Y-85637714D02*
X142044057Y-85685333D01*
X141948819Y-86590095D02*
X141948819Y-86113905D01*
X141948819Y-86113905D02*
X142425009Y-86066286D01*
X142425009Y-86066286D02*
X142377390Y-86113905D01*
X142377390Y-86113905D02*
X142329771Y-86209143D01*
X142329771Y-86209143D02*
X142329771Y-86447238D01*
X142329771Y-86447238D02*
X142377390Y-86542476D01*
X142377390Y-86542476D02*
X142425009Y-86590095D01*
X142425009Y-86590095D02*
X142520247Y-86637714D01*
X142520247Y-86637714D02*
X142758342Y-86637714D01*
X142758342Y-86637714D02*
X142853580Y-86590095D01*
X142853580Y-86590095D02*
X142901200Y-86542476D01*
X142901200Y-86542476D02*
X142948819Y-86447238D01*
X142948819Y-86447238D02*
X142948819Y-86209143D01*
X142948819Y-86209143D02*
X142901200Y-86113905D01*
X142901200Y-86113905D02*
X142853580Y-86066286D01*
X159535714Y-140393009D02*
X159392857Y-140440628D01*
X159392857Y-140440628D02*
X159345238Y-140488247D01*
X159345238Y-140488247D02*
X159297619Y-140583485D01*
X159297619Y-140583485D02*
X159297619Y-140726342D01*
X159297619Y-140726342D02*
X159345238Y-140821580D01*
X159345238Y-140821580D02*
X159392857Y-140869200D01*
X159392857Y-140869200D02*
X159488095Y-140916819D01*
X159488095Y-140916819D02*
X159869047Y-140916819D01*
X159869047Y-140916819D02*
X159869047Y-139916819D01*
X159869047Y-139916819D02*
X159535714Y-139916819D01*
X159535714Y-139916819D02*
X159440476Y-139964438D01*
X159440476Y-139964438D02*
X159392857Y-140012057D01*
X159392857Y-140012057D02*
X159345238Y-140107295D01*
X159345238Y-140107295D02*
X159345238Y-140202533D01*
X159345238Y-140202533D02*
X159392857Y-140297771D01*
X159392857Y-140297771D02*
X159440476Y-140345390D01*
X159440476Y-140345390D02*
X159535714Y-140393009D01*
X159535714Y-140393009D02*
X159869047Y-140393009D01*
X159011904Y-139916819D02*
X158440476Y-139916819D01*
X158726190Y-140916819D02*
X158726190Y-139916819D01*
X158154761Y-140012057D02*
X158107142Y-139964438D01*
X158107142Y-139964438D02*
X158011904Y-139916819D01*
X158011904Y-139916819D02*
X157773809Y-139916819D01*
X157773809Y-139916819D02*
X157678571Y-139964438D01*
X157678571Y-139964438D02*
X157630952Y-140012057D01*
X157630952Y-140012057D02*
X157583333Y-140107295D01*
X157583333Y-140107295D02*
X157583333Y-140202533D01*
X157583333Y-140202533D02*
X157630952Y-140345390D01*
X157630952Y-140345390D02*
X158202380Y-140916819D01*
X158202380Y-140916819D02*
X157583333Y-140916819D01*
X156791866Y-91567048D02*
X156791866Y-92328953D01*
X155013866Y-143585048D02*
X155013866Y-144346953D01*
X155394819Y-143966000D02*
X154632914Y-143966000D01*
X106084666Y-76305580D02*
X106132285Y-76353200D01*
X106132285Y-76353200D02*
X106275142Y-76400819D01*
X106275142Y-76400819D02*
X106370380Y-76400819D01*
X106370380Y-76400819D02*
X106513237Y-76353200D01*
X106513237Y-76353200D02*
X106608475Y-76257961D01*
X106608475Y-76257961D02*
X106656094Y-76162723D01*
X106656094Y-76162723D02*
X106703713Y-75972247D01*
X106703713Y-75972247D02*
X106703713Y-75829390D01*
X106703713Y-75829390D02*
X106656094Y-75638914D01*
X106656094Y-75638914D02*
X106608475Y-75543676D01*
X106608475Y-75543676D02*
X106513237Y-75448438D01*
X106513237Y-75448438D02*
X106370380Y-75400819D01*
X106370380Y-75400819D02*
X106275142Y-75400819D01*
X106275142Y-75400819D02*
X106132285Y-75448438D01*
X106132285Y-75448438D02*
X106084666Y-75496057D01*
X105751332Y-75400819D02*
X105084666Y-75400819D01*
X105084666Y-75400819D02*
X105513237Y-76400819D01*
X99702857Y-84687580D02*
X99750476Y-84735200D01*
X99750476Y-84735200D02*
X99893333Y-84782819D01*
X99893333Y-84782819D02*
X99988571Y-84782819D01*
X99988571Y-84782819D02*
X100131428Y-84735200D01*
X100131428Y-84735200D02*
X100226666Y-84639961D01*
X100226666Y-84639961D02*
X100274285Y-84544723D01*
X100274285Y-84544723D02*
X100321904Y-84354247D01*
X100321904Y-84354247D02*
X100321904Y-84211390D01*
X100321904Y-84211390D02*
X100274285Y-84020914D01*
X100274285Y-84020914D02*
X100226666Y-83925676D01*
X100226666Y-83925676D02*
X100131428Y-83830438D01*
X100131428Y-83830438D02*
X99988571Y-83782819D01*
X99988571Y-83782819D02*
X99893333Y-83782819D01*
X99893333Y-83782819D02*
X99750476Y-83830438D01*
X99750476Y-83830438D02*
X99702857Y-83878057D01*
X98750476Y-84782819D02*
X99321904Y-84782819D01*
X99036190Y-84782819D02*
X99036190Y-83782819D01*
X99036190Y-83782819D02*
X99131428Y-83925676D01*
X99131428Y-83925676D02*
X99226666Y-84020914D01*
X99226666Y-84020914D02*
X99321904Y-84068533D01*
X98369523Y-83878057D02*
X98321904Y-83830438D01*
X98321904Y-83830438D02*
X98226666Y-83782819D01*
X98226666Y-83782819D02*
X97988571Y-83782819D01*
X97988571Y-83782819D02*
X97893333Y-83830438D01*
X97893333Y-83830438D02*
X97845714Y-83878057D01*
X97845714Y-83878057D02*
X97798095Y-83973295D01*
X97798095Y-83973295D02*
X97798095Y-84068533D01*
X97798095Y-84068533D02*
X97845714Y-84211390D01*
X97845714Y-84211390D02*
X98417142Y-84782819D01*
X98417142Y-84782819D02*
X97798095Y-84782819D01*
X186570857Y-74527580D02*
X186618476Y-74575200D01*
X186618476Y-74575200D02*
X186761333Y-74622819D01*
X186761333Y-74622819D02*
X186856571Y-74622819D01*
X186856571Y-74622819D02*
X186999428Y-74575200D01*
X186999428Y-74575200D02*
X187094666Y-74479961D01*
X187094666Y-74479961D02*
X187142285Y-74384723D01*
X187142285Y-74384723D02*
X187189904Y-74194247D01*
X187189904Y-74194247D02*
X187189904Y-74051390D01*
X187189904Y-74051390D02*
X187142285Y-73860914D01*
X187142285Y-73860914D02*
X187094666Y-73765676D01*
X187094666Y-73765676D02*
X186999428Y-73670438D01*
X186999428Y-73670438D02*
X186856571Y-73622819D01*
X186856571Y-73622819D02*
X186761333Y-73622819D01*
X186761333Y-73622819D02*
X186618476Y-73670438D01*
X186618476Y-73670438D02*
X186570857Y-73718057D01*
X186237523Y-73622819D02*
X185618476Y-73622819D01*
X185618476Y-73622819D02*
X185951809Y-74003771D01*
X185951809Y-74003771D02*
X185808952Y-74003771D01*
X185808952Y-74003771D02*
X185713714Y-74051390D01*
X185713714Y-74051390D02*
X185666095Y-74099009D01*
X185666095Y-74099009D02*
X185618476Y-74194247D01*
X185618476Y-74194247D02*
X185618476Y-74432342D01*
X185618476Y-74432342D02*
X185666095Y-74527580D01*
X185666095Y-74527580D02*
X185713714Y-74575200D01*
X185713714Y-74575200D02*
X185808952Y-74622819D01*
X185808952Y-74622819D02*
X186094666Y-74622819D01*
X186094666Y-74622819D02*
X186189904Y-74575200D01*
X186189904Y-74575200D02*
X186237523Y-74527580D01*
X184666095Y-74622819D02*
X185237523Y-74622819D01*
X184951809Y-74622819D02*
X184951809Y-73622819D01*
X184951809Y-73622819D02*
X185047047Y-73765676D01*
X185047047Y-73765676D02*
X185142285Y-73860914D01*
X185142285Y-73860914D02*
X185237523Y-73908533D01*
X107896819Y-138041142D02*
X107420628Y-137707809D01*
X107896819Y-137469714D02*
X106896819Y-137469714D01*
X106896819Y-137469714D02*
X106896819Y-137850666D01*
X106896819Y-137850666D02*
X106944438Y-137945904D01*
X106944438Y-137945904D02*
X106992057Y-137993523D01*
X106992057Y-137993523D02*
X107087295Y-138041142D01*
X107087295Y-138041142D02*
X107230152Y-138041142D01*
X107230152Y-138041142D02*
X107325390Y-137993523D01*
X107325390Y-137993523D02*
X107373009Y-137945904D01*
X107373009Y-137945904D02*
X107420628Y-137850666D01*
X107420628Y-137850666D02*
X107420628Y-137469714D01*
X107896819Y-138993523D02*
X107896819Y-138422095D01*
X107896819Y-138707809D02*
X106896819Y-138707809D01*
X106896819Y-138707809D02*
X107039676Y-138612571D01*
X107039676Y-138612571D02*
X107134914Y-138517333D01*
X107134914Y-138517333D02*
X107182533Y-138422095D01*
X106896819Y-139612571D02*
X106896819Y-139707809D01*
X106896819Y-139707809D02*
X106944438Y-139803047D01*
X106944438Y-139803047D02*
X106992057Y-139850666D01*
X106992057Y-139850666D02*
X107087295Y-139898285D01*
X107087295Y-139898285D02*
X107277771Y-139945904D01*
X107277771Y-139945904D02*
X107515866Y-139945904D01*
X107515866Y-139945904D02*
X107706342Y-139898285D01*
X107706342Y-139898285D02*
X107801580Y-139850666D01*
X107801580Y-139850666D02*
X107849200Y-139803047D01*
X107849200Y-139803047D02*
X107896819Y-139707809D01*
X107896819Y-139707809D02*
X107896819Y-139612571D01*
X107896819Y-139612571D02*
X107849200Y-139517333D01*
X107849200Y-139517333D02*
X107801580Y-139469714D01*
X107801580Y-139469714D02*
X107706342Y-139422095D01*
X107706342Y-139422095D02*
X107515866Y-139374476D01*
X107515866Y-139374476D02*
X107277771Y-139374476D01*
X107277771Y-139374476D02*
X107087295Y-139422095D01*
X107087295Y-139422095D02*
X106992057Y-139469714D01*
X106992057Y-139469714D02*
X106944438Y-139517333D01*
X106944438Y-139517333D02*
X106896819Y-139612571D01*
X124914819Y-98925142D02*
X124438628Y-98591809D01*
X124914819Y-98353714D02*
X123914819Y-98353714D01*
X123914819Y-98353714D02*
X123914819Y-98734666D01*
X123914819Y-98734666D02*
X123962438Y-98829904D01*
X123962438Y-98829904D02*
X124010057Y-98877523D01*
X124010057Y-98877523D02*
X124105295Y-98925142D01*
X124105295Y-98925142D02*
X124248152Y-98925142D01*
X124248152Y-98925142D02*
X124343390Y-98877523D01*
X124343390Y-98877523D02*
X124391009Y-98829904D01*
X124391009Y-98829904D02*
X124438628Y-98734666D01*
X124438628Y-98734666D02*
X124438628Y-98353714D01*
X124914819Y-99877523D02*
X124914819Y-99306095D01*
X124914819Y-99591809D02*
X123914819Y-99591809D01*
X123914819Y-99591809D02*
X124057676Y-99496571D01*
X124057676Y-99496571D02*
X124152914Y-99401333D01*
X124152914Y-99401333D02*
X124200533Y-99306095D01*
X124010057Y-100258476D02*
X123962438Y-100306095D01*
X123962438Y-100306095D02*
X123914819Y-100401333D01*
X123914819Y-100401333D02*
X123914819Y-100639428D01*
X123914819Y-100639428D02*
X123962438Y-100734666D01*
X123962438Y-100734666D02*
X124010057Y-100782285D01*
X124010057Y-100782285D02*
X124105295Y-100829904D01*
X124105295Y-100829904D02*
X124200533Y-100829904D01*
X124200533Y-100829904D02*
X124343390Y-100782285D01*
X124343390Y-100782285D02*
X124914819Y-100210857D01*
X124914819Y-100210857D02*
X124914819Y-100829904D01*
X153582666Y-83258819D02*
X153915999Y-82782628D01*
X154154094Y-83258819D02*
X154154094Y-82258819D01*
X154154094Y-82258819D02*
X153773142Y-82258819D01*
X153773142Y-82258819D02*
X153677904Y-82306438D01*
X153677904Y-82306438D02*
X153630285Y-82354057D01*
X153630285Y-82354057D02*
X153582666Y-82449295D01*
X153582666Y-82449295D02*
X153582666Y-82592152D01*
X153582666Y-82592152D02*
X153630285Y-82687390D01*
X153630285Y-82687390D02*
X153677904Y-82735009D01*
X153677904Y-82735009D02*
X153773142Y-82782628D01*
X153773142Y-82782628D02*
X154154094Y-82782628D01*
X152677904Y-82258819D02*
X153154094Y-82258819D01*
X153154094Y-82258819D02*
X153201713Y-82735009D01*
X153201713Y-82735009D02*
X153154094Y-82687390D01*
X153154094Y-82687390D02*
X153058856Y-82639771D01*
X153058856Y-82639771D02*
X152820761Y-82639771D01*
X152820761Y-82639771D02*
X152725523Y-82687390D01*
X152725523Y-82687390D02*
X152677904Y-82735009D01*
X152677904Y-82735009D02*
X152630285Y-82830247D01*
X152630285Y-82830247D02*
X152630285Y-83068342D01*
X152630285Y-83068342D02*
X152677904Y-83163580D01*
X152677904Y-83163580D02*
X152725523Y-83211200D01*
X152725523Y-83211200D02*
X152820761Y-83258819D01*
X152820761Y-83258819D02*
X153058856Y-83258819D01*
X153058856Y-83258819D02*
X153154094Y-83211200D01*
X153154094Y-83211200D02*
X153201713Y-83163580D01*
X99734666Y-86973580D02*
X99782285Y-87021200D01*
X99782285Y-87021200D02*
X99925142Y-87068819D01*
X99925142Y-87068819D02*
X100020380Y-87068819D01*
X100020380Y-87068819D02*
X100163237Y-87021200D01*
X100163237Y-87021200D02*
X100258475Y-86925961D01*
X100258475Y-86925961D02*
X100306094Y-86830723D01*
X100306094Y-86830723D02*
X100353713Y-86640247D01*
X100353713Y-86640247D02*
X100353713Y-86497390D01*
X100353713Y-86497390D02*
X100306094Y-86306914D01*
X100306094Y-86306914D02*
X100258475Y-86211676D01*
X100258475Y-86211676D02*
X100163237Y-86116438D01*
X100163237Y-86116438D02*
X100020380Y-86068819D01*
X100020380Y-86068819D02*
X99925142Y-86068819D01*
X99925142Y-86068819D02*
X99782285Y-86116438D01*
X99782285Y-86116438D02*
X99734666Y-86164057D01*
X98877523Y-86402152D02*
X98877523Y-87068819D01*
X99115618Y-86021200D02*
X99353713Y-86735485D01*
X99353713Y-86735485D02*
X98734666Y-86735485D01*
X113672857Y-97895580D02*
X113720476Y-97943200D01*
X113720476Y-97943200D02*
X113863333Y-97990819D01*
X113863333Y-97990819D02*
X113958571Y-97990819D01*
X113958571Y-97990819D02*
X114101428Y-97943200D01*
X114101428Y-97943200D02*
X114196666Y-97847961D01*
X114196666Y-97847961D02*
X114244285Y-97752723D01*
X114244285Y-97752723D02*
X114291904Y-97562247D01*
X114291904Y-97562247D02*
X114291904Y-97419390D01*
X114291904Y-97419390D02*
X114244285Y-97228914D01*
X114244285Y-97228914D02*
X114196666Y-97133676D01*
X114196666Y-97133676D02*
X114101428Y-97038438D01*
X114101428Y-97038438D02*
X113958571Y-96990819D01*
X113958571Y-96990819D02*
X113863333Y-96990819D01*
X113863333Y-96990819D02*
X113720476Y-97038438D01*
X113720476Y-97038438D02*
X113672857Y-97086057D01*
X113291904Y-97086057D02*
X113244285Y-97038438D01*
X113244285Y-97038438D02*
X113149047Y-96990819D01*
X113149047Y-96990819D02*
X112910952Y-96990819D01*
X112910952Y-96990819D02*
X112815714Y-97038438D01*
X112815714Y-97038438D02*
X112768095Y-97086057D01*
X112768095Y-97086057D02*
X112720476Y-97181295D01*
X112720476Y-97181295D02*
X112720476Y-97276533D01*
X112720476Y-97276533D02*
X112768095Y-97419390D01*
X112768095Y-97419390D02*
X113339523Y-97990819D01*
X113339523Y-97990819D02*
X112720476Y-97990819D01*
X111863333Y-96990819D02*
X112053809Y-96990819D01*
X112053809Y-96990819D02*
X112149047Y-97038438D01*
X112149047Y-97038438D02*
X112196666Y-97086057D01*
X112196666Y-97086057D02*
X112291904Y-97228914D01*
X112291904Y-97228914D02*
X112339523Y-97419390D01*
X112339523Y-97419390D02*
X112339523Y-97800342D01*
X112339523Y-97800342D02*
X112291904Y-97895580D01*
X112291904Y-97895580D02*
X112244285Y-97943200D01*
X112244285Y-97943200D02*
X112149047Y-97990819D01*
X112149047Y-97990819D02*
X111958571Y-97990819D01*
X111958571Y-97990819D02*
X111863333Y-97943200D01*
X111863333Y-97943200D02*
X111815714Y-97895580D01*
X111815714Y-97895580D02*
X111768095Y-97800342D01*
X111768095Y-97800342D02*
X111768095Y-97562247D01*
X111768095Y-97562247D02*
X111815714Y-97467009D01*
X111815714Y-97467009D02*
X111863333Y-97419390D01*
X111863333Y-97419390D02*
X111958571Y-97371771D01*
X111958571Y-97371771D02*
X112149047Y-97371771D01*
X112149047Y-97371771D02*
X112244285Y-97419390D01*
X112244285Y-97419390D02*
X112291904Y-97467009D01*
X112291904Y-97467009D02*
X112339523Y-97562247D01*
X122787580Y-97401142D02*
X122835200Y-97353523D01*
X122835200Y-97353523D02*
X122882819Y-97210666D01*
X122882819Y-97210666D02*
X122882819Y-97115428D01*
X122882819Y-97115428D02*
X122835200Y-96972571D01*
X122835200Y-96972571D02*
X122739961Y-96877333D01*
X122739961Y-96877333D02*
X122644723Y-96829714D01*
X122644723Y-96829714D02*
X122454247Y-96782095D01*
X122454247Y-96782095D02*
X122311390Y-96782095D01*
X122311390Y-96782095D02*
X122120914Y-96829714D01*
X122120914Y-96829714D02*
X122025676Y-96877333D01*
X122025676Y-96877333D02*
X121930438Y-96972571D01*
X121930438Y-96972571D02*
X121882819Y-97115428D01*
X121882819Y-97115428D02*
X121882819Y-97210666D01*
X121882819Y-97210666D02*
X121930438Y-97353523D01*
X121930438Y-97353523D02*
X121978057Y-97401142D01*
X121978057Y-97782095D02*
X121930438Y-97829714D01*
X121930438Y-97829714D02*
X121882819Y-97924952D01*
X121882819Y-97924952D02*
X121882819Y-98163047D01*
X121882819Y-98163047D02*
X121930438Y-98258285D01*
X121930438Y-98258285D02*
X121978057Y-98305904D01*
X121978057Y-98305904D02*
X122073295Y-98353523D01*
X122073295Y-98353523D02*
X122168533Y-98353523D01*
X122168533Y-98353523D02*
X122311390Y-98305904D01*
X122311390Y-98305904D02*
X122882819Y-97734476D01*
X122882819Y-97734476D02*
X122882819Y-98353523D01*
X122882819Y-98829714D02*
X122882819Y-99020190D01*
X122882819Y-99020190D02*
X122835200Y-99115428D01*
X122835200Y-99115428D02*
X122787580Y-99163047D01*
X122787580Y-99163047D02*
X122644723Y-99258285D01*
X122644723Y-99258285D02*
X122454247Y-99305904D01*
X122454247Y-99305904D02*
X122073295Y-99305904D01*
X122073295Y-99305904D02*
X121978057Y-99258285D01*
X121978057Y-99258285D02*
X121930438Y-99210666D01*
X121930438Y-99210666D02*
X121882819Y-99115428D01*
X121882819Y-99115428D02*
X121882819Y-98924952D01*
X121882819Y-98924952D02*
X121930438Y-98829714D01*
X121930438Y-98829714D02*
X121978057Y-98782095D01*
X121978057Y-98782095D02*
X122073295Y-98734476D01*
X122073295Y-98734476D02*
X122311390Y-98734476D01*
X122311390Y-98734476D02*
X122406628Y-98782095D01*
X122406628Y-98782095D02*
X122454247Y-98829714D01*
X122454247Y-98829714D02*
X122501866Y-98924952D01*
X122501866Y-98924952D02*
X122501866Y-99115428D01*
X122501866Y-99115428D02*
X122454247Y-99210666D01*
X122454247Y-99210666D02*
X122406628Y-99258285D01*
X122406628Y-99258285D02*
X122311390Y-99305904D01*
X130182857Y-96466819D02*
X130516190Y-95990628D01*
X130754285Y-96466819D02*
X130754285Y-95466819D01*
X130754285Y-95466819D02*
X130373333Y-95466819D01*
X130373333Y-95466819D02*
X130278095Y-95514438D01*
X130278095Y-95514438D02*
X130230476Y-95562057D01*
X130230476Y-95562057D02*
X130182857Y-95657295D01*
X130182857Y-95657295D02*
X130182857Y-95800152D01*
X130182857Y-95800152D02*
X130230476Y-95895390D01*
X130230476Y-95895390D02*
X130278095Y-95943009D01*
X130278095Y-95943009D02*
X130373333Y-95990628D01*
X130373333Y-95990628D02*
X130754285Y-95990628D01*
X129230476Y-96466819D02*
X129801904Y-96466819D01*
X129516190Y-96466819D02*
X129516190Y-95466819D01*
X129516190Y-95466819D02*
X129611428Y-95609676D01*
X129611428Y-95609676D02*
X129706666Y-95704914D01*
X129706666Y-95704914D02*
X129801904Y-95752533D01*
X128278095Y-96466819D02*
X128849523Y-96466819D01*
X128563809Y-96466819D02*
X128563809Y-95466819D01*
X128563809Y-95466819D02*
X128659047Y-95609676D01*
X128659047Y-95609676D02*
X128754285Y-95704914D01*
X128754285Y-95704914D02*
X128849523Y-95752533D01*
X109630380Y-97248742D02*
X109678000Y-97201123D01*
X109678000Y-97201123D02*
X109725619Y-97058266D01*
X109725619Y-97058266D02*
X109725619Y-96963028D01*
X109725619Y-96963028D02*
X109678000Y-96820171D01*
X109678000Y-96820171D02*
X109582761Y-96724933D01*
X109582761Y-96724933D02*
X109487523Y-96677314D01*
X109487523Y-96677314D02*
X109297047Y-96629695D01*
X109297047Y-96629695D02*
X109154190Y-96629695D01*
X109154190Y-96629695D02*
X108963714Y-96677314D01*
X108963714Y-96677314D02*
X108868476Y-96724933D01*
X108868476Y-96724933D02*
X108773238Y-96820171D01*
X108773238Y-96820171D02*
X108725619Y-96963028D01*
X108725619Y-96963028D02*
X108725619Y-97058266D01*
X108725619Y-97058266D02*
X108773238Y-97201123D01*
X108773238Y-97201123D02*
X108820857Y-97248742D01*
X108820857Y-97629695D02*
X108773238Y-97677314D01*
X108773238Y-97677314D02*
X108725619Y-97772552D01*
X108725619Y-97772552D02*
X108725619Y-98010647D01*
X108725619Y-98010647D02*
X108773238Y-98105885D01*
X108773238Y-98105885D02*
X108820857Y-98153504D01*
X108820857Y-98153504D02*
X108916095Y-98201123D01*
X108916095Y-98201123D02*
X109011333Y-98201123D01*
X109011333Y-98201123D02*
X109154190Y-98153504D01*
X109154190Y-98153504D02*
X109725619Y-97582076D01*
X109725619Y-97582076D02*
X109725619Y-98201123D01*
X108725619Y-99105885D02*
X108725619Y-98629695D01*
X108725619Y-98629695D02*
X109201809Y-98582076D01*
X109201809Y-98582076D02*
X109154190Y-98629695D01*
X109154190Y-98629695D02*
X109106571Y-98724933D01*
X109106571Y-98724933D02*
X109106571Y-98963028D01*
X109106571Y-98963028D02*
X109154190Y-99058266D01*
X109154190Y-99058266D02*
X109201809Y-99105885D01*
X109201809Y-99105885D02*
X109297047Y-99153504D01*
X109297047Y-99153504D02*
X109535142Y-99153504D01*
X109535142Y-99153504D02*
X109630380Y-99105885D01*
X109630380Y-99105885D02*
X109678000Y-99058266D01*
X109678000Y-99058266D02*
X109725619Y-98963028D01*
X109725619Y-98963028D02*
X109725619Y-98724933D01*
X109725619Y-98724933D02*
X109678000Y-98629695D01*
X109678000Y-98629695D02*
X109630380Y-98582076D01*
X107329580Y-89019142D02*
X107377200Y-88971523D01*
X107377200Y-88971523D02*
X107424819Y-88828666D01*
X107424819Y-88828666D02*
X107424819Y-88733428D01*
X107424819Y-88733428D02*
X107377200Y-88590571D01*
X107377200Y-88590571D02*
X107281961Y-88495333D01*
X107281961Y-88495333D02*
X107186723Y-88447714D01*
X107186723Y-88447714D02*
X106996247Y-88400095D01*
X106996247Y-88400095D02*
X106853390Y-88400095D01*
X106853390Y-88400095D02*
X106662914Y-88447714D01*
X106662914Y-88447714D02*
X106567676Y-88495333D01*
X106567676Y-88495333D02*
X106472438Y-88590571D01*
X106472438Y-88590571D02*
X106424819Y-88733428D01*
X106424819Y-88733428D02*
X106424819Y-88828666D01*
X106424819Y-88828666D02*
X106472438Y-88971523D01*
X106472438Y-88971523D02*
X106520057Y-89019142D01*
X107424819Y-89971523D02*
X107424819Y-89400095D01*
X107424819Y-89685809D02*
X106424819Y-89685809D01*
X106424819Y-89685809D02*
X106567676Y-89590571D01*
X106567676Y-89590571D02*
X106662914Y-89495333D01*
X106662914Y-89495333D02*
X106710533Y-89400095D01*
X107424819Y-90923904D02*
X107424819Y-90352476D01*
X107424819Y-90638190D02*
X106424819Y-90638190D01*
X106424819Y-90638190D02*
X106567676Y-90542952D01*
X106567676Y-90542952D02*
X106662914Y-90447714D01*
X106662914Y-90447714D02*
X106710533Y-90352476D01*
X113317257Y-91901180D02*
X113364876Y-91948800D01*
X113364876Y-91948800D02*
X113507733Y-91996419D01*
X113507733Y-91996419D02*
X113602971Y-91996419D01*
X113602971Y-91996419D02*
X113745828Y-91948800D01*
X113745828Y-91948800D02*
X113841066Y-91853561D01*
X113841066Y-91853561D02*
X113888685Y-91758323D01*
X113888685Y-91758323D02*
X113936304Y-91567847D01*
X113936304Y-91567847D02*
X113936304Y-91424990D01*
X113936304Y-91424990D02*
X113888685Y-91234514D01*
X113888685Y-91234514D02*
X113841066Y-91139276D01*
X113841066Y-91139276D02*
X113745828Y-91044038D01*
X113745828Y-91044038D02*
X113602971Y-90996419D01*
X113602971Y-90996419D02*
X113507733Y-90996419D01*
X113507733Y-90996419D02*
X113364876Y-91044038D01*
X113364876Y-91044038D02*
X113317257Y-91091657D01*
X112936304Y-91091657D02*
X112888685Y-91044038D01*
X112888685Y-91044038D02*
X112793447Y-90996419D01*
X112793447Y-90996419D02*
X112555352Y-90996419D01*
X112555352Y-90996419D02*
X112460114Y-91044038D01*
X112460114Y-91044038D02*
X112412495Y-91091657D01*
X112412495Y-91091657D02*
X112364876Y-91186895D01*
X112364876Y-91186895D02*
X112364876Y-91282133D01*
X112364876Y-91282133D02*
X112412495Y-91424990D01*
X112412495Y-91424990D02*
X112983923Y-91996419D01*
X112983923Y-91996419D02*
X112364876Y-91996419D01*
X112031542Y-90996419D02*
X111364876Y-90996419D01*
X111364876Y-90996419D02*
X111793447Y-91996419D01*
X126968238Y-89069057D02*
X127063476Y-89021438D01*
X127063476Y-89021438D02*
X127158714Y-88926200D01*
X127158714Y-88926200D02*
X127301571Y-88783342D01*
X127301571Y-88783342D02*
X127396809Y-88735723D01*
X127396809Y-88735723D02*
X127492047Y-88735723D01*
X127444428Y-88973819D02*
X127539666Y-88926200D01*
X127539666Y-88926200D02*
X127634904Y-88830961D01*
X127634904Y-88830961D02*
X127682523Y-88640485D01*
X127682523Y-88640485D02*
X127682523Y-88307152D01*
X127682523Y-88307152D02*
X127634904Y-88116676D01*
X127634904Y-88116676D02*
X127539666Y-88021438D01*
X127539666Y-88021438D02*
X127444428Y-87973819D01*
X127444428Y-87973819D02*
X127253952Y-87973819D01*
X127253952Y-87973819D02*
X127158714Y-88021438D01*
X127158714Y-88021438D02*
X127063476Y-88116676D01*
X127063476Y-88116676D02*
X127015857Y-88307152D01*
X127015857Y-88307152D02*
X127015857Y-88640485D01*
X127015857Y-88640485D02*
X127063476Y-88830961D01*
X127063476Y-88830961D02*
X127158714Y-88926200D01*
X127158714Y-88926200D02*
X127253952Y-88973819D01*
X127253952Y-88973819D02*
X127444428Y-88973819D01*
X126063476Y-88973819D02*
X126634904Y-88973819D01*
X126349190Y-88973819D02*
X126349190Y-87973819D01*
X126349190Y-87973819D02*
X126444428Y-88116676D01*
X126444428Y-88116676D02*
X126539666Y-88211914D01*
X126539666Y-88211914D02*
X126634904Y-88259533D01*
X162377857Y-93164819D02*
X162711190Y-92688628D01*
X162949285Y-93164819D02*
X162949285Y-92164819D01*
X162949285Y-92164819D02*
X162568333Y-92164819D01*
X162568333Y-92164819D02*
X162473095Y-92212438D01*
X162473095Y-92212438D02*
X162425476Y-92260057D01*
X162425476Y-92260057D02*
X162377857Y-92355295D01*
X162377857Y-92355295D02*
X162377857Y-92498152D01*
X162377857Y-92498152D02*
X162425476Y-92593390D01*
X162425476Y-92593390D02*
X162473095Y-92641009D01*
X162473095Y-92641009D02*
X162568333Y-92688628D01*
X162568333Y-92688628D02*
X162949285Y-92688628D01*
X161425476Y-93164819D02*
X161996904Y-93164819D01*
X161711190Y-93164819D02*
X161711190Y-92164819D01*
X161711190Y-92164819D02*
X161806428Y-92307676D01*
X161806428Y-92307676D02*
X161901666Y-92402914D01*
X161901666Y-92402914D02*
X161996904Y-92450533D01*
X160568333Y-92164819D02*
X160758809Y-92164819D01*
X160758809Y-92164819D02*
X160854047Y-92212438D01*
X160854047Y-92212438D02*
X160901666Y-92260057D01*
X160901666Y-92260057D02*
X160996904Y-92402914D01*
X160996904Y-92402914D02*
X161044523Y-92593390D01*
X161044523Y-92593390D02*
X161044523Y-92974342D01*
X161044523Y-92974342D02*
X160996904Y-93069580D01*
X160996904Y-93069580D02*
X160949285Y-93117200D01*
X160949285Y-93117200D02*
X160854047Y-93164819D01*
X160854047Y-93164819D02*
X160663571Y-93164819D01*
X160663571Y-93164819D02*
X160568333Y-93117200D01*
X160568333Y-93117200D02*
X160520714Y-93069580D01*
X160520714Y-93069580D02*
X160473095Y-92974342D01*
X160473095Y-92974342D02*
X160473095Y-92736247D01*
X160473095Y-92736247D02*
X160520714Y-92641009D01*
X160520714Y-92641009D02*
X160568333Y-92593390D01*
X160568333Y-92593390D02*
X160663571Y-92545771D01*
X160663571Y-92545771D02*
X160854047Y-92545771D01*
X160854047Y-92545771D02*
X160949285Y-92593390D01*
X160949285Y-92593390D02*
X160996904Y-92641009D01*
X160996904Y-92641009D02*
X161044523Y-92736247D01*
X221276057Y-84740761D02*
X221228438Y-84645523D01*
X221228438Y-84645523D02*
X221133200Y-84550285D01*
X221133200Y-84550285D02*
X220990342Y-84407428D01*
X220990342Y-84407428D02*
X220942723Y-84312190D01*
X220942723Y-84312190D02*
X220942723Y-84216952D01*
X221180819Y-84264571D02*
X221133200Y-84169333D01*
X221133200Y-84169333D02*
X221037961Y-84074095D01*
X221037961Y-84074095D02*
X220847485Y-84026476D01*
X220847485Y-84026476D02*
X220514152Y-84026476D01*
X220514152Y-84026476D02*
X220323676Y-84074095D01*
X220323676Y-84074095D02*
X220228438Y-84169333D01*
X220228438Y-84169333D02*
X220180819Y-84264571D01*
X220180819Y-84264571D02*
X220180819Y-84455047D01*
X220180819Y-84455047D02*
X220228438Y-84550285D01*
X220228438Y-84550285D02*
X220323676Y-84645523D01*
X220323676Y-84645523D02*
X220514152Y-84693142D01*
X220514152Y-84693142D02*
X220847485Y-84693142D01*
X220847485Y-84693142D02*
X221037961Y-84645523D01*
X221037961Y-84645523D02*
X221133200Y-84550285D01*
X221133200Y-84550285D02*
X221180819Y-84455047D01*
X221180819Y-84455047D02*
X221180819Y-84264571D01*
X220276057Y-85074095D02*
X220228438Y-85121714D01*
X220228438Y-85121714D02*
X220180819Y-85216952D01*
X220180819Y-85216952D02*
X220180819Y-85455047D01*
X220180819Y-85455047D02*
X220228438Y-85550285D01*
X220228438Y-85550285D02*
X220276057Y-85597904D01*
X220276057Y-85597904D02*
X220371295Y-85645523D01*
X220371295Y-85645523D02*
X220466533Y-85645523D01*
X220466533Y-85645523D02*
X220609390Y-85597904D01*
X220609390Y-85597904D02*
X221180819Y-85026476D01*
X221180819Y-85026476D02*
X221180819Y-85645523D01*
X106429980Y-97401142D02*
X106477600Y-97353523D01*
X106477600Y-97353523D02*
X106525219Y-97210666D01*
X106525219Y-97210666D02*
X106525219Y-97115428D01*
X106525219Y-97115428D02*
X106477600Y-96972571D01*
X106477600Y-96972571D02*
X106382361Y-96877333D01*
X106382361Y-96877333D02*
X106287123Y-96829714D01*
X106287123Y-96829714D02*
X106096647Y-96782095D01*
X106096647Y-96782095D02*
X105953790Y-96782095D01*
X105953790Y-96782095D02*
X105763314Y-96829714D01*
X105763314Y-96829714D02*
X105668076Y-96877333D01*
X105668076Y-96877333D02*
X105572838Y-96972571D01*
X105572838Y-96972571D02*
X105525219Y-97115428D01*
X105525219Y-97115428D02*
X105525219Y-97210666D01*
X105525219Y-97210666D02*
X105572838Y-97353523D01*
X105572838Y-97353523D02*
X105620457Y-97401142D01*
X105620457Y-97782095D02*
X105572838Y-97829714D01*
X105572838Y-97829714D02*
X105525219Y-97924952D01*
X105525219Y-97924952D02*
X105525219Y-98163047D01*
X105525219Y-98163047D02*
X105572838Y-98258285D01*
X105572838Y-98258285D02*
X105620457Y-98305904D01*
X105620457Y-98305904D02*
X105715695Y-98353523D01*
X105715695Y-98353523D02*
X105810933Y-98353523D01*
X105810933Y-98353523D02*
X105953790Y-98305904D01*
X105953790Y-98305904D02*
X106525219Y-97734476D01*
X106525219Y-97734476D02*
X106525219Y-98353523D01*
X105858552Y-99210666D02*
X106525219Y-99210666D01*
X105477600Y-98972571D02*
X106191885Y-98734476D01*
X106191885Y-98734476D02*
X106191885Y-99353523D01*
X120358819Y-81256476D02*
X121358819Y-81923142D01*
X120358819Y-81923142D02*
X121358819Y-81256476D01*
X121358819Y-82827904D02*
X121358819Y-82256476D01*
X121358819Y-82542190D02*
X120358819Y-82542190D01*
X120358819Y-82542190D02*
X120501676Y-82446952D01*
X120501676Y-82446952D02*
X120596914Y-82351714D01*
X120596914Y-82351714D02*
X120644533Y-82256476D01*
X102106819Y-78331095D02*
X102916342Y-78331095D01*
X102916342Y-78331095D02*
X103011580Y-78378714D01*
X103011580Y-78378714D02*
X103059200Y-78426333D01*
X103059200Y-78426333D02*
X103106819Y-78521571D01*
X103106819Y-78521571D02*
X103106819Y-78712047D01*
X103106819Y-78712047D02*
X103059200Y-78807285D01*
X103059200Y-78807285D02*
X103011580Y-78854904D01*
X103011580Y-78854904D02*
X102916342Y-78902523D01*
X102916342Y-78902523D02*
X102106819Y-78902523D01*
X102106819Y-79283476D02*
X102106819Y-79902523D01*
X102106819Y-79902523D02*
X102487771Y-79569190D01*
X102487771Y-79569190D02*
X102487771Y-79712047D01*
X102487771Y-79712047D02*
X102535390Y-79807285D01*
X102535390Y-79807285D02*
X102583009Y-79854904D01*
X102583009Y-79854904D02*
X102678247Y-79902523D01*
X102678247Y-79902523D02*
X102916342Y-79902523D01*
X102916342Y-79902523D02*
X103011580Y-79854904D01*
X103011580Y-79854904D02*
X103059200Y-79807285D01*
X103059200Y-79807285D02*
X103106819Y-79712047D01*
X103106819Y-79712047D02*
X103106819Y-79426333D01*
X103106819Y-79426333D02*
X103059200Y-79331095D01*
X103059200Y-79331095D02*
X103011580Y-79283476D01*
X132818094Y-93164819D02*
X132818094Y-92164819D01*
X132818094Y-92164819D02*
X132579999Y-92164819D01*
X132579999Y-92164819D02*
X132437142Y-92212438D01*
X132437142Y-92212438D02*
X132341904Y-92307676D01*
X132341904Y-92307676D02*
X132294285Y-92402914D01*
X132294285Y-92402914D02*
X132246666Y-92593390D01*
X132246666Y-92593390D02*
X132246666Y-92736247D01*
X132246666Y-92736247D02*
X132294285Y-92926723D01*
X132294285Y-92926723D02*
X132341904Y-93021961D01*
X132341904Y-93021961D02*
X132437142Y-93117200D01*
X132437142Y-93117200D02*
X132579999Y-93164819D01*
X132579999Y-93164819D02*
X132818094Y-93164819D01*
X131865713Y-92260057D02*
X131818094Y-92212438D01*
X131818094Y-92212438D02*
X131722856Y-92164819D01*
X131722856Y-92164819D02*
X131484761Y-92164819D01*
X131484761Y-92164819D02*
X131389523Y-92212438D01*
X131389523Y-92212438D02*
X131341904Y-92260057D01*
X131341904Y-92260057D02*
X131294285Y-92355295D01*
X131294285Y-92355295D02*
X131294285Y-92450533D01*
X131294285Y-92450533D02*
X131341904Y-92593390D01*
X131341904Y-92593390D02*
X131913332Y-93164819D01*
X131913332Y-93164819D02*
X131294285Y-93164819D01*
X110370857Y-140821580D02*
X110418476Y-140869200D01*
X110418476Y-140869200D02*
X110561333Y-140916819D01*
X110561333Y-140916819D02*
X110656571Y-140916819D01*
X110656571Y-140916819D02*
X110799428Y-140869200D01*
X110799428Y-140869200D02*
X110894666Y-140773961D01*
X110894666Y-140773961D02*
X110942285Y-140678723D01*
X110942285Y-140678723D02*
X110989904Y-140488247D01*
X110989904Y-140488247D02*
X110989904Y-140345390D01*
X110989904Y-140345390D02*
X110942285Y-140154914D01*
X110942285Y-140154914D02*
X110894666Y-140059676D01*
X110894666Y-140059676D02*
X110799428Y-139964438D01*
X110799428Y-139964438D02*
X110656571Y-139916819D01*
X110656571Y-139916819D02*
X110561333Y-139916819D01*
X110561333Y-139916819D02*
X110418476Y-139964438D01*
X110418476Y-139964438D02*
X110370857Y-140012057D01*
X109989904Y-140012057D02*
X109942285Y-139964438D01*
X109942285Y-139964438D02*
X109847047Y-139916819D01*
X109847047Y-139916819D02*
X109608952Y-139916819D01*
X109608952Y-139916819D02*
X109513714Y-139964438D01*
X109513714Y-139964438D02*
X109466095Y-140012057D01*
X109466095Y-140012057D02*
X109418476Y-140107295D01*
X109418476Y-140107295D02*
X109418476Y-140202533D01*
X109418476Y-140202533D02*
X109466095Y-140345390D01*
X109466095Y-140345390D02*
X110037523Y-140916819D01*
X110037523Y-140916819D02*
X109418476Y-140916819D01*
X108799428Y-139916819D02*
X108704190Y-139916819D01*
X108704190Y-139916819D02*
X108608952Y-139964438D01*
X108608952Y-139964438D02*
X108561333Y-140012057D01*
X108561333Y-140012057D02*
X108513714Y-140107295D01*
X108513714Y-140107295D02*
X108466095Y-140297771D01*
X108466095Y-140297771D02*
X108466095Y-140535866D01*
X108466095Y-140535866D02*
X108513714Y-140726342D01*
X108513714Y-140726342D02*
X108561333Y-140821580D01*
X108561333Y-140821580D02*
X108608952Y-140869200D01*
X108608952Y-140869200D02*
X108704190Y-140916819D01*
X108704190Y-140916819D02*
X108799428Y-140916819D01*
X108799428Y-140916819D02*
X108894666Y-140869200D01*
X108894666Y-140869200D02*
X108942285Y-140821580D01*
X108942285Y-140821580D02*
X108989904Y-140726342D01*
X108989904Y-140726342D02*
X109037523Y-140535866D01*
X109037523Y-140535866D02*
X109037523Y-140297771D01*
X109037523Y-140297771D02*
X108989904Y-140107295D01*
X108989904Y-140107295D02*
X108942285Y-140012057D01*
X108942285Y-140012057D02*
X108894666Y-139964438D01*
X108894666Y-139964438D02*
X108799428Y-139916819D01*
X99702857Y-88497580D02*
X99750476Y-88545200D01*
X99750476Y-88545200D02*
X99893333Y-88592819D01*
X99893333Y-88592819D02*
X99988571Y-88592819D01*
X99988571Y-88592819D02*
X100131428Y-88545200D01*
X100131428Y-88545200D02*
X100226666Y-88449961D01*
X100226666Y-88449961D02*
X100274285Y-88354723D01*
X100274285Y-88354723D02*
X100321904Y-88164247D01*
X100321904Y-88164247D02*
X100321904Y-88021390D01*
X100321904Y-88021390D02*
X100274285Y-87830914D01*
X100274285Y-87830914D02*
X100226666Y-87735676D01*
X100226666Y-87735676D02*
X100131428Y-87640438D01*
X100131428Y-87640438D02*
X99988571Y-87592819D01*
X99988571Y-87592819D02*
X99893333Y-87592819D01*
X99893333Y-87592819D02*
X99750476Y-87640438D01*
X99750476Y-87640438D02*
X99702857Y-87688057D01*
X98750476Y-88592819D02*
X99321904Y-88592819D01*
X99036190Y-88592819D02*
X99036190Y-87592819D01*
X99036190Y-87592819D02*
X99131428Y-87735676D01*
X99131428Y-87735676D02*
X99226666Y-87830914D01*
X99226666Y-87830914D02*
X99321904Y-87878533D01*
X97893333Y-87926152D02*
X97893333Y-88592819D01*
X98131428Y-87545200D02*
X98369523Y-88259485D01*
X98369523Y-88259485D02*
X97750476Y-88259485D01*
X103483580Y-98925142D02*
X103531200Y-98877523D01*
X103531200Y-98877523D02*
X103578819Y-98734666D01*
X103578819Y-98734666D02*
X103578819Y-98639428D01*
X103578819Y-98639428D02*
X103531200Y-98496571D01*
X103531200Y-98496571D02*
X103435961Y-98401333D01*
X103435961Y-98401333D02*
X103340723Y-98353714D01*
X103340723Y-98353714D02*
X103150247Y-98306095D01*
X103150247Y-98306095D02*
X103007390Y-98306095D01*
X103007390Y-98306095D02*
X102816914Y-98353714D01*
X102816914Y-98353714D02*
X102721676Y-98401333D01*
X102721676Y-98401333D02*
X102626438Y-98496571D01*
X102626438Y-98496571D02*
X102578819Y-98639428D01*
X102578819Y-98639428D02*
X102578819Y-98734666D01*
X102578819Y-98734666D02*
X102626438Y-98877523D01*
X102626438Y-98877523D02*
X102674057Y-98925142D01*
X102674057Y-99306095D02*
X102626438Y-99353714D01*
X102626438Y-99353714D02*
X102578819Y-99448952D01*
X102578819Y-99448952D02*
X102578819Y-99687047D01*
X102578819Y-99687047D02*
X102626438Y-99782285D01*
X102626438Y-99782285D02*
X102674057Y-99829904D01*
X102674057Y-99829904D02*
X102769295Y-99877523D01*
X102769295Y-99877523D02*
X102864533Y-99877523D01*
X102864533Y-99877523D02*
X103007390Y-99829904D01*
X103007390Y-99829904D02*
X103578819Y-99258476D01*
X103578819Y-99258476D02*
X103578819Y-99877523D01*
X102674057Y-100258476D02*
X102626438Y-100306095D01*
X102626438Y-100306095D02*
X102578819Y-100401333D01*
X102578819Y-100401333D02*
X102578819Y-100639428D01*
X102578819Y-100639428D02*
X102626438Y-100734666D01*
X102626438Y-100734666D02*
X102674057Y-100782285D01*
X102674057Y-100782285D02*
X102769295Y-100829904D01*
X102769295Y-100829904D02*
X102864533Y-100829904D01*
X102864533Y-100829904D02*
X103007390Y-100782285D01*
X103007390Y-100782285D02*
X103578819Y-100210857D01*
X103578819Y-100210857D02*
X103578819Y-100829904D01*
X147774819Y-85228133D02*
X147298628Y-84894800D01*
X147774819Y-84656705D02*
X146774819Y-84656705D01*
X146774819Y-84656705D02*
X146774819Y-85037657D01*
X146774819Y-85037657D02*
X146822438Y-85132895D01*
X146822438Y-85132895D02*
X146870057Y-85180514D01*
X146870057Y-85180514D02*
X146965295Y-85228133D01*
X146965295Y-85228133D02*
X147108152Y-85228133D01*
X147108152Y-85228133D02*
X147203390Y-85180514D01*
X147203390Y-85180514D02*
X147251009Y-85132895D01*
X147251009Y-85132895D02*
X147298628Y-85037657D01*
X147298628Y-85037657D02*
X147298628Y-84656705D01*
X146774819Y-85561467D02*
X146774819Y-86180514D01*
X146774819Y-86180514D02*
X147155771Y-85847181D01*
X147155771Y-85847181D02*
X147155771Y-85990038D01*
X147155771Y-85990038D02*
X147203390Y-86085276D01*
X147203390Y-86085276D02*
X147251009Y-86132895D01*
X147251009Y-86132895D02*
X147346247Y-86180514D01*
X147346247Y-86180514D02*
X147584342Y-86180514D01*
X147584342Y-86180514D02*
X147679580Y-86132895D01*
X147679580Y-86132895D02*
X147727200Y-86085276D01*
X147727200Y-86085276D02*
X147774819Y-85990038D01*
X147774819Y-85990038D02*
X147774819Y-85704324D01*
X147774819Y-85704324D02*
X147727200Y-85609086D01*
X147727200Y-85609086D02*
X147679580Y-85561467D01*
X136503580Y-76573142D02*
X136551200Y-76525523D01*
X136551200Y-76525523D02*
X136598819Y-76382666D01*
X136598819Y-76382666D02*
X136598819Y-76287428D01*
X136598819Y-76287428D02*
X136551200Y-76144571D01*
X136551200Y-76144571D02*
X136455961Y-76049333D01*
X136455961Y-76049333D02*
X136360723Y-76001714D01*
X136360723Y-76001714D02*
X136170247Y-75954095D01*
X136170247Y-75954095D02*
X136027390Y-75954095D01*
X136027390Y-75954095D02*
X135836914Y-76001714D01*
X135836914Y-76001714D02*
X135741676Y-76049333D01*
X135741676Y-76049333D02*
X135646438Y-76144571D01*
X135646438Y-76144571D02*
X135598819Y-76287428D01*
X135598819Y-76287428D02*
X135598819Y-76382666D01*
X135598819Y-76382666D02*
X135646438Y-76525523D01*
X135646438Y-76525523D02*
X135694057Y-76573142D01*
X136598819Y-77525523D02*
X136598819Y-76954095D01*
X136598819Y-77239809D02*
X135598819Y-77239809D01*
X135598819Y-77239809D02*
X135741676Y-77144571D01*
X135741676Y-77144571D02*
X135836914Y-77049333D01*
X135836914Y-77049333D02*
X135884533Y-76954095D01*
X135598819Y-77858857D02*
X135598819Y-78477904D01*
X135598819Y-78477904D02*
X135979771Y-78144571D01*
X135979771Y-78144571D02*
X135979771Y-78287428D01*
X135979771Y-78287428D02*
X136027390Y-78382666D01*
X136027390Y-78382666D02*
X136075009Y-78430285D01*
X136075009Y-78430285D02*
X136170247Y-78477904D01*
X136170247Y-78477904D02*
X136408342Y-78477904D01*
X136408342Y-78477904D02*
X136503580Y-78430285D01*
X136503580Y-78430285D02*
X136551200Y-78382666D01*
X136551200Y-78382666D02*
X136598819Y-78287428D01*
X136598819Y-78287428D02*
X136598819Y-78001714D01*
X136598819Y-78001714D02*
X136551200Y-77906476D01*
X136551200Y-77906476D02*
X136503580Y-77858857D01*
X121358819Y-85177333D02*
X120882628Y-84844000D01*
X121358819Y-84605905D02*
X120358819Y-84605905D01*
X120358819Y-84605905D02*
X120358819Y-84986857D01*
X120358819Y-84986857D02*
X120406438Y-85082095D01*
X120406438Y-85082095D02*
X120454057Y-85129714D01*
X120454057Y-85129714D02*
X120549295Y-85177333D01*
X120549295Y-85177333D02*
X120692152Y-85177333D01*
X120692152Y-85177333D02*
X120787390Y-85129714D01*
X120787390Y-85129714D02*
X120835009Y-85082095D01*
X120835009Y-85082095D02*
X120882628Y-84986857D01*
X120882628Y-84986857D02*
X120882628Y-84605905D01*
X120358819Y-85510667D02*
X120358819Y-86177333D01*
X120358819Y-86177333D02*
X121358819Y-85748762D01*
X99702857Y-90021580D02*
X99750476Y-90069200D01*
X99750476Y-90069200D02*
X99893333Y-90116819D01*
X99893333Y-90116819D02*
X99988571Y-90116819D01*
X99988571Y-90116819D02*
X100131428Y-90069200D01*
X100131428Y-90069200D02*
X100226666Y-89973961D01*
X100226666Y-89973961D02*
X100274285Y-89878723D01*
X100274285Y-89878723D02*
X100321904Y-89688247D01*
X100321904Y-89688247D02*
X100321904Y-89545390D01*
X100321904Y-89545390D02*
X100274285Y-89354914D01*
X100274285Y-89354914D02*
X100226666Y-89259676D01*
X100226666Y-89259676D02*
X100131428Y-89164438D01*
X100131428Y-89164438D02*
X99988571Y-89116819D01*
X99988571Y-89116819D02*
X99893333Y-89116819D01*
X99893333Y-89116819D02*
X99750476Y-89164438D01*
X99750476Y-89164438D02*
X99702857Y-89212057D01*
X98750476Y-90116819D02*
X99321904Y-90116819D01*
X99036190Y-90116819D02*
X99036190Y-89116819D01*
X99036190Y-89116819D02*
X99131428Y-89259676D01*
X99131428Y-89259676D02*
X99226666Y-89354914D01*
X99226666Y-89354914D02*
X99321904Y-89402533D01*
X97845714Y-89116819D02*
X98321904Y-89116819D01*
X98321904Y-89116819D02*
X98369523Y-89593009D01*
X98369523Y-89593009D02*
X98321904Y-89545390D01*
X98321904Y-89545390D02*
X98226666Y-89497771D01*
X98226666Y-89497771D02*
X97988571Y-89497771D01*
X97988571Y-89497771D02*
X97893333Y-89545390D01*
X97893333Y-89545390D02*
X97845714Y-89593009D01*
X97845714Y-89593009D02*
X97798095Y-89688247D01*
X97798095Y-89688247D02*
X97798095Y-89926342D01*
X97798095Y-89926342D02*
X97845714Y-90021580D01*
X97845714Y-90021580D02*
X97893333Y-90069200D01*
X97893333Y-90069200D02*
X97988571Y-90116819D01*
X97988571Y-90116819D02*
X98226666Y-90116819D01*
X98226666Y-90116819D02*
X98321904Y-90069200D01*
X98321904Y-90069200D02*
X98369523Y-90021580D01*
X166520714Y-95435009D02*
X166377857Y-95482628D01*
X166377857Y-95482628D02*
X166330238Y-95530247D01*
X166330238Y-95530247D02*
X166282619Y-95625485D01*
X166282619Y-95625485D02*
X166282619Y-95768342D01*
X166282619Y-95768342D02*
X166330238Y-95863580D01*
X166330238Y-95863580D02*
X166377857Y-95911200D01*
X166377857Y-95911200D02*
X166473095Y-95958819D01*
X166473095Y-95958819D02*
X166854047Y-95958819D01*
X166854047Y-95958819D02*
X166854047Y-94958819D01*
X166854047Y-94958819D02*
X166520714Y-94958819D01*
X166520714Y-94958819D02*
X166425476Y-95006438D01*
X166425476Y-95006438D02*
X166377857Y-95054057D01*
X166377857Y-95054057D02*
X166330238Y-95149295D01*
X166330238Y-95149295D02*
X166330238Y-95244533D01*
X166330238Y-95244533D02*
X166377857Y-95339771D01*
X166377857Y-95339771D02*
X166425476Y-95387390D01*
X166425476Y-95387390D02*
X166520714Y-95435009D01*
X166520714Y-95435009D02*
X166854047Y-95435009D01*
X165996904Y-94958819D02*
X165425476Y-94958819D01*
X165711190Y-95958819D02*
X165711190Y-94958819D01*
X165187380Y-94958819D02*
X164568333Y-94958819D01*
X164568333Y-94958819D02*
X164901666Y-95339771D01*
X164901666Y-95339771D02*
X164758809Y-95339771D01*
X164758809Y-95339771D02*
X164663571Y-95387390D01*
X164663571Y-95387390D02*
X164615952Y-95435009D01*
X164615952Y-95435009D02*
X164568333Y-95530247D01*
X164568333Y-95530247D02*
X164568333Y-95768342D01*
X164568333Y-95768342D02*
X164615952Y-95863580D01*
X164615952Y-95863580D02*
X164663571Y-95911200D01*
X164663571Y-95911200D02*
X164758809Y-95958819D01*
X164758809Y-95958819D02*
X165044523Y-95958819D01*
X165044523Y-95958819D02*
X165139761Y-95911200D01*
X165139761Y-95911200D02*
X165187380Y-95863580D01*
X168983866Y-143435048D02*
X168983866Y-144196953D01*
X171879466Y-91770248D02*
X171879466Y-92532153D01*
X172260419Y-92151200D02*
X171498514Y-92151200D01*
X205940819Y-76509714D02*
X204940819Y-76509714D01*
X204940819Y-76509714D02*
X204940819Y-76747809D01*
X204940819Y-76747809D02*
X204988438Y-76890666D01*
X204988438Y-76890666D02*
X205083676Y-76985904D01*
X205083676Y-76985904D02*
X205178914Y-77033523D01*
X205178914Y-77033523D02*
X205369390Y-77081142D01*
X205369390Y-77081142D02*
X205512247Y-77081142D01*
X205512247Y-77081142D02*
X205702723Y-77033523D01*
X205702723Y-77033523D02*
X205797961Y-76985904D01*
X205797961Y-76985904D02*
X205893200Y-76890666D01*
X205893200Y-76890666D02*
X205940819Y-76747809D01*
X205940819Y-76747809D02*
X205940819Y-76509714D01*
X205940819Y-78033523D02*
X205940819Y-77462095D01*
X205940819Y-77747809D02*
X204940819Y-77747809D01*
X204940819Y-77747809D02*
X205083676Y-77652571D01*
X205083676Y-77652571D02*
X205178914Y-77557333D01*
X205178914Y-77557333D02*
X205226533Y-77462095D01*
X204940819Y-78366857D02*
X204940819Y-78985904D01*
X204940819Y-78985904D02*
X205321771Y-78652571D01*
X205321771Y-78652571D02*
X205321771Y-78795428D01*
X205321771Y-78795428D02*
X205369390Y-78890666D01*
X205369390Y-78890666D02*
X205417009Y-78938285D01*
X205417009Y-78938285D02*
X205512247Y-78985904D01*
X205512247Y-78985904D02*
X205750342Y-78985904D01*
X205750342Y-78985904D02*
X205845580Y-78938285D01*
X205845580Y-78938285D02*
X205893200Y-78890666D01*
X205893200Y-78890666D02*
X205940819Y-78795428D01*
X205940819Y-78795428D02*
X205940819Y-78509714D01*
X205940819Y-78509714D02*
X205893200Y-78414476D01*
X205893200Y-78414476D02*
X205845580Y-78366857D01*
X132901009Y-94770285D02*
X132948628Y-94913142D01*
X132948628Y-94913142D02*
X132996247Y-94960761D01*
X132996247Y-94960761D02*
X133091485Y-95008380D01*
X133091485Y-95008380D02*
X133234342Y-95008380D01*
X133234342Y-95008380D02*
X133329580Y-94960761D01*
X133329580Y-94960761D02*
X133377200Y-94913142D01*
X133377200Y-94913142D02*
X133424819Y-94817904D01*
X133424819Y-94817904D02*
X133424819Y-94436952D01*
X133424819Y-94436952D02*
X132424819Y-94436952D01*
X132424819Y-94436952D02*
X132424819Y-94770285D01*
X132424819Y-94770285D02*
X132472438Y-94865523D01*
X132472438Y-94865523D02*
X132520057Y-94913142D01*
X132520057Y-94913142D02*
X132615295Y-94960761D01*
X132615295Y-94960761D02*
X132710533Y-94960761D01*
X132710533Y-94960761D02*
X132805771Y-94913142D01*
X132805771Y-94913142D02*
X132853390Y-94865523D01*
X132853390Y-94865523D02*
X132901009Y-94770285D01*
X132901009Y-94770285D02*
X132901009Y-94436952D01*
X132424819Y-95294095D02*
X132424819Y-95865523D01*
X133424819Y-95579809D02*
X132424819Y-95579809D01*
X133424819Y-96722666D02*
X133424819Y-96151238D01*
X133424819Y-96436952D02*
X132424819Y-96436952D01*
X132424819Y-96436952D02*
X132567676Y-96341714D01*
X132567676Y-96341714D02*
X132662914Y-96246476D01*
X132662914Y-96246476D02*
X132710533Y-96151238D01*
X141043866Y-143435048D02*
X141043866Y-144196953D01*
X139519866Y-91365048D02*
X139519866Y-92126953D01*
X139900819Y-91746000D02*
X139138914Y-91746000D01*
X115929580Y-97655142D02*
X115977200Y-97607523D01*
X115977200Y-97607523D02*
X116024819Y-97464666D01*
X116024819Y-97464666D02*
X116024819Y-97369428D01*
X116024819Y-97369428D02*
X115977200Y-97226571D01*
X115977200Y-97226571D02*
X115881961Y-97131333D01*
X115881961Y-97131333D02*
X115786723Y-97083714D01*
X115786723Y-97083714D02*
X115596247Y-97036095D01*
X115596247Y-97036095D02*
X115453390Y-97036095D01*
X115453390Y-97036095D02*
X115262914Y-97083714D01*
X115262914Y-97083714D02*
X115167676Y-97131333D01*
X115167676Y-97131333D02*
X115072438Y-97226571D01*
X115072438Y-97226571D02*
X115024819Y-97369428D01*
X115024819Y-97369428D02*
X115024819Y-97464666D01*
X115024819Y-97464666D02*
X115072438Y-97607523D01*
X115072438Y-97607523D02*
X115120057Y-97655142D01*
X115120057Y-98036095D02*
X115072438Y-98083714D01*
X115072438Y-98083714D02*
X115024819Y-98178952D01*
X115024819Y-98178952D02*
X115024819Y-98417047D01*
X115024819Y-98417047D02*
X115072438Y-98512285D01*
X115072438Y-98512285D02*
X115120057Y-98559904D01*
X115120057Y-98559904D02*
X115215295Y-98607523D01*
X115215295Y-98607523D02*
X115310533Y-98607523D01*
X115310533Y-98607523D02*
X115453390Y-98559904D01*
X115453390Y-98559904D02*
X116024819Y-97988476D01*
X116024819Y-97988476D02*
X116024819Y-98607523D01*
X115453390Y-99178952D02*
X115405771Y-99083714D01*
X115405771Y-99083714D02*
X115358152Y-99036095D01*
X115358152Y-99036095D02*
X115262914Y-98988476D01*
X115262914Y-98988476D02*
X115215295Y-98988476D01*
X115215295Y-98988476D02*
X115120057Y-99036095D01*
X115120057Y-99036095D02*
X115072438Y-99083714D01*
X115072438Y-99083714D02*
X115024819Y-99178952D01*
X115024819Y-99178952D02*
X115024819Y-99369428D01*
X115024819Y-99369428D02*
X115072438Y-99464666D01*
X115072438Y-99464666D02*
X115120057Y-99512285D01*
X115120057Y-99512285D02*
X115215295Y-99559904D01*
X115215295Y-99559904D02*
X115262914Y-99559904D01*
X115262914Y-99559904D02*
X115358152Y-99512285D01*
X115358152Y-99512285D02*
X115405771Y-99464666D01*
X115405771Y-99464666D02*
X115453390Y-99369428D01*
X115453390Y-99369428D02*
X115453390Y-99178952D01*
X115453390Y-99178952D02*
X115501009Y-99083714D01*
X115501009Y-99083714D02*
X115548628Y-99036095D01*
X115548628Y-99036095D02*
X115643866Y-98988476D01*
X115643866Y-98988476D02*
X115834342Y-98988476D01*
X115834342Y-98988476D02*
X115929580Y-99036095D01*
X115929580Y-99036095D02*
X115977200Y-99083714D01*
X115977200Y-99083714D02*
X116024819Y-99178952D01*
X116024819Y-99178952D02*
X116024819Y-99369428D01*
X116024819Y-99369428D02*
X115977200Y-99464666D01*
X115977200Y-99464666D02*
X115929580Y-99512285D01*
X115929580Y-99512285D02*
X115834342Y-99559904D01*
X115834342Y-99559904D02*
X115643866Y-99559904D01*
X115643866Y-99559904D02*
X115548628Y-99512285D01*
X115548628Y-99512285D02*
X115501009Y-99464666D01*
X115501009Y-99464666D02*
X115453390Y-99369428D01*
X114974666Y-87895580D02*
X115022285Y-87943200D01*
X115022285Y-87943200D02*
X115165142Y-87990819D01*
X115165142Y-87990819D02*
X115260380Y-87990819D01*
X115260380Y-87990819D02*
X115403237Y-87943200D01*
X115403237Y-87943200D02*
X115498475Y-87847961D01*
X115498475Y-87847961D02*
X115546094Y-87752723D01*
X115546094Y-87752723D02*
X115593713Y-87562247D01*
X115593713Y-87562247D02*
X115593713Y-87419390D01*
X115593713Y-87419390D02*
X115546094Y-87228914D01*
X115546094Y-87228914D02*
X115498475Y-87133676D01*
X115498475Y-87133676D02*
X115403237Y-87038438D01*
X115403237Y-87038438D02*
X115260380Y-86990819D01*
X115260380Y-86990819D02*
X115165142Y-86990819D01*
X115165142Y-86990819D02*
X115022285Y-87038438D01*
X115022285Y-87038438D02*
X114974666Y-87086057D01*
X114022285Y-87990819D02*
X114593713Y-87990819D01*
X114307999Y-87990819D02*
X114307999Y-86990819D01*
X114307999Y-86990819D02*
X114403237Y-87133676D01*
X114403237Y-87133676D02*
X114498475Y-87228914D01*
X114498475Y-87228914D02*
X114593713Y-87276533D01*
X126976094Y-138696819D02*
X126976094Y-137696819D01*
X126976094Y-137696819D02*
X126737999Y-137696819D01*
X126737999Y-137696819D02*
X126595142Y-137744438D01*
X126595142Y-137744438D02*
X126499904Y-137839676D01*
X126499904Y-137839676D02*
X126452285Y-137934914D01*
X126452285Y-137934914D02*
X126404666Y-138125390D01*
X126404666Y-138125390D02*
X126404666Y-138268247D01*
X126404666Y-138268247D02*
X126452285Y-138458723D01*
X126452285Y-138458723D02*
X126499904Y-138553961D01*
X126499904Y-138553961D02*
X126595142Y-138649200D01*
X126595142Y-138649200D02*
X126737999Y-138696819D01*
X126737999Y-138696819D02*
X126976094Y-138696819D01*
X126071332Y-137696819D02*
X125404666Y-137696819D01*
X125404666Y-137696819D02*
X125833237Y-138696819D01*
X114938666Y-80554819D02*
X115271999Y-80078628D01*
X115510094Y-80554819D02*
X115510094Y-79554819D01*
X115510094Y-79554819D02*
X115129142Y-79554819D01*
X115129142Y-79554819D02*
X115033904Y-79602438D01*
X115033904Y-79602438D02*
X114986285Y-79650057D01*
X114986285Y-79650057D02*
X114938666Y-79745295D01*
X114938666Y-79745295D02*
X114938666Y-79888152D01*
X114938666Y-79888152D02*
X114986285Y-79983390D01*
X114986285Y-79983390D02*
X115033904Y-80031009D01*
X115033904Y-80031009D02*
X115129142Y-80078628D01*
X115129142Y-80078628D02*
X115510094Y-80078628D01*
X114462475Y-80554819D02*
X114271999Y-80554819D01*
X114271999Y-80554819D02*
X114176761Y-80507200D01*
X114176761Y-80507200D02*
X114129142Y-80459580D01*
X114129142Y-80459580D02*
X114033904Y-80316723D01*
X114033904Y-80316723D02*
X113986285Y-80126247D01*
X113986285Y-80126247D02*
X113986285Y-79745295D01*
X113986285Y-79745295D02*
X114033904Y-79650057D01*
X114033904Y-79650057D02*
X114081523Y-79602438D01*
X114081523Y-79602438D02*
X114176761Y-79554819D01*
X114176761Y-79554819D02*
X114367237Y-79554819D01*
X114367237Y-79554819D02*
X114462475Y-79602438D01*
X114462475Y-79602438D02*
X114510094Y-79650057D01*
X114510094Y-79650057D02*
X114557713Y-79745295D01*
X114557713Y-79745295D02*
X114557713Y-79983390D01*
X114557713Y-79983390D02*
X114510094Y-80078628D01*
X114510094Y-80078628D02*
X114462475Y-80126247D01*
X114462475Y-80126247D02*
X114367237Y-80173866D01*
X114367237Y-80173866D02*
X114176761Y-80173866D01*
X114176761Y-80173866D02*
X114081523Y-80126247D01*
X114081523Y-80126247D02*
X114033904Y-80078628D01*
X114033904Y-80078628D02*
X113986285Y-79983390D01*
X117199580Y-84669333D02*
X117247200Y-84621714D01*
X117247200Y-84621714D02*
X117294819Y-84478857D01*
X117294819Y-84478857D02*
X117294819Y-84383619D01*
X117294819Y-84383619D02*
X117247200Y-84240762D01*
X117247200Y-84240762D02*
X117151961Y-84145524D01*
X117151961Y-84145524D02*
X117056723Y-84097905D01*
X117056723Y-84097905D02*
X116866247Y-84050286D01*
X116866247Y-84050286D02*
X116723390Y-84050286D01*
X116723390Y-84050286D02*
X116532914Y-84097905D01*
X116532914Y-84097905D02*
X116437676Y-84145524D01*
X116437676Y-84145524D02*
X116342438Y-84240762D01*
X116342438Y-84240762D02*
X116294819Y-84383619D01*
X116294819Y-84383619D02*
X116294819Y-84478857D01*
X116294819Y-84478857D02*
X116342438Y-84621714D01*
X116342438Y-84621714D02*
X116390057Y-84669333D01*
X116390057Y-85050286D02*
X116342438Y-85097905D01*
X116342438Y-85097905D02*
X116294819Y-85193143D01*
X116294819Y-85193143D02*
X116294819Y-85431238D01*
X116294819Y-85431238D02*
X116342438Y-85526476D01*
X116342438Y-85526476D02*
X116390057Y-85574095D01*
X116390057Y-85574095D02*
X116485295Y-85621714D01*
X116485295Y-85621714D02*
X116580533Y-85621714D01*
X116580533Y-85621714D02*
X116723390Y-85574095D01*
X116723390Y-85574095D02*
X117294819Y-85002667D01*
X117294819Y-85002667D02*
X117294819Y-85621714D01*
X119260857Y-87989580D02*
X119308476Y-88037200D01*
X119308476Y-88037200D02*
X119451333Y-88084819D01*
X119451333Y-88084819D02*
X119546571Y-88084819D01*
X119546571Y-88084819D02*
X119689428Y-88037200D01*
X119689428Y-88037200D02*
X119784666Y-87941961D01*
X119784666Y-87941961D02*
X119832285Y-87846723D01*
X119832285Y-87846723D02*
X119879904Y-87656247D01*
X119879904Y-87656247D02*
X119879904Y-87513390D01*
X119879904Y-87513390D02*
X119832285Y-87322914D01*
X119832285Y-87322914D02*
X119784666Y-87227676D01*
X119784666Y-87227676D02*
X119689428Y-87132438D01*
X119689428Y-87132438D02*
X119546571Y-87084819D01*
X119546571Y-87084819D02*
X119451333Y-87084819D01*
X119451333Y-87084819D02*
X119308476Y-87132438D01*
X119308476Y-87132438D02*
X119260857Y-87180057D01*
X118308476Y-88084819D02*
X118879904Y-88084819D01*
X118594190Y-88084819D02*
X118594190Y-87084819D01*
X118594190Y-87084819D02*
X118689428Y-87227676D01*
X118689428Y-87227676D02*
X118784666Y-87322914D01*
X118784666Y-87322914D02*
X118879904Y-87370533D01*
X117832285Y-88084819D02*
X117641809Y-88084819D01*
X117641809Y-88084819D02*
X117546571Y-88037200D01*
X117546571Y-88037200D02*
X117498952Y-87989580D01*
X117498952Y-87989580D02*
X117403714Y-87846723D01*
X117403714Y-87846723D02*
X117356095Y-87656247D01*
X117356095Y-87656247D02*
X117356095Y-87275295D01*
X117356095Y-87275295D02*
X117403714Y-87180057D01*
X117403714Y-87180057D02*
X117451333Y-87132438D01*
X117451333Y-87132438D02*
X117546571Y-87084819D01*
X117546571Y-87084819D02*
X117737047Y-87084819D01*
X117737047Y-87084819D02*
X117832285Y-87132438D01*
X117832285Y-87132438D02*
X117879904Y-87180057D01*
X117879904Y-87180057D02*
X117927523Y-87275295D01*
X117927523Y-87275295D02*
X117927523Y-87513390D01*
X117927523Y-87513390D02*
X117879904Y-87608628D01*
X117879904Y-87608628D02*
X117832285Y-87656247D01*
X117832285Y-87656247D02*
X117737047Y-87703866D01*
X117737047Y-87703866D02*
X117546571Y-87703866D01*
X117546571Y-87703866D02*
X117451333Y-87656247D01*
X117451333Y-87656247D02*
X117403714Y-87608628D01*
X117403714Y-87608628D02*
X117356095Y-87513390D01*
X111926666Y-78845580D02*
X111974285Y-78893200D01*
X111974285Y-78893200D02*
X112117142Y-78940819D01*
X112117142Y-78940819D02*
X112212380Y-78940819D01*
X112212380Y-78940819D02*
X112355237Y-78893200D01*
X112355237Y-78893200D02*
X112450475Y-78797961D01*
X112450475Y-78797961D02*
X112498094Y-78702723D01*
X112498094Y-78702723D02*
X112545713Y-78512247D01*
X112545713Y-78512247D02*
X112545713Y-78369390D01*
X112545713Y-78369390D02*
X112498094Y-78178914D01*
X112498094Y-78178914D02*
X112450475Y-78083676D01*
X112450475Y-78083676D02*
X112355237Y-77988438D01*
X112355237Y-77988438D02*
X112212380Y-77940819D01*
X112212380Y-77940819D02*
X112117142Y-77940819D01*
X112117142Y-77940819D02*
X111974285Y-77988438D01*
X111974285Y-77988438D02*
X111926666Y-78036057D01*
X111355237Y-78369390D02*
X111450475Y-78321771D01*
X111450475Y-78321771D02*
X111498094Y-78274152D01*
X111498094Y-78274152D02*
X111545713Y-78178914D01*
X111545713Y-78178914D02*
X111545713Y-78131295D01*
X111545713Y-78131295D02*
X111498094Y-78036057D01*
X111498094Y-78036057D02*
X111450475Y-77988438D01*
X111450475Y-77988438D02*
X111355237Y-77940819D01*
X111355237Y-77940819D02*
X111164761Y-77940819D01*
X111164761Y-77940819D02*
X111069523Y-77988438D01*
X111069523Y-77988438D02*
X111021904Y-78036057D01*
X111021904Y-78036057D02*
X110974285Y-78131295D01*
X110974285Y-78131295D02*
X110974285Y-78178914D01*
X110974285Y-78178914D02*
X111021904Y-78274152D01*
X111021904Y-78274152D02*
X111069523Y-78321771D01*
X111069523Y-78321771D02*
X111164761Y-78369390D01*
X111164761Y-78369390D02*
X111355237Y-78369390D01*
X111355237Y-78369390D02*
X111450475Y-78417009D01*
X111450475Y-78417009D02*
X111498094Y-78464628D01*
X111498094Y-78464628D02*
X111545713Y-78559866D01*
X111545713Y-78559866D02*
X111545713Y-78750342D01*
X111545713Y-78750342D02*
X111498094Y-78845580D01*
X111498094Y-78845580D02*
X111450475Y-78893200D01*
X111450475Y-78893200D02*
X111355237Y-78940819D01*
X111355237Y-78940819D02*
X111164761Y-78940819D01*
X111164761Y-78940819D02*
X111069523Y-78893200D01*
X111069523Y-78893200D02*
X111021904Y-78845580D01*
X111021904Y-78845580D02*
X110974285Y-78750342D01*
X110974285Y-78750342D02*
X110974285Y-78559866D01*
X110974285Y-78559866D02*
X111021904Y-78464628D01*
X111021904Y-78464628D02*
X111069523Y-78417009D01*
X111069523Y-78417009D02*
X111164761Y-78369390D01*
X168473857Y-93164819D02*
X168807190Y-92688628D01*
X169045285Y-93164819D02*
X169045285Y-92164819D01*
X169045285Y-92164819D02*
X168664333Y-92164819D01*
X168664333Y-92164819D02*
X168569095Y-92212438D01*
X168569095Y-92212438D02*
X168521476Y-92260057D01*
X168521476Y-92260057D02*
X168473857Y-92355295D01*
X168473857Y-92355295D02*
X168473857Y-92498152D01*
X168473857Y-92498152D02*
X168521476Y-92593390D01*
X168521476Y-92593390D02*
X168569095Y-92641009D01*
X168569095Y-92641009D02*
X168664333Y-92688628D01*
X168664333Y-92688628D02*
X169045285Y-92688628D01*
X167521476Y-93164819D02*
X168092904Y-93164819D01*
X167807190Y-93164819D02*
X167807190Y-92164819D01*
X167807190Y-92164819D02*
X167902428Y-92307676D01*
X167902428Y-92307676D02*
X167997666Y-92402914D01*
X167997666Y-92402914D02*
X168092904Y-92450533D01*
X166664333Y-92498152D02*
X166664333Y-93164819D01*
X166902428Y-92117200D02*
X167140523Y-92831485D01*
X167140523Y-92831485D02*
X166521476Y-92831485D01*
D12*
X100114000Y-79615420D02*
X100114000Y-79896580D01*
X101134000Y-79615420D02*
X101134000Y-79896580D01*
X181087500Y-85581258D02*
X181087500Y-85106742D01*
X182132500Y-85581258D02*
X182132500Y-85106742D01*
X158924258Y-90992500D02*
X158449742Y-90992500D01*
X158924258Y-92037500D02*
X158449742Y-92037500D01*
X218202742Y-81090000D02*
X218677258Y-81090000D01*
X218202742Y-82135000D02*
X218677258Y-82135000D01*
X100095258Y-76947500D02*
X99620742Y-76947500D01*
X100095258Y-77992500D02*
X99620742Y-77992500D01*
X142232000Y-73177000D02*
X151392000Y-73177000D01*
X142232000Y-74882000D02*
X142232000Y-73177000D01*
X142232000Y-76892000D02*
X142232000Y-78812000D01*
X151392000Y-73177000D02*
X151392000Y-74882000D01*
X151392000Y-78812000D02*
X151392000Y-76892000D01*
X105356000Y-80092000D02*
X105356000Y-80442000D01*
X105356000Y-87012000D02*
X105356000Y-86362000D01*
X105596000Y-79792000D02*
X106006000Y-79792000D01*
X106006000Y-87012000D02*
X105356000Y-87012000D01*
X111926000Y-79792000D02*
X112576000Y-79792000D01*
X111926000Y-87012000D02*
X112576000Y-87012000D01*
X112576000Y-79792000D02*
X112576000Y-80442000D01*
X112576000Y-87012000D02*
X112576000Y-86362000D01*
X105356000Y-79792000D02*
X105026000Y-80032000D01*
X105026000Y-79552000D01*
X105356000Y-79792000D01*
G36*
X105356000Y-79792000D02*
G01*
X105026000Y-80032000D01*
X105026000Y-79552000D01*
X105356000Y-79792000D01*
G37*
D10*
X112913000Y-139708000D02*
X112913000Y-142240000D01*
X112913000Y-142240000D02*
X114163000Y-142240000D01*
X114163000Y-142240000D02*
X114163000Y-139708000D01*
D12*
X109508000Y-89548580D02*
X109508000Y-89267420D01*
X110528000Y-89548580D02*
X110528000Y-89267420D01*
X165020258Y-90992500D02*
X164545742Y-90992500D01*
X165020258Y-92037500D02*
X164545742Y-92037500D01*
D10*
X133233000Y-86868000D02*
X133233000Y-89400000D01*
X134483000Y-86868000D02*
X133233000Y-86868000D01*
X134483000Y-89400000D02*
X134483000Y-86868000D01*
D12*
X173192000Y-76234000D02*
X173192000Y-76390000D01*
X173192000Y-78550000D02*
X173192000Y-78706000D01*
X173192000Y-76234484D02*
G75*
G02*
X176424335Y-76391392I1560000J-1235516D01*
G01*
X173711039Y-76390000D02*
G75*
G02*
X175793130Y-76390163I1040961J-1080000D01*
G01*
X175793130Y-78549837D02*
G75*
G02*
X173711039Y-78550000I-1041130J1079837D01*
G01*
X176424335Y-78548608D02*
G75*
G02*
X173192000Y-78705516I-1672335J1078608D01*
G01*
X148067500Y-83549258D02*
X148067500Y-83074742D01*
X149112500Y-83549258D02*
X149112500Y-83074742D01*
X114948580Y-82548000D02*
X114667420Y-82548000D01*
X114948580Y-83568000D02*
X114667420Y-83568000D01*
X98590000Y-79896580D02*
X98590000Y-79615420D01*
X99610000Y-79896580D02*
X99610000Y-79615420D01*
X143508000Y-83452580D02*
X143508000Y-83171420D01*
X144528000Y-83452580D02*
X144528000Y-83171420D01*
X101713420Y-82294000D02*
X101994580Y-82294000D01*
X101713420Y-83314000D02*
X101994580Y-83314000D01*
X118985420Y-95502000D02*
X119266580Y-95502000D01*
X118985420Y-96522000D02*
X119266580Y-96522000D01*
X134110000Y-80123420D02*
X134110000Y-80404580D01*
X135130000Y-80123420D02*
X135130000Y-80404580D01*
D10*
X123073000Y-139708000D02*
X123073000Y-142240000D01*
X123073000Y-142240000D02*
X124323000Y-142240000D01*
X124323000Y-142240000D02*
X124323000Y-139708000D01*
D12*
X104138000Y-96914580D02*
X104138000Y-96633420D01*
X105158000Y-96914580D02*
X105158000Y-96633420D01*
X129127242Y-86533500D02*
X129601758Y-86533500D01*
X129127242Y-87578500D02*
X129601758Y-87578500D01*
X145019500Y-83549258D02*
X145019500Y-83074742D01*
X146064500Y-83549258D02*
X146064500Y-83074742D01*
D10*
X187081000Y-75692000D02*
X187081000Y-78224000D01*
X188331000Y-75692000D02*
X187081000Y-75692000D01*
X188331000Y-78224000D02*
X188331000Y-75692000D01*
X200526000Y-94876000D02*
X200526000Y-79876000D01*
X200914000Y-79876000D02*
X200526000Y-79876000D01*
X200914000Y-94876000D02*
X200526000Y-94876000D01*
X204978000Y-79876000D02*
X211074000Y-79876000D01*
X204978000Y-94876000D02*
X211074000Y-94876000D01*
X215138000Y-79876000D02*
X215526000Y-79876000D01*
X215138000Y-94876000D02*
X215526000Y-94876000D01*
X215526000Y-79876000D02*
X215526000Y-94876000D01*
X204440214Y-91376000D02*
G75*
G02*
X201611786Y-91376000I-1414214J0D01*
G01*
X201611786Y-91376000D02*
G75*
G02*
X204440214Y-91376000I1414214J0D01*
G01*
X128153000Y-139708000D02*
X128153000Y-142240000D01*
X128153000Y-142240000D02*
X129403000Y-142240000D01*
X129403000Y-142240000D02*
X129403000Y-139708000D01*
X217940000Y-87825500D02*
X220472000Y-87825500D01*
X220472000Y-86575500D02*
X217940000Y-86575500D01*
X220472000Y-87825500D02*
X220472000Y-86575500D01*
X130693000Y-139708000D02*
X130693000Y-142240000D01*
X130693000Y-142240000D02*
X131943000Y-142240000D01*
X131943000Y-142240000D02*
X131943000Y-139708000D01*
D12*
X172572000Y-88950748D02*
X172572000Y-90373252D01*
X174392000Y-88950748D02*
X174392000Y-90373252D01*
X176280000Y-92756000D02*
X176280000Y-142956000D01*
X176280000Y-142956000D02*
X189480000Y-142956000D01*
X176880000Y-94156000D02*
X188880000Y-94156000D01*
X176880000Y-97156000D02*
X176880000Y-94156000D01*
X176880000Y-111156000D02*
X176880000Y-125156000D01*
X176880000Y-139156000D02*
X176880000Y-142156000D01*
X176880000Y-142156000D02*
X188880000Y-142156000D01*
X178880000Y-97156000D02*
X186880000Y-97156000D01*
X178880000Y-109156000D02*
X178880000Y-99156000D01*
X178880000Y-127156000D02*
X178880000Y-137156000D01*
X180880000Y-99156000D02*
X184880000Y-99156000D01*
X180880000Y-142156000D02*
X180880000Y-141156000D01*
X181880000Y-100156000D02*
X183880000Y-100156000D01*
X184880000Y-141156000D02*
X184880000Y-142156000D01*
X185880000Y-98156000D02*
X179880000Y-98156000D01*
X186880000Y-109156000D02*
X186880000Y-99156000D01*
X186880000Y-127156000D02*
X186880000Y-137156000D01*
X188880000Y-97156000D02*
X188880000Y-94156000D01*
X188880000Y-125156000D02*
X188880000Y-111156000D01*
X188880000Y-139156000D02*
X188880000Y-142156000D01*
X189480000Y-92756000D02*
X176280000Y-92756000D01*
X189480000Y-142956000D02*
X189480000Y-92756000D01*
X176880000Y-97156000D02*
G75*
G02*
X178880000Y-99156000I0J-2000000D01*
G01*
X176880000Y-125156000D02*
G75*
G02*
X178880000Y-127156000I0J-2000000D01*
G01*
X178880000Y-109156000D02*
G75*
G02*
X176880000Y-111156000I-2000000J0D01*
G01*
X178880000Y-137156000D02*
G75*
G02*
X176880000Y-139156000I-2000000J0D01*
G01*
X186880000Y-99156000D02*
G75*
G02*
X188880000Y-97156000I2000000J0D01*
G01*
X186880000Y-127156000D02*
G75*
G02*
X188880000Y-125156000I2000000J0D01*
G01*
X188880000Y-111156000D02*
G75*
G02*
X186880000Y-109156000I0J2000000D01*
G01*
X188880000Y-139156000D02*
G75*
G02*
X186880000Y-137156000I0J2000000D01*
G01*
X130740000Y-75302500D02*
X124320000Y-75302500D01*
X130740000Y-75572500D02*
X130740000Y-75302500D01*
X130740000Y-81932500D02*
X130740000Y-82202500D01*
X130740000Y-82202500D02*
X124320000Y-82202500D01*
X132155000Y-75592500D02*
X131915000Y-75262500D01*
X132395000Y-75262500D01*
X132155000Y-75592500D01*
G36*
X132155000Y-75592500D02*
G01*
X131915000Y-75262500D01*
X132395000Y-75262500D01*
X132155000Y-75592500D01*
G37*
D10*
X120533000Y-139708000D02*
X120533000Y-142240000D01*
X120533000Y-142240000D02*
X121783000Y-142240000D01*
X121783000Y-142240000D02*
X121783000Y-139708000D01*
D12*
X174227258Y-79995500D02*
X173752742Y-79995500D01*
X174227258Y-81040500D02*
X173752742Y-81040500D01*
D10*
X115453000Y-139708000D02*
X115453000Y-142240000D01*
X115453000Y-142240000D02*
X116703000Y-142240000D01*
X116703000Y-142240000D02*
X116703000Y-139708000D01*
X117993000Y-139708000D02*
X117993000Y-142240000D01*
X117993000Y-142240000D02*
X119243000Y-142240000D01*
X119243000Y-142240000D02*
X119243000Y-139708000D01*
X184710000Y-74000000D02*
X178510000Y-74000000D01*
X178510000Y-77600000D01*
X184710000Y-77600000D01*
X184710000Y-74000000D01*
X179960000Y-74000000D02*
G75*
G02*
X183260000Y-74000000I1650000J0D01*
G01*
D12*
X96968000Y-137177000D02*
X96968000Y-142477000D01*
X96968000Y-142477000D02*
X132648000Y-142477000D01*
X132648000Y-137177000D02*
X96968000Y-137177000D01*
X132648000Y-138827000D02*
X132648000Y-137177000D01*
X132648000Y-142477000D02*
X132648000Y-140827000D01*
X132648000Y-140827000D02*
G75*
G02*
X132648000Y-138827000I0J1000000D01*
G01*
X157363000Y-76615000D02*
X157363000Y-78415000D01*
X157363000Y-79715000D02*
X157363000Y-84415000D01*
X157363000Y-86115000D02*
X157363000Y-89725000D01*
X157363000Y-89725000D02*
X157813000Y-89725000D01*
X158193000Y-73655000D02*
X158393000Y-73455000D01*
X160253000Y-73455000D02*
X158393000Y-73455000D01*
X160463000Y-73655000D02*
X160253000Y-73455000D01*
X160463000Y-73655000D02*
X160463000Y-73805000D01*
X166833000Y-73805000D02*
X160463000Y-73805000D01*
X166833000Y-73805000D02*
X167343000Y-73455000D01*
X167343000Y-73455000D02*
X169653000Y-73455000D01*
X169853000Y-73655000D02*
X169653000Y-73455000D01*
X170113000Y-73655000D02*
X169853000Y-73655000D01*
X171333000Y-75715000D02*
X171333000Y-89725000D01*
X171333000Y-89725000D02*
X169413000Y-89725000D01*
X141984000Y-83452580D02*
X141984000Y-83171420D01*
X143004000Y-83452580D02*
X143004000Y-83171420D01*
X148340000Y-92756000D02*
X148340000Y-142956000D01*
X148340000Y-142956000D02*
X161540000Y-142956000D01*
X148940000Y-94156000D02*
X160940000Y-94156000D01*
X148940000Y-97156000D02*
X148940000Y-94156000D01*
X148940000Y-111156000D02*
X148940000Y-125156000D01*
X148940000Y-139156000D02*
X148940000Y-142156000D01*
X148940000Y-142156000D02*
X160940000Y-142156000D01*
X150940000Y-97156000D02*
X158940000Y-97156000D01*
X150940000Y-109156000D02*
X150940000Y-99156000D01*
X150940000Y-127156000D02*
X150940000Y-137156000D01*
X152940000Y-99156000D02*
X156940000Y-99156000D01*
X152940000Y-142156000D02*
X152940000Y-141156000D01*
X153940000Y-100156000D02*
X155940000Y-100156000D01*
X156940000Y-141156000D02*
X156940000Y-142156000D01*
X157940000Y-98156000D02*
X151940000Y-98156000D01*
X158940000Y-109156000D02*
X158940000Y-99156000D01*
X158940000Y-127156000D02*
X158940000Y-137156000D01*
X160940000Y-97156000D02*
X160940000Y-94156000D01*
X160940000Y-125156000D02*
X160940000Y-111156000D01*
X160940000Y-139156000D02*
X160940000Y-142156000D01*
X161540000Y-92756000D02*
X148340000Y-92756000D01*
X161540000Y-142956000D02*
X161540000Y-92756000D01*
X148940000Y-97156000D02*
G75*
G02*
X150940000Y-99156000I0J-2000000D01*
G01*
X148940000Y-125156000D02*
G75*
G02*
X150940000Y-127156000I0J-2000000D01*
G01*
X150940000Y-109156000D02*
G75*
G02*
X148940000Y-111156000I-2000000J0D01*
G01*
X150940000Y-137156000D02*
G75*
G02*
X148940000Y-139156000I-2000000J0D01*
G01*
X158940000Y-99156000D02*
G75*
G02*
X160940000Y-97156000I2000000J0D01*
G01*
X158940000Y-127156000D02*
G75*
G02*
X160940000Y-125156000I2000000J0D01*
G01*
X160940000Y-111156000D02*
G75*
G02*
X158940000Y-109156000I0J2000000D01*
G01*
X160940000Y-139156000D02*
G75*
G02*
X158940000Y-137156000I0J2000000D01*
G01*
X105408000Y-77583420D02*
X105408000Y-77864580D01*
X106428000Y-77583420D02*
X106428000Y-77864580D01*
X101713420Y-83818000D02*
X101994580Y-83818000D01*
X101713420Y-84838000D02*
X101994580Y-84838000D01*
X182739420Y-73658000D02*
X183020580Y-73658000D01*
X182739420Y-74678000D02*
X183020580Y-74678000D01*
X105395500Y-138446742D02*
X105395500Y-138921258D01*
X106440500Y-138446742D02*
X106440500Y-138921258D01*
X123937500Y-96536742D02*
X123937500Y-97011258D01*
X124982500Y-96536742D02*
X124982500Y-97011258D01*
X150638742Y-82281500D02*
X151113258Y-82281500D01*
X150638742Y-83326500D02*
X151113258Y-83326500D01*
X101713420Y-86104000D02*
X101994580Y-86104000D01*
X101713420Y-87124000D02*
X101994580Y-87124000D01*
X113170580Y-95502000D02*
X112889420Y-95502000D01*
X113170580Y-96522000D02*
X112889420Y-96522000D01*
X122314580Y-95502000D02*
X122033420Y-95502000D01*
X122314580Y-96522000D02*
X122033420Y-96522000D01*
X126508742Y-95489500D02*
X126983258Y-95489500D01*
X126508742Y-96534500D02*
X126983258Y-96534500D01*
X110122580Y-95502000D02*
X109841420Y-95502000D01*
X110122580Y-96522000D02*
X109841420Y-96522000D01*
X104900000Y-89802580D02*
X104900000Y-89521420D01*
X105920000Y-89802580D02*
X105920000Y-89521420D01*
X112508420Y-92200000D02*
X112789580Y-92200000D01*
X112508420Y-93220000D02*
X112789580Y-93220000D01*
X128206500Y-88036000D02*
X128856500Y-88036000D01*
X128206500Y-91156000D02*
X128856500Y-91156000D01*
X129506500Y-88036000D02*
X128856500Y-88036000D01*
X129506500Y-91156000D02*
X128856500Y-91156000D01*
X130019000Y-88086000D02*
X129779000Y-87756000D01*
X130259000Y-87756000D01*
X130019000Y-88086000D01*
G36*
X130019000Y-88086000D02*
G01*
X129779000Y-87756000D01*
X130259000Y-87756000D01*
X130019000Y-88086000D01*
G37*
X161972258Y-90992500D02*
X161497742Y-90992500D01*
X161972258Y-92037500D02*
X161497742Y-92037500D01*
X216880000Y-83756500D02*
X216880000Y-84406500D01*
X216880000Y-85056500D02*
X216880000Y-84406500D01*
X220000000Y-83756500D02*
X220000000Y-84406500D01*
X220000000Y-85056500D02*
X220000000Y-84406500D01*
X216930000Y-83244000D02*
X216600000Y-83484000D01*
X216600000Y-83004000D01*
X216930000Y-83244000D01*
G36*
X216930000Y-83244000D02*
G01*
X216600000Y-83484000D01*
X216600000Y-83004000D01*
X216930000Y-83244000D01*
G37*
X106793420Y-95502000D02*
X107074580Y-95502000D01*
X106793420Y-96522000D02*
X107074580Y-96522000D01*
X117564000Y-80506000D02*
X118364000Y-80506000D01*
X117564000Y-83626000D02*
X118364000Y-83626000D01*
X119164000Y-80506000D02*
X118364000Y-80506000D01*
X119164000Y-83626000D02*
X118364000Y-83626000D01*
X119664000Y-80556000D02*
X119424000Y-80226000D01*
X119904000Y-80226000D01*
X119664000Y-80556000D01*
G36*
X119664000Y-80556000D02*
G01*
X119424000Y-80226000D01*
X119904000Y-80226000D01*
X119664000Y-80556000D01*
G37*
X101517000Y-80593000D02*
X101517000Y-77593000D01*
X103787000Y-80593000D02*
X103787000Y-77593000D01*
X101602000Y-77043000D02*
X101322000Y-77043000D01*
X101602000Y-76763000D01*
X101602000Y-77043000D01*
G36*
X101602000Y-77043000D02*
G01*
X101322000Y-77043000D01*
X101602000Y-76763000D01*
X101602000Y-77043000D01*
G37*
D10*
X131064000Y-90561000D02*
X131064000Y-91811000D01*
X131064000Y-91811000D02*
X133596000Y-91811000D01*
X133596000Y-90561000D02*
X131064000Y-90561000D01*
D12*
X109587420Y-141222000D02*
X109868580Y-141222000D01*
X109587420Y-142242000D02*
X109868580Y-142242000D01*
X101713420Y-87628000D02*
X101994580Y-87628000D01*
X101713420Y-88648000D02*
X101994580Y-88648000D01*
X102614000Y-96914580D02*
X102614000Y-96633420D01*
X103634000Y-96914580D02*
X103634000Y-96633420D01*
X146543500Y-83074742D02*
X146543500Y-83549258D01*
X147588500Y-83074742D02*
X147588500Y-83549258D01*
X134110000Y-77356580D02*
X134110000Y-77075420D01*
X135130000Y-77356580D02*
X135130000Y-77075420D01*
X119111500Y-85106742D02*
X119111500Y-85581258D01*
X120156500Y-85106742D02*
X120156500Y-85581258D01*
X101713420Y-89152000D02*
X101994580Y-89152000D01*
X101713420Y-90172000D02*
X101994580Y-90172000D01*
X162310000Y-92756000D02*
X162310000Y-142956000D01*
X162310000Y-142956000D02*
X175510000Y-142956000D01*
X162910000Y-96556000D02*
X162910000Y-93556000D01*
X162910000Y-110556000D02*
X162910000Y-124556000D01*
X162910000Y-138556000D02*
X162910000Y-141556000D01*
X164910000Y-108556000D02*
X164910000Y-98556000D01*
X164910000Y-126556000D02*
X164910000Y-136556000D01*
X165910000Y-137556000D02*
X171910000Y-137556000D01*
X166910000Y-94556000D02*
X166910000Y-93556000D01*
X169910000Y-135556000D02*
X167910000Y-135556000D01*
X170910000Y-93556000D02*
X170910000Y-94556000D01*
X170910000Y-136556000D02*
X166910000Y-136556000D01*
X172910000Y-108556000D02*
X172910000Y-98556000D01*
X172910000Y-126556000D02*
X172910000Y-136556000D01*
X172910000Y-138556000D02*
X164910000Y-138556000D01*
X174910000Y-93556000D02*
X162910000Y-93556000D01*
X174910000Y-96556000D02*
X174910000Y-93556000D01*
X174910000Y-124556000D02*
X174910000Y-110556000D01*
X174910000Y-138556000D02*
X174910000Y-141556000D01*
X174910000Y-141556000D02*
X162910000Y-141556000D01*
X175510000Y-92756000D02*
X162310000Y-92756000D01*
X175510000Y-142956000D02*
X175510000Y-92756000D01*
X162910000Y-96556000D02*
G75*
G02*
X164910000Y-98556000I0J-2000000D01*
G01*
X162910000Y-124556000D02*
G75*
G02*
X164910000Y-126556000I0J-2000000D01*
G01*
X164910000Y-108556000D02*
G75*
G02*
X162910000Y-110556000I-2000000J0D01*
G01*
X164910000Y-136556000D02*
G75*
G02*
X162910000Y-138556000I-2000000J0D01*
G01*
X172910000Y-98556000D02*
G75*
G02*
X174910000Y-96556000I2000000J0D01*
G01*
X172910000Y-126556000D02*
G75*
G02*
X174910000Y-124556000I2000000J0D01*
G01*
X174910000Y-110556000D02*
G75*
G02*
X172910000Y-108556000I0J2000000D01*
G01*
X174910000Y-138556000D02*
G75*
G02*
X172910000Y-136556000I0J2000000D01*
G01*
D10*
X203337000Y-75692000D02*
X203337000Y-78224000D01*
X204587000Y-75692000D02*
X203337000Y-75692000D01*
X204587000Y-78224000D02*
X204587000Y-75692000D01*
D12*
X134370000Y-92756000D02*
X134370000Y-142956000D01*
X134370000Y-142956000D02*
X147570000Y-142956000D01*
X134970000Y-96556000D02*
X134970000Y-93556000D01*
X134970000Y-110556000D02*
X134970000Y-124556000D01*
X134970000Y-138556000D02*
X134970000Y-141556000D01*
X136970000Y-108556000D02*
X136970000Y-98556000D01*
X136970000Y-126556000D02*
X136970000Y-136556000D01*
X137970000Y-137556000D02*
X143970000Y-137556000D01*
X138970000Y-94556000D02*
X138970000Y-93556000D01*
X141970000Y-135556000D02*
X139970000Y-135556000D01*
X142970000Y-93556000D02*
X142970000Y-94556000D01*
X142970000Y-136556000D02*
X138970000Y-136556000D01*
X144970000Y-108556000D02*
X144970000Y-98556000D01*
X144970000Y-126556000D02*
X144970000Y-136556000D01*
X144970000Y-138556000D02*
X136970000Y-138556000D01*
X146970000Y-93556000D02*
X134970000Y-93556000D01*
X146970000Y-96556000D02*
X146970000Y-93556000D01*
X146970000Y-124556000D02*
X146970000Y-110556000D01*
X146970000Y-138556000D02*
X146970000Y-141556000D01*
X146970000Y-141556000D02*
X134970000Y-141556000D01*
X147570000Y-92756000D02*
X134370000Y-92756000D01*
X147570000Y-142956000D02*
X147570000Y-92756000D01*
X134970000Y-96556000D02*
G75*
G02*
X136970000Y-98556000I0J-2000000D01*
G01*
X134970000Y-124556000D02*
G75*
G02*
X136970000Y-126556000I0J-2000000D01*
G01*
X136970000Y-108556000D02*
G75*
G02*
X134970000Y-110556000I-2000000J0D01*
G01*
X136970000Y-136556000D02*
G75*
G02*
X134970000Y-138556000I-2000000J0D01*
G01*
X144970000Y-98556000D02*
G75*
G02*
X146970000Y-96556000I2000000J0D01*
G01*
X144970000Y-126556000D02*
G75*
G02*
X146970000Y-124556000I2000000J0D01*
G01*
X146970000Y-110556000D02*
G75*
G02*
X144970000Y-108556000I0J2000000D01*
G01*
X146970000Y-138556000D02*
G75*
G02*
X144970000Y-136556000I0J2000000D01*
G01*
X115937420Y-95502000D02*
X116218580Y-95502000D01*
X115937420Y-96522000D02*
X116218580Y-96522000D01*
X114948580Y-85596000D02*
X114667420Y-85596000D01*
X114948580Y-86616000D02*
X114667420Y-86616000D01*
D10*
X125613000Y-139708000D02*
X125613000Y-142240000D01*
X125613000Y-142240000D02*
X126863000Y-142240000D01*
X126863000Y-142240000D02*
X126863000Y-139708000D01*
D12*
X114570742Y-81011500D02*
X115045258Y-81011500D01*
X114570742Y-82056500D02*
X115045258Y-82056500D01*
X114948580Y-84072000D02*
X114667420Y-84072000D01*
X114948580Y-85092000D02*
X114667420Y-85092000D01*
X117600000Y-85203420D02*
X117600000Y-85484580D01*
X118620000Y-85203420D02*
X118620000Y-85484580D01*
X111900580Y-76706000D02*
X111619420Y-76706000D01*
X111900580Y-77726000D02*
X111619420Y-77726000D01*
X167593742Y-90992500D02*
X168068258Y-90992500D01*
X167593742Y-92037500D02*
X168068258Y-92037500D01*
%LPC*%
D13*
X91492000Y-113574000D03*
X97992000Y-113574000D03*
X91492000Y-118074000D03*
X97992000Y-118074000D03*
X120448000Y-98334000D03*
X126948000Y-98334000D03*
X120448000Y-102834000D03*
X126948000Y-102834000D03*
X216968000Y-113574000D03*
X223468000Y-113574000D03*
X216968000Y-118074000D03*
X223468000Y-118074000D03*
X110796000Y-105954000D03*
X117296000Y-105954000D03*
X110796000Y-110454000D03*
X117296000Y-110454000D03*
X159056000Y-98334000D03*
X165556000Y-98334000D03*
X159056000Y-102834000D03*
X165556000Y-102834000D03*
X120448000Y-121194000D03*
X126948000Y-121194000D03*
X120448000Y-125694000D03*
X126948000Y-125694000D03*
X91492000Y-128814000D03*
X97992000Y-128814000D03*
X91492000Y-133314000D03*
X97992000Y-133314000D03*
X207316000Y-121194000D03*
X213816000Y-121194000D03*
X207316000Y-125694000D03*
X213816000Y-125694000D03*
X207316000Y-105954000D03*
X213816000Y-105954000D03*
X207316000Y-110454000D03*
X213816000Y-110454000D03*
X101144000Y-121194000D03*
X107644000Y-121194000D03*
X101144000Y-125694000D03*
X107644000Y-125694000D03*
X159056000Y-113574000D03*
X165556000Y-113574000D03*
X159056000Y-118074000D03*
X165556000Y-118074000D03*
X178360000Y-86142000D03*
X184860000Y-86142000D03*
X178360000Y-90642000D03*
X184860000Y-90642000D03*
X101144000Y-128814000D03*
X107644000Y-128814000D03*
X101144000Y-133314000D03*
X107644000Y-133314000D03*
X159056000Y-105954000D03*
X165556000Y-105954000D03*
X159056000Y-110454000D03*
X165556000Y-110454000D03*
D14*
X216662000Y-74422000D03*
D15*
X214122000Y-74422000D03*
X211582000Y-74422000D03*
X209042000Y-74422000D03*
X206502000Y-74422000D03*
X203962000Y-74422000D03*
D13*
X197664000Y-105954000D03*
X204164000Y-105954000D03*
X197664000Y-110454000D03*
X204164000Y-110454000D03*
X139752000Y-121194000D03*
X146252000Y-121194000D03*
X139752000Y-125694000D03*
X146252000Y-125694000D03*
X101144000Y-98334000D03*
X107644000Y-98334000D03*
X101144000Y-102834000D03*
X107644000Y-102834000D03*
D16*
X93000000Y-141000000D03*
D13*
X130100000Y-105954000D03*
X136600000Y-105954000D03*
X130100000Y-110454000D03*
X136600000Y-110454000D03*
D17*
X125984000Y-94234000D03*
X124714000Y-94234000D03*
X123444000Y-94234000D03*
X122174000Y-94234000D03*
X120904000Y-94234000D03*
X119634000Y-94234000D03*
X118364000Y-94234000D03*
X117094000Y-94234000D03*
X115824000Y-94234000D03*
X114554000Y-94234000D03*
X113284000Y-94234000D03*
X112014000Y-94234000D03*
X110744000Y-94234000D03*
X109474000Y-94234000D03*
X108204000Y-94234000D03*
X106934000Y-94234000D03*
X105664000Y-94234000D03*
D18*
X109474000Y-91934000D03*
X115824000Y-91934000D03*
D13*
X188012000Y-105954000D03*
X194512000Y-105954000D03*
X188012000Y-110454000D03*
X194512000Y-110454000D03*
D14*
X201422000Y-74422000D03*
D15*
X198882000Y-74422000D03*
X196342000Y-74422000D03*
X193802000Y-74422000D03*
X191262000Y-74422000D03*
X188722000Y-74422000D03*
D13*
X216968000Y-105954000D03*
X223468000Y-105954000D03*
X216968000Y-110454000D03*
X223468000Y-110454000D03*
D16*
X222000000Y-77000000D03*
D13*
X197664000Y-98334000D03*
X204164000Y-98334000D03*
X197664000Y-102834000D03*
X204164000Y-102834000D03*
X188012000Y-113574000D03*
X194512000Y-113574000D03*
X188012000Y-118074000D03*
X194512000Y-118074000D03*
X178360000Y-105954000D03*
X184860000Y-105954000D03*
X178360000Y-110454000D03*
X184860000Y-110454000D03*
X216968000Y-90714000D03*
X223468000Y-90714000D03*
X216968000Y-95214000D03*
X223468000Y-95214000D03*
X207316000Y-98334000D03*
X213816000Y-98334000D03*
X207316000Y-102834000D03*
X213816000Y-102834000D03*
X188012000Y-98334000D03*
X194512000Y-98334000D03*
X188012000Y-102834000D03*
X194512000Y-102834000D03*
X110796000Y-113574000D03*
X117296000Y-113574000D03*
X110796000Y-118074000D03*
X117296000Y-118074000D03*
X139752000Y-113574000D03*
X146252000Y-113574000D03*
X139752000Y-118074000D03*
X146252000Y-118074000D03*
X154904000Y-85142000D03*
X154904000Y-91642000D03*
X150404000Y-85142000D03*
X150404000Y-91642000D03*
X168708000Y-105954000D03*
X175208000Y-105954000D03*
X168708000Y-110454000D03*
X175208000Y-110454000D03*
X130100000Y-98334000D03*
X136600000Y-98334000D03*
X130100000Y-102834000D03*
X136600000Y-102834000D03*
X159056000Y-121194000D03*
X165556000Y-121194000D03*
X159056000Y-125694000D03*
X165556000Y-125694000D03*
X110796000Y-98334000D03*
X117296000Y-98334000D03*
X110796000Y-102834000D03*
X117296000Y-102834000D03*
X168708000Y-121194000D03*
X175208000Y-121194000D03*
X168708000Y-125694000D03*
X175208000Y-125694000D03*
X120448000Y-128814000D03*
X126948000Y-128814000D03*
X120448000Y-133314000D03*
X126948000Y-133314000D03*
X197664000Y-113574000D03*
X204164000Y-113574000D03*
X197664000Y-118074000D03*
X204164000Y-118074000D03*
D19*
X146050000Y-89408000D03*
D20*
X146050000Y-91908000D03*
X146050000Y-86908000D03*
D13*
X130100000Y-113574000D03*
X136600000Y-113574000D03*
X130100000Y-118074000D03*
X136600000Y-118074000D03*
X184860000Y-83022000D03*
X178360000Y-83022000D03*
X184860000Y-78522000D03*
X178360000Y-78522000D03*
D16*
X93000000Y-77000000D03*
D13*
X139752000Y-98334000D03*
X146252000Y-98334000D03*
X139752000Y-102834000D03*
X146252000Y-102834000D03*
X139752000Y-105954000D03*
X146252000Y-105954000D03*
X139752000Y-110454000D03*
X146252000Y-110454000D03*
X101144000Y-105954000D03*
X107644000Y-105954000D03*
X101144000Y-110454000D03*
X107644000Y-110454000D03*
X139752000Y-128814000D03*
X146252000Y-128814000D03*
X139752000Y-133314000D03*
X146252000Y-133314000D03*
X188012000Y-121194000D03*
X194512000Y-121194000D03*
X188012000Y-125694000D03*
X194512000Y-125694000D03*
X178360000Y-113574000D03*
X184860000Y-113574000D03*
X178360000Y-118074000D03*
X184860000Y-118074000D03*
X110796000Y-121194000D03*
X117296000Y-121194000D03*
X110796000Y-125694000D03*
X117296000Y-125694000D03*
X216968000Y-128814000D03*
X223468000Y-128814000D03*
X216968000Y-133314000D03*
X223468000Y-133314000D03*
D21*
X189973949Y-89504051D03*
X191770000Y-87708000D03*
X193566051Y-89504051D03*
D13*
X91492000Y-105954000D03*
X97992000Y-105954000D03*
X91492000Y-110454000D03*
X97992000Y-110454000D03*
X120448000Y-113574000D03*
X126948000Y-113574000D03*
X120448000Y-118074000D03*
X126948000Y-118074000D03*
X101144000Y-113574000D03*
X107644000Y-113574000D03*
X101144000Y-118074000D03*
X107644000Y-118074000D03*
X178360000Y-121194000D03*
X184860000Y-121194000D03*
X178360000Y-125694000D03*
X184860000Y-125694000D03*
X168708000Y-128814000D03*
X175208000Y-128814000D03*
X168708000Y-133314000D03*
X175208000Y-133314000D03*
D16*
X222000000Y-141000000D03*
D13*
X168708000Y-98334000D03*
X175208000Y-98334000D03*
X168708000Y-102834000D03*
X175208000Y-102834000D03*
X178360000Y-98334000D03*
X184860000Y-98334000D03*
X178360000Y-102834000D03*
X184860000Y-102834000D03*
X149404000Y-113574000D03*
X155904000Y-113574000D03*
X149404000Y-118074000D03*
X155904000Y-118074000D03*
X207316000Y-128814000D03*
X213816000Y-128814000D03*
X207316000Y-133314000D03*
X213816000Y-133314000D03*
D19*
X198628000Y-89408000D03*
D20*
X198628000Y-91908000D03*
X198628000Y-86908000D03*
D13*
X91492000Y-98334000D03*
X97992000Y-98334000D03*
X91492000Y-102834000D03*
X97992000Y-102834000D03*
X120448000Y-105954000D03*
X126948000Y-105954000D03*
X120448000Y-110454000D03*
X126948000Y-110454000D03*
X149404000Y-105954000D03*
X155904000Y-105954000D03*
X149404000Y-110454000D03*
X155904000Y-110454000D03*
D19*
X92964000Y-89408000D03*
D20*
X92964000Y-91908000D03*
X92964000Y-86908000D03*
D13*
X149404000Y-121194000D03*
X155904000Y-121194000D03*
X149404000Y-125694000D03*
X155904000Y-125694000D03*
X168708000Y-113574000D03*
X175208000Y-113574000D03*
X168708000Y-118074000D03*
X175208000Y-118074000D03*
X130100000Y-121194000D03*
X136600000Y-121194000D03*
X130100000Y-125694000D03*
X136600000Y-125694000D03*
X91492000Y-121194000D03*
X97992000Y-121194000D03*
X91492000Y-125694000D03*
X97992000Y-125694000D03*
X159056000Y-128814000D03*
X165556000Y-128814000D03*
X159056000Y-133314000D03*
X165556000Y-133314000D03*
X216968000Y-98334000D03*
X223468000Y-98334000D03*
X216968000Y-102834000D03*
X223468000Y-102834000D03*
X197664000Y-128814000D03*
X204164000Y-128814000D03*
X197664000Y-133314000D03*
X204164000Y-133314000D03*
D21*
X137377898Y-89504051D03*
X139173949Y-87708000D03*
X140970000Y-89504051D03*
D13*
X149404000Y-98334000D03*
X155904000Y-98334000D03*
X149404000Y-102834000D03*
X155904000Y-102834000D03*
X178360000Y-128814000D03*
X184860000Y-128814000D03*
X178360000Y-133314000D03*
X184860000Y-133314000D03*
D22*
X100624000Y-80531000D03*
X100624000Y-78981000D03*
D23*
X181610000Y-84519000D03*
X181610000Y-86169000D03*
D24*
X157862000Y-91515000D03*
X159512000Y-91515000D03*
D25*
X219265000Y-81612500D03*
X217615000Y-81612500D03*
D24*
X99033000Y-77470000D03*
X100683000Y-77470000D03*
D26*
X143922000Y-79567000D03*
X149702000Y-79567000D03*
D27*
X143462000Y-80632000D03*
X144262000Y-80632000D03*
X145562000Y-80632000D03*
X146562000Y-80632000D03*
X147062000Y-80632000D03*
X148062000Y-80632000D03*
X149362000Y-80632000D03*
X150162000Y-80632000D03*
X149862000Y-80632000D03*
X149062000Y-80632000D03*
X148562000Y-80632000D03*
X147562000Y-80632000D03*
X146062000Y-80632000D03*
X145062000Y-80632000D03*
X144562000Y-80632000D03*
X143762000Y-80632000D03*
D28*
X142492000Y-75887000D03*
D29*
X142492000Y-80067000D03*
D28*
X151132000Y-75887000D03*
D29*
X151132000Y-80067000D03*
D30*
X106366000Y-79964500D03*
X106766000Y-79964500D03*
X107166000Y-79964500D03*
X107566000Y-79964500D03*
X107966000Y-79964500D03*
X108366000Y-79964500D03*
X108766000Y-79964500D03*
X109166000Y-79964500D03*
X109566000Y-79964500D03*
X109966000Y-79964500D03*
X110366000Y-79964500D03*
X110766000Y-79964500D03*
X111166000Y-79964500D03*
X111566000Y-79964500D03*
D31*
X112403500Y-80802000D03*
X112403500Y-81202000D03*
X112403500Y-81602000D03*
X112403500Y-82002000D03*
X112403500Y-82402000D03*
X112403500Y-82802000D03*
X112403500Y-83202000D03*
X112403500Y-83602000D03*
X112403500Y-84002000D03*
X112403500Y-84402000D03*
X112403500Y-84802000D03*
X112403500Y-85202000D03*
X112403500Y-85602000D03*
X112403500Y-86002000D03*
D30*
X111566000Y-86839500D03*
X111166000Y-86839500D03*
X110766000Y-86839500D03*
X110366000Y-86839500D03*
X109966000Y-86839500D03*
X109566000Y-86839500D03*
X109166000Y-86839500D03*
X108766000Y-86839500D03*
X108366000Y-86839500D03*
X107966000Y-86839500D03*
X107566000Y-86839500D03*
X107166000Y-86839500D03*
X106766000Y-86839500D03*
X106366000Y-86839500D03*
D31*
X105528500Y-86002000D03*
X105528500Y-85602000D03*
X105528500Y-85202000D03*
X105528500Y-84802000D03*
X105528500Y-84402000D03*
X105528500Y-84002000D03*
X105528500Y-83602000D03*
X105528500Y-83202000D03*
X105528500Y-82802000D03*
X105528500Y-82402000D03*
X105528500Y-82002000D03*
X105528500Y-81602000D03*
X105528500Y-81202000D03*
X105528500Y-80802000D03*
D32*
X108966000Y-83402000D03*
D33*
X113538000Y-141158000D03*
D34*
X113538000Y-139258000D03*
D35*
X110018000Y-88633000D03*
X110018000Y-90183000D03*
D24*
X163958000Y-91515000D03*
X165608000Y-91515000D03*
D33*
X133858000Y-87950000D03*
D34*
X133858000Y-89850000D03*
D36*
X173482000Y-77470000D03*
D37*
X176022000Y-77470000D03*
D23*
X148590000Y-82487000D03*
X148590000Y-84137000D03*
D38*
X114033000Y-83058000D03*
X115583000Y-83058000D03*
D35*
X99100000Y-78981000D03*
X99100000Y-80531000D03*
X144018000Y-82537000D03*
X144018000Y-84087000D03*
D39*
X102629000Y-82804000D03*
X101079000Y-82804000D03*
X119901000Y-96012000D03*
X118351000Y-96012000D03*
D22*
X134620000Y-81039000D03*
X134620000Y-79489000D03*
D33*
X123698000Y-141158000D03*
D34*
X123698000Y-139258000D03*
D35*
X104648000Y-95999000D03*
X104648000Y-97549000D03*
D25*
X130189500Y-87056000D03*
X128539500Y-87056000D03*
D23*
X145542000Y-82487000D03*
X145542000Y-84137000D03*
D33*
X187706000Y-76774000D03*
D34*
X187706000Y-78674000D03*
D40*
X213026000Y-94226000D03*
X213026000Y-80526000D03*
X203026000Y-94226000D03*
X203026000Y-80526000D03*
D33*
X128778000Y-141158000D03*
D34*
X128778000Y-139258000D03*
D41*
X219390000Y-87200500D03*
D34*
X217490000Y-87200500D03*
D33*
X131318000Y-141158000D03*
D34*
X131318000Y-139258000D03*
D42*
X173482000Y-91137000D03*
X173482000Y-88187000D03*
D43*
X182880000Y-140156000D03*
D13*
X182880000Y-95456000D03*
D44*
X132470000Y-76472500D03*
X132470000Y-78752500D03*
D45*
X126170000Y-78752500D03*
D44*
X132470000Y-81032500D03*
D33*
X121158000Y-141158000D03*
D34*
X121158000Y-139258000D03*
D24*
X173165000Y-80518000D03*
X174815000Y-80518000D03*
D33*
X116078000Y-141158000D03*
D34*
X116078000Y-139258000D03*
D33*
X118618000Y-141158000D03*
D34*
X118618000Y-139258000D03*
D21*
X179070000Y-76200000D03*
X181610000Y-76200000D03*
X184150000Y-76200000D03*
D46*
X131318000Y-143637000D03*
D47*
X128778000Y-143637000D03*
X126238000Y-143637000D03*
X123698000Y-143637000D03*
X121158000Y-143637000D03*
X118618000Y-143637000D03*
X116078000Y-143637000D03*
X113538000Y-143637000D03*
X110998000Y-143637000D03*
X108458000Y-143637000D03*
X105918000Y-143637000D03*
X103378000Y-143637000D03*
X100838000Y-143637000D03*
X98298000Y-143637000D03*
X98298000Y-136017000D03*
X100838000Y-136017000D03*
X103378000Y-136017000D03*
X105918000Y-136017000D03*
X108458000Y-136017000D03*
X110998000Y-136017000D03*
X113538000Y-136017000D03*
X116078000Y-136017000D03*
X118618000Y-136017000D03*
X121158000Y-136017000D03*
X123698000Y-136017000D03*
X126238000Y-136017000D03*
X128778000Y-136017000D03*
X131318000Y-136017000D03*
D48*
X167113000Y-89565000D03*
X166013000Y-89565000D03*
X164913000Y-89565000D03*
X163813000Y-89565000D03*
X162713000Y-89565000D03*
X161613000Y-89565000D03*
X160513000Y-89565000D03*
X159413000Y-89565000D03*
X158463000Y-89565000D03*
D49*
X157513000Y-79065000D03*
D50*
X157513000Y-74915000D03*
D51*
X157513000Y-85265000D03*
X168663000Y-89565000D03*
D52*
X171013000Y-74465000D03*
D35*
X142494000Y-82537000D03*
X142494000Y-84087000D03*
D43*
X154940000Y-140156000D03*
D13*
X154940000Y-95456000D03*
D22*
X105918000Y-78499000D03*
X105918000Y-76949000D03*
D39*
X102629000Y-84328000D03*
X101079000Y-84328000D03*
X183655000Y-74168000D03*
X182105000Y-74168000D03*
D53*
X105918000Y-139509000D03*
X105918000Y-137859000D03*
X124460000Y-97599000D03*
X124460000Y-95949000D03*
D25*
X151701000Y-82804000D03*
X150051000Y-82804000D03*
D39*
X102629000Y-86614000D03*
X101079000Y-86614000D03*
D38*
X112255000Y-96012000D03*
X113805000Y-96012000D03*
X121399000Y-96012000D03*
X122949000Y-96012000D03*
D25*
X127571000Y-96012000D03*
X125921000Y-96012000D03*
D38*
X109207000Y-96012000D03*
X110757000Y-96012000D03*
D35*
X105410000Y-88887000D03*
X105410000Y-90437000D03*
D39*
X113424000Y-92710000D03*
X111874000Y-92710000D03*
D54*
X129794000Y-88646000D03*
X129794000Y-90546000D03*
X127919000Y-89596000D03*
D24*
X160910000Y-91515000D03*
X162560000Y-91515000D03*
D55*
X217490000Y-83469000D03*
X219390000Y-83469000D03*
X218440000Y-85344000D03*
D39*
X107709000Y-96012000D03*
X106159000Y-96012000D03*
D56*
X119501500Y-81116000D03*
X119501500Y-82066000D03*
X119501500Y-83016000D03*
X117226500Y-83016000D03*
X117226500Y-81116000D03*
D57*
X101902000Y-77668000D03*
X102402000Y-77668000D03*
X102902000Y-77668000D03*
X103402000Y-77668000D03*
X103402000Y-80518000D03*
X102902000Y-80518000D03*
X102402000Y-80518000D03*
X101902000Y-80518000D03*
D58*
X102652000Y-79093000D03*
D41*
X132146000Y-91186000D03*
D34*
X134046000Y-91186000D03*
D39*
X110503000Y-141732000D03*
X108953000Y-141732000D03*
X102629000Y-88138000D03*
X101079000Y-88138000D03*
D35*
X103124000Y-95999000D03*
X103124000Y-97549000D03*
D53*
X147066000Y-84137000D03*
X147066000Y-82487000D03*
D35*
X134620000Y-76441000D03*
X134620000Y-77991000D03*
D53*
X119634000Y-86169000D03*
X119634000Y-84519000D03*
D39*
X102629000Y-89662000D03*
X101079000Y-89662000D03*
D43*
X168910000Y-95556000D03*
D13*
X168910000Y-140256000D03*
D33*
X203962000Y-76774000D03*
D34*
X203962000Y-78674000D03*
D43*
X140970000Y-95556000D03*
D13*
X140970000Y-140256000D03*
D39*
X116853000Y-96012000D03*
X115303000Y-96012000D03*
D38*
X114033000Y-86106000D03*
X115583000Y-86106000D03*
D33*
X126238000Y-141158000D03*
D34*
X126238000Y-139258000D03*
D25*
X115633000Y-81534000D03*
X113983000Y-81534000D03*
D38*
X114033000Y-84582000D03*
X115583000Y-84582000D03*
D22*
X118110000Y-86119000D03*
X118110000Y-84569000D03*
D38*
X110985000Y-77216000D03*
X112535000Y-77216000D03*
D25*
X168656000Y-91515000D03*
X167006000Y-91515000D03*
%LPD*%
M02*
