G04 #@! TF.GenerationSoftware,KiCad,Pcbnew,8.0.5*
G04 #@! TF.CreationDate,2025-01-19T00:45:48+09:00*
G04 #@! TF.ProjectId,NERD-HPC,4e455244-2d48-4504-932e-6b696361645f,rev?*
G04 #@! TF.SameCoordinates,Original*
G04 #@! TF.FileFunction,Soldermask,Top*
G04 #@! TF.FilePolarity,Negative*
%FSLAX46Y46*%
G04 Gerber Fmt 4.6, Leading zero omitted, Abs format (unit mm)*
G04 Created by KiCad (PCBNEW 8.0.5) date 2025-01-19 00:45:48*
%MOMM*%
%LPD*%
G01*
G04 APERTURE LIST*
G04 Aperture macros list*
%AMRoundRect*
0 Rectangle with rounded corners*
0 $1 Rounding radius*
0 $2 $3 $4 $5 $6 $7 $8 $9 X,Y pos of 4 corners*
0 Add a 4 corners polygon primitive as box body*
4,1,4,$2,$3,$4,$5,$6,$7,$8,$9,$2,$3,0*
0 Add four circle primitives for the rounded corners*
1,1,$1+$1,$2,$3*
1,1,$1+$1,$4,$5*
1,1,$1+$1,$6,$7*
1,1,$1+$1,$8,$9*
0 Add four rect primitives between the rounded corners*
20,1,$1+$1,$2,$3,$4,$5,0*
20,1,$1+$1,$4,$5,$6,$7,0*
20,1,$1+$1,$6,$7,$8,$9,0*
20,1,$1+$1,$8,$9,$2,$3,0*%
G04 Aperture macros list end*
%ADD10C,2.000000*%
%ADD11R,1.700000X1.700000*%
%ADD12O,1.700000X1.700000*%
%ADD13C,3.200000*%
%ADD14C,1.000000*%
%ADD15RoundRect,0.350000X-1.150000X-0.350000X1.150000X-0.350000X1.150000X0.350000X-1.150000X0.350000X0*%
%ADD16R,1.500000X1.500000*%
%ADD17C,1.600000*%
%ADD18C,1.524000*%
%ADD19C,0.650000*%
%ADD20O,1.000000X1.600000*%
%ADD21O,1.000000X2.100000*%
%ADD22R,1.800000X1.800000*%
%ADD23C,1.800000*%
%ADD24R,2.000000X2.000000*%
%ADD25R,1.600000X1.600000*%
%ADD26O,1.600000X1.600000*%
G04 APERTURE END LIST*
D10*
X91492000Y-113574000D03*
X97992000Y-113574000D03*
X91492000Y-118074000D03*
X97992000Y-118074000D03*
X120448000Y-98334000D03*
X126948000Y-98334000D03*
X120448000Y-102834000D03*
X126948000Y-102834000D03*
X216968000Y-113574000D03*
X223468000Y-113574000D03*
X216968000Y-118074000D03*
X223468000Y-118074000D03*
X110796000Y-105954000D03*
X117296000Y-105954000D03*
X110796000Y-110454000D03*
X117296000Y-110454000D03*
X159056000Y-98334000D03*
X165556000Y-98334000D03*
X159056000Y-102834000D03*
X165556000Y-102834000D03*
X120448000Y-121194000D03*
X126948000Y-121194000D03*
X120448000Y-125694000D03*
X126948000Y-125694000D03*
X91492000Y-128814000D03*
X97992000Y-128814000D03*
X91492000Y-133314000D03*
X97992000Y-133314000D03*
X207316000Y-121194000D03*
X213816000Y-121194000D03*
X207316000Y-125694000D03*
X213816000Y-125694000D03*
X207316000Y-105954000D03*
X213816000Y-105954000D03*
X207316000Y-110454000D03*
X213816000Y-110454000D03*
X101144000Y-121194000D03*
X107644000Y-121194000D03*
X101144000Y-125694000D03*
X107644000Y-125694000D03*
X159056000Y-113574000D03*
X165556000Y-113574000D03*
X159056000Y-118074000D03*
X165556000Y-118074000D03*
X178360000Y-86142000D03*
X184860000Y-86142000D03*
X178360000Y-90642000D03*
X184860000Y-90642000D03*
X101144000Y-128814000D03*
X107644000Y-128814000D03*
X101144000Y-133314000D03*
X107644000Y-133314000D03*
X159056000Y-105954000D03*
X165556000Y-105954000D03*
X159056000Y-110454000D03*
X165556000Y-110454000D03*
D11*
X216662000Y-74422000D03*
D12*
X214122000Y-74422000D03*
X211582000Y-74422000D03*
X209042000Y-74422000D03*
X206502000Y-74422000D03*
X203962000Y-74422000D03*
D10*
X197664000Y-105954000D03*
X204164000Y-105954000D03*
X197664000Y-110454000D03*
X204164000Y-110454000D03*
X139752000Y-121194000D03*
X146252000Y-121194000D03*
X139752000Y-125694000D03*
X146252000Y-125694000D03*
X101144000Y-98334000D03*
X107644000Y-98334000D03*
X101144000Y-102834000D03*
X107644000Y-102834000D03*
D13*
X93000000Y-141000000D03*
D10*
X130100000Y-105954000D03*
X136600000Y-105954000D03*
X130100000Y-110454000D03*
X136600000Y-110454000D03*
D14*
X125984000Y-94234000D03*
X124714000Y-94234000D03*
X123444000Y-94234000D03*
X122174000Y-94234000D03*
X120904000Y-94234000D03*
X119634000Y-94234000D03*
X118364000Y-94234000D03*
X117094000Y-94234000D03*
X115824000Y-94234000D03*
X114554000Y-94234000D03*
X113284000Y-94234000D03*
X112014000Y-94234000D03*
X110744000Y-94234000D03*
X109474000Y-94234000D03*
X108204000Y-94234000D03*
X106934000Y-94234000D03*
X105664000Y-94234000D03*
D15*
X109474000Y-91934000D03*
X115824000Y-91934000D03*
D10*
X188012000Y-105954000D03*
X194512000Y-105954000D03*
X188012000Y-110454000D03*
X194512000Y-110454000D03*
D11*
X201422000Y-74422000D03*
D12*
X198882000Y-74422000D03*
X196342000Y-74422000D03*
X193802000Y-74422000D03*
X191262000Y-74422000D03*
X188722000Y-74422000D03*
D10*
X216968000Y-105954000D03*
X223468000Y-105954000D03*
X216968000Y-110454000D03*
X223468000Y-110454000D03*
D13*
X222000000Y-77000000D03*
D10*
X197664000Y-98334000D03*
X204164000Y-98334000D03*
X197664000Y-102834000D03*
X204164000Y-102834000D03*
X188012000Y-113574000D03*
X194512000Y-113574000D03*
X188012000Y-118074000D03*
X194512000Y-118074000D03*
X178360000Y-105954000D03*
X184860000Y-105954000D03*
X178360000Y-110454000D03*
X184860000Y-110454000D03*
X216968000Y-90714000D03*
X223468000Y-90714000D03*
X216968000Y-95214000D03*
X223468000Y-95214000D03*
X207316000Y-98334000D03*
X213816000Y-98334000D03*
X207316000Y-102834000D03*
X213816000Y-102834000D03*
X188012000Y-98334000D03*
X194512000Y-98334000D03*
X188012000Y-102834000D03*
X194512000Y-102834000D03*
X110796000Y-113574000D03*
X117296000Y-113574000D03*
X110796000Y-118074000D03*
X117296000Y-118074000D03*
X139752000Y-113574000D03*
X146252000Y-113574000D03*
X139752000Y-118074000D03*
X146252000Y-118074000D03*
X154904000Y-85142000D03*
X154904000Y-91642000D03*
X150404000Y-85142000D03*
X150404000Y-91642000D03*
X168708000Y-105954000D03*
X175208000Y-105954000D03*
X168708000Y-110454000D03*
X175208000Y-110454000D03*
X130100000Y-98334000D03*
X136600000Y-98334000D03*
X130100000Y-102834000D03*
X136600000Y-102834000D03*
X159056000Y-121194000D03*
X165556000Y-121194000D03*
X159056000Y-125694000D03*
X165556000Y-125694000D03*
X110796000Y-98334000D03*
X117296000Y-98334000D03*
X110796000Y-102834000D03*
X117296000Y-102834000D03*
X168708000Y-121194000D03*
X175208000Y-121194000D03*
X168708000Y-125694000D03*
X175208000Y-125694000D03*
X120448000Y-128814000D03*
X126948000Y-128814000D03*
X120448000Y-133314000D03*
X126948000Y-133314000D03*
X197664000Y-113574000D03*
X204164000Y-113574000D03*
X197664000Y-118074000D03*
X204164000Y-118074000D03*
D16*
X146050000Y-89408000D03*
D17*
X146050000Y-91908000D03*
X146050000Y-86908000D03*
D10*
X130100000Y-113574000D03*
X136600000Y-113574000D03*
X130100000Y-118074000D03*
X136600000Y-118074000D03*
X184860000Y-83022000D03*
X178360000Y-83022000D03*
X184860000Y-78522000D03*
X178360000Y-78522000D03*
D13*
X93000000Y-77000000D03*
D10*
X139752000Y-98334000D03*
X146252000Y-98334000D03*
X139752000Y-102834000D03*
X146252000Y-102834000D03*
X139752000Y-105954000D03*
X146252000Y-105954000D03*
X139752000Y-110454000D03*
X146252000Y-110454000D03*
X101144000Y-105954000D03*
X107644000Y-105954000D03*
X101144000Y-110454000D03*
X107644000Y-110454000D03*
X139752000Y-128814000D03*
X146252000Y-128814000D03*
X139752000Y-133314000D03*
X146252000Y-133314000D03*
X188012000Y-121194000D03*
X194512000Y-121194000D03*
X188012000Y-125694000D03*
X194512000Y-125694000D03*
X178360000Y-113574000D03*
X184860000Y-113574000D03*
X178360000Y-118074000D03*
X184860000Y-118074000D03*
X110796000Y-121194000D03*
X117296000Y-121194000D03*
X110796000Y-125694000D03*
X117296000Y-125694000D03*
X216968000Y-128814000D03*
X223468000Y-128814000D03*
X216968000Y-133314000D03*
X223468000Y-133314000D03*
D18*
X189973949Y-89504051D03*
X191770000Y-87708000D03*
X193566051Y-89504051D03*
D10*
X91492000Y-105954000D03*
X97992000Y-105954000D03*
X91492000Y-110454000D03*
X97992000Y-110454000D03*
X120448000Y-113574000D03*
X126948000Y-113574000D03*
X120448000Y-118074000D03*
X126948000Y-118074000D03*
X101144000Y-113574000D03*
X107644000Y-113574000D03*
X101144000Y-118074000D03*
X107644000Y-118074000D03*
X178360000Y-121194000D03*
X184860000Y-121194000D03*
X178360000Y-125694000D03*
X184860000Y-125694000D03*
X168708000Y-128814000D03*
X175208000Y-128814000D03*
X168708000Y-133314000D03*
X175208000Y-133314000D03*
D13*
X222000000Y-141000000D03*
D10*
X168708000Y-98334000D03*
X175208000Y-98334000D03*
X168708000Y-102834000D03*
X175208000Y-102834000D03*
X178360000Y-98334000D03*
X184860000Y-98334000D03*
X178360000Y-102834000D03*
X184860000Y-102834000D03*
X149404000Y-113574000D03*
X155904000Y-113574000D03*
X149404000Y-118074000D03*
X155904000Y-118074000D03*
X207316000Y-128814000D03*
X213816000Y-128814000D03*
X207316000Y-133314000D03*
X213816000Y-133314000D03*
D16*
X198628000Y-89408000D03*
D17*
X198628000Y-91908000D03*
X198628000Y-86908000D03*
D10*
X91492000Y-98334000D03*
X97992000Y-98334000D03*
X91492000Y-102834000D03*
X97992000Y-102834000D03*
X120448000Y-105954000D03*
X126948000Y-105954000D03*
X120448000Y-110454000D03*
X126948000Y-110454000D03*
X149404000Y-105954000D03*
X155904000Y-105954000D03*
X149404000Y-110454000D03*
X155904000Y-110454000D03*
D16*
X92964000Y-89408000D03*
D17*
X92964000Y-91908000D03*
X92964000Y-86908000D03*
D10*
X149404000Y-121194000D03*
X155904000Y-121194000D03*
X149404000Y-125694000D03*
X155904000Y-125694000D03*
X168708000Y-113574000D03*
X175208000Y-113574000D03*
X168708000Y-118074000D03*
X175208000Y-118074000D03*
X130100000Y-121194000D03*
X136600000Y-121194000D03*
X130100000Y-125694000D03*
X136600000Y-125694000D03*
X91492000Y-121194000D03*
X97992000Y-121194000D03*
X91492000Y-125694000D03*
X97992000Y-125694000D03*
X159056000Y-128814000D03*
X165556000Y-128814000D03*
X159056000Y-133314000D03*
X165556000Y-133314000D03*
X216968000Y-98334000D03*
X223468000Y-98334000D03*
X216968000Y-102834000D03*
X223468000Y-102834000D03*
X197664000Y-128814000D03*
X204164000Y-128814000D03*
X197664000Y-133314000D03*
X204164000Y-133314000D03*
D18*
X137377898Y-89504051D03*
X139173949Y-87708000D03*
X140970000Y-89504051D03*
D10*
X149404000Y-98334000D03*
X155904000Y-98334000D03*
X149404000Y-102834000D03*
X155904000Y-102834000D03*
X178360000Y-128814000D03*
X184860000Y-128814000D03*
X178360000Y-133314000D03*
X184860000Y-133314000D03*
D19*
X143922000Y-79567000D03*
X149702000Y-79567000D03*
D20*
X142492000Y-75887000D03*
D21*
X142492000Y-80067000D03*
D20*
X151132000Y-75887000D03*
D21*
X151132000Y-80067000D03*
D22*
X173482000Y-77470000D03*
D23*
X176022000Y-77470000D03*
D24*
X182880000Y-140156000D03*
D10*
X182880000Y-95456000D03*
D18*
X179070000Y-76200000D03*
X181610000Y-76200000D03*
X184150000Y-76200000D03*
D25*
X131318000Y-143637000D03*
D26*
X128778000Y-143637000D03*
X126238000Y-143637000D03*
X123698000Y-143637000D03*
X121158000Y-143637000D03*
X118618000Y-143637000D03*
X116078000Y-143637000D03*
X113538000Y-143637000D03*
X110998000Y-143637000D03*
X108458000Y-143637000D03*
X105918000Y-143637000D03*
X103378000Y-143637000D03*
X100838000Y-143637000D03*
X98298000Y-143637000D03*
X98298000Y-136017000D03*
X100838000Y-136017000D03*
X103378000Y-136017000D03*
X105918000Y-136017000D03*
X108458000Y-136017000D03*
X110998000Y-136017000D03*
X113538000Y-136017000D03*
X116078000Y-136017000D03*
X118618000Y-136017000D03*
X121158000Y-136017000D03*
X123698000Y-136017000D03*
X126238000Y-136017000D03*
X128778000Y-136017000D03*
X131318000Y-136017000D03*
D24*
X154940000Y-140156000D03*
D10*
X154940000Y-95456000D03*
D24*
X168910000Y-95556000D03*
D10*
X168910000Y-140256000D03*
D24*
X140970000Y-95556000D03*
D10*
X140970000Y-140256000D03*
M02*
