M48
; DRILL file {KiCad 8.0.5} date 2025-01-19T00:45:51+0900
; FORMAT={-:-/ absolute / metric / decimal}
; #@! TF.CreationDate,2025-01-19T00:45:51+09:00
; #@! TF.GenerationSoftware,Kicad,Pcbnew,8.0.5
; #@! TF.FileFunction,Plated,1,4,PTH
FMAT,2
METRIC
; #@! TA.AperFunction,Plated,PTH,ViaDrill
T1C0.300
; #@! TA.AperFunction,Plated,PTH,ComponentDrill
T2C0.600
; #@! TA.AperFunction,Plated,PTH,ComponentDrill
T3C0.650
; #@! TA.AperFunction,Plated,PTH,ComponentDrill
T4C0.700
; #@! TA.AperFunction,Plated,PTH,ComponentDrill
T5C0.762
; #@! TA.AperFunction,Plated,PTH,ComponentDrill
T6C0.800
; #@! TA.AperFunction,Plated,PTH,ComponentDrill
T7C0.900
; #@! TA.AperFunction,Plated,PTH,ComponentDrill
T8C1.000
; #@! TA.AperFunction,Plated,PTH,ComponentDrill
T9C1.020
; #@! TA.AperFunction,Plated,PTH,ComponentDrill
T10C1.100
%
G90
G05
T1
X94.107Y-137.287
X94.742Y-138.178
X94.904Y-136.652
X98.298Y-79.756
X98.298Y-137.668
X99.568Y-83.058
X99.568Y-84.328
X99.822Y-76.546
X99.822Y-81.534
X99.822Y-86.36
X99.822Y-100.584
X99.824Y-79.753
X100.076Y-87.63
X100.076Y-90.932
X100.838Y-137.668
X101.464Y-79.71
X101.854Y-85.344
X101.854Y-88.9
X102.87Y-90.678
X102.87Y-137.668
X103.589Y-85.555
X103.632Y-84.602
X104.013Y-91.694
X104.064Y-77.978
X104.648Y-89.662
X104.902Y-139.446
X104.902Y-140.462
X105.227Y-76.546
X105.664Y-79.502
X105.918Y-97.282
X106.406Y-88.739
X106.426Y-115.062
X107.188Y-89.154
X107.188Y-142.494
X107.95Y-82.394
X107.95Y-83.312
X107.95Y-84.328
X107.95Y-141.478
X108.066Y-89.108
X108.566Y-88.483
X108.966Y-82.394
X108.966Y-83.312
X108.966Y-84.328
X109.185Y-87.976
X109.22Y-97.282
X109.982Y-82.394
X109.982Y-83.312
X109.982Y-84.328
X110.85Y-87.974
X111.252Y-81.026
X111.466Y-82.798
X111.702Y-76.571
X112.171Y-88.016
X112.522Y-91.44
X112.776Y-97.282
X113.538Y-120.396
X113.538Y-130.302
X113.792Y-77.216
X114.554Y-113.574
X114.554Y-138.938
X114.808Y-80.937
X114.808Y-82.296
X114.808Y-85.344
X114.839Y-83.744
X114.947Y-86.592
X116.078Y-107.696
X116.332Y-83.82
X117.348Y-86.002
X117.348Y-86.992
X117.856Y-119.634
X118.041Y-87.392
X118.11Y-82.296
X118.364Y-127.254
X118.618Y-92.456
X119.126Y-87.792
X119.126Y-97.028
X119.38Y-111.76
X120.142Y-88.046
X120.214Y-80.446
X120.482Y-83.917
X121.92Y-105.156
X121.989Y-86.008
X122.174Y-97.028
X122.428Y-122.682
X123.936Y-86.002
X124.46Y-76.454
X124.46Y-77.978
X124.46Y-78.994
X124.46Y-80.01
X124.46Y-81.026
X124.46Y-82.042
X124.622Y-91.532
X125.476Y-97.536
X125.822Y-91.44
X126.238Y-76.454
X126.238Y-77.978
X126.238Y-78.994
X126.238Y-80.01
X126.238Y-81.026
X126.238Y-82.042
X127.254Y-138.938
X127.762Y-76.454
X127.762Y-80.01
X127.762Y-81.026
X127.762Y-82.042
X127.762Y-94.996
X128.489Y-112.811
X128.524Y-107.188
X128.524Y-128.016
X129.089Y-116.332
X129.286Y-86.002
X129.794Y-83.312
X130.048Y-76.454
X130.048Y-77.978
X130.048Y-139.446
X130.556Y-83.312
X130.81Y-79.248
X131.064Y-127.254
X131.318Y-83.312
X131.572Y-86.002
X131.572Y-99.568
X131.826Y-132.014
X132.334Y-92.202
X132.334Y-92.964
X132.842Y-103.632
X133.096Y-92.964
X133.258Y-136.906
X133.807Y-85.54
X134.112Y-137.668
X134.62Y-76.441
X135.382Y-76.441
X135.636Y-77.978
X135.636Y-79.502
X136.144Y-76.441
X137.414Y-104.394
X137.414Y-127.508
X137.922Y-114.808
X139.159Y-99.712
X140.132Y-75.556
X140.208Y-74.168
X140.566Y-74.884
X140.649Y-76.167
X140.97Y-100.838
X142.24Y-85.344
X142.557Y-81.537
X143.164Y-90.17
X143.256Y-88.408
X143.51Y-75.946
X143.764Y-89.408
X143.764Y-85.344
X144.364Y-88.646
X145.034Y-85.344
X146.304Y-83.312
X147.228Y-100.33
X147.32Y-115.474
X147.828Y-83.312
X150.114Y-75.946
X150.368Y-81.534
X152.146Y-85.09
X152.4Y-91.694
X152.654Y-80.518
X152.908Y-82.804
X154.432Y-111.76
X157.15Y-100.428
X157.226Y-90.678
X157.48Y-134.366
X161.544Y-90.932
X161.798Y-86.36
X163.068Y-86.36
X163.322Y-90.678
X163.83Y-108.204
X164.313Y-90.615
X166.808Y-100.422
X166.808Y-114.808
X169.926Y-91.186
X170.18Y-112.776
X173.228Y-79.41
X173.482Y-89.662
X175.006Y-90.932
X179.324Y-94.996
X180.086Y-94.996
X180.34Y-90.678
X180.594Y-80.01
X180.594Y-83.058
X180.848Y-94.996
X182.626Y-84.419
X182.88Y-83.058
X182.88Y-90.678
X183.388Y-101.346
X185.674Y-100.584
X186.182Y-115.824
X186.76Y-107.188
X188.976Y-76.0
X189.23Y-78.74
X189.484Y-105.156
X189.992Y-78.74
X190.754Y-78.74
X195.834Y-83.058
X195.834Y-99.568
X196.412Y-107.442
X196.901Y-104.343
X199.136Y-129.794
X199.898Y-109.474
X201.422Y-78.74
X202.184Y-78.74
X202.946Y-78.74
X205.232Y-77.0
X206.064Y-111.76
X206.248Y-116.774
X215.138Y-99.822
X215.646Y-101.346
X218.44Y-104.902
X220.472Y-81.534
X220.472Y-83.566
T3
X105.664Y-94.234
X106.934Y-94.234
X108.204Y-94.234
X109.474Y-94.234
X110.744Y-94.234
X112.014Y-94.234
X113.284Y-94.234
X114.554Y-94.234
X115.824Y-94.234
X117.094Y-94.234
X118.364Y-94.234
X119.634Y-94.234
X120.904Y-94.234
X122.174Y-94.234
X123.444Y-94.234
X124.714Y-94.234
X125.984Y-94.234
T5
X137.378Y-89.504
X139.174Y-87.708
X140.97Y-89.504
X179.07Y-76.2
X181.61Y-76.2
X184.15Y-76.2
X189.974Y-89.504
X191.77Y-87.708
X193.566Y-89.504
T6
X92.964Y-86.908
X92.964Y-89.408
X92.964Y-91.908
X98.298Y-136.017
X98.298Y-143.637
X100.838Y-136.017
X100.838Y-143.637
X103.378Y-136.017
X103.378Y-143.637
X105.918Y-136.017
X105.918Y-143.637
X108.458Y-136.017
X108.458Y-143.637
X110.998Y-136.017
X110.998Y-143.637
X113.538Y-136.017
X113.538Y-143.637
X116.078Y-136.017
X116.078Y-143.637
X118.618Y-136.017
X118.618Y-143.637
X121.158Y-136.017
X121.158Y-143.637
X123.698Y-136.017
X123.698Y-143.637
X126.238Y-136.017
X126.238Y-143.637
X128.778Y-136.017
X128.778Y-143.637
X131.318Y-136.017
X131.318Y-143.637
X146.05Y-86.908
X146.05Y-89.408
X146.05Y-91.908
X198.628Y-86.908
X198.628Y-89.408
X198.628Y-91.908
T7
X173.482Y-77.47
X176.022Y-77.47
T8
X188.722Y-74.422
X191.262Y-74.422
X193.802Y-74.422
X196.342Y-74.422
X198.882Y-74.422
X201.422Y-74.422
X203.962Y-74.422
X206.502Y-74.422
X209.042Y-74.422
X211.582Y-74.422
X214.122Y-74.422
X216.662Y-74.422
T9
X140.97Y-95.556
X140.97Y-140.256
X154.94Y-95.456
X154.94Y-140.156
X168.91Y-95.556
X168.91Y-140.256
X182.88Y-95.456
X182.88Y-140.156
T10
X91.492Y-98.334
X91.492Y-102.834
X91.492Y-105.954
X91.492Y-110.454
X91.492Y-113.574
X91.492Y-118.074
X91.492Y-121.194
X91.492Y-125.694
X91.492Y-128.814
X91.492Y-133.314
X97.992Y-98.334
X97.992Y-102.834
X97.992Y-105.954
X97.992Y-110.454
X97.992Y-113.574
X97.992Y-118.074
X97.992Y-121.194
X97.992Y-125.694
X97.992Y-128.814
X97.992Y-133.314
X101.144Y-98.334
X101.144Y-102.834
X101.144Y-105.954
X101.144Y-110.454
X101.144Y-113.574
X101.144Y-118.074
X101.144Y-121.194
X101.144Y-125.694
X101.144Y-128.814
X101.144Y-133.314
X107.644Y-98.334
X107.644Y-102.834
X107.644Y-105.954
X107.644Y-110.454
X107.644Y-113.574
X107.644Y-118.074
X107.644Y-121.194
X107.644Y-125.694
X107.644Y-128.814
X107.644Y-133.314
X110.796Y-98.334
X110.796Y-102.834
X110.796Y-105.954
X110.796Y-110.454
X110.796Y-113.574
X110.796Y-118.074
X110.796Y-121.194
X110.796Y-125.694
X117.296Y-98.334
X117.296Y-102.834
X117.296Y-105.954
X117.296Y-110.454
X117.296Y-113.574
X117.296Y-118.074
X117.296Y-121.194
X117.296Y-125.694
X120.448Y-98.334
X120.448Y-102.834
X120.448Y-105.954
X120.448Y-110.454
X120.448Y-113.574
X120.448Y-118.074
X120.448Y-121.194
X120.448Y-125.694
X120.448Y-128.814
X120.448Y-133.314
X126.948Y-98.334
X126.948Y-102.834
X126.948Y-105.954
X126.948Y-110.454
X126.948Y-113.574
X126.948Y-118.074
X126.948Y-121.194
X126.948Y-125.694
X126.948Y-128.814
X126.948Y-133.314
X130.1Y-98.334
X130.1Y-102.834
X130.1Y-105.954
X130.1Y-110.454
X130.1Y-113.574
X130.1Y-118.074
X130.1Y-121.194
X130.1Y-125.694
X136.6Y-98.334
X136.6Y-102.834
X136.6Y-105.954
X136.6Y-110.454
X136.6Y-113.574
X136.6Y-118.074
X136.6Y-121.194
X136.6Y-125.694
X139.752Y-98.334
X139.752Y-102.834
X139.752Y-105.954
X139.752Y-110.454
X139.752Y-113.574
X139.752Y-118.074
X139.752Y-121.194
X139.752Y-125.694
X139.752Y-128.814
X139.752Y-133.314
X146.252Y-98.334
X146.252Y-102.834
X146.252Y-105.954
X146.252Y-110.454
X146.252Y-113.574
X146.252Y-118.074
X146.252Y-121.194
X146.252Y-125.694
X146.252Y-128.814
X146.252Y-133.314
X149.404Y-98.334
X149.404Y-102.834
X149.404Y-105.954
X149.404Y-110.454
X149.404Y-113.574
X149.404Y-118.074
X149.404Y-121.194
X149.404Y-125.694
X150.404Y-85.142
X150.404Y-91.642
X154.904Y-85.142
X154.904Y-91.642
X155.904Y-98.334
X155.904Y-102.834
X155.904Y-105.954
X155.904Y-110.454
X155.904Y-113.574
X155.904Y-118.074
X155.904Y-121.194
X155.904Y-125.694
X159.056Y-98.334
X159.056Y-102.834
X159.056Y-105.954
X159.056Y-110.454
X159.056Y-113.574
X159.056Y-118.074
X159.056Y-121.194
X159.056Y-125.694
X159.056Y-128.814
X159.056Y-133.314
X165.556Y-98.334
X165.556Y-102.834
X165.556Y-105.954
X165.556Y-110.454
X165.556Y-113.574
X165.556Y-118.074
X165.556Y-121.194
X165.556Y-125.694
X165.556Y-128.814
X165.556Y-133.314
X168.708Y-98.334
X168.708Y-102.834
X168.708Y-105.954
X168.708Y-110.454
X168.708Y-113.574
X168.708Y-118.074
X168.708Y-121.194
X168.708Y-125.694
X168.708Y-128.814
X168.708Y-133.314
X175.208Y-98.334
X175.208Y-102.834
X175.208Y-105.954
X175.208Y-110.454
X175.208Y-113.574
X175.208Y-118.074
X175.208Y-121.194
X175.208Y-125.694
X175.208Y-128.814
X175.208Y-133.314
X178.36Y-78.522
X178.36Y-83.022
X178.36Y-86.142
X178.36Y-90.642
X178.36Y-98.334
X178.36Y-102.834
X178.36Y-105.954
X178.36Y-110.454
X178.36Y-113.574
X178.36Y-118.074
X178.36Y-121.194
X178.36Y-125.694
X178.36Y-128.814
X178.36Y-133.314
X184.86Y-78.522
X184.86Y-83.022
X184.86Y-86.142
X184.86Y-90.642
X184.86Y-98.334
X184.86Y-102.834
X184.86Y-105.954
X184.86Y-110.454
X184.86Y-113.574
X184.86Y-118.074
X184.86Y-121.194
X184.86Y-125.694
X184.86Y-128.814
X184.86Y-133.314
X188.012Y-98.334
X188.012Y-102.834
X188.012Y-105.954
X188.012Y-110.454
X188.012Y-113.574
X188.012Y-118.074
X188.012Y-121.194
X188.012Y-125.694
X194.512Y-98.334
X194.512Y-102.834
X194.512Y-105.954
X194.512Y-110.454
X194.512Y-113.574
X194.512Y-118.074
X194.512Y-121.194
X194.512Y-125.694
X197.664Y-98.334
X197.664Y-102.834
X197.664Y-105.954
X197.664Y-110.454
X197.664Y-113.574
X197.664Y-118.074
X197.664Y-128.814
X197.664Y-133.314
X204.164Y-98.334
X204.164Y-102.834
X204.164Y-105.954
X204.164Y-110.454
X204.164Y-113.574
X204.164Y-118.074
X204.164Y-128.814
X204.164Y-133.314
X207.316Y-98.334
X207.316Y-102.834
X207.316Y-105.954
X207.316Y-110.454
X207.316Y-121.194
X207.316Y-125.694
X207.316Y-128.814
X207.316Y-133.314
X213.816Y-98.334
X213.816Y-102.834
X213.816Y-105.954
X213.816Y-110.454
X213.816Y-121.194
X213.816Y-125.694
X213.816Y-128.814
X213.816Y-133.314
X216.968Y-90.714
X216.968Y-95.214
X216.968Y-98.334
X216.968Y-102.834
X216.968Y-105.954
X216.968Y-110.454
X216.968Y-113.574
X216.968Y-118.074
X216.968Y-128.814
X216.968Y-133.314
X223.468Y-90.714
X223.468Y-95.214
X223.468Y-98.334
X223.468Y-102.834
X223.468Y-105.954
X223.468Y-110.454
X223.468Y-113.574
X223.468Y-118.074
X223.468Y-128.814
X223.468Y-133.314
T2
X142.492Y-75.587G85X142.492Y-76.187
G05
X142.492Y-79.517G85X142.492Y-80.617
G05
X151.132Y-75.587G85X151.132Y-76.187
G05
X151.132Y-79.517G85X151.132Y-80.617
G05
T4
X108.724Y-91.934G85X110.224Y-91.934
G05
X115.074Y-91.934G85X116.574Y-91.934
G05
M30
