%TF.GenerationSoftware,KiCad,Pcbnew,8.0.5*%
%TF.CreationDate,2025-01-01T11:48:41+09:00*%
%TF.ProjectId,NERD-HPC,4e455244-2d48-4504-932e-6b696361645f,rev?*%
%TF.SameCoordinates,Original*%
%TF.FileFunction,Drillmap*%
%TF.FilePolarity,Positive*%
%FSLAX45Y45*%
G04 Gerber Fmt 4.5, Leading zero omitted, Abs format (unit mm)*
G04 Created by KiCad (PCBNEW 8.0.5) date 2025-01-01 11:48:41*
%MOMM*%
%LPD*%
G01*
G04 APERTURE LIST*
%ADD10C,0.050000*%
%ADD11C,0.200000*%
%ADD12C,0.100000*%
%ADD13C,0.320000*%
G04 APERTURE END LIST*
D10*
X9300000Y-14500000D02*
G75*
G02*
X8900000Y-14100000I0J400000D01*
G01*
X22200000Y-7300000D02*
X9300000Y-7300000D01*
X22200000Y-7300000D02*
G75*
G02*
X22600000Y-7700000I0J-400000D01*
G01*
X8900000Y-7700000D02*
G75*
G02*
X9300000Y-7300000I400000J0D01*
G01*
X22600000Y-14100000D02*
X22600000Y-7700000D01*
X9300000Y-14500000D02*
X22200000Y-14500000D01*
X8900000Y-7700000D02*
X8900000Y-14100000D01*
X22600000Y-14100000D02*
G75*
G02*
X22200000Y-14500000I-400000J0D01*
G01*
D11*
D12*
X14359700Y-7924200D02*
X14424700Y-7989200D01*
X14424700Y-7924200D02*
X14359700Y-7989200D01*
X14937700Y-7924200D02*
X15002700Y-7989200D01*
X15002700Y-7924200D02*
X14937700Y-7989200D01*
D13*
X9460000Y-7700000D02*
G75*
G02*
X9140000Y-7700000I-160000J0D01*
G01*
X9140000Y-7700000D02*
G75*
G02*
X9460000Y-7700000I160000J0D01*
G01*
X9460000Y-14100000D02*
G75*
G02*
X9140000Y-14100000I-160000J0D01*
G01*
X9140000Y-14100000D02*
G75*
G02*
X9460000Y-14100000I160000J0D01*
G01*
X22360000Y-7700000D02*
G75*
G02*
X22040000Y-7700000I-160000J0D01*
G01*
X22040000Y-7700000D02*
G75*
G02*
X22360000Y-7700000I160000J0D01*
G01*
X22360000Y-14100000D02*
G75*
G02*
X22040000Y-14100000I-160000J0D01*
G01*
X22040000Y-14100000D02*
G75*
G02*
X22360000Y-14100000I160000J0D01*
G01*
D11*
X9158277Y-14813984D02*
X9158277Y-14613984D01*
X9158277Y-14613984D02*
X9205896Y-14613984D01*
X9205896Y-14613984D02*
X9234467Y-14623508D01*
X9234467Y-14623508D02*
X9253515Y-14642555D01*
X9253515Y-14642555D02*
X9263039Y-14661603D01*
X9263039Y-14661603D02*
X9272563Y-14699698D01*
X9272563Y-14699698D02*
X9272563Y-14728269D01*
X9272563Y-14728269D02*
X9263039Y-14766365D01*
X9263039Y-14766365D02*
X9253515Y-14785412D01*
X9253515Y-14785412D02*
X9234467Y-14804460D01*
X9234467Y-14804460D02*
X9205896Y-14813984D01*
X9205896Y-14813984D02*
X9158277Y-14813984D01*
X9358277Y-14813984D02*
X9358277Y-14680650D01*
X9358277Y-14718746D02*
X9367801Y-14699698D01*
X9367801Y-14699698D02*
X9377324Y-14690174D01*
X9377324Y-14690174D02*
X9396372Y-14680650D01*
X9396372Y-14680650D02*
X9415420Y-14680650D01*
X9482086Y-14813984D02*
X9482086Y-14680650D01*
X9482086Y-14613984D02*
X9472563Y-14623508D01*
X9472563Y-14623508D02*
X9482086Y-14633031D01*
X9482086Y-14633031D02*
X9491610Y-14623508D01*
X9491610Y-14623508D02*
X9482086Y-14613984D01*
X9482086Y-14613984D02*
X9482086Y-14633031D01*
X9605896Y-14813984D02*
X9586848Y-14804460D01*
X9586848Y-14804460D02*
X9577324Y-14785412D01*
X9577324Y-14785412D02*
X9577324Y-14613984D01*
X9710658Y-14813984D02*
X9691610Y-14804460D01*
X9691610Y-14804460D02*
X9682086Y-14785412D01*
X9682086Y-14785412D02*
X9682086Y-14613984D01*
X9939229Y-14813984D02*
X9939229Y-14613984D01*
X9939229Y-14613984D02*
X10005896Y-14756841D01*
X10005896Y-14756841D02*
X10072563Y-14613984D01*
X10072563Y-14613984D02*
X10072563Y-14813984D01*
X10253515Y-14813984D02*
X10253515Y-14709222D01*
X10253515Y-14709222D02*
X10243991Y-14690174D01*
X10243991Y-14690174D02*
X10224944Y-14680650D01*
X10224944Y-14680650D02*
X10186848Y-14680650D01*
X10186848Y-14680650D02*
X10167801Y-14690174D01*
X10253515Y-14804460D02*
X10234467Y-14813984D01*
X10234467Y-14813984D02*
X10186848Y-14813984D01*
X10186848Y-14813984D02*
X10167801Y-14804460D01*
X10167801Y-14804460D02*
X10158277Y-14785412D01*
X10158277Y-14785412D02*
X10158277Y-14766365D01*
X10158277Y-14766365D02*
X10167801Y-14747317D01*
X10167801Y-14747317D02*
X10186848Y-14737793D01*
X10186848Y-14737793D02*
X10234467Y-14737793D01*
X10234467Y-14737793D02*
X10253515Y-14728269D01*
X10348753Y-14680650D02*
X10348753Y-14880650D01*
X10348753Y-14690174D02*
X10367801Y-14680650D01*
X10367801Y-14680650D02*
X10405896Y-14680650D01*
X10405896Y-14680650D02*
X10424944Y-14690174D01*
X10424944Y-14690174D02*
X10434467Y-14699698D01*
X10434467Y-14699698D02*
X10443991Y-14718746D01*
X10443991Y-14718746D02*
X10443991Y-14775888D01*
X10443991Y-14775888D02*
X10434467Y-14794936D01*
X10434467Y-14794936D02*
X10424944Y-14804460D01*
X10424944Y-14804460D02*
X10405896Y-14813984D01*
X10405896Y-14813984D02*
X10367801Y-14813984D01*
X10367801Y-14813984D02*
X10348753Y-14804460D01*
X10529705Y-14794936D02*
X10539229Y-14804460D01*
X10539229Y-14804460D02*
X10529705Y-14813984D01*
X10529705Y-14813984D02*
X10520182Y-14804460D01*
X10520182Y-14804460D02*
X10529705Y-14794936D01*
X10529705Y-14794936D02*
X10529705Y-14813984D01*
X10529705Y-14690174D02*
X10539229Y-14699698D01*
X10539229Y-14699698D02*
X10529705Y-14709222D01*
X10529705Y-14709222D02*
X10520182Y-14699698D01*
X10520182Y-14699698D02*
X10529705Y-14690174D01*
X10529705Y-14690174D02*
X10529705Y-14709222D01*
D12*
X8832500Y-15110000D02*
X8897500Y-15175000D01*
X8897500Y-15110000D02*
X8832500Y-15175000D01*
D11*
X9196372Y-15033984D02*
X9215420Y-15033984D01*
X9215420Y-15033984D02*
X9234467Y-15043508D01*
X9234467Y-15043508D02*
X9243991Y-15053031D01*
X9243991Y-15053031D02*
X9253515Y-15072079D01*
X9253515Y-15072079D02*
X9263039Y-15110174D01*
X9263039Y-15110174D02*
X9263039Y-15157793D01*
X9263039Y-15157793D02*
X9253515Y-15195888D01*
X9253515Y-15195888D02*
X9243991Y-15214936D01*
X9243991Y-15214936D02*
X9234467Y-15224460D01*
X9234467Y-15224460D02*
X9215420Y-15233984D01*
X9215420Y-15233984D02*
X9196372Y-15233984D01*
X9196372Y-15233984D02*
X9177324Y-15224460D01*
X9177324Y-15224460D02*
X9167801Y-15214936D01*
X9167801Y-15214936D02*
X9158277Y-15195888D01*
X9158277Y-15195888D02*
X9148753Y-15157793D01*
X9148753Y-15157793D02*
X9148753Y-15110174D01*
X9148753Y-15110174D02*
X9158277Y-15072079D01*
X9158277Y-15072079D02*
X9167801Y-15053031D01*
X9167801Y-15053031D02*
X9177324Y-15043508D01*
X9177324Y-15043508D02*
X9196372Y-15033984D01*
X9348753Y-15214936D02*
X9358277Y-15224460D01*
X9358277Y-15224460D02*
X9348753Y-15233984D01*
X9348753Y-15233984D02*
X9339229Y-15224460D01*
X9339229Y-15224460D02*
X9348753Y-15214936D01*
X9348753Y-15214936D02*
X9348753Y-15233984D01*
X9529705Y-15033984D02*
X9491610Y-15033984D01*
X9491610Y-15033984D02*
X9472563Y-15043508D01*
X9472563Y-15043508D02*
X9463039Y-15053031D01*
X9463039Y-15053031D02*
X9443991Y-15081603D01*
X9443991Y-15081603D02*
X9434467Y-15119698D01*
X9434467Y-15119698D02*
X9434467Y-15195888D01*
X9434467Y-15195888D02*
X9443991Y-15214936D01*
X9443991Y-15214936D02*
X9453515Y-15224460D01*
X9453515Y-15224460D02*
X9472563Y-15233984D01*
X9472563Y-15233984D02*
X9510658Y-15233984D01*
X9510658Y-15233984D02*
X9529705Y-15224460D01*
X9529705Y-15224460D02*
X9539229Y-15214936D01*
X9539229Y-15214936D02*
X9548753Y-15195888D01*
X9548753Y-15195888D02*
X9548753Y-15148269D01*
X9548753Y-15148269D02*
X9539229Y-15129222D01*
X9539229Y-15129222D02*
X9529705Y-15119698D01*
X9529705Y-15119698D02*
X9510658Y-15110174D01*
X9510658Y-15110174D02*
X9472563Y-15110174D01*
X9472563Y-15110174D02*
X9453515Y-15119698D01*
X9453515Y-15119698D02*
X9443991Y-15129222D01*
X9443991Y-15129222D02*
X9434467Y-15148269D01*
X9729705Y-15033984D02*
X9634467Y-15033984D01*
X9634467Y-15033984D02*
X9624944Y-15129222D01*
X9624944Y-15129222D02*
X9634467Y-15119698D01*
X9634467Y-15119698D02*
X9653515Y-15110174D01*
X9653515Y-15110174D02*
X9701134Y-15110174D01*
X9701134Y-15110174D02*
X9720182Y-15119698D01*
X9720182Y-15119698D02*
X9729705Y-15129222D01*
X9729705Y-15129222D02*
X9739229Y-15148269D01*
X9739229Y-15148269D02*
X9739229Y-15195888D01*
X9739229Y-15195888D02*
X9729705Y-15214936D01*
X9729705Y-15214936D02*
X9720182Y-15224460D01*
X9720182Y-15224460D02*
X9701134Y-15233984D01*
X9701134Y-15233984D02*
X9653515Y-15233984D01*
X9653515Y-15233984D02*
X9634467Y-15224460D01*
X9634467Y-15224460D02*
X9624944Y-15214936D01*
X9863039Y-15033984D02*
X9882086Y-15033984D01*
X9882086Y-15033984D02*
X9901134Y-15043508D01*
X9901134Y-15043508D02*
X9910658Y-15053031D01*
X9910658Y-15053031D02*
X9920182Y-15072079D01*
X9920182Y-15072079D02*
X9929705Y-15110174D01*
X9929705Y-15110174D02*
X9929705Y-15157793D01*
X9929705Y-15157793D02*
X9920182Y-15195888D01*
X9920182Y-15195888D02*
X9910658Y-15214936D01*
X9910658Y-15214936D02*
X9901134Y-15224460D01*
X9901134Y-15224460D02*
X9882086Y-15233984D01*
X9882086Y-15233984D02*
X9863039Y-15233984D01*
X9863039Y-15233984D02*
X9843991Y-15224460D01*
X9843991Y-15224460D02*
X9834467Y-15214936D01*
X9834467Y-15214936D02*
X9824944Y-15195888D01*
X9824944Y-15195888D02*
X9815420Y-15157793D01*
X9815420Y-15157793D02*
X9815420Y-15110174D01*
X9815420Y-15110174D02*
X9824944Y-15072079D01*
X9824944Y-15072079D02*
X9834467Y-15053031D01*
X9834467Y-15053031D02*
X9843991Y-15043508D01*
X9843991Y-15043508D02*
X9863039Y-15033984D01*
X10015420Y-15233984D02*
X10015420Y-15100650D01*
X10015420Y-15119698D02*
X10024944Y-15110174D01*
X10024944Y-15110174D02*
X10043991Y-15100650D01*
X10043991Y-15100650D02*
X10072563Y-15100650D01*
X10072563Y-15100650D02*
X10091610Y-15110174D01*
X10091610Y-15110174D02*
X10101134Y-15129222D01*
X10101134Y-15129222D02*
X10101134Y-15233984D01*
X10101134Y-15129222D02*
X10110658Y-15110174D01*
X10110658Y-15110174D02*
X10129705Y-15100650D01*
X10129705Y-15100650D02*
X10158277Y-15100650D01*
X10158277Y-15100650D02*
X10177325Y-15110174D01*
X10177325Y-15110174D02*
X10186848Y-15129222D01*
X10186848Y-15129222D02*
X10186848Y-15233984D01*
X10282086Y-15233984D02*
X10282086Y-15100650D01*
X10282086Y-15119698D02*
X10291610Y-15110174D01*
X10291610Y-15110174D02*
X10310658Y-15100650D01*
X10310658Y-15100650D02*
X10339229Y-15100650D01*
X10339229Y-15100650D02*
X10358277Y-15110174D01*
X10358277Y-15110174D02*
X10367801Y-15129222D01*
X10367801Y-15129222D02*
X10367801Y-15233984D01*
X10367801Y-15129222D02*
X10377325Y-15110174D01*
X10377325Y-15110174D02*
X10396372Y-15100650D01*
X10396372Y-15100650D02*
X10424944Y-15100650D01*
X10424944Y-15100650D02*
X10443991Y-15110174D01*
X10443991Y-15110174D02*
X10453515Y-15129222D01*
X10453515Y-15129222D02*
X10453515Y-15233984D01*
X10843991Y-15024460D02*
X10672563Y-15281603D01*
X11101134Y-15033984D02*
X11120182Y-15033984D01*
X11120182Y-15033984D02*
X11139229Y-15043508D01*
X11139229Y-15043508D02*
X11148753Y-15053031D01*
X11148753Y-15053031D02*
X11158277Y-15072079D01*
X11158277Y-15072079D02*
X11167801Y-15110174D01*
X11167801Y-15110174D02*
X11167801Y-15157793D01*
X11167801Y-15157793D02*
X11158277Y-15195888D01*
X11158277Y-15195888D02*
X11148753Y-15214936D01*
X11148753Y-15214936D02*
X11139229Y-15224460D01*
X11139229Y-15224460D02*
X11120182Y-15233984D01*
X11120182Y-15233984D02*
X11101134Y-15233984D01*
X11101134Y-15233984D02*
X11082087Y-15224460D01*
X11082087Y-15224460D02*
X11072563Y-15214936D01*
X11072563Y-15214936D02*
X11063039Y-15195888D01*
X11063039Y-15195888D02*
X11053515Y-15157793D01*
X11053515Y-15157793D02*
X11053515Y-15110174D01*
X11053515Y-15110174D02*
X11063039Y-15072079D01*
X11063039Y-15072079D02*
X11072563Y-15053031D01*
X11072563Y-15053031D02*
X11082087Y-15043508D01*
X11082087Y-15043508D02*
X11101134Y-15033984D01*
X11253515Y-15214936D02*
X11263039Y-15224460D01*
X11263039Y-15224460D02*
X11253515Y-15233984D01*
X11253515Y-15233984D02*
X11243991Y-15224460D01*
X11243991Y-15224460D02*
X11253515Y-15214936D01*
X11253515Y-15214936D02*
X11253515Y-15233984D01*
X11386848Y-15033984D02*
X11405896Y-15033984D01*
X11405896Y-15033984D02*
X11424944Y-15043508D01*
X11424944Y-15043508D02*
X11434467Y-15053031D01*
X11434467Y-15053031D02*
X11443991Y-15072079D01*
X11443991Y-15072079D02*
X11453515Y-15110174D01*
X11453515Y-15110174D02*
X11453515Y-15157793D01*
X11453515Y-15157793D02*
X11443991Y-15195888D01*
X11443991Y-15195888D02*
X11434467Y-15214936D01*
X11434467Y-15214936D02*
X11424944Y-15224460D01*
X11424944Y-15224460D02*
X11405896Y-15233984D01*
X11405896Y-15233984D02*
X11386848Y-15233984D01*
X11386848Y-15233984D02*
X11367801Y-15224460D01*
X11367801Y-15224460D02*
X11358277Y-15214936D01*
X11358277Y-15214936D02*
X11348753Y-15195888D01*
X11348753Y-15195888D02*
X11339229Y-15157793D01*
X11339229Y-15157793D02*
X11339229Y-15110174D01*
X11339229Y-15110174D02*
X11348753Y-15072079D01*
X11348753Y-15072079D02*
X11358277Y-15053031D01*
X11358277Y-15053031D02*
X11367801Y-15043508D01*
X11367801Y-15043508D02*
X11386848Y-15033984D01*
X11529706Y-15053031D02*
X11539229Y-15043508D01*
X11539229Y-15043508D02*
X11558277Y-15033984D01*
X11558277Y-15033984D02*
X11605896Y-15033984D01*
X11605896Y-15033984D02*
X11624944Y-15043508D01*
X11624944Y-15043508D02*
X11634467Y-15053031D01*
X11634467Y-15053031D02*
X11643991Y-15072079D01*
X11643991Y-15072079D02*
X11643991Y-15091127D01*
X11643991Y-15091127D02*
X11634467Y-15119698D01*
X11634467Y-15119698D02*
X11520182Y-15233984D01*
X11520182Y-15233984D02*
X11643991Y-15233984D01*
X11824944Y-15033984D02*
X11729706Y-15033984D01*
X11729706Y-15033984D02*
X11720182Y-15129222D01*
X11720182Y-15129222D02*
X11729706Y-15119698D01*
X11729706Y-15119698D02*
X11748753Y-15110174D01*
X11748753Y-15110174D02*
X11796372Y-15110174D01*
X11796372Y-15110174D02*
X11815420Y-15119698D01*
X11815420Y-15119698D02*
X11824944Y-15129222D01*
X11824944Y-15129222D02*
X11834467Y-15148269D01*
X11834467Y-15148269D02*
X11834467Y-15195888D01*
X11834467Y-15195888D02*
X11824944Y-15214936D01*
X11824944Y-15214936D02*
X11815420Y-15224460D01*
X11815420Y-15224460D02*
X11796372Y-15233984D01*
X11796372Y-15233984D02*
X11748753Y-15233984D01*
X11748753Y-15233984D02*
X11729706Y-15224460D01*
X11729706Y-15224460D02*
X11720182Y-15214936D01*
X12005896Y-15033984D02*
X11967801Y-15033984D01*
X11967801Y-15033984D02*
X11948753Y-15043508D01*
X11948753Y-15043508D02*
X11939229Y-15053031D01*
X11939229Y-15053031D02*
X11920182Y-15081603D01*
X11920182Y-15081603D02*
X11910658Y-15119698D01*
X11910658Y-15119698D02*
X11910658Y-15195888D01*
X11910658Y-15195888D02*
X11920182Y-15214936D01*
X11920182Y-15214936D02*
X11929706Y-15224460D01*
X11929706Y-15224460D02*
X11948753Y-15233984D01*
X11948753Y-15233984D02*
X11986848Y-15233984D01*
X11986848Y-15233984D02*
X12005896Y-15224460D01*
X12005896Y-15224460D02*
X12015420Y-15214936D01*
X12015420Y-15214936D02*
X12024944Y-15195888D01*
X12024944Y-15195888D02*
X12024944Y-15148269D01*
X12024944Y-15148269D02*
X12015420Y-15129222D01*
X12015420Y-15129222D02*
X12005896Y-15119698D01*
X12005896Y-15119698D02*
X11986848Y-15110174D01*
X11986848Y-15110174D02*
X11948753Y-15110174D01*
X11948753Y-15110174D02*
X11929706Y-15119698D01*
X11929706Y-15119698D02*
X11920182Y-15129222D01*
X11920182Y-15129222D02*
X11910658Y-15148269D01*
X12101134Y-15033984D02*
X12101134Y-15072079D01*
X12177325Y-15033984D02*
X12177325Y-15072079D01*
X12472563Y-15310174D02*
X12463039Y-15300650D01*
X12463039Y-15300650D02*
X12443991Y-15272079D01*
X12443991Y-15272079D02*
X12434468Y-15253031D01*
X12434468Y-15253031D02*
X12424944Y-15224460D01*
X12424944Y-15224460D02*
X12415420Y-15176841D01*
X12415420Y-15176841D02*
X12415420Y-15138746D01*
X12415420Y-15138746D02*
X12424944Y-15091127D01*
X12424944Y-15091127D02*
X12434468Y-15062555D01*
X12434468Y-15062555D02*
X12443991Y-15043508D01*
X12443991Y-15043508D02*
X12463039Y-15014936D01*
X12463039Y-15014936D02*
X12472563Y-15005412D01*
X12539229Y-15053031D02*
X12548753Y-15043508D01*
X12548753Y-15043508D02*
X12567801Y-15033984D01*
X12567801Y-15033984D02*
X12615420Y-15033984D01*
X12615420Y-15033984D02*
X12634468Y-15043508D01*
X12634468Y-15043508D02*
X12643991Y-15053031D01*
X12643991Y-15053031D02*
X12653515Y-15072079D01*
X12653515Y-15072079D02*
X12653515Y-15091127D01*
X12653515Y-15091127D02*
X12643991Y-15119698D01*
X12643991Y-15119698D02*
X12529706Y-15233984D01*
X12529706Y-15233984D02*
X12653515Y-15233984D01*
X12891610Y-15233984D02*
X12891610Y-15033984D01*
X12977325Y-15233984D02*
X12977325Y-15129222D01*
X12977325Y-15129222D02*
X12967801Y-15110174D01*
X12967801Y-15110174D02*
X12948753Y-15100650D01*
X12948753Y-15100650D02*
X12920182Y-15100650D01*
X12920182Y-15100650D02*
X12901134Y-15110174D01*
X12901134Y-15110174D02*
X12891610Y-15119698D01*
X13101134Y-15233984D02*
X13082087Y-15224460D01*
X13082087Y-15224460D02*
X13072563Y-15214936D01*
X13072563Y-15214936D02*
X13063039Y-15195888D01*
X13063039Y-15195888D02*
X13063039Y-15138746D01*
X13063039Y-15138746D02*
X13072563Y-15119698D01*
X13072563Y-15119698D02*
X13082087Y-15110174D01*
X13082087Y-15110174D02*
X13101134Y-15100650D01*
X13101134Y-15100650D02*
X13129706Y-15100650D01*
X13129706Y-15100650D02*
X13148753Y-15110174D01*
X13148753Y-15110174D02*
X13158277Y-15119698D01*
X13158277Y-15119698D02*
X13167801Y-15138746D01*
X13167801Y-15138746D02*
X13167801Y-15195888D01*
X13167801Y-15195888D02*
X13158277Y-15214936D01*
X13158277Y-15214936D02*
X13148753Y-15224460D01*
X13148753Y-15224460D02*
X13129706Y-15233984D01*
X13129706Y-15233984D02*
X13101134Y-15233984D01*
X13282087Y-15233984D02*
X13263039Y-15224460D01*
X13263039Y-15224460D02*
X13253515Y-15205412D01*
X13253515Y-15205412D02*
X13253515Y-15033984D01*
X13434468Y-15224460D02*
X13415420Y-15233984D01*
X13415420Y-15233984D02*
X13377325Y-15233984D01*
X13377325Y-15233984D02*
X13358277Y-15224460D01*
X13358277Y-15224460D02*
X13348753Y-15205412D01*
X13348753Y-15205412D02*
X13348753Y-15129222D01*
X13348753Y-15129222D02*
X13358277Y-15110174D01*
X13358277Y-15110174D02*
X13377325Y-15100650D01*
X13377325Y-15100650D02*
X13415420Y-15100650D01*
X13415420Y-15100650D02*
X13434468Y-15110174D01*
X13434468Y-15110174D02*
X13443991Y-15129222D01*
X13443991Y-15129222D02*
X13443991Y-15148269D01*
X13443991Y-15148269D02*
X13348753Y-15167317D01*
X13520182Y-15224460D02*
X13539230Y-15233984D01*
X13539230Y-15233984D02*
X13577325Y-15233984D01*
X13577325Y-15233984D02*
X13596372Y-15224460D01*
X13596372Y-15224460D02*
X13605896Y-15205412D01*
X13605896Y-15205412D02*
X13605896Y-15195888D01*
X13605896Y-15195888D02*
X13596372Y-15176841D01*
X13596372Y-15176841D02*
X13577325Y-15167317D01*
X13577325Y-15167317D02*
X13548753Y-15167317D01*
X13548753Y-15167317D02*
X13529706Y-15157793D01*
X13529706Y-15157793D02*
X13520182Y-15138746D01*
X13520182Y-15138746D02*
X13520182Y-15129222D01*
X13520182Y-15129222D02*
X13529706Y-15110174D01*
X13529706Y-15110174D02*
X13548753Y-15100650D01*
X13548753Y-15100650D02*
X13577325Y-15100650D01*
X13577325Y-15100650D02*
X13596372Y-15110174D01*
X13672563Y-15310174D02*
X13682087Y-15300650D01*
X13682087Y-15300650D02*
X13701134Y-15272079D01*
X13701134Y-15272079D02*
X13710658Y-15253031D01*
X13710658Y-15253031D02*
X13720182Y-15224460D01*
X13720182Y-15224460D02*
X13729706Y-15176841D01*
X13729706Y-15176841D02*
X13729706Y-15138746D01*
X13729706Y-15138746D02*
X13720182Y-15091127D01*
X13720182Y-15091127D02*
X13710658Y-15062555D01*
X13710658Y-15062555D02*
X13701134Y-15043508D01*
X13701134Y-15043508D02*
X13682087Y-15014936D01*
X13682087Y-15014936D02*
X13672563Y-15005412D01*
X14034468Y-15310174D02*
X14024944Y-15300650D01*
X14024944Y-15300650D02*
X14005896Y-15272079D01*
X14005896Y-15272079D02*
X13996372Y-15253031D01*
X13996372Y-15253031D02*
X13986849Y-15224460D01*
X13986849Y-15224460D02*
X13977325Y-15176841D01*
X13977325Y-15176841D02*
X13977325Y-15138746D01*
X13977325Y-15138746D02*
X13986849Y-15091127D01*
X13986849Y-15091127D02*
X13996372Y-15062555D01*
X13996372Y-15062555D02*
X14005896Y-15043508D01*
X14005896Y-15043508D02*
X14024944Y-15014936D01*
X14024944Y-15014936D02*
X14034468Y-15005412D01*
X14110658Y-15100650D02*
X14110658Y-15233984D01*
X14110658Y-15119698D02*
X14120182Y-15110174D01*
X14120182Y-15110174D02*
X14139230Y-15100650D01*
X14139230Y-15100650D02*
X14167801Y-15100650D01*
X14167801Y-15100650D02*
X14186849Y-15110174D01*
X14186849Y-15110174D02*
X14196372Y-15129222D01*
X14196372Y-15129222D02*
X14196372Y-15233984D01*
X14320182Y-15233984D02*
X14301134Y-15224460D01*
X14301134Y-15224460D02*
X14291611Y-15214936D01*
X14291611Y-15214936D02*
X14282087Y-15195888D01*
X14282087Y-15195888D02*
X14282087Y-15138746D01*
X14282087Y-15138746D02*
X14291611Y-15119698D01*
X14291611Y-15119698D02*
X14301134Y-15110174D01*
X14301134Y-15110174D02*
X14320182Y-15100650D01*
X14320182Y-15100650D02*
X14348753Y-15100650D01*
X14348753Y-15100650D02*
X14367801Y-15110174D01*
X14367801Y-15110174D02*
X14377325Y-15119698D01*
X14377325Y-15119698D02*
X14386849Y-15138746D01*
X14386849Y-15138746D02*
X14386849Y-15195888D01*
X14386849Y-15195888D02*
X14377325Y-15214936D01*
X14377325Y-15214936D02*
X14367801Y-15224460D01*
X14367801Y-15224460D02*
X14348753Y-15233984D01*
X14348753Y-15233984D02*
X14320182Y-15233984D01*
X14443992Y-15100650D02*
X14520182Y-15100650D01*
X14472563Y-15033984D02*
X14472563Y-15205412D01*
X14472563Y-15205412D02*
X14482087Y-15224460D01*
X14482087Y-15224460D02*
X14501134Y-15233984D01*
X14501134Y-15233984D02*
X14520182Y-15233984D01*
X14739230Y-15100650D02*
X14739230Y-15300650D01*
X14739230Y-15110174D02*
X14758277Y-15100650D01*
X14758277Y-15100650D02*
X14796373Y-15100650D01*
X14796373Y-15100650D02*
X14815420Y-15110174D01*
X14815420Y-15110174D02*
X14824944Y-15119698D01*
X14824944Y-15119698D02*
X14834468Y-15138746D01*
X14834468Y-15138746D02*
X14834468Y-15195888D01*
X14834468Y-15195888D02*
X14824944Y-15214936D01*
X14824944Y-15214936D02*
X14815420Y-15224460D01*
X14815420Y-15224460D02*
X14796373Y-15233984D01*
X14796373Y-15233984D02*
X14758277Y-15233984D01*
X14758277Y-15233984D02*
X14739230Y-15224460D01*
X14948753Y-15233984D02*
X14929706Y-15224460D01*
X14929706Y-15224460D02*
X14920182Y-15205412D01*
X14920182Y-15205412D02*
X14920182Y-15033984D01*
X15110658Y-15233984D02*
X15110658Y-15129222D01*
X15110658Y-15129222D02*
X15101134Y-15110174D01*
X15101134Y-15110174D02*
X15082087Y-15100650D01*
X15082087Y-15100650D02*
X15043992Y-15100650D01*
X15043992Y-15100650D02*
X15024944Y-15110174D01*
X15110658Y-15224460D02*
X15091611Y-15233984D01*
X15091611Y-15233984D02*
X15043992Y-15233984D01*
X15043992Y-15233984D02*
X15024944Y-15224460D01*
X15024944Y-15224460D02*
X15015420Y-15205412D01*
X15015420Y-15205412D02*
X15015420Y-15186365D01*
X15015420Y-15186365D02*
X15024944Y-15167317D01*
X15024944Y-15167317D02*
X15043992Y-15157793D01*
X15043992Y-15157793D02*
X15091611Y-15157793D01*
X15091611Y-15157793D02*
X15110658Y-15148269D01*
X15177325Y-15100650D02*
X15253515Y-15100650D01*
X15205896Y-15033984D02*
X15205896Y-15205412D01*
X15205896Y-15205412D02*
X15215420Y-15224460D01*
X15215420Y-15224460D02*
X15234468Y-15233984D01*
X15234468Y-15233984D02*
X15253515Y-15233984D01*
X15396373Y-15224460D02*
X15377325Y-15233984D01*
X15377325Y-15233984D02*
X15339230Y-15233984D01*
X15339230Y-15233984D02*
X15320182Y-15224460D01*
X15320182Y-15224460D02*
X15310658Y-15205412D01*
X15310658Y-15205412D02*
X15310658Y-15129222D01*
X15310658Y-15129222D02*
X15320182Y-15110174D01*
X15320182Y-15110174D02*
X15339230Y-15100650D01*
X15339230Y-15100650D02*
X15377325Y-15100650D01*
X15377325Y-15100650D02*
X15396373Y-15110174D01*
X15396373Y-15110174D02*
X15405896Y-15129222D01*
X15405896Y-15129222D02*
X15405896Y-15148269D01*
X15405896Y-15148269D02*
X15310658Y-15167317D01*
X15577325Y-15233984D02*
X15577325Y-15033984D01*
X15577325Y-15224460D02*
X15558277Y-15233984D01*
X15558277Y-15233984D02*
X15520182Y-15233984D01*
X15520182Y-15233984D02*
X15501134Y-15224460D01*
X15501134Y-15224460D02*
X15491611Y-15214936D01*
X15491611Y-15214936D02*
X15482087Y-15195888D01*
X15482087Y-15195888D02*
X15482087Y-15138746D01*
X15482087Y-15138746D02*
X15491611Y-15119698D01*
X15491611Y-15119698D02*
X15501134Y-15110174D01*
X15501134Y-15110174D02*
X15520182Y-15100650D01*
X15520182Y-15100650D02*
X15558277Y-15100650D01*
X15558277Y-15100650D02*
X15577325Y-15110174D01*
X15653515Y-15310174D02*
X15663039Y-15300650D01*
X15663039Y-15300650D02*
X15682087Y-15272079D01*
X15682087Y-15272079D02*
X15691611Y-15253031D01*
X15691611Y-15253031D02*
X15701134Y-15224460D01*
X15701134Y-15224460D02*
X15710658Y-15176841D01*
X15710658Y-15176841D02*
X15710658Y-15138746D01*
X15710658Y-15138746D02*
X15701134Y-15091127D01*
X15701134Y-15091127D02*
X15691611Y-15062555D01*
X15691611Y-15062555D02*
X15682087Y-15043508D01*
X15682087Y-15043508D02*
X15663039Y-15014936D01*
X15663039Y-15014936D02*
X15653515Y-15005412D01*
X8897500Y-15406500D02*
G75*
G02*
X8697500Y-15406500I-100000J0D01*
G01*
X8697500Y-15406500D02*
G75*
G02*
X8897500Y-15406500I100000J0D01*
G01*
X9139229Y-15297984D02*
X9263039Y-15297984D01*
X9263039Y-15297984D02*
X9196372Y-15374174D01*
X9196372Y-15374174D02*
X9224944Y-15374174D01*
X9224944Y-15374174D02*
X9243991Y-15383698D01*
X9243991Y-15383698D02*
X9253515Y-15393222D01*
X9253515Y-15393222D02*
X9263039Y-15412269D01*
X9263039Y-15412269D02*
X9263039Y-15459888D01*
X9263039Y-15459888D02*
X9253515Y-15478936D01*
X9253515Y-15478936D02*
X9243991Y-15488460D01*
X9243991Y-15488460D02*
X9224944Y-15497984D01*
X9224944Y-15497984D02*
X9167801Y-15497984D01*
X9167801Y-15497984D02*
X9148753Y-15488460D01*
X9148753Y-15488460D02*
X9139229Y-15478936D01*
X9348753Y-15478936D02*
X9358277Y-15488460D01*
X9358277Y-15488460D02*
X9348753Y-15497984D01*
X9348753Y-15497984D02*
X9339229Y-15488460D01*
X9339229Y-15488460D02*
X9348753Y-15478936D01*
X9348753Y-15478936D02*
X9348753Y-15497984D01*
X9434467Y-15317031D02*
X9443991Y-15307508D01*
X9443991Y-15307508D02*
X9463039Y-15297984D01*
X9463039Y-15297984D02*
X9510658Y-15297984D01*
X9510658Y-15297984D02*
X9529705Y-15307508D01*
X9529705Y-15307508D02*
X9539229Y-15317031D01*
X9539229Y-15317031D02*
X9548753Y-15336079D01*
X9548753Y-15336079D02*
X9548753Y-15355127D01*
X9548753Y-15355127D02*
X9539229Y-15383698D01*
X9539229Y-15383698D02*
X9424944Y-15497984D01*
X9424944Y-15497984D02*
X9548753Y-15497984D01*
X9672563Y-15297984D02*
X9691610Y-15297984D01*
X9691610Y-15297984D02*
X9710658Y-15307508D01*
X9710658Y-15307508D02*
X9720182Y-15317031D01*
X9720182Y-15317031D02*
X9729705Y-15336079D01*
X9729705Y-15336079D02*
X9739229Y-15374174D01*
X9739229Y-15374174D02*
X9739229Y-15421793D01*
X9739229Y-15421793D02*
X9729705Y-15459888D01*
X9729705Y-15459888D02*
X9720182Y-15478936D01*
X9720182Y-15478936D02*
X9710658Y-15488460D01*
X9710658Y-15488460D02*
X9691610Y-15497984D01*
X9691610Y-15497984D02*
X9672563Y-15497984D01*
X9672563Y-15497984D02*
X9653515Y-15488460D01*
X9653515Y-15488460D02*
X9643991Y-15478936D01*
X9643991Y-15478936D02*
X9634467Y-15459888D01*
X9634467Y-15459888D02*
X9624944Y-15421793D01*
X9624944Y-15421793D02*
X9624944Y-15374174D01*
X9624944Y-15374174D02*
X9634467Y-15336079D01*
X9634467Y-15336079D02*
X9643991Y-15317031D01*
X9643991Y-15317031D02*
X9653515Y-15307508D01*
X9653515Y-15307508D02*
X9672563Y-15297984D01*
X9863039Y-15297984D02*
X9882086Y-15297984D01*
X9882086Y-15297984D02*
X9901134Y-15307508D01*
X9901134Y-15307508D02*
X9910658Y-15317031D01*
X9910658Y-15317031D02*
X9920182Y-15336079D01*
X9920182Y-15336079D02*
X9929705Y-15374174D01*
X9929705Y-15374174D02*
X9929705Y-15421793D01*
X9929705Y-15421793D02*
X9920182Y-15459888D01*
X9920182Y-15459888D02*
X9910658Y-15478936D01*
X9910658Y-15478936D02*
X9901134Y-15488460D01*
X9901134Y-15488460D02*
X9882086Y-15497984D01*
X9882086Y-15497984D02*
X9863039Y-15497984D01*
X9863039Y-15497984D02*
X9843991Y-15488460D01*
X9843991Y-15488460D02*
X9834467Y-15478936D01*
X9834467Y-15478936D02*
X9824944Y-15459888D01*
X9824944Y-15459888D02*
X9815420Y-15421793D01*
X9815420Y-15421793D02*
X9815420Y-15374174D01*
X9815420Y-15374174D02*
X9824944Y-15336079D01*
X9824944Y-15336079D02*
X9834467Y-15317031D01*
X9834467Y-15317031D02*
X9843991Y-15307508D01*
X9843991Y-15307508D02*
X9863039Y-15297984D01*
X10015420Y-15497984D02*
X10015420Y-15364650D01*
X10015420Y-15383698D02*
X10024944Y-15374174D01*
X10024944Y-15374174D02*
X10043991Y-15364650D01*
X10043991Y-15364650D02*
X10072563Y-15364650D01*
X10072563Y-15364650D02*
X10091610Y-15374174D01*
X10091610Y-15374174D02*
X10101134Y-15393222D01*
X10101134Y-15393222D02*
X10101134Y-15497984D01*
X10101134Y-15393222D02*
X10110658Y-15374174D01*
X10110658Y-15374174D02*
X10129705Y-15364650D01*
X10129705Y-15364650D02*
X10158277Y-15364650D01*
X10158277Y-15364650D02*
X10177325Y-15374174D01*
X10177325Y-15374174D02*
X10186848Y-15393222D01*
X10186848Y-15393222D02*
X10186848Y-15497984D01*
X10282086Y-15497984D02*
X10282086Y-15364650D01*
X10282086Y-15383698D02*
X10291610Y-15374174D01*
X10291610Y-15374174D02*
X10310658Y-15364650D01*
X10310658Y-15364650D02*
X10339229Y-15364650D01*
X10339229Y-15364650D02*
X10358277Y-15374174D01*
X10358277Y-15374174D02*
X10367801Y-15393222D01*
X10367801Y-15393222D02*
X10367801Y-15497984D01*
X10367801Y-15393222D02*
X10377325Y-15374174D01*
X10377325Y-15374174D02*
X10396372Y-15364650D01*
X10396372Y-15364650D02*
X10424944Y-15364650D01*
X10424944Y-15364650D02*
X10443991Y-15374174D01*
X10443991Y-15374174D02*
X10453515Y-15393222D01*
X10453515Y-15393222D02*
X10453515Y-15497984D01*
X10843991Y-15288460D02*
X10672563Y-15545603D01*
X11101134Y-15297984D02*
X11120182Y-15297984D01*
X11120182Y-15297984D02*
X11139229Y-15307508D01*
X11139229Y-15307508D02*
X11148753Y-15317031D01*
X11148753Y-15317031D02*
X11158277Y-15336079D01*
X11158277Y-15336079D02*
X11167801Y-15374174D01*
X11167801Y-15374174D02*
X11167801Y-15421793D01*
X11167801Y-15421793D02*
X11158277Y-15459888D01*
X11158277Y-15459888D02*
X11148753Y-15478936D01*
X11148753Y-15478936D02*
X11139229Y-15488460D01*
X11139229Y-15488460D02*
X11120182Y-15497984D01*
X11120182Y-15497984D02*
X11101134Y-15497984D01*
X11101134Y-15497984D02*
X11082087Y-15488460D01*
X11082087Y-15488460D02*
X11072563Y-15478936D01*
X11072563Y-15478936D02*
X11063039Y-15459888D01*
X11063039Y-15459888D02*
X11053515Y-15421793D01*
X11053515Y-15421793D02*
X11053515Y-15374174D01*
X11053515Y-15374174D02*
X11063039Y-15336079D01*
X11063039Y-15336079D02*
X11072563Y-15317031D01*
X11072563Y-15317031D02*
X11082087Y-15307508D01*
X11082087Y-15307508D02*
X11101134Y-15297984D01*
X11253515Y-15478936D02*
X11263039Y-15488460D01*
X11263039Y-15488460D02*
X11253515Y-15497984D01*
X11253515Y-15497984D02*
X11243991Y-15488460D01*
X11243991Y-15488460D02*
X11253515Y-15478936D01*
X11253515Y-15478936D02*
X11253515Y-15497984D01*
X11453515Y-15497984D02*
X11339229Y-15497984D01*
X11396372Y-15497984D02*
X11396372Y-15297984D01*
X11396372Y-15297984D02*
X11377325Y-15326555D01*
X11377325Y-15326555D02*
X11358277Y-15345603D01*
X11358277Y-15345603D02*
X11339229Y-15355127D01*
X11529706Y-15317031D02*
X11539229Y-15307508D01*
X11539229Y-15307508D02*
X11558277Y-15297984D01*
X11558277Y-15297984D02*
X11605896Y-15297984D01*
X11605896Y-15297984D02*
X11624944Y-15307508D01*
X11624944Y-15307508D02*
X11634467Y-15317031D01*
X11634467Y-15317031D02*
X11643991Y-15336079D01*
X11643991Y-15336079D02*
X11643991Y-15355127D01*
X11643991Y-15355127D02*
X11634467Y-15383698D01*
X11634467Y-15383698D02*
X11520182Y-15497984D01*
X11520182Y-15497984D02*
X11643991Y-15497984D01*
X11815420Y-15297984D02*
X11777325Y-15297984D01*
X11777325Y-15297984D02*
X11758277Y-15307508D01*
X11758277Y-15307508D02*
X11748753Y-15317031D01*
X11748753Y-15317031D02*
X11729706Y-15345603D01*
X11729706Y-15345603D02*
X11720182Y-15383698D01*
X11720182Y-15383698D02*
X11720182Y-15459888D01*
X11720182Y-15459888D02*
X11729706Y-15478936D01*
X11729706Y-15478936D02*
X11739229Y-15488460D01*
X11739229Y-15488460D02*
X11758277Y-15497984D01*
X11758277Y-15497984D02*
X11796372Y-15497984D01*
X11796372Y-15497984D02*
X11815420Y-15488460D01*
X11815420Y-15488460D02*
X11824944Y-15478936D01*
X11824944Y-15478936D02*
X11834467Y-15459888D01*
X11834467Y-15459888D02*
X11834467Y-15412269D01*
X11834467Y-15412269D02*
X11824944Y-15393222D01*
X11824944Y-15393222D02*
X11815420Y-15383698D01*
X11815420Y-15383698D02*
X11796372Y-15374174D01*
X11796372Y-15374174D02*
X11758277Y-15374174D01*
X11758277Y-15374174D02*
X11739229Y-15383698D01*
X11739229Y-15383698D02*
X11729706Y-15393222D01*
X11729706Y-15393222D02*
X11720182Y-15412269D01*
X11958277Y-15297984D02*
X11977325Y-15297984D01*
X11977325Y-15297984D02*
X11996372Y-15307508D01*
X11996372Y-15307508D02*
X12005896Y-15317031D01*
X12005896Y-15317031D02*
X12015420Y-15336079D01*
X12015420Y-15336079D02*
X12024944Y-15374174D01*
X12024944Y-15374174D02*
X12024944Y-15421793D01*
X12024944Y-15421793D02*
X12015420Y-15459888D01*
X12015420Y-15459888D02*
X12005896Y-15478936D01*
X12005896Y-15478936D02*
X11996372Y-15488460D01*
X11996372Y-15488460D02*
X11977325Y-15497984D01*
X11977325Y-15497984D02*
X11958277Y-15497984D01*
X11958277Y-15497984D02*
X11939229Y-15488460D01*
X11939229Y-15488460D02*
X11929706Y-15478936D01*
X11929706Y-15478936D02*
X11920182Y-15459888D01*
X11920182Y-15459888D02*
X11910658Y-15421793D01*
X11910658Y-15421793D02*
X11910658Y-15374174D01*
X11910658Y-15374174D02*
X11920182Y-15336079D01*
X11920182Y-15336079D02*
X11929706Y-15317031D01*
X11929706Y-15317031D02*
X11939229Y-15307508D01*
X11939229Y-15307508D02*
X11958277Y-15297984D01*
X12101134Y-15297984D02*
X12101134Y-15336079D01*
X12177325Y-15297984D02*
X12177325Y-15336079D01*
X12472563Y-15574174D02*
X12463039Y-15564650D01*
X12463039Y-15564650D02*
X12443991Y-15536079D01*
X12443991Y-15536079D02*
X12434468Y-15517031D01*
X12434468Y-15517031D02*
X12424944Y-15488460D01*
X12424944Y-15488460D02*
X12415420Y-15440841D01*
X12415420Y-15440841D02*
X12415420Y-15402746D01*
X12415420Y-15402746D02*
X12424944Y-15355127D01*
X12424944Y-15355127D02*
X12434468Y-15326555D01*
X12434468Y-15326555D02*
X12443991Y-15307508D01*
X12443991Y-15307508D02*
X12463039Y-15278936D01*
X12463039Y-15278936D02*
X12472563Y-15269412D01*
X12634468Y-15364650D02*
X12634468Y-15497984D01*
X12586848Y-15288460D02*
X12539229Y-15431317D01*
X12539229Y-15431317D02*
X12663039Y-15431317D01*
X12891610Y-15497984D02*
X12891610Y-15297984D01*
X12977325Y-15497984D02*
X12977325Y-15393222D01*
X12977325Y-15393222D02*
X12967801Y-15374174D01*
X12967801Y-15374174D02*
X12948753Y-15364650D01*
X12948753Y-15364650D02*
X12920182Y-15364650D01*
X12920182Y-15364650D02*
X12901134Y-15374174D01*
X12901134Y-15374174D02*
X12891610Y-15383698D01*
X13101134Y-15497984D02*
X13082087Y-15488460D01*
X13082087Y-15488460D02*
X13072563Y-15478936D01*
X13072563Y-15478936D02*
X13063039Y-15459888D01*
X13063039Y-15459888D02*
X13063039Y-15402746D01*
X13063039Y-15402746D02*
X13072563Y-15383698D01*
X13072563Y-15383698D02*
X13082087Y-15374174D01*
X13082087Y-15374174D02*
X13101134Y-15364650D01*
X13101134Y-15364650D02*
X13129706Y-15364650D01*
X13129706Y-15364650D02*
X13148753Y-15374174D01*
X13148753Y-15374174D02*
X13158277Y-15383698D01*
X13158277Y-15383698D02*
X13167801Y-15402746D01*
X13167801Y-15402746D02*
X13167801Y-15459888D01*
X13167801Y-15459888D02*
X13158277Y-15478936D01*
X13158277Y-15478936D02*
X13148753Y-15488460D01*
X13148753Y-15488460D02*
X13129706Y-15497984D01*
X13129706Y-15497984D02*
X13101134Y-15497984D01*
X13282087Y-15497984D02*
X13263039Y-15488460D01*
X13263039Y-15488460D02*
X13253515Y-15469412D01*
X13253515Y-15469412D02*
X13253515Y-15297984D01*
X13434468Y-15488460D02*
X13415420Y-15497984D01*
X13415420Y-15497984D02*
X13377325Y-15497984D01*
X13377325Y-15497984D02*
X13358277Y-15488460D01*
X13358277Y-15488460D02*
X13348753Y-15469412D01*
X13348753Y-15469412D02*
X13348753Y-15393222D01*
X13348753Y-15393222D02*
X13358277Y-15374174D01*
X13358277Y-15374174D02*
X13377325Y-15364650D01*
X13377325Y-15364650D02*
X13415420Y-15364650D01*
X13415420Y-15364650D02*
X13434468Y-15374174D01*
X13434468Y-15374174D02*
X13443991Y-15393222D01*
X13443991Y-15393222D02*
X13443991Y-15412269D01*
X13443991Y-15412269D02*
X13348753Y-15431317D01*
X13520182Y-15488460D02*
X13539230Y-15497984D01*
X13539230Y-15497984D02*
X13577325Y-15497984D01*
X13577325Y-15497984D02*
X13596372Y-15488460D01*
X13596372Y-15488460D02*
X13605896Y-15469412D01*
X13605896Y-15469412D02*
X13605896Y-15459888D01*
X13605896Y-15459888D02*
X13596372Y-15440841D01*
X13596372Y-15440841D02*
X13577325Y-15431317D01*
X13577325Y-15431317D02*
X13548753Y-15431317D01*
X13548753Y-15431317D02*
X13529706Y-15421793D01*
X13529706Y-15421793D02*
X13520182Y-15402746D01*
X13520182Y-15402746D02*
X13520182Y-15393222D01*
X13520182Y-15393222D02*
X13529706Y-15374174D01*
X13529706Y-15374174D02*
X13548753Y-15364650D01*
X13548753Y-15364650D02*
X13577325Y-15364650D01*
X13577325Y-15364650D02*
X13596372Y-15374174D01*
X13672563Y-15574174D02*
X13682087Y-15564650D01*
X13682087Y-15564650D02*
X13701134Y-15536079D01*
X13701134Y-15536079D02*
X13710658Y-15517031D01*
X13710658Y-15517031D02*
X13720182Y-15488460D01*
X13720182Y-15488460D02*
X13729706Y-15440841D01*
X13729706Y-15440841D02*
X13729706Y-15402746D01*
X13729706Y-15402746D02*
X13720182Y-15355127D01*
X13720182Y-15355127D02*
X13710658Y-15326555D01*
X13710658Y-15326555D02*
X13701134Y-15307508D01*
X13701134Y-15307508D02*
X13682087Y-15278936D01*
X13682087Y-15278936D02*
X13672563Y-15269412D01*
X14034468Y-15574174D02*
X14024944Y-15564650D01*
X14024944Y-15564650D02*
X14005896Y-15536079D01*
X14005896Y-15536079D02*
X13996372Y-15517031D01*
X13996372Y-15517031D02*
X13986849Y-15488460D01*
X13986849Y-15488460D02*
X13977325Y-15440841D01*
X13977325Y-15440841D02*
X13977325Y-15402746D01*
X13977325Y-15402746D02*
X13986849Y-15355127D01*
X13986849Y-15355127D02*
X13996372Y-15326555D01*
X13996372Y-15326555D02*
X14005896Y-15307508D01*
X14005896Y-15307508D02*
X14024944Y-15278936D01*
X14024944Y-15278936D02*
X14034468Y-15269412D01*
X14110658Y-15364650D02*
X14110658Y-15497984D01*
X14110658Y-15383698D02*
X14120182Y-15374174D01*
X14120182Y-15374174D02*
X14139230Y-15364650D01*
X14139230Y-15364650D02*
X14167801Y-15364650D01*
X14167801Y-15364650D02*
X14186849Y-15374174D01*
X14186849Y-15374174D02*
X14196372Y-15393222D01*
X14196372Y-15393222D02*
X14196372Y-15497984D01*
X14320182Y-15497984D02*
X14301134Y-15488460D01*
X14301134Y-15488460D02*
X14291611Y-15478936D01*
X14291611Y-15478936D02*
X14282087Y-15459888D01*
X14282087Y-15459888D02*
X14282087Y-15402746D01*
X14282087Y-15402746D02*
X14291611Y-15383698D01*
X14291611Y-15383698D02*
X14301134Y-15374174D01*
X14301134Y-15374174D02*
X14320182Y-15364650D01*
X14320182Y-15364650D02*
X14348753Y-15364650D01*
X14348753Y-15364650D02*
X14367801Y-15374174D01*
X14367801Y-15374174D02*
X14377325Y-15383698D01*
X14377325Y-15383698D02*
X14386849Y-15402746D01*
X14386849Y-15402746D02*
X14386849Y-15459888D01*
X14386849Y-15459888D02*
X14377325Y-15478936D01*
X14377325Y-15478936D02*
X14367801Y-15488460D01*
X14367801Y-15488460D02*
X14348753Y-15497984D01*
X14348753Y-15497984D02*
X14320182Y-15497984D01*
X14443992Y-15364650D02*
X14520182Y-15364650D01*
X14472563Y-15297984D02*
X14472563Y-15469412D01*
X14472563Y-15469412D02*
X14482087Y-15488460D01*
X14482087Y-15488460D02*
X14501134Y-15497984D01*
X14501134Y-15497984D02*
X14520182Y-15497984D01*
X14739230Y-15364650D02*
X14739230Y-15564650D01*
X14739230Y-15374174D02*
X14758277Y-15364650D01*
X14758277Y-15364650D02*
X14796373Y-15364650D01*
X14796373Y-15364650D02*
X14815420Y-15374174D01*
X14815420Y-15374174D02*
X14824944Y-15383698D01*
X14824944Y-15383698D02*
X14834468Y-15402746D01*
X14834468Y-15402746D02*
X14834468Y-15459888D01*
X14834468Y-15459888D02*
X14824944Y-15478936D01*
X14824944Y-15478936D02*
X14815420Y-15488460D01*
X14815420Y-15488460D02*
X14796373Y-15497984D01*
X14796373Y-15497984D02*
X14758277Y-15497984D01*
X14758277Y-15497984D02*
X14739230Y-15488460D01*
X14948753Y-15497984D02*
X14929706Y-15488460D01*
X14929706Y-15488460D02*
X14920182Y-15469412D01*
X14920182Y-15469412D02*
X14920182Y-15297984D01*
X15110658Y-15497984D02*
X15110658Y-15393222D01*
X15110658Y-15393222D02*
X15101134Y-15374174D01*
X15101134Y-15374174D02*
X15082087Y-15364650D01*
X15082087Y-15364650D02*
X15043992Y-15364650D01*
X15043992Y-15364650D02*
X15024944Y-15374174D01*
X15110658Y-15488460D02*
X15091611Y-15497984D01*
X15091611Y-15497984D02*
X15043992Y-15497984D01*
X15043992Y-15497984D02*
X15024944Y-15488460D01*
X15024944Y-15488460D02*
X15015420Y-15469412D01*
X15015420Y-15469412D02*
X15015420Y-15450365D01*
X15015420Y-15450365D02*
X15024944Y-15431317D01*
X15024944Y-15431317D02*
X15043992Y-15421793D01*
X15043992Y-15421793D02*
X15091611Y-15421793D01*
X15091611Y-15421793D02*
X15110658Y-15412269D01*
X15177325Y-15364650D02*
X15253515Y-15364650D01*
X15205896Y-15297984D02*
X15205896Y-15469412D01*
X15205896Y-15469412D02*
X15215420Y-15488460D01*
X15215420Y-15488460D02*
X15234468Y-15497984D01*
X15234468Y-15497984D02*
X15253515Y-15497984D01*
X15396373Y-15488460D02*
X15377325Y-15497984D01*
X15377325Y-15497984D02*
X15339230Y-15497984D01*
X15339230Y-15497984D02*
X15320182Y-15488460D01*
X15320182Y-15488460D02*
X15310658Y-15469412D01*
X15310658Y-15469412D02*
X15310658Y-15393222D01*
X15310658Y-15393222D02*
X15320182Y-15374174D01*
X15320182Y-15374174D02*
X15339230Y-15364650D01*
X15339230Y-15364650D02*
X15377325Y-15364650D01*
X15377325Y-15364650D02*
X15396373Y-15374174D01*
X15396373Y-15374174D02*
X15405896Y-15393222D01*
X15405896Y-15393222D02*
X15405896Y-15412269D01*
X15405896Y-15412269D02*
X15310658Y-15431317D01*
X15577325Y-15497984D02*
X15577325Y-15297984D01*
X15577325Y-15488460D02*
X15558277Y-15497984D01*
X15558277Y-15497984D02*
X15520182Y-15497984D01*
X15520182Y-15497984D02*
X15501134Y-15488460D01*
X15501134Y-15488460D02*
X15491611Y-15478936D01*
X15491611Y-15478936D02*
X15482087Y-15459888D01*
X15482087Y-15459888D02*
X15482087Y-15402746D01*
X15482087Y-15402746D02*
X15491611Y-15383698D01*
X15491611Y-15383698D02*
X15501134Y-15374174D01*
X15501134Y-15374174D02*
X15520182Y-15364650D01*
X15520182Y-15364650D02*
X15558277Y-15364650D01*
X15558277Y-15364650D02*
X15577325Y-15374174D01*
X15653515Y-15574174D02*
X15663039Y-15564650D01*
X15663039Y-15564650D02*
X15682087Y-15536079D01*
X15682087Y-15536079D02*
X15691611Y-15517031D01*
X15691611Y-15517031D02*
X15701134Y-15488460D01*
X15701134Y-15488460D02*
X15710658Y-15440841D01*
X15710658Y-15440841D02*
X15710658Y-15402746D01*
X15710658Y-15402746D02*
X15701134Y-15355127D01*
X15701134Y-15355127D02*
X15691611Y-15326555D01*
X15691611Y-15326555D02*
X15682087Y-15307508D01*
X15682087Y-15307508D02*
X15663039Y-15278936D01*
X15663039Y-15278936D02*
X15653515Y-15269412D01*
M02*
