G04 #@! TF.GenerationSoftware,KiCad,Pcbnew,8.0.5*
G04 #@! TF.CreationDate,2025-01-19T00:45:49+09:00*
G04 #@! TF.ProjectId,NERD-HPC,4e455244-2d48-4504-932e-6b696361645f,rev?*
G04 #@! TF.SameCoordinates,Original*
G04 #@! TF.FileFunction,Soldermask,Bot*
G04 #@! TF.FilePolarity,Negative*
%FSLAX46Y46*%
G04 Gerber Fmt 4.6, Leading zero omitted, Abs format (unit mm)*
G04 Created by KiCad (PCBNEW 8.0.5) date 2025-01-19 00:45:49*
%MOMM*%
%LPD*%
G01*
G04 APERTURE LIST*
G04 Aperture macros list*
%AMRoundRect*
0 Rectangle with rounded corners*
0 $1 Rounding radius*
0 $2 $3 $4 $5 $6 $7 $8 $9 X,Y pos of 4 corners*
0 Add a 4 corners polygon primitive as box body*
4,1,4,$2,$3,$4,$5,$6,$7,$8,$9,$2,$3,0*
0 Add four circle primitives for the rounded corners*
1,1,$1+$1,$2,$3*
1,1,$1+$1,$4,$5*
1,1,$1+$1,$6,$7*
1,1,$1+$1,$8,$9*
0 Add four rect primitives between the rounded corners*
20,1,$1+$1,$2,$3,$4,$5,0*
20,1,$1+$1,$4,$5,$6,$7,0*
20,1,$1+$1,$6,$7,$8,$9,0*
20,1,$1+$1,$8,$9,$2,$3,0*%
G04 Aperture macros list end*
%ADD10C,2.000000*%
%ADD11R,1.700000X1.700000*%
%ADD12O,1.700000X1.700000*%
%ADD13C,3.200000*%
%ADD14C,1.000000*%
%ADD15RoundRect,0.350000X-1.150000X-0.350000X1.150000X-0.350000X1.150000X0.350000X-1.150000X0.350000X0*%
%ADD16R,1.500000X1.500000*%
%ADD17C,1.600000*%
%ADD18C,1.524000*%
%ADD19RoundRect,0.225000X0.250000X-0.225000X0.250000X0.225000X-0.250000X0.225000X-0.250000X-0.225000X0*%
%ADD20RoundRect,0.200000X-0.275000X0.200000X-0.275000X-0.200000X0.275000X-0.200000X0.275000X0.200000X0*%
%ADD21RoundRect,0.200000X-0.200000X-0.275000X0.200000X-0.275000X0.200000X0.275000X-0.200000X0.275000X0*%
%ADD22RoundRect,0.200000X0.200000X0.275000X-0.200000X0.275000X-0.200000X-0.275000X0.200000X-0.275000X0*%
%ADD23C,0.650000*%
%ADD24R,0.300000X1.150000*%
%ADD25O,1.000000X1.600000*%
%ADD26O,1.000000X2.100000*%
%ADD27RoundRect,0.050000X-0.050000X0.387500X-0.050000X-0.387500X0.050000X-0.387500X0.050000X0.387500X0*%
%ADD28RoundRect,0.050000X-0.387500X0.050000X-0.387500X-0.050000X0.387500X-0.050000X0.387500X0.050000X0*%
%ADD29R,3.200000X3.200000*%
%ADD30R,1.100000X2.000000*%
%ADD31R,0.800000X0.800000*%
%ADD32RoundRect,0.225000X-0.250000X0.225000X-0.250000X-0.225000X0.250000X-0.225000X0.250000X0.225000X0*%
%ADD33R,1.800000X1.800000*%
%ADD34C,1.800000*%
%ADD35RoundRect,0.225000X-0.225000X-0.250000X0.225000X-0.250000X0.225000X0.250000X-0.225000X0.250000X0*%
%ADD36RoundRect,0.225000X0.225000X0.250000X-0.225000X0.250000X-0.225000X-0.250000X0.225000X-0.250000X0*%
%ADD37R,3.500000X1.800000*%
%ADD38R,2.000000X1.100000*%
%ADD39RoundRect,0.250000X0.650000X-0.325000X0.650000X0.325000X-0.650000X0.325000X-0.650000X-0.325000X0*%
%ADD40R,2.000000X2.000000*%
%ADD41RoundRect,0.250000X0.850000X0.350000X-0.850000X0.350000X-0.850000X-0.350000X0.850000X-0.350000X0*%
%ADD42RoundRect,0.249997X2.950003X2.650003X-2.950003X2.650003X-2.950003X-2.650003X2.950003X-2.650003X0*%
%ADD43R,1.600000X1.600000*%
%ADD44O,1.600000X1.600000*%
%ADD45R,0.700000X1.200000*%
%ADD46R,1.000000X0.800000*%
%ADD47R,1.000000X2.800000*%
%ADD48R,1.000000X1.200000*%
%ADD49R,1.300000X1.900000*%
%ADD50RoundRect,0.200000X0.275000X-0.200000X0.275000X0.200000X-0.275000X0.200000X-0.275000X-0.200000X0*%
%ADD51RoundRect,0.150000X0.587500X0.150000X-0.587500X0.150000X-0.587500X-0.150000X0.587500X-0.150000X0*%
%ADD52RoundRect,0.150000X-0.150000X0.587500X-0.150000X-0.587500X0.150000X-0.587500X0.150000X0.587500X0*%
%ADD53RoundRect,0.150000X0.512500X0.150000X-0.512500X0.150000X-0.512500X-0.150000X0.512500X-0.150000X0*%
%ADD54RoundRect,0.062500X-0.062500X0.387500X-0.062500X-0.387500X0.062500X-0.387500X0.062500X0.387500X0*%
%ADD55R,1.600000X0.200000*%
G04 APERTURE END LIST*
D10*
X91492000Y-113574000D03*
X97992000Y-113574000D03*
X91492000Y-118074000D03*
X97992000Y-118074000D03*
X120448000Y-98334000D03*
X126948000Y-98334000D03*
X120448000Y-102834000D03*
X126948000Y-102834000D03*
X216968000Y-113574000D03*
X223468000Y-113574000D03*
X216968000Y-118074000D03*
X223468000Y-118074000D03*
X110796000Y-105954000D03*
X117296000Y-105954000D03*
X110796000Y-110454000D03*
X117296000Y-110454000D03*
X159056000Y-98334000D03*
X165556000Y-98334000D03*
X159056000Y-102834000D03*
X165556000Y-102834000D03*
X120448000Y-121194000D03*
X126948000Y-121194000D03*
X120448000Y-125694000D03*
X126948000Y-125694000D03*
X91492000Y-128814000D03*
X97992000Y-128814000D03*
X91492000Y-133314000D03*
X97992000Y-133314000D03*
X207316000Y-121194000D03*
X213816000Y-121194000D03*
X207316000Y-125694000D03*
X213816000Y-125694000D03*
X207316000Y-105954000D03*
X213816000Y-105954000D03*
X207316000Y-110454000D03*
X213816000Y-110454000D03*
X101144000Y-121194000D03*
X107644000Y-121194000D03*
X101144000Y-125694000D03*
X107644000Y-125694000D03*
X159056000Y-113574000D03*
X165556000Y-113574000D03*
X159056000Y-118074000D03*
X165556000Y-118074000D03*
X178360000Y-86142000D03*
X184860000Y-86142000D03*
X178360000Y-90642000D03*
X184860000Y-90642000D03*
X101144000Y-128814000D03*
X107644000Y-128814000D03*
X101144000Y-133314000D03*
X107644000Y-133314000D03*
X159056000Y-105954000D03*
X165556000Y-105954000D03*
X159056000Y-110454000D03*
X165556000Y-110454000D03*
D11*
X216662000Y-74422000D03*
D12*
X214122000Y-74422000D03*
X211582000Y-74422000D03*
X209042000Y-74422000D03*
X206502000Y-74422000D03*
X203962000Y-74422000D03*
D10*
X197664000Y-105954000D03*
X204164000Y-105954000D03*
X197664000Y-110454000D03*
X204164000Y-110454000D03*
X139752000Y-121194000D03*
X146252000Y-121194000D03*
X139752000Y-125694000D03*
X146252000Y-125694000D03*
X101144000Y-98334000D03*
X107644000Y-98334000D03*
X101144000Y-102834000D03*
X107644000Y-102834000D03*
D13*
X93000000Y-141000000D03*
D10*
X130100000Y-105954000D03*
X136600000Y-105954000D03*
X130100000Y-110454000D03*
X136600000Y-110454000D03*
D14*
X125984000Y-94234000D03*
X124714000Y-94234000D03*
X123444000Y-94234000D03*
X122174000Y-94234000D03*
X120904000Y-94234000D03*
X119634000Y-94234000D03*
X118364000Y-94234000D03*
X117094000Y-94234000D03*
X115824000Y-94234000D03*
X114554000Y-94234000D03*
X113284000Y-94234000D03*
X112014000Y-94234000D03*
X110744000Y-94234000D03*
X109474000Y-94234000D03*
X108204000Y-94234000D03*
X106934000Y-94234000D03*
X105664000Y-94234000D03*
D15*
X109474000Y-91934000D03*
X115824000Y-91934000D03*
D10*
X188012000Y-105954000D03*
X194512000Y-105954000D03*
X188012000Y-110454000D03*
X194512000Y-110454000D03*
D11*
X201422000Y-74422000D03*
D12*
X198882000Y-74422000D03*
X196342000Y-74422000D03*
X193802000Y-74422000D03*
X191262000Y-74422000D03*
X188722000Y-74422000D03*
D10*
X216968000Y-105954000D03*
X223468000Y-105954000D03*
X216968000Y-110454000D03*
X223468000Y-110454000D03*
D13*
X222000000Y-77000000D03*
D10*
X197664000Y-98334000D03*
X204164000Y-98334000D03*
X197664000Y-102834000D03*
X204164000Y-102834000D03*
X188012000Y-113574000D03*
X194512000Y-113574000D03*
X188012000Y-118074000D03*
X194512000Y-118074000D03*
X178360000Y-105954000D03*
X184860000Y-105954000D03*
X178360000Y-110454000D03*
X184860000Y-110454000D03*
X216968000Y-90714000D03*
X223468000Y-90714000D03*
X216968000Y-95214000D03*
X223468000Y-95214000D03*
X207316000Y-98334000D03*
X213816000Y-98334000D03*
X207316000Y-102834000D03*
X213816000Y-102834000D03*
X188012000Y-98334000D03*
X194512000Y-98334000D03*
X188012000Y-102834000D03*
X194512000Y-102834000D03*
X110796000Y-113574000D03*
X117296000Y-113574000D03*
X110796000Y-118074000D03*
X117296000Y-118074000D03*
X139752000Y-113574000D03*
X146252000Y-113574000D03*
X139752000Y-118074000D03*
X146252000Y-118074000D03*
X154904000Y-85142000D03*
X154904000Y-91642000D03*
X150404000Y-85142000D03*
X150404000Y-91642000D03*
X168708000Y-105954000D03*
X175208000Y-105954000D03*
X168708000Y-110454000D03*
X175208000Y-110454000D03*
X130100000Y-98334000D03*
X136600000Y-98334000D03*
X130100000Y-102834000D03*
X136600000Y-102834000D03*
X159056000Y-121194000D03*
X165556000Y-121194000D03*
X159056000Y-125694000D03*
X165556000Y-125694000D03*
X110796000Y-98334000D03*
X117296000Y-98334000D03*
X110796000Y-102834000D03*
X117296000Y-102834000D03*
X168708000Y-121194000D03*
X175208000Y-121194000D03*
X168708000Y-125694000D03*
X175208000Y-125694000D03*
X120448000Y-128814000D03*
X126948000Y-128814000D03*
X120448000Y-133314000D03*
X126948000Y-133314000D03*
X197664000Y-113574000D03*
X204164000Y-113574000D03*
X197664000Y-118074000D03*
X204164000Y-118074000D03*
D16*
X146050000Y-89408000D03*
D17*
X146050000Y-91908000D03*
X146050000Y-86908000D03*
D10*
X130100000Y-113574000D03*
X136600000Y-113574000D03*
X130100000Y-118074000D03*
X136600000Y-118074000D03*
X184860000Y-83022000D03*
X178360000Y-83022000D03*
X184860000Y-78522000D03*
X178360000Y-78522000D03*
D13*
X93000000Y-77000000D03*
D10*
X139752000Y-98334000D03*
X146252000Y-98334000D03*
X139752000Y-102834000D03*
X146252000Y-102834000D03*
X139752000Y-105954000D03*
X146252000Y-105954000D03*
X139752000Y-110454000D03*
X146252000Y-110454000D03*
X101144000Y-105954000D03*
X107644000Y-105954000D03*
X101144000Y-110454000D03*
X107644000Y-110454000D03*
X139752000Y-128814000D03*
X146252000Y-128814000D03*
X139752000Y-133314000D03*
X146252000Y-133314000D03*
X188012000Y-121194000D03*
X194512000Y-121194000D03*
X188012000Y-125694000D03*
X194512000Y-125694000D03*
X178360000Y-113574000D03*
X184860000Y-113574000D03*
X178360000Y-118074000D03*
X184860000Y-118074000D03*
X110796000Y-121194000D03*
X117296000Y-121194000D03*
X110796000Y-125694000D03*
X117296000Y-125694000D03*
X216968000Y-128814000D03*
X223468000Y-128814000D03*
X216968000Y-133314000D03*
X223468000Y-133314000D03*
D18*
X189973949Y-89504051D03*
X191770000Y-87708000D03*
X193566051Y-89504051D03*
D10*
X91492000Y-105954000D03*
X97992000Y-105954000D03*
X91492000Y-110454000D03*
X97992000Y-110454000D03*
X120448000Y-113574000D03*
X126948000Y-113574000D03*
X120448000Y-118074000D03*
X126948000Y-118074000D03*
X101144000Y-113574000D03*
X107644000Y-113574000D03*
X101144000Y-118074000D03*
X107644000Y-118074000D03*
X178360000Y-121194000D03*
X184860000Y-121194000D03*
X178360000Y-125694000D03*
X184860000Y-125694000D03*
X168708000Y-128814000D03*
X175208000Y-128814000D03*
X168708000Y-133314000D03*
X175208000Y-133314000D03*
D13*
X222000000Y-141000000D03*
D10*
X168708000Y-98334000D03*
X175208000Y-98334000D03*
X168708000Y-102834000D03*
X175208000Y-102834000D03*
X178360000Y-98334000D03*
X184860000Y-98334000D03*
X178360000Y-102834000D03*
X184860000Y-102834000D03*
X149404000Y-113574000D03*
X155904000Y-113574000D03*
X149404000Y-118074000D03*
X155904000Y-118074000D03*
X207316000Y-128814000D03*
X213816000Y-128814000D03*
X207316000Y-133314000D03*
X213816000Y-133314000D03*
D16*
X198628000Y-89408000D03*
D17*
X198628000Y-91908000D03*
X198628000Y-86908000D03*
D10*
X91492000Y-98334000D03*
X97992000Y-98334000D03*
X91492000Y-102834000D03*
X97992000Y-102834000D03*
X120448000Y-105954000D03*
X126948000Y-105954000D03*
X120448000Y-110454000D03*
X126948000Y-110454000D03*
X149404000Y-105954000D03*
X155904000Y-105954000D03*
X149404000Y-110454000D03*
X155904000Y-110454000D03*
D16*
X92964000Y-89408000D03*
D17*
X92964000Y-91908000D03*
X92964000Y-86908000D03*
D10*
X149404000Y-121194000D03*
X155904000Y-121194000D03*
X149404000Y-125694000D03*
X155904000Y-125694000D03*
X168708000Y-113574000D03*
X175208000Y-113574000D03*
X168708000Y-118074000D03*
X175208000Y-118074000D03*
X130100000Y-121194000D03*
X136600000Y-121194000D03*
X130100000Y-125694000D03*
X136600000Y-125694000D03*
X91492000Y-121194000D03*
X97992000Y-121194000D03*
X91492000Y-125694000D03*
X97992000Y-125694000D03*
X159056000Y-128814000D03*
X165556000Y-128814000D03*
X159056000Y-133314000D03*
X165556000Y-133314000D03*
X216968000Y-98334000D03*
X223468000Y-98334000D03*
X216968000Y-102834000D03*
X223468000Y-102834000D03*
X197664000Y-128814000D03*
X204164000Y-128814000D03*
X197664000Y-133314000D03*
X204164000Y-133314000D03*
D18*
X137377898Y-89504051D03*
X139173949Y-87708000D03*
X140970000Y-89504051D03*
D10*
X149404000Y-98334000D03*
X155904000Y-98334000D03*
X149404000Y-102834000D03*
X155904000Y-102834000D03*
X178360000Y-128814000D03*
X184860000Y-128814000D03*
X178360000Y-133314000D03*
X184860000Y-133314000D03*
D19*
X100624000Y-80531000D03*
X100624000Y-78981000D03*
D20*
X181610000Y-84519000D03*
X181610000Y-86169000D03*
D21*
X157862000Y-91515000D03*
X159512000Y-91515000D03*
D22*
X219265000Y-81612500D03*
X217615000Y-81612500D03*
D21*
X99033000Y-77470000D03*
X100683000Y-77470000D03*
D23*
X143922000Y-79567000D03*
X149702000Y-79567000D03*
D24*
X143462000Y-80632000D03*
X144262000Y-80632000D03*
X145562000Y-80632000D03*
X146562000Y-80632000D03*
X147062000Y-80632000D03*
X148062000Y-80632000D03*
X149362000Y-80632000D03*
X150162000Y-80632000D03*
X149862000Y-80632000D03*
X149062000Y-80632000D03*
X148562000Y-80632000D03*
X147562000Y-80632000D03*
X146062000Y-80632000D03*
X145062000Y-80632000D03*
X144562000Y-80632000D03*
X143762000Y-80632000D03*
D25*
X142492000Y-75887000D03*
D26*
X142492000Y-80067000D03*
D25*
X151132000Y-75887000D03*
D26*
X151132000Y-80067000D03*
D27*
X106366000Y-79964500D03*
X106766000Y-79964500D03*
X107166000Y-79964500D03*
X107566000Y-79964500D03*
X107966000Y-79964500D03*
X108366000Y-79964500D03*
X108766000Y-79964500D03*
X109166000Y-79964500D03*
X109566000Y-79964500D03*
X109966000Y-79964500D03*
X110366000Y-79964500D03*
X110766000Y-79964500D03*
X111166000Y-79964500D03*
X111566000Y-79964500D03*
D28*
X112403500Y-80802000D03*
X112403500Y-81202000D03*
X112403500Y-81602000D03*
X112403500Y-82002000D03*
X112403500Y-82402000D03*
X112403500Y-82802000D03*
X112403500Y-83202000D03*
X112403500Y-83602000D03*
X112403500Y-84002000D03*
X112403500Y-84402000D03*
X112403500Y-84802000D03*
X112403500Y-85202000D03*
X112403500Y-85602000D03*
X112403500Y-86002000D03*
D27*
X111566000Y-86839500D03*
X111166000Y-86839500D03*
X110766000Y-86839500D03*
X110366000Y-86839500D03*
X109966000Y-86839500D03*
X109566000Y-86839500D03*
X109166000Y-86839500D03*
X108766000Y-86839500D03*
X108366000Y-86839500D03*
X107966000Y-86839500D03*
X107566000Y-86839500D03*
X107166000Y-86839500D03*
X106766000Y-86839500D03*
X106366000Y-86839500D03*
D28*
X105528500Y-86002000D03*
X105528500Y-85602000D03*
X105528500Y-85202000D03*
X105528500Y-84802000D03*
X105528500Y-84402000D03*
X105528500Y-84002000D03*
X105528500Y-83602000D03*
X105528500Y-83202000D03*
X105528500Y-82802000D03*
X105528500Y-82402000D03*
X105528500Y-82002000D03*
X105528500Y-81602000D03*
X105528500Y-81202000D03*
X105528500Y-80802000D03*
D29*
X108966000Y-83402000D03*
D30*
X113538000Y-141158000D03*
D31*
X113538000Y-139258000D03*
D32*
X110018000Y-88633000D03*
X110018000Y-90183000D03*
D21*
X163958000Y-91515000D03*
X165608000Y-91515000D03*
D30*
X133858000Y-87950000D03*
D31*
X133858000Y-89850000D03*
D33*
X173482000Y-77470000D03*
D34*
X176022000Y-77470000D03*
D20*
X148590000Y-82487000D03*
X148590000Y-84137000D03*
D35*
X114033000Y-83058000D03*
X115583000Y-83058000D03*
D32*
X99100000Y-78981000D03*
X99100000Y-80531000D03*
X144018000Y-82537000D03*
X144018000Y-84087000D03*
D36*
X102629000Y-82804000D03*
X101079000Y-82804000D03*
X119901000Y-96012000D03*
X118351000Y-96012000D03*
D19*
X134620000Y-81039000D03*
X134620000Y-79489000D03*
D30*
X123698000Y-141158000D03*
D31*
X123698000Y-139258000D03*
D32*
X104648000Y-95999000D03*
X104648000Y-97549000D03*
D22*
X130189500Y-87056000D03*
X128539500Y-87056000D03*
D20*
X145542000Y-82487000D03*
X145542000Y-84137000D03*
D30*
X187706000Y-76774000D03*
D31*
X187706000Y-78674000D03*
D37*
X213026000Y-94226000D03*
X213026000Y-80526000D03*
X203026000Y-94226000D03*
X203026000Y-80526000D03*
D30*
X128778000Y-141158000D03*
D31*
X128778000Y-139258000D03*
D38*
X219390000Y-87200500D03*
D31*
X217490000Y-87200500D03*
D30*
X131318000Y-141158000D03*
D31*
X131318000Y-139258000D03*
D39*
X173482000Y-91137000D03*
X173482000Y-88187000D03*
D40*
X182880000Y-140156000D03*
D10*
X182880000Y-95456000D03*
D41*
X132470000Y-76472500D03*
X132470000Y-78752500D03*
D42*
X126170000Y-78752500D03*
D41*
X132470000Y-81032500D03*
D30*
X121158000Y-141158000D03*
D31*
X121158000Y-139258000D03*
D21*
X173165000Y-80518000D03*
X174815000Y-80518000D03*
D30*
X116078000Y-141158000D03*
D31*
X116078000Y-139258000D03*
D30*
X118618000Y-141158000D03*
D31*
X118618000Y-139258000D03*
D18*
X179070000Y-76200000D03*
X181610000Y-76200000D03*
X184150000Y-76200000D03*
D43*
X131318000Y-143637000D03*
D44*
X128778000Y-143637000D03*
X126238000Y-143637000D03*
X123698000Y-143637000D03*
X121158000Y-143637000D03*
X118618000Y-143637000D03*
X116078000Y-143637000D03*
X113538000Y-143637000D03*
X110998000Y-143637000D03*
X108458000Y-143637000D03*
X105918000Y-143637000D03*
X103378000Y-143637000D03*
X100838000Y-143637000D03*
X98298000Y-143637000D03*
X98298000Y-136017000D03*
X100838000Y-136017000D03*
X103378000Y-136017000D03*
X105918000Y-136017000D03*
X108458000Y-136017000D03*
X110998000Y-136017000D03*
X113538000Y-136017000D03*
X116078000Y-136017000D03*
X118618000Y-136017000D03*
X121158000Y-136017000D03*
X123698000Y-136017000D03*
X126238000Y-136017000D03*
X128778000Y-136017000D03*
X131318000Y-136017000D03*
D45*
X167113000Y-89565000D03*
X166013000Y-89565000D03*
X164913000Y-89565000D03*
X163813000Y-89565000D03*
X162713000Y-89565000D03*
X161613000Y-89565000D03*
X160513000Y-89565000D03*
X159413000Y-89565000D03*
X158463000Y-89565000D03*
D46*
X157513000Y-79065000D03*
D47*
X157513000Y-74915000D03*
D48*
X157513000Y-85265000D03*
X168663000Y-89565000D03*
D49*
X171013000Y-74465000D03*
D32*
X142494000Y-82537000D03*
X142494000Y-84087000D03*
D40*
X154940000Y-140156000D03*
D10*
X154940000Y-95456000D03*
D19*
X105918000Y-78499000D03*
X105918000Y-76949000D03*
D36*
X102629000Y-84328000D03*
X101079000Y-84328000D03*
X183655000Y-74168000D03*
X182105000Y-74168000D03*
D50*
X105918000Y-139509000D03*
X105918000Y-137859000D03*
X124460000Y-97599000D03*
X124460000Y-95949000D03*
D22*
X151701000Y-82804000D03*
X150051000Y-82804000D03*
D36*
X102629000Y-86614000D03*
X101079000Y-86614000D03*
D35*
X112255000Y-96012000D03*
X113805000Y-96012000D03*
X121399000Y-96012000D03*
X122949000Y-96012000D03*
D22*
X127571000Y-96012000D03*
X125921000Y-96012000D03*
D35*
X109207000Y-96012000D03*
X110757000Y-96012000D03*
D32*
X105410000Y-88887000D03*
X105410000Y-90437000D03*
D36*
X113424000Y-92710000D03*
X111874000Y-92710000D03*
D51*
X129794000Y-88646000D03*
X129794000Y-90546000D03*
X127919000Y-89596000D03*
D21*
X160910000Y-91515000D03*
X162560000Y-91515000D03*
D52*
X217490000Y-83469000D03*
X219390000Y-83469000D03*
X218440000Y-85344000D03*
D36*
X107709000Y-96012000D03*
X106159000Y-96012000D03*
D53*
X119501500Y-81116000D03*
X119501500Y-82066000D03*
X119501500Y-83016000D03*
X117226500Y-83016000D03*
X117226500Y-81116000D03*
D54*
X101902000Y-77668000D03*
X102402000Y-77668000D03*
X102902000Y-77668000D03*
X103402000Y-77668000D03*
X103402000Y-80518000D03*
X102902000Y-80518000D03*
X102402000Y-80518000D03*
X101902000Y-80518000D03*
D55*
X102652000Y-79093000D03*
D38*
X132146000Y-91186000D03*
D31*
X134046000Y-91186000D03*
D36*
X110503000Y-141732000D03*
X108953000Y-141732000D03*
X102629000Y-88138000D03*
X101079000Y-88138000D03*
D32*
X103124000Y-95999000D03*
X103124000Y-97549000D03*
D50*
X147066000Y-84137000D03*
X147066000Y-82487000D03*
D32*
X134620000Y-76441000D03*
X134620000Y-77991000D03*
D50*
X119634000Y-86169000D03*
X119634000Y-84519000D03*
D36*
X102629000Y-89662000D03*
X101079000Y-89662000D03*
D40*
X168910000Y-95556000D03*
D10*
X168910000Y-140256000D03*
D30*
X203962000Y-76774000D03*
D31*
X203962000Y-78674000D03*
D40*
X140970000Y-95556000D03*
D10*
X140970000Y-140256000D03*
D36*
X116853000Y-96012000D03*
X115303000Y-96012000D03*
D35*
X114033000Y-86106000D03*
X115583000Y-86106000D03*
D30*
X126238000Y-141158000D03*
D31*
X126238000Y-139258000D03*
D22*
X115633000Y-81534000D03*
X113983000Y-81534000D03*
D35*
X114033000Y-84582000D03*
X115583000Y-84582000D03*
D19*
X118110000Y-86119000D03*
X118110000Y-84569000D03*
D35*
X110985000Y-77216000D03*
X112535000Y-77216000D03*
D22*
X168656000Y-91515000D03*
X167006000Y-91515000D03*
M02*
